<svg xmlns="http://www.w3.org/2000/svg" width="295" height="85" viewBox="0 0 295 85">
  <g id="Grupo_1110866" data-name="Grupo 1110866" transform="translate(-180.051 -555)">
    <g id="Grupo_1110726" data-name="Grupo 1110726" transform="translate(-1155 -3399)">
      <rect id="Rectángulo_403801" data-name="Rectángulo 403801" width="85" height="85" transform="translate(1335.051 3954)" fill="#f5c87f"/>
      <g id="Grupo_1109269" data-name="Grupo 1109269" transform="translate(1346.052 3905.911)">
        <g id="Grupo_1109268" data-name="Grupo 1109268" transform="translate(0.996 68.07)">
          <path id="Trazado_908588" data-name="Trazado 908588" d="M20.537,318.522S19.068,307.65,8,306.768c0,0,6.367,5.877,7.836,11.754Z" transform="translate(-8 -277.867)" fill="#b7e546"/>
          <path id="Trazado_908589" data-name="Trazado 908589" d="M21.355,137.074a142.524,142.524,0,0,1,7.336,25.453,15.655,15.655,0,0,1,3.537,7.458h3.957S33.373,147.357,21.355,137.074Z" transform="translate(-19.69 -129.33)" fill="#9ec63d"/>
          <path id="Trazado_908590" data-name="Trazado 908590" d="M89.843,92.461s3.027,9.363,4.173,28.524a75.757,75.757,0,0,1,2.118,9.949H100.8S101.19,106.184,89.843,92.461Z" transform="translate(-79.639 -90.279)" fill="#b7e546"/>
          <path id="Trazado_908591" data-name="Trazado 908591" d="M133.8,166.514s14.692,7.109,14.692,29.24H143.74S142.578,177.638,133.8,166.514Z" transform="translate(-118.116 -155.099)" fill="#b7e546"/>
          <g id="Grupo_1109267" data-name="Grupo 1109267" transform="translate(18.946 0)">
            <path id="Trazado_908592" data-name="Trazado 908592" d="M171.879,97.078a178.83,178.83,0,0,0-4.183-22.12c-.917,4.392-1.617,9.328-2.151,14.207A29.362,29.362,0,0,1,171.879,97.078Z" transform="translate(-164.849 -74.958)" fill="#9ec63d"/>
            <path id="Trazado_908593" data-name="Trazado 908593" d="M166.639,236.254s-.821-12.787-6.289-23.472c-.144,1.488-.273,2.958-.389,4.395a88.067,88.067,0,0,1,2.217,19.077Z" transform="translate(-159.961 -195.598)" fill="#9ec63d"/>
            <path id="Trazado_908594" data-name="Trazado 908594" d="M239.594,82.737s-7.4,7.183-9.14,24.876a39.752,39.752,0,0,1,2.642,14.81h3.879s-2.132-20.676,2.619-39.685Z" transform="translate(-221.665 -81.767)" fill="#9ec63d"/>
          </g>
          <path id="Trazado_908595" data-name="Trazado 908595" d="M286.864,256.559s-.934-13.984-5.674-20.579c0,0,8.342,4.208,11.349,20.579Z" transform="translate(-247.129 -215.904)" fill="#b7e546"/>
          <path id="Trazado_908596" data-name="Trazado 908596" d="M418.649,256.559s.934-13.984,5.674-20.579c0,0-8.342,4.208-11.349,20.579Z" transform="translate(-362.484 -215.904)" fill="#9ec63d"/>
          <path id="Trazado_908597" data-name="Trazado 908597" d="M399.736,74.958c-8.438,12.511-8.853,40.655-8.853,40.655h2.754a44.54,44.54,0,0,1,2.972-9.963A263.523,263.523,0,0,1,399.736,74.958Z" transform="translate(-343.146 -74.958)" fill="#b7e546"/>
          <path id="Trazado_908598" data-name="Trazado 908598" d="M343.126,92.461a89.949,89.949,0,0,0-5.007,25.913,41.489,41.489,0,0,1,4.251,12.56H344.7C343.406,114.112,343.126,92.461,343.126,92.461Z" transform="translate(-296.961 -90.279)" fill="#9ec63d"/>
          <path id="Trazado_908599" data-name="Trazado 908599" d="M171.879,97.078a178.83,178.83,0,0,0-4.183-22.12c-.917,4.392-1.617,9.328-2.151,14.207A29.362,29.362,0,0,1,171.879,97.078Z" transform="translate(-145.903 -74.958)" fill="#9ec63d"/>
          <path id="Trazado_908600" data-name="Trazado 908600" d="M67.6,405.53H10.244a2.244,2.244,0,0,1,0-4.488H67.6a2.244,2.244,0,0,1,0,4.488Z" transform="translate(-8 -360.387)" fill="#e9a761"/>
          <path id="Trazado_908601" data-name="Trazado 908601" d="M104.535,385.286h3.957s-.1-.83-.354-2.244h-4.176A13.4,13.4,0,0,1,104.535,385.286Z" transform="translate(-91.998 -344.631)" fill="#93b230"/>
          <path id="Trazado_908602" data-name="Trazado 908602" d="M65.362,385.286h4.7a13.406,13.406,0,0,0-.573-2.244H64.58A14.142,14.142,0,0,1,65.362,385.286Z" transform="translate(-57.526 -344.631)" fill="#abd641"/>
          <path id="Trazado_908603" data-name="Trazado 908603" d="M137.807,385.286h4.669s.013-.82-.035-2.244h-4.989C137.7,384.456,137.807,385.286,137.807,385.286Z" transform="translate(-121.313 -344.631)" fill="#abd641"/>
          <path id="Trazado_908604" data-name="Trazado 908604" d="M177.5,385.286h4.461s-.054-.831-.223-2.244h-4.273C177.514,384.466,177.5,385.286,177.5,385.286Z" transform="translate(-156.338 -344.631)" fill="#93b230"/>
          <path id="Trazado_908605" data-name="Trazado 908605" d="M211.958,385.286h4.752c0-.767-.019-1.513-.053-2.244h-4.922C211.9,384.455,211.958,385.286,211.958,385.286Z" transform="translate(-186.334 -344.631)" fill="#abd641"/>
          <path id="Trazado_908606" data-name="Trazado 908606" d="M251.276,385.286h3.879s-.083-.806-.18-2.244h-3.752Q251.275,384.138,251.276,385.286Z" transform="translate(-220.9 -344.631)" fill="#93b230"/>
          <path id="Trazado_908607" data-name="Trazado 908607" d="M325.192,385.286h5.674q-.214-1.163-.462-2.244h-5.428C325.135,384.43,325.192,385.286,325.192,385.286Z" transform="translate(-285.457 -344.631)" fill="#abd641"/>
          <path id="Trazado_908608" data-name="Trazado 908608" d="M368.97,385.286H371.3q-.085-1.109-.165-2.244h-2.625Q368.755,384.124,368.97,385.286Z" transform="translate(-323.561 -344.631)" fill="#93b230"/>
          <path id="Trazado_908609" data-name="Trazado 908609" d="M390.958,383.042c-.062,1.423-.074,2.244-.074,2.244h2.754q.214-1.163.462-2.244Z" transform="translate(-343.147 -344.631)" fill="#abd641"/>
          <path id="Trazado_908610" data-name="Trazado 908610" d="M413.438,383.042q-.247,1.082-.462,2.244h5.674s.057-.857.215-2.244Z" transform="translate(-362.485 -344.631)" fill="#93b230"/>
          <path id="Trazado_908611" data-name="Trazado 908611" d="M67.6,411.164H10.244A2.241,2.241,0,0,1,8.3,410.042a2.241,2.241,0,0,0,1.941,3.366H67.6a2.241,2.241,0,0,0,1.941-3.366A2.241,2.241,0,0,1,67.6,411.164Z" transform="translate(-8 -368.265)" fill="#c98c55"/>
        </g>
        <path id="Trazado_908612" data-name="Trazado 908612" d="M60.648,107.824H58.233c.317-3.283,1.605-13.822,5.425-19.136A.937.937,0,0,0,62.475,87.3a16.6,16.6,0,0,0-4.867,4.412,27.243,27.243,0,0,0-1.947,2.807,263.764,263.764,0,0,1,2.9-26.337.937.937,0,0,0-1.7-.685,41.156,41.156,0,0,0-5.017,11.707.937.937,0,0,0,1.8.509,51.984,51.984,0,0,1,2.249-6.457c-.77,5.559-1.87,14.868-2.32,25.321a46.09,46.09,0,0,0-2.822,9.243H49.729a139.729,139.729,0,0,1,3-24.513A.937.937,0,1,0,50.9,82.89a115.6,115.6,0,0,0-2.029,11.9c-.586-12.766-.744-24.428-.746-24.587a.937.937,0,0,0-1.818-.306,88.807,88.807,0,0,0-4.882,23.282c-.371-.541-.732-1.027-1.075-1.46a18.7,18.7,0,0,0-4.308-4.08,106.218,106.218,0,0,1,2.747-18.412.937.937,0,0,0-1.561-.9,24.768,24.768,0,0,0-4.107,6.057A51.622,51.622,0,0,0,28.2,90.516c-.108-.208-.219-.414-.331-.62a181.79,181.79,0,0,0-4.194-22.121.937.937,0,0,0-1.82.059c-.751,3.6-1.414,7.832-1.975,12.611a20.269,20.269,0,0,0-2.517-1.667,38.525,38.525,0,0,0-5.481-9.164.937.937,0,0,0-1.614.885A65.244,65.244,0,0,1,11.9,77.478c.591,3.108,1.328,7.728,1.914,13.772-2.793-7.108-6.347-12.538-10.6-16.177a.937.937,0,0,0-1.475,1.069c.019.045,1.885,4.6,3.874,11.253a.937.937,0,1,0,1.8-.536c-.858-2.871-1.694-5.358-2.374-7.273,4.261,5.074,6.991,11.7,8.613,16.8a81.4,81.4,0,0,1,2.732,11.436H14.27a17.214,17.214,0,0,0-2.1-5.114,14.858,14.858,0,0,0-1.344-1.841c-.619-3.334-1.42-6.824-2.386-10.38a.937.937,0,1,0-1.808.491C7.346,93.6,7.968,96.191,8.491,98.7A14.363,14.363,0,0,0,1.01,96.05.937.937,0,0,0,.3,97.672c.057.053,5.363,5,7.22,10.152H3.184a3.185,3.185,0,1,0,0,6.371H19.136a.937.937,0,0,0,0-1.874H3.184a1.312,1.312,0,0,1,0-2.623H60.648a1.312,1.312,0,1,1,0,2.623H22.883a.937.937,0,0,0,0,1.874H60.648a3.185,3.185,0,1,0,0-6.371ZM58.989,92.991q.4-.513.789-.951a47.675,47.675,0,0,0-2.426,8.713c-.593,3.1-.883,5.757-1,7.071H52.664C54.218,100.275,56.935,95.608,58.989,92.991ZM46.362,75.854c.168,7.368.562,20.672,1.394,31.97h-.548a42.364,42.364,0,0,0-4.084-11.849A90.656,90.656,0,0,1,46.362,75.854ZM38.971,92.991c2.054,2.617,4.771,7.284,6.325,14.833H41.611c-.121-1.314-.411-3.969-1-7.071a47.668,47.668,0,0,0-2.426-8.713q.386.438.79.951Zm.756,14.833h-3.61a142.563,142.563,0,0,1-.272-16.457C38.484,96.98,39.457,105.031,39.727,107.824Zm-4.99-32.482c.442-.864.876-1.624,1.282-2.283a127.21,127.21,0,0,0-2.17,22.955c-.045,5.582.237,9.92.388,11.81H32.3a41.06,41.06,0,0,0-2.348-13.317q-.132-.361-.271-.717a51.908,51.908,0,0,1,5.056-18.448ZM22.892,72.477c.7,3.094,1.652,7.775,2.543,13.629-.227-.3-.457-.6-.7-.9A29.547,29.547,0,0,0,21.6,81.881C21.983,78.466,22.414,75.319,22.892,72.477Zm.454,13.988a30.54,30.54,0,0,1,4.869,8.75,39.217,39.217,0,0,1,2.211,12.61H27.472a75.163,75.163,0,0,0-1.631-9.746,57.39,57.39,0,0,0-5.567-14.866A27.461,27.461,0,0,1,23.346,86.464Zm-1.508,8.024c-.255-1.523-.575-3.173-.974-4.895q.031-.387.064-.771a71.2,71.2,0,0,1,4.659,19H23.075A90.818,90.818,0,0,0,21.838,94.489Zm-5.568,4.144A162.347,162.347,0,0,0,13.3,74.912c3.788,6.393,5.711,14.06,6.682,19.851A90.267,90.267,0,0,1,21.2,107.824H18.276A80.4,80.4,0,0,0,16.269,98.632Zm-11.23,1.444c-.5-.625-.991-1.191-1.434-1.683a11.657,11.657,0,0,1,6.938,5.247,15.412,15.412,0,0,1,1.8,4.184H9.495A24.192,24.192,0,0,0,5.039,100.077Z" transform="translate(0)"/>
      </g>
    </g>
    <g id="Grupo_1110727" data-name="Grupo 1110727" transform="translate(-1050 -3399)">
      <rect id="Rectángulo_403801-2" data-name="Rectángulo 403801" width="85" height="85" transform="translate(1335.051 3954)" fill="#f5c87f"/>
      <g id="Grupo_1110746" data-name="Grupo 1110746" transform="translate(1344.576 3897.013)">
        <g id="Grupo_1110729" data-name="Grupo 1110729" transform="translate(0.966 113.676)">
          <g id="Grupo_1110728" data-name="Grupo 1110728" transform="translate(0 0)">
            <path id="Trazado_910240" data-name="Trazado 910240" d="M71.518,374.144H7.5V368.31a2.151,2.151,0,0,1,2.151-2.151H69.367a2.151,2.151,0,0,1,2.151,2.151Z" transform="translate(-7.5 -366.159)" fill="#6dc17d"/>
          </g>
        </g>
        <g id="Grupo_1110731" data-name="Grupo 1110731" transform="translate(3.783 95.494)">
          <g id="Grupo_1110730" data-name="Grupo 1110730">
            <path id="Trazado_910241" data-name="Trazado 910241" d="M60.059,239.084a5.689,5.689,0,0,0,0-2.679l-.007-.031a5.748,5.748,0,0,1-.023-2.594l.093-.417a5.745,5.745,0,0,0,.029-2.36l-.21-1.063A5.749,5.749,0,0,1,59.9,227.9l.287-1.746A.988.988,0,0,0,59.217,225H30.529a.987.987,0,0,0-.974,1.148l.287,1.746a5.746,5.746,0,0,1-.033,2.044L29.6,231a5.746,5.746,0,0,0,.029,2.36l.093.417a5.748,5.748,0,0,1-.023,2.594l-.007.031a5.689,5.689,0,0,0,0,2.679,5.747,5.747,0,0,1,.013,2.666l-.335,1.434H60.38l-.334-1.434a5.745,5.745,0,0,1,.013-2.666Z" transform="translate(-29.366 -225.002)" fill="#f3d332"/>
          </g>
        </g>
        <g id="Grupo_1110733" data-name="Grupo 1110733" transform="translate(17.11 95.494)">
          <g id="Grupo_1110732" data-name="Grupo 1110732">
            <path id="Trazado_910242" data-name="Trazado 910242" d="M132.831,225h4.36v18.182h-4.36Z" transform="translate(-132.831 -225.003)" fill="#a2abb8"/>
          </g>
        </g>
        <g id="Grupo_1110735" data-name="Grupo 1110735" transform="translate(31.153 95.494)">
          <g id="Grupo_1110734" data-name="Grupo 1110734">
            <path id="Trazado_910243" data-name="Trazado 910243" d="M272.55,239.084a5.69,5.69,0,0,0,0-2.679l-.007-.031a5.747,5.747,0,0,1-.023-2.594l.093-.417a5.746,5.746,0,0,0,.029-2.36l-.21-1.063a5.748,5.748,0,0,1-.033-2.044l.287-1.746a.988.988,0,0,0-.974-1.148H243.02a.987.987,0,0,0-.974,1.148l.287,1.746a5.746,5.746,0,0,1-.033,2.044L242.09,231a5.745,5.745,0,0,0,.029,2.36l.093.417a5.748,5.748,0,0,1-.023,2.594l-.007.031a5.69,5.69,0,0,0,0,2.679,5.747,5.747,0,0,1,.013,2.666l-.334,1.434h31.014l-.334-1.434A5.741,5.741,0,0,1,272.55,239.084Z" transform="translate(-241.857 -225.002)" fill="#f7e365"/>
          </g>
        </g>
        <g id="Grupo_1110737" data-name="Grupo 1110737" transform="translate(57.14 95.494)">
          <g id="Grupo_1110736" data-name="Grupo 1110736">
            <path id="Trazado_910244" data-name="Trazado 910244" d="M448.3,241.751a5.747,5.747,0,0,1,.013-2.666,5.689,5.689,0,0,0,0-2.679l-.007-.031a5.748,5.748,0,0,1-.023-2.594l.093-.417A5.746,5.746,0,0,0,448.4,231l-.21-1.063a5.747,5.747,0,0,1-.033-2.044l.287-1.746a.988.988,0,0,0-.974-1.148h-3.864a.987.987,0,0,1,.974,1.148l-.287,1.746a5.746,5.746,0,0,0,.033,2.044l.21,1.063a5.745,5.745,0,0,1-.029,2.36l-.093.417a5.748,5.748,0,0,0,.023,2.594l.007.031a5.69,5.69,0,0,1,0,2.679,5.747,5.747,0,0,0-.013,2.666l.335,1.434h3.864Z" transform="translate(-443.607 -225.003)" fill="#f5de46"/>
          </g>
        </g>
        <g id="Grupo_1110739" data-name="Grupo 1110739" transform="translate(44.48 95.494)">
          <g id="Grupo_1110738" data-name="Grupo 1110738">
            <path id="Trazado_910245" data-name="Trazado 910245" d="M345.321,225h4.36v18.182h-4.36Z" transform="translate(-345.321 -225.003)" fill="#a2abb8"/>
          </g>
        </g>
        <g id="Grupo_1110741" data-name="Grupo 1110741" transform="translate(17.468 77.312)">
          <g id="Grupo_1110740" data-name="Grupo 1110740" transform="translate(0 0)">
            <path id="Trazado_910246" data-name="Trazado 910246" d="M166.3,97.929a5.69,5.69,0,0,0,0-2.679l-.007-.031a5.747,5.747,0,0,1-.023-2.594l.093-.417a5.748,5.748,0,0,0,.029-2.36l-.21-1.063a5.749,5.749,0,0,1-.033-2.044l.287-1.746a.988.988,0,0,0-.974-1.148H136.774a.987.987,0,0,0-.974,1.148l.287,1.746a5.746,5.746,0,0,1-.033,2.044l-.21,1.063a5.746,5.746,0,0,0,.029,2.36l.093.417a5.747,5.747,0,0,1-.023,2.594l-.007.031a5.69,5.69,0,0,0,0,2.679,5.747,5.747,0,0,1,.013,2.666l-.334,1.434h31.014l-.334-1.434a5.743,5.743,0,0,1,.013-2.666Z" transform="translate(-135.611 -83.847)" fill="#f8e883"/>
          </g>
        </g>
        <g id="Grupo_1110743" data-name="Grupo 1110743" transform="translate(43.455 77.312)">
          <g id="Grupo_1110742" data-name="Grupo 1110742" transform="translate(0 0)">
            <path id="Trazado_910247" data-name="Trazado 910247" d="M342.055,100.6a5.747,5.747,0,0,1,.013-2.666,5.689,5.689,0,0,0,0-2.679l-.007-.031a5.747,5.747,0,0,1-.023-2.594l.093-.417a5.745,5.745,0,0,0,.029-2.36l-.21-1.063a5.748,5.748,0,0,1-.033-2.044L342.2,85a.988.988,0,0,0-.974-1.148h-3.864A.987.987,0,0,1,338.336,85l-.287,1.746a5.745,5.745,0,0,0,.033,2.044l.21,1.063a5.744,5.744,0,0,1-.029,2.36l-.093.417a5.748,5.748,0,0,0,.023,2.594l.007.031a5.69,5.69,0,0,1,0,2.679,5.747,5.747,0,0,0-.013,2.666l.334,1.434h3.864Z" transform="translate(-337.362 -83.848)" fill="#f7e365"/>
          </g>
        </g>
        <g id="Grupo_1110745" data-name="Grupo 1110745" transform="translate(30.795 77.312)">
          <g id="Grupo_1110744" data-name="Grupo 1110744" transform="translate(0 0)">
            <path id="Trazado_910248" data-name="Trazado 910248" d="M239.076,83.847h4.36v18.182h-4.36Z" transform="translate(-239.076 -83.847)" fill="#a2abb8"/>
          </g>
        </g>
        <path id="Trazado_910249" data-name="Trazado 910249" d="M62.934,112.713l-.161-.69a4.8,4.8,0,0,1,.011-2.218,6.686,6.686,0,0,0,0-3.135l-.007-.03a4.807,4.807,0,0,1-.019-2.158l.093-.417a6.673,6.673,0,0,0,.033-2.757l-.21-1.063a4.765,4.765,0,0,1-.027-1.7l.287-1.746A1.953,1.953,0,0,0,61,94.528H49.249l-.16-.687a4.8,4.8,0,0,1,.011-2.218,6.682,6.682,0,0,0,0-3.134l-.008-.032A4.807,4.807,0,0,1,49.07,86.3l.093-.417a6.672,6.672,0,0,0,.033-2.757l-.21-1.063a4.759,4.759,0,0,1-.027-1.7l.287-1.746a1.954,1.954,0,0,0-1.928-2.27H23.7a.966.966,0,1,0,0,1.932h6.129V80.76H28.474a.966.966,0,1,0,0,1.932h1.355v2.745h-4.18a.966.966,0,1,0,0,1.932h4.18v2.792H28.474a.966.966,0,1,0,0,1.932h1.355v2.434H18.685l.058-.248a6.746,6.746,0,0,0-.016-3.115,4.743,4.743,0,0,1,0-2.224l.007-.031a6.749,6.749,0,0,0,.026-3.03l-.093-.417a4.75,4.75,0,0,1-.024-1.963l.21-1.063a6.688,6.688,0,0,0,.038-2.388L18.61,78.3a.021.021,0,0,1,.021-.025h1.2a.966.966,0,0,0,0-1.932h-1.2a1.954,1.954,0,0,0-1.928,2.27l.287,1.746a4.766,4.766,0,0,1-.027,1.7l-.21,1.063a6.672,6.672,0,0,0,.033,2.757l.093.417a4.809,4.809,0,0,1-.019,2.158l-.007.031a6.685,6.685,0,0,0,0,3.134,4.8,4.8,0,0,1,.011,2.218l-.16.687H9.386a.966.966,0,0,0,0,1.932h6.758v2.481H14.788a.966.966,0,1,0,0,1.932h1.355v2.745h-4.18a.966.966,0,1,0,0,1.932h4.18v2.792H14.788a.966.966,0,1,0,0,1.932h1.355v2.434H5l.058-.248a6.744,6.744,0,0,0-.015-3.115,4.745,4.745,0,0,1,0-2.224l.007-.031a6.749,6.749,0,0,0,.026-3.03l-.093-.417a4.753,4.753,0,0,1-.024-1.963l.21-1.063a6.694,6.694,0,0,0,.038-2.388l-.287-1.746a.018.018,0,0,1,0-.017.018.018,0,0,1,.016-.008h.576a.966.966,0,0,0,0-1.932H4.946A1.954,1.954,0,0,0,3.018,96.8L3.3,98.544a4.765,4.765,0,0,1-.027,1.7l-.21,1.063a6.673,6.673,0,0,0,.033,2.757l.093.417a4.808,4.808,0,0,1-.019,2.158l-.007.031a6.683,6.683,0,0,0,0,3.134,4.8,4.8,0,0,1,.011,2.218l-.161.69A3.121,3.121,0,0,0,0,115.827v5.834a.966.966,0,0,0,.966.966H64.984a.966.966,0,0,0,.966-.966v-5.834a3.12,3.12,0,0,0-3.015-3.114ZM61.02,96.468a.018.018,0,0,1,0,.017l-.287,1.746a6.694,6.694,0,0,0,.038,2.388l.21,1.063a4.751,4.751,0,0,1-.024,1.963l-.093.417a6.751,6.751,0,0,0,.027,3.031l.007.03a4.743,4.743,0,0,1,0,2.224,6.743,6.743,0,0,0-.015,3.115l.058.248H49.806v-2.434h1.613a.966.966,0,1,0,0-1.932H49.806v-2.792h4.438a.966.966,0,0,0,0-1.932H49.806v-2.745h1.613a.966.966,0,1,0,0-1.932H49.806V96.46H61A.018.018,0,0,1,61.02,96.468ZM22.436,110.276h1.613a.966.966,0,0,0,0-1.932H22.436v-2.792h4.438a.966.966,0,0,0,0-1.932H22.436v-2.745h1.613a.966.966,0,0,0,0-1.932H22.436V96.46h7.929a1.955,1.955,0,0,0,.023.338l.287,1.746a4.766,4.766,0,0,1-.027,1.7l-.21,1.063a6.673,6.673,0,0,0,.033,2.757l.093.417a4.809,4.809,0,0,1-.019,2.158l-.007.031a6.683,6.683,0,0,0,0,3.134,4.8,4.8,0,0,1,.011,2.218l-.16.687H22.436Zm9.977-.928a4.743,4.743,0,0,1,0-2.224l.007-.031a6.751,6.751,0,0,0,.026-3.03l-.093-.417a4.753,4.753,0,0,1-.024-1.963l.21-1.063a6.688,6.688,0,0,0,.038-2.388l-.287-1.746a.018.018,0,0,1,0-.017.018.018,0,0,1,.016-.008h11.2v2.481H42.159a.966.966,0,1,0,0,1.932h1.355v2.745h-4.18a.966.966,0,0,0,0,1.932h4.18v2.792H42.159a.966.966,0,1,0,0,1.932h1.355v2.434H32.37l.058-.248A6.749,6.749,0,0,0,32.413,109.347ZM45.446,96.46h2.428v16.25H45.446Zm1.889-18.174a.018.018,0,0,1,0,.017l-.287,1.746a6.69,6.69,0,0,0,.038,2.387L47.3,83.5a4.752,4.752,0,0,1-.024,1.963l-.093.417a6.748,6.748,0,0,0,.026,3.029l.008.032a4.743,4.743,0,0,1,0,2.224,6.746,6.746,0,0,0-.016,3.115l.058.248H36.121V92.094h1.613a.966.966,0,1,0,0-1.932H36.121V87.369h4.438a.966.966,0,1,0,0-1.932H36.121V82.692h1.613a.966.966,0,1,0,0-1.932H36.121V78.278h11.2A.018.018,0,0,1,47.335,78.286Zm-15.574-.008h2.428v16.25H31.761ZM18.076,96.46H20.5v16.25H18.076ZM64.018,120.7H1.932v-4.868a1.186,1.186,0,0,1,1.185-1.185H62.833a1.186,1.186,0,0,1,1.185,1.185V120.7Z"/>
      </g>
    </g>
    <g id="Grupo_1110747" data-name="Grupo 1110747" transform="translate(-945 -3399)">
      <rect id="Rectángulo_403801-3" data-name="Rectángulo 403801" width="85" height="85" transform="translate(1335.051 3954)" fill="#f5c87f"/>
      <g id="_013---Ricotta" data-name="013---Ricotta" transform="translate(1350.766 3969.718)">
        <g id="Icons" transform="translate(0.893 1.446)">
          <path id="Shape" d="M51.779,42.032a5.7,5.7,0,0,1-1.794,3.919c-3.767,3.982-13.132,6.794-24.1,6.794C11.588,52.745,0,47.951,0,42.032,6.778,6.193,5.552,12.669,6.249,9c0,2.268,3.107,4.642,8.329,6.089a41.35,41.35,0,0,0,9.776,1.375A44.96,44.96,0,0,0,37.844,14.9c4.83-1.464,7.687-3.732,7.687-5.9Z" transform="translate(0 -1.519)" fill="#cc6328"/>
          <path id="Shape-2" data-name="Shape" d="M48.461,9A4.381,4.381,0,0,1,46.4,12.239l5.637,29.793a5.7,5.7,0,0,1-1.794,3.919c-3.63,3.839-12.463,6.58-22.909,6.775.494.012.991.019,1.492.019,10.963,0,20.328-2.812,24.1-6.794a5.7,5.7,0,0,0,1.794-3.919Z" transform="translate(-2.931 -1.519)" fill="#994b1e"/>
          <path id="Shape-3" data-name="Shape" d="M46.281,8.092c0,2.962-4.832,5.045-7.687,5.91a46.374,46.374,0,0,1-22.8.312c-.1,0-.13-.125-.464-.125C12.3,13.352,7,11.22,7,8.092,7.009,4.628,14.3.915,25.3.638,25.739.629,26.185.62,26.64.62,38.38.62,46.272,4.486,46.281,8.092Z" transform="translate(-0.751 -0.62)" fill="#cc6328"/>
          <path id="Shape-4" data-name="Shape" d="M28.822.62c-.351,0-.738,0-1.486.024C38.408.9,45.775,4.611,45.784,8.092c0,2.962-4.832,5.045-7.687,5.91a41.329,41.329,0,0,1-10.636,1.561A43.578,43.578,0,0,0,40.775,14c2.857-.865,7.687-2.946,7.687-5.91C48.453,4.486,40.561.62,28.822.62Z" transform="translate(-2.932 -0.62)" fill="#994b1e"/>
        </g>
        <g id="Layer_10" transform="translate(0)">
          <path id="Shape-5" data-name="Shape" d="M47.309,8.809C47.167,3.86,38.21,0,26.782,0S6.4,3.86,6.255,8.809L.016,41.793A.865.865,0,0,0,0,41.959c0,6.508,11.765,11.606,26.782,11.606s26.782-5.1,26.782-11.606c0-.132.387,1.964-6.255-33.15ZM5.061,24.729q.782.464,1.671.893l-1.356,6.33a.893.893,0,1,0,1.746.373L8.4,26.359a36.749,36.749,0,0,0,4.732,1.518l-1.616,10.19c-3.65-1.136-6.509-2.678-8.148-4.384Zm9.909-8.457-1.557,9.834A34.371,34.371,0,0,1,8.78,24.588L9.8,19.825a.893.893,0,1,0-1.746-.373l-.936,4.37a18.252,18.252,0,0,1-1.7-.975L7.47,12.015c1.435,1.749,4.075,3.226,7.5,4.258ZM25.89,17.845v9.82a56.1,56.1,0,0,1-10.733-1.151l1.551-9.774A42.957,42.957,0,0,0,25.89,17.845Zm11.74-1.3,1.553,9.8a55.293,55.293,0,0,1-11.507,1.321v-9.82A42.123,42.123,0,0,0,37.629,16.546ZM46.1,12.015l2.053,10.833a26.289,26.289,0,0,1-7.226,3.059l-1.57-9.875A14.765,14.765,0,0,0,46.1,12.015ZM14.877,28.282A58.182,58.182,0,0,0,25.89,29.448V40.161a53.708,53.708,0,0,1-12.645-1.6Zm12.8,1.166a57.381,57.381,0,0,0,11.784-1.339l1.624,10.236a52.761,52.761,0,0,1-13.408,1.814Zm-1.785,12.5V51.77a52.251,52.251,0,0,1-14.406-2.112l1.48-9.324A55.811,55.811,0,0,0,25.89,41.945Zm1.785,0a54.821,54.821,0,0,0,13.693-1.824l1.474,9.291A51.314,51.314,0,0,1,27.675,51.77ZM41.2,27.675a29.719,29.719,0,0,0,7.3-2.946l1.7,8.952a18.708,18.708,0,0,1-7.387,4.133ZM26.782,1.785C38,1.785,45.53,5.479,45.53,8.927S38,16.069,26.782,16.069a38.007,38.007,0,0,1-10.726-1.317c-5.023-1.382-8.021-3.65-8.021-5.825C8.035,5.479,15.568,1.785,26.782,1.785Zm-25,40.253,1.189-6.285a23.426,23.426,0,0,0,8.191,4.078c.1.029.192-.777-1.4,9.245C4.934,47.289,1.844,44.777,1.785,42.039Zm42.763,6.748L43.094,39.6a22.659,22.659,0,0,0,7.5-3.849l1.186,6.285c-.056,2.593-2.83,4.984-7.231,6.748Z" transform="translate(0)"/>
          <path id="Shape-6" data-name="Shape" d="M11.9,10.249h13l-3.774,2.329a.893.893,0,0,0,.47,1.652c.366,0,.089.1,5.472-3.221v2.81a.893.893,0,0,0,1.785,0V11.008c5.348,3.3,5.118,3.232,5.481,3.232a.893.893,0,0,0,.47-1.652l-3.783-2.339h13a.893.893,0,1,0,0-1.785H31.2L34.94,6.152A.893.893,0,1,0,34,4.635L28.856,7.809V4.893a.893.893,0,0,0-1.785,0V7.806L21.925,4.625a.893.893,0,1,0-.91,1.537l3.725,2.3H11.9a.893.893,0,1,0,0,1.785Z" transform="translate(-1.181 -0.429)"/>
        </g>
      </g>
    </g>
  </g>
</svg>
