<svg xmlns="http://www.w3.org/2000/svg" width="85" height="67" viewBox="0 0 85 67">
  <g id="Grupo_1109270" data-name="Grupo 1109270" transform="translate(-1335.051 -3954)">
    <rect id="Rectángulo_403801" data-name="Rectángulo 403801" width="85" height="67" transform="translate(1335.051 3954)" fill="#f5c87f"/>
    <g id="Grupo_1109269" data-name="Grupo 1109269" transform="translate(1346.052 3896.911)">
      <g id="Grupo_1109268" data-name="Grupo 1109268" transform="translate(0.996 68.07)">
        <path id="Trazado_908588" data-name="Trazado 908588" d="M20.537,318.522S19.068,307.65,8,306.768c0,0,6.367,5.877,7.836,11.754Z" transform="translate(-8 -277.867)" fill="#b7e546"/>
        <path id="Trazado_908589" data-name="Trazado 908589" d="M21.355,137.074a142.524,142.524,0,0,1,7.336,25.453,15.655,15.655,0,0,1,3.537,7.458h3.957S33.373,147.357,21.355,137.074Z" transform="translate(-19.69 -129.33)" fill="#9ec63d"/>
        <path id="Trazado_908590" data-name="Trazado 908590" d="M89.843,92.461s3.027,9.363,4.173,28.524a75.757,75.757,0,0,1,2.118,9.949H100.8S101.19,106.184,89.843,92.461Z" transform="translate(-79.639 -90.279)" fill="#b7e546"/>
        <path id="Trazado_908591" data-name="Trazado 908591" d="M133.8,166.514s14.692,7.109,14.692,29.24H143.74S142.578,177.638,133.8,166.514Z" transform="translate(-118.116 -155.099)" fill="#b7e546"/>
        <g id="Grupo_1109267" data-name="Grupo 1109267" transform="translate(18.946 0)">
          <path id="Trazado_908592" data-name="Trazado 908592" d="M171.879,97.078a178.83,178.83,0,0,0-4.183-22.12c-.917,4.392-1.617,9.328-2.151,14.207A29.362,29.362,0,0,1,171.879,97.078Z" transform="translate(-164.849 -74.958)" fill="#9ec63d"/>
          <path id="Trazado_908593" data-name="Trazado 908593" d="M166.639,236.254s-.821-12.787-6.289-23.472c-.144,1.488-.273,2.958-.389,4.395a88.067,88.067,0,0,1,2.217,19.077Z" transform="translate(-159.961 -195.598)" fill="#9ec63d"/>
          <path id="Trazado_908594" data-name="Trazado 908594" d="M239.594,82.737s-7.4,7.183-9.14,24.876a39.752,39.752,0,0,1,2.642,14.81h3.879s-2.132-20.676,2.619-39.685Z" transform="translate(-221.665 -81.767)" fill="#9ec63d"/>
        </g>
        <path id="Trazado_908595" data-name="Trazado 908595" d="M286.864,256.559s-.934-13.984-5.674-20.579c0,0,8.342,4.208,11.349,20.579Z" transform="translate(-247.129 -215.904)" fill="#b7e546"/>
        <path id="Trazado_908596" data-name="Trazado 908596" d="M418.649,256.559s.934-13.984,5.674-20.579c0,0-8.342,4.208-11.349,20.579Z" transform="translate(-362.484 -215.904)" fill="#9ec63d"/>
        <path id="Trazado_908597" data-name="Trazado 908597" d="M399.736,74.958c-8.438,12.511-8.853,40.655-8.853,40.655h2.754a44.54,44.54,0,0,1,2.972-9.963A263.523,263.523,0,0,1,399.736,74.958Z" transform="translate(-343.146 -74.958)" fill="#b7e546"/>
        <path id="Trazado_908598" data-name="Trazado 908598" d="M343.126,92.461a89.949,89.949,0,0,0-5.007,25.913,41.489,41.489,0,0,1,4.251,12.56H344.7C343.406,114.112,343.126,92.461,343.126,92.461Z" transform="translate(-296.961 -90.279)" fill="#9ec63d"/>
        <path id="Trazado_908599" data-name="Trazado 908599" d="M171.879,97.078a178.83,178.83,0,0,0-4.183-22.12c-.917,4.392-1.617,9.328-2.151,14.207A29.362,29.362,0,0,1,171.879,97.078Z" transform="translate(-145.903 -74.958)" fill="#9ec63d"/>
        <path id="Trazado_908600" data-name="Trazado 908600" d="M67.6,405.53H10.244a2.244,2.244,0,0,1,0-4.488H67.6a2.244,2.244,0,0,1,0,4.488Z" transform="translate(-8 -360.387)" fill="#e9a761"/>
        <path id="Trazado_908601" data-name="Trazado 908601" d="M104.535,385.286h3.957s-.1-.83-.354-2.244h-4.176A13.4,13.4,0,0,1,104.535,385.286Z" transform="translate(-91.998 -344.631)" fill="#93b230"/>
        <path id="Trazado_908602" data-name="Trazado 908602" d="M65.362,385.286h4.7a13.406,13.406,0,0,0-.573-2.244H64.58A14.142,14.142,0,0,1,65.362,385.286Z" transform="translate(-57.526 -344.631)" fill="#abd641"/>
        <path id="Trazado_908603" data-name="Trazado 908603" d="M137.807,385.286h4.669s.013-.82-.035-2.244h-4.989C137.7,384.456,137.807,385.286,137.807,385.286Z" transform="translate(-121.313 -344.631)" fill="#abd641"/>
        <path id="Trazado_908604" data-name="Trazado 908604" d="M177.5,385.286h4.461s-.054-.831-.223-2.244h-4.273C177.514,384.466,177.5,385.286,177.5,385.286Z" transform="translate(-156.338 -344.631)" fill="#93b230"/>
        <path id="Trazado_908605" data-name="Trazado 908605" d="M211.958,385.286h4.752c0-.767-.019-1.513-.053-2.244h-4.922C211.9,384.455,211.958,385.286,211.958,385.286Z" transform="translate(-186.334 -344.631)" fill="#abd641"/>
        <path id="Trazado_908606" data-name="Trazado 908606" d="M251.276,385.286h3.879s-.083-.806-.18-2.244h-3.752Q251.275,384.138,251.276,385.286Z" transform="translate(-220.9 -344.631)" fill="#93b230"/>
        <path id="Trazado_908607" data-name="Trazado 908607" d="M325.192,385.286h5.674q-.214-1.163-.462-2.244h-5.428C325.135,384.43,325.192,385.286,325.192,385.286Z" transform="translate(-285.457 -344.631)" fill="#abd641"/>
        <path id="Trazado_908608" data-name="Trazado 908608" d="M368.97,385.286H371.3q-.085-1.109-.165-2.244h-2.625Q368.755,384.124,368.97,385.286Z" transform="translate(-323.561 -344.631)" fill="#93b230"/>
        <path id="Trazado_908609" data-name="Trazado 908609" d="M390.958,383.042c-.062,1.423-.074,2.244-.074,2.244h2.754q.214-1.163.462-2.244Z" transform="translate(-343.147 -344.631)" fill="#abd641"/>
        <path id="Trazado_908610" data-name="Trazado 908610" d="M413.438,383.042q-.247,1.082-.462,2.244h5.674s.057-.857.215-2.244Z" transform="translate(-362.485 -344.631)" fill="#93b230"/>
        <path id="Trazado_908611" data-name="Trazado 908611" d="M67.6,411.164H10.244A2.241,2.241,0,0,1,8.3,410.042a2.241,2.241,0,0,0,1.941,3.366H67.6a2.241,2.241,0,0,0,1.941-3.366A2.241,2.241,0,0,1,67.6,411.164Z" transform="translate(-8 -368.265)" fill="#c98c55"/>
      </g>
      <path id="Trazado_908612" data-name="Trazado 908612" d="M60.648,107.824H58.233c.317-3.283,1.605-13.822,5.425-19.136A.937.937,0,0,0,62.475,87.3a16.6,16.6,0,0,0-4.867,4.412,27.243,27.243,0,0,0-1.947,2.807,263.764,263.764,0,0,1,2.9-26.337.937.937,0,0,0-1.7-.685,41.156,41.156,0,0,0-5.017,11.707.937.937,0,0,0,1.8.509,51.984,51.984,0,0,1,2.249-6.457c-.77,5.559-1.87,14.868-2.32,25.321a46.09,46.09,0,0,0-2.822,9.243H49.729a139.729,139.729,0,0,1,3-24.513A.937.937,0,1,0,50.9,82.89a115.6,115.6,0,0,0-2.029,11.9c-.586-12.766-.744-24.428-.746-24.587a.937.937,0,0,0-1.818-.306,88.807,88.807,0,0,0-4.882,23.282c-.371-.541-.732-1.027-1.075-1.46a18.7,18.7,0,0,0-4.308-4.08,106.218,106.218,0,0,1,2.747-18.412.937.937,0,0,0-1.561-.9,24.768,24.768,0,0,0-4.107,6.057A51.622,51.622,0,0,0,28.2,90.516c-.108-.208-.219-.414-.331-.62a181.79,181.79,0,0,0-4.194-22.121.937.937,0,0,0-1.82.059c-.751,3.6-1.414,7.832-1.975,12.611a20.269,20.269,0,0,0-2.517-1.667,38.525,38.525,0,0,0-5.481-9.164.937.937,0,0,0-1.614.885A65.244,65.244,0,0,1,11.9,77.478c.591,3.108,1.328,7.728,1.914,13.772-2.793-7.108-6.347-12.538-10.6-16.177a.937.937,0,0,0-1.475,1.069c.019.045,1.885,4.6,3.874,11.253a.937.937,0,1,0,1.8-.536c-.858-2.871-1.694-5.358-2.374-7.273,4.261,5.074,6.991,11.7,8.613,16.8a81.4,81.4,0,0,1,2.732,11.436H14.27a17.214,17.214,0,0,0-2.1-5.114,14.858,14.858,0,0,0-1.344-1.841c-.619-3.334-1.42-6.824-2.386-10.38a.937.937,0,1,0-1.808.491C7.346,93.6,7.968,96.191,8.491,98.7A14.363,14.363,0,0,0,1.01,96.05.937.937,0,0,0,.3,97.672c.057.053,5.363,5,7.22,10.152H3.184a3.185,3.185,0,1,0,0,6.371H19.136a.937.937,0,0,0,0-1.874H3.184a1.312,1.312,0,0,1,0-2.623H60.648a1.312,1.312,0,1,1,0,2.623H22.883a.937.937,0,0,0,0,1.874H60.648a3.185,3.185,0,1,0,0-6.371ZM58.989,92.991q.4-.513.789-.951a47.675,47.675,0,0,0-2.426,8.713c-.593,3.1-.883,5.757-1,7.071H52.664C54.218,100.275,56.935,95.608,58.989,92.991ZM46.362,75.854c.168,7.368.562,20.672,1.394,31.97h-.548a42.364,42.364,0,0,0-4.084-11.849A90.656,90.656,0,0,1,46.362,75.854ZM38.971,92.991c2.054,2.617,4.771,7.284,6.325,14.833H41.611c-.121-1.314-.411-3.969-1-7.071a47.668,47.668,0,0,0-2.426-8.713q.386.438.79.951Zm.756,14.833h-3.61a142.563,142.563,0,0,1-.272-16.457C38.484,96.98,39.457,105.031,39.727,107.824Zm-4.99-32.482c.442-.864.876-1.624,1.282-2.283a127.21,127.21,0,0,0-2.17,22.955c-.045,5.582.237,9.92.388,11.81H32.3a41.06,41.06,0,0,0-2.348-13.317q-.132-.361-.271-.717a51.908,51.908,0,0,1,5.056-18.448ZM22.892,72.477c.7,3.094,1.652,7.775,2.543,13.629-.227-.3-.457-.6-.7-.9A29.547,29.547,0,0,0,21.6,81.881C21.983,78.466,22.414,75.319,22.892,72.477Zm.454,13.988a30.54,30.54,0,0,1,4.869,8.75,39.217,39.217,0,0,1,2.211,12.61H27.472a75.163,75.163,0,0,0-1.631-9.746,57.39,57.39,0,0,0-5.567-14.866A27.461,27.461,0,0,1,23.346,86.464Zm-1.508,8.024c-.255-1.523-.575-3.173-.974-4.895q.031-.387.064-.771a71.2,71.2,0,0,1,4.659,19H23.075A90.818,90.818,0,0,0,21.838,94.489Zm-5.568,4.144A162.347,162.347,0,0,0,13.3,74.912c3.788,6.393,5.711,14.06,6.682,19.851A90.267,90.267,0,0,1,21.2,107.824H18.276A80.4,80.4,0,0,0,16.269,98.632Zm-11.23,1.444c-.5-.625-.991-1.191-1.434-1.683a11.657,11.657,0,0,1,6.938,5.247,15.412,15.412,0,0,1,1.8,4.184H9.495A24.192,24.192,0,0,0,5.039,100.077Z" transform="translate(0)"/>
    </g>
  </g>
</svg>
