<svg xmlns="http://www.w3.org/2000/svg" width="70" height="70" viewBox="0 0 70 70">
  <g id="Grupo_1110862" data-name="Grupo 1110862" transform="translate(-921.708 -6998)">
    <circle id="Elipse_11654" data-name="Elipse 11654" cx="35" cy="35" r="35" transform="translate(921.708 6998)" fill="#ff7c32"/>
    <path id="Trazado_910902" data-name="Trazado 910902" d="M21.5,23H9.594V20.422l5.484-5.766q2.027-2.309,2.027-3.668a2.551,2.551,0,0,0-.48-1.676,1.715,1.715,0,0,0-1.395-.574,1.737,1.737,0,0,0-1.465.768,3.155,3.155,0,0,0-.562,1.916H9.242a5.6,5.6,0,0,1,.785-2.9,5.506,5.506,0,0,1,2.18-2.08,6.475,6.475,0,0,1,3.117-.75,6.369,6.369,0,0,1,4.26,1.277,4.56,4.56,0,0,1,1.494,3.668A5.326,5.326,0,0,1,20.7,12.6a8.608,8.608,0,0,1-1.166,2,29.372,29.372,0,0,1-2.549,2.807l-2.2,2.543H21.5Z" transform="translate(941.708 7019)" fill="#12263f"/>
  </g>
</svg>
