<svg xmlns="http://www.w3.org/2000/svg" xmlns:xlink="http://www.w3.org/1999/xlink" width="98" height="98" viewBox="0 0 98 98">
  <defs>
    <filter id="Elipse_11666" x="0" y="0" width="98" height="98" filterUnits="userSpaceOnUse">
      <feOffset input="SourceAlpha"/>
      <feGaussianBlur stdDeviation="3" result="blur"/>
      <feFlood flood-opacity="0.161"/>
      <feComposite operator="in" in2="blur"/>
      <feComposite in="SourceGraphic"/>
    </filter>
  </defs>
  <g id="Grupo_1110595" data-name="Grupo 1110595" transform="translate(-646.051 -10459)">
    <g transform="matrix(1, 0, 0, 1, 646.05, 10459)" filter="url(#Elipse_11666)">
      <circle id="Elipse_11666-2" data-name="Elipse 11666" cx="40" cy="40" r="40" transform="translate(9 9)" fill="#fff"/>
    </g>
    <g id="Grupo_1110601" data-name="Grupo 1110601" transform="translate(669.051 10483)">
      <g id="Grupo_1110599" data-name="Grupo 1110599" transform="translate(2.089 0.726)">
        <g id="Grupo_1110598" data-name="Grupo 1110598" transform="translate(0)">
          <path id="Trazado_910064" data-name="Trazado 910064" d="M79.944,58.881a20.534,20.534,0,0,1-20.6,20.9c-3.173,0-6.183-.075-8.882-1.331a21.067,21.067,0,1,1,29-25.369A18.023,18.023,0,0,1,79.944,58.881Z" transform="translate(-35.435 -35.304)" fill="#d8ecfe"/>
          <path id="Trazado_910065" data-name="Trazado 910065" d="M192.7,164.206a24.18,24.18,0,0,1,.39,4.333,26.022,26.022,0,0,1-.881,6.468,24.277,24.277,0,0,1-7.9,12.8,19.191,19.191,0,0,1-3.215,2.112,25.876,25.876,0,0,1-12.048,2.663,23.582,23.582,0,0,1-4.279-.365,20.723,20.723,0,0,0,8.827,1.935,21.071,21.071,0,0,0,19.1-29.945Z" transform="translate(-149.681 -149.045)" fill="#c4e2ff"/>
          <circle id="Elipse_11668" data-name="Elipse 11668" cx="13.833" cy="13.833" r="13.833" transform="translate(10.077 10.209)" fill="#eaf6ff"/>
          <path id="Trazado_910066" data-name="Trazado 910066" d="M25.668,65.155,19.443,54.373a.576.576,0,0,0-.838-.179,24.02,24.02,0,0,0-9.74,16.869.576.576,0,0,0,.574.636H21.888a.577.577,0,0,0,.562-.451,10.577,10.577,0,0,1,3.109-5.381A.578.578,0,0,0,25.668,65.155Z" transform="translate(-8.862 -49.577)" fill="#fe93bb"/>
          <path id="Trazado_910067" data-name="Trazado 910067" d="M161.861,20.952a10.58,10.58,0,0,1,3.108.464.578.578,0,0,0,.672-.261l6.226-10.784a.576.576,0,0,0-.263-.814,24.1,24.1,0,0,0-19.486,0,.576.576,0,0,0-.263.814l6.226,10.784a.578.578,0,0,0,.672.261,10.58,10.58,0,0,1,3.108-.464Z" transform="translate(-137.951 -7.5)" fill="#ade194"/>
          <path id="Trazado_910068" data-name="Trazado 910068" d="M332.487,71.7h8.467l3.7-.2a.576.576,0,0,0,.574-.636c-.713-6.745-4.542-12.212-9.049-16.359a4.555,4.555,0,0,0-.41-.307.576.576,0,0,0-.838.179l-6.225,10.782a.578.578,0,0,0,.11.712,10.577,10.577,0,0,1,3.109,5.381A.578.578,0,0,0,332.487,71.7Z" transform="translate(-297.693 -49.578)" fill="#8ac9fe"/>
          <path id="Trazado_910069" data-name="Trazado 910069" d="M328.709,282.391l3.612,6.256,2.7,3.954a.576.576,0,0,0,.838.179,22.123,22.123,0,0,0,9.331-16.158.576.576,0,0,0-.574-.636l-4.4-.138h-7.729a.577.577,0,0,0-.562.451,10.577,10.577,0,0,1-3.109,5.381A.578.578,0,0,0,328.709,282.391Z" transform="translate(-297.695 -249.885)" fill="#fe93bb"/>
          <path id="Trazado_910070" data-name="Trazado 910070" d="M21.888,275.846H9.438a.576.576,0,0,0-.574.636,24.02,24.02,0,0,0,9.74,16.869.576.576,0,0,0,.838-.179l6.225-10.782a.578.578,0,0,0-.11-.712,10.577,10.577,0,0,1-3.109-5.381A.577.577,0,0,0,21.888,275.846Z" transform="translate(-8.862 -249.884)" fill="#8ac9fe"/>
          <path id="Trazado_910071" data-name="Trazado 910071" d="M166.682,360.88a10.58,10.58,0,0,1-3.108-.464.578.578,0,0,0-.672.261l-5.047,8.743-.662,1.935a.576.576,0,0,0,.263.814,21.4,21.4,0,0,0,9.226,1.756,21.64,21.64,0,0,0,9.257-1.939.576.576,0,0,0,.263-.814l-2.019-4.05-3.721-6.445a.578.578,0,0,0-.672-.261A10.578,10.578,0,0,1,166.682,360.88Z" transform="translate(-142.772 -326.248)" fill="#ade194"/>
          <path id="Trazado_910072" data-name="Trazado 910072" d="M415.994,74.956a24.013,24.013,0,0,0-9.331-16.562,23.936,23.936,0,0,1,4.918,14.571,24.289,24.289,0,0,1-.156,2.628h3.995A.576.576,0,0,0,415.994,74.956Z" transform="translate(-368.176 -53.47)" fill="#60b7ff"/>
          <path id="Trazado_910073" data-name="Trazado 910073" d="M169.362,429.974a19.813,19.813,0,0,1-5.936,2.112c-.239.047-.48.372-.722.413s-.485-.2-.729-.169q-.824.115-1.661.185c-.274.023-.55.324-.826.341s-.552-.252-.829-.242q-.671.024-1.345.024a24.281,24.281,0,0,1-4.279-.365l-1.179,2.042a.576.576,0,0,0,.263.814,24.1,24.1,0,0,0,19.485,0,.576.576,0,0,0,.263-.814Z" transform="translate(-137.951 -389.1)" fill="#97da7b"/>
          <path id="Trazado_910074" data-name="Trazado 910074" d="M379.373,275.846h-4.72c-.271.973-.545,1.86-.838,2.7-.328.945-.407,1.676-.8,2.567-.246.551-.615.916-.867,1.419-.068.136-.288.533-.53.954-.192.334-.219.714-.3.816-.13.168-.425.27-.571.446-.234.284-.489.579-.764.881-.161.177-.227.435-.4.617s-.465.292-.657.479a28.654,28.654,0,0,1-2.168,1.918l2.613,4.527a.576.576,0,0,0,.838.179,24.02,24.02,0,0,0,9.741-16.869A.576.576,0,0,0,379.373,275.846Z" transform="translate(-332.129 -249.884)" fill="#fe76a8"/>
        </g>
      </g>
      <g id="Grupo_1110600" data-name="Grupo 1110600" transform="translate(1.364 0)">
        <path id="Trazado_910075" data-name="Trazado 910075" d="M50.3,26.394a1.305,1.305,0,0,0-.969-.432H47.756c.021-.4.033-.8.033-1.195s-.012-.8-.033-1.195h1.578a1.3,1.3,0,0,0,1.294-1.438A24.8,24.8,0,0,0,40.593,4.756a1.3,1.3,0,0,0-1.893.4l-.787,1.363a21.849,21.849,0,0,0-2.068-1.2l.788-1.365a1.3,1.3,0,0,0-.6-1.841A24.642,24.642,0,0,0,32.084.754a.726.726,0,0,0-.355,1.407,23.2,23.2,0,0,1,3.565,1.216L29.211,13.915a11.357,11.357,0,0,0-6.422,0L16.705,3.378A23.144,23.144,0,0,1,26,1.451a23.718,23.718,0,0,1,2.486.13A.726.726,0,1,0,28.638.139,25.155,25.155,0,0,0,26,0,24.587,24.587,0,0,0,15.963,2.119a1.3,1.3,0,0,0-.6,1.841l.789,1.366a21.883,21.883,0,0,0-2.068,1.2L13.3,5.158a1.3,1.3,0,0,0-1.894-.4A24.9,24.9,0,0,0,3.5,14.4a.726.726,0,1,0,1.318.608,23.44,23.44,0,0,1,7.307-8.981l6.082,10.536A11.259,11.259,0,0,0,15,22.122H2.833a23.255,23.255,0,0,1,.823-4.036.726.726,0,1,0-1.39-.416,24.7,24.7,0,0,0-.894,4.463,1.3,1.3,0,0,0,1.294,1.44H4.244c-.021.4-.033.8-.033,1.195s.012.8.034,1.195H2.666A1.3,1.3,0,0,0,1.371,27.4,24.8,24.8,0,0,0,11.406,44.78a1.3,1.3,0,0,0,1.893-.4l.787-1.363a21.844,21.844,0,0,0,2.068,1.2l-.789,1.366a1.3,1.3,0,0,0,.6,1.84,24.826,24.826,0,0,0,20.074,0,1.3,1.3,0,0,0,.6-1.84l-.789-1.366a21.813,21.813,0,0,0,2.068-1.2l.787,1.364a1.3,1.3,0,0,0,1.894.4A24.8,24.8,0,0,0,50.628,27.4a1.3,1.3,0,0,0-.327-1.006ZM39.874,6.028a23.353,23.353,0,0,1,9.292,16.094h-4.1a.726.726,0,0,0,0,1.451H46.3c.023.4.036.8.036,1.195s-.012.8-.035,1.195H40.508c.032-.4.05-.8.05-1.195s-.018-.8-.05-1.195h1.171a.726.726,0,0,0,0-1.451H37a11.258,11.258,0,0,0-3.212-5.558Zm-4.756.556a20.4,20.4,0,0,1,2.068,1.2l-2.9,5.02a14.567,14.567,0,0,0-2.068-1.2ZM17.71,12.8l-2.9-5.019a20.413,20.413,0,0,1,2.068-1.2l2.9,5.02a14.549,14.549,0,0,0-2.068,1.2ZM12.948,23.573h2.168a1.3,1.3,0,0,0,1.268-1.015,9.819,9.819,0,0,1,2.9-5.013,1.3,1.3,0,0,0,.242-1.6l-1.085-1.88a13.093,13.093,0,0,1,2.068-1.2l1.085,1.88a1.3,1.3,0,0,0,1.125.65,1.321,1.321,0,0,0,.388-.059,9.9,9.9,0,0,1,5.79,0,1.3,1.3,0,0,0,1.514-.592l1.085-1.88a13.108,13.108,0,0,1,2.068,1.2L32.476,15.94a1.3,1.3,0,0,0,.242,1.608,9.815,9.815,0,0,1,2.9,5.01,1.3,1.3,0,0,0,1.269,1.015h2.168c.036.4.055.8.055,1.195s-.019.8-.055,1.195H36.884a1.3,1.3,0,0,0-1.269,1.015,9.814,9.814,0,0,1-2.9,5.012,1.3,1.3,0,0,0-.244,1.606h0l1.085,1.88a13.093,13.093,0,0,1-2.067,1.2l-1.085-1.88a1.3,1.3,0,0,0-1.513-.592,9.911,9.911,0,0,1-5.79,0,1.3,1.3,0,0,0-1.513.592l-1.085,1.88a13.112,13.112,0,0,1-2.068-1.2L19.523,33.6a1.3,1.3,0,0,0-.242-1.608,9.815,9.815,0,0,1-2.9-5.01,1.3,1.3,0,0,0-1.269-1.015H12.947c-.036-.4-.055-.8-.055-1.195s.02-.8.055-1.2Zm-7.251,0h5.795c-.032.4-.05.8-.05,1.195s.018.8.05,1.195H5.7c-.023-.4-.036-.8-.036-1.195s.013-.8.036-1.195Zm9.116,18.182.568-.984a.726.726,0,0,0-1.257-.726l-2,3.462A23.353,23.353,0,0,1,2.833,27.414H15a11.258,11.258,0,0,0,3.212,5.558l-2.39,4.142a.726.726,0,1,0,1.257.725l.637-1.1a14.551,14.551,0,0,0,2.068,1.2l-2.9,5.019a20.405,20.405,0,0,1-2.068-1.2ZM26,48.084a23.139,23.139,0,0,1-9.294-1.927L22.789,35.62a11.368,11.368,0,0,0,6.421,0l6.084,10.537A23.141,23.141,0,0,1,26,48.084Zm9.119-5.133-2.9-5.02a14.554,14.554,0,0,0,2.068-1.2l2.9,5.019a20.411,20.411,0,0,1-2.068,1.2Zm4.755.556L33.791,32.972A11.259,11.259,0,0,0,37,27.413H49.167a23.35,23.35,0,0,1-9.293,16.094Z" transform="translate(-1.364 0)"/>
        <path id="Trazado_910076" data-name="Trazado 910076" d="M61.129,133.327a.726.726,0,0,0,.266.991l4.811,2.778a.726.726,0,1,0,.726-1.257l-1.182-.682,2.612-.75a.726.726,0,0,0-.4-1.395l-3.276.941-.664-2.974a.726.726,0,1,0-1.416.316l.524,2.348-1.008-.582A.726.726,0,0,0,61.129,133.327Z" transform="translate(-55.259 -117.794)"/>
        <path id="Trazado_910077" data-name="Trazado 910077" d="M225.507,395.481a.725.725,0,0,0-.726.726v1.941H223.8a2.459,2.459,0,1,0,0,4.918h1.7a.726.726,0,0,0,.726-.726v-6.133A.726.726,0,0,0,225.507,395.481Zm-.726,6.133H223.8a1.008,1.008,0,1,1,0-2.015h.979Z" transform="translate(-200.032 -357.219)"/>
        <path id="Trazado_910078" data-name="Trazado 910078" d="M403.345,301.655l3.412,1.97a.726.726,0,0,0,.726-1.257l-1.548-.894,2.66-.211a.726.726,0,0,0,.306-1.352l-3.461-2a.726.726,0,1,0-.726,1.257l1.439.831-2.48.2a.782.782,0,0,0-.692.984A.774.774,0,0,0,403.345,301.655Z" transform="translate(-364.1 -269.003)"/>
        <path id="Trazado_910079" data-name="Trazado 910079" d="M374.374,353.748l2.713,1.566a.725.725,0,0,0,1.009-.958A2.109,2.109,0,1,0,374.7,352.4a.725.725,0,0,0-.327,1.353Zm2.411-1.7a.657.657,0,1,1-.657.657A.657.657,0,0,1,376.785,352.049Z" transform="translate(-337.958 -316.678)"/>
        <path id="Trazado_910080" data-name="Trazado 910080" d="M207.84,40.341a.726.726,0,0,0,.638.38h3.3a.726.726,0,1,0,0-1.451h-1.958l2.489-3.82a.726.726,0,0,0-.608-1.122h-3.119a.726.726,0,0,0,0,1.451h1.78L207.87,39.6A.726.726,0,0,0,207.84,40.341Z" transform="translate(-187.784 -31.007)"/>
        <path id="Trazado_910081" data-name="Trazado 910081" d="M268.811,49.526a.725.725,0,0,0-1.21.539v3.353a.726.726,0,1,0,1.451,0V51.8c0-.163.024-.977.494-.977.137,0,.391,0,.391.918V53.4a.726.726,0,0,0,1.451,0v-1.66c0-2.139-1.288-2.37-1.842-2.37A1.822,1.822,0,0,0,268.811,49.526Z" transform="translate(-241.843 -44.566)"/>
        <path id="Trazado_910082" data-name="Trazado 910082" d="M376.426,141.761a.722.722,0,0,0,.362-.1l2.04-1.178.766,1.326a.726.726,0,1,0,1.257-.726l-.766-1.326L381.4,139l.863,1.495a.726.726,0,0,0,1.257-.726l-1.226-2.123a.726.726,0,0,0-.991-.266l-5.238,3.024a.726.726,0,0,0,.364,1.354Z" transform="translate(-339.482 -124.004)"/>
        <path id="Trazado_910083" data-name="Trazado 910083" d="M72.668,343.333a2.714,2.714,0,0,0-.382-.082.726.726,0,1,0-.2,1.437,1.225,1.225,0,0,1,.89.608,1.724,1.724,0,1,1-3.185.856.726.726,0,0,0-1.45-.051,3.175,3.175,0,1,0,5.866-1.574A2.7,2.7,0,0,0,72.668,343.333Z" transform="translate(-61.858 -310.036)"/>
        <path id="Trazado_910084" data-name="Trazado 910084" d="M48.55,297.226A2.31,2.31,0,0,0,49.842,293a.725.725,0,0,0-1-1l-3.044,1.9a.725.725,0,0,0,.46,1.336,2.313,2.313,0,0,0,1.768,1.922A2.332,2.332,0,0,0,48.55,297.226Zm-.863-2.311a.859.859,0,1,1,.859.859A.859.859,0,0,1,47.686,294.915Z" transform="translate(-41.192 -263.654)"/>
        <path id="Trazado_910085" data-name="Trazado 910085" d="M191.292,198.251a.725.725,0,0,0,.843-.585l1.5-8.267,2.391,8.125a1.028,1.028,0,0,0,1.976-.009l2.309-8.121,1.587,8.279a.726.726,0,0,0,1.425-.273l-1.93-10.07a1.018,1.018,0,0,0-1.979-.087L197,195.713l-2.5-8.478a1.018,1.018,0,0,0-1.978.106l-1.821,10.067A.726.726,0,0,0,191.292,198.251Z" transform="translate(-172.378 -168.46)"/>
      </g>
    </g>
  </g>
</svg>
