<svg xmlns="http://www.w3.org/2000/svg" width="110" height="110" viewBox="0 0 110 110">
  <g id="Grupo_1108430" data-name="Grupo 1108430" transform="translate(-578.051 -1074)">
    <path id="Trazado_896605" data-name="Trazado 896605" d="M55,0A55,55,0,1,1,0,55,55,55,0,0,1,55,0Z" transform="translate(578.051 1074)" fill="#ff7c32" opacity="0.859"/>
    <g id="Grupo_1108416" data-name="Grupo 1108416" transform="translate(599.205 1095.154)">
      <g id="Grupo_1108414" data-name="Grupo 1108414" transform="translate(0.999 0.999)">
        <g id="Grupo_1108413" data-name="Grupo 1108413">
          <g id="Grupo_1108406" data-name="Grupo 1108406" transform="translate(10.187)">
            <g id="Grupo_1108405" data-name="Grupo 1108405">
              <path id="Trazado_896527" data-name="Trazado 896527" d="M186.786,40.586c5.752,0,10.415-7.407,10.415-16.543S192.538,7.5,186.786,7.5H162.239V40.586Z" transform="translate(-151.824 -7.5)" fill="#ffe177"/>
              <g id="Grupo_1108404" data-name="Grupo 1108404">
                <path id="Trazado_896528" data-name="Trazado 896528" d="M94.428,7.5c-5.752,0-10.415,7.407-10.415,16.543s4.663,16.543,10.415,16.543,10.415-7.407,10.415-16.543S100.181,7.5,94.428,7.5Z" transform="translate(-84.013 -7.5)" fill="#ffc344"/>
                <path id="Trazado_896529" data-name="Trazado 896529" d="M149.236,7.5a6.754,6.754,0,0,0-2,.305c4.8,1.48,8.418,8.187,8.418,16.238s-3.622,14.758-8.418,16.238a6.75,6.75,0,0,0,2,.305c5.752,0,10.415-7.407,10.415-16.543S154.988,7.5,149.236,7.5Z" transform="translate(-138.821 -7.5)" fill="#feb237"/>
              </g>
            </g>
          </g>
          <g id="Grupo_1108409" data-name="Grupo 1108409" transform="translate(0 33.086)">
            <g id="Grupo_1108408" data-name="Grupo 1108408">
              <path id="Trazado_896530" data-name="Trazado 896530" d="M110.273,289.086c5.752,0,10.415-7.407,10.415-16.543S116.025,256,110.273,256H85.726v33.086Z" transform="translate(-75.311 -256)" fill="#ffe177"/>
              <g id="Grupo_1108407" data-name="Grupo 1108407">
                <path id="Trazado_896531" data-name="Trazado 896531" d="M17.915,256C12.163,256,7.5,263.407,7.5,272.543s4.663,16.543,10.415,16.543,10.415-7.407,10.415-16.543S23.668,256,17.915,256Z" transform="translate(-7.5 -256)" fill="#ffc344"/>
                <path id="Trazado_896532" data-name="Trazado 896532" d="M72.723,256a6.754,6.754,0,0,0-2,.305c4.8,1.48,8.418,8.187,8.418,16.238s-3.622,14.758-8.418,16.238a6.75,6.75,0,0,0,2,.305c5.752,0,10.415-7.407,10.415-16.543S78.475,256,72.723,256Z" transform="translate(-62.308 -256)" fill="#feb237"/>
              </g>
            </g>
          </g>
          <g id="Grupo_1108412" data-name="Grupo 1108412" transform="translate(20.795 33.086)">
            <g id="Grupo_1108411" data-name="Grupo 1108411">
              <path id="Trazado_896533" data-name="Trazado 896533" d="M266.46,289.086c5.752,0,10.415-7.407,10.415-16.543S272.212,256,266.46,256H241.913v33.086Z" transform="translate(-231.498 -256)" fill="#ffe177"/>
              <g id="Grupo_1108410" data-name="Grupo 1108410">
                <path id="Trazado_896534" data-name="Trazado 896534" d="M174.1,256c-5.752,0-10.415,7.407-10.415,16.543s4.663,16.543,10.415,16.543,10.415-7.407,10.415-16.543S179.855,256,174.1,256Z" transform="translate(-163.687 -256)" fill="#ffc344"/>
                <path id="Trazado_896535" data-name="Trazado 896535" d="M228.91,256a6.755,6.755,0,0,0-2,.305c4.8,1.48,8.418,8.187,8.418,16.238s-3.622,14.758-8.418,16.238a6.75,6.75,0,0,0,2,.305c5.752,0,10.415-7.407,10.415-16.543S234.662,256,228.91,256Z" transform="translate(-218.495 -256)" fill="#feb237"/>
              </g>
            </g>
          </g>
        </g>
      </g>
      <g id="Grupo_1108415" data-name="Grupo 1108415" transform="translate(0 0)">
        <path id="Trazado_896536" data-name="Trazado 896536" d="M110.641,58.681a1,1,0,0,0-.293,1.381c1.31,2.016,3.026,3.126,4.832,3.126,4.053,0,7.228-5.465,7.228-12.442s-3.175-12.442-7.228-12.442-7.228,5.465-7.228,12.442a20.33,20.33,0,0,0,.733,5.515,1,1,0,1,0,1.922-.542,18.592,18.592,0,0,1-.658-4.973,16.241,16.241,0,0,1,1.705-7.61c.98-1.8,2.266-2.834,3.526-2.834s2.545,1.033,3.526,2.834a16.241,16.241,0,0,1,1.705,7.61,16.241,16.241,0,0,1-1.705,7.61c-.98,1.8-2.266,2.834-3.526,2.834-1.107,0-2.229-.787-3.158-2.217a1,1,0,0,0-1.381-.293Z" transform="translate(-93.579 -33.205)"/>
        <path id="Trazado_896537" data-name="Trazado 896537" d="M142.778,91.276a1.8,1.8,0,0,1,.49.746,1,1,0,0,0,1.836-.785c-.733-1.716-1.771-1.972-2.325-1.972-1.962,0-2.989,2.846-2.989,5.657s1.027,5.657,2.989,5.657,2.989-2.846,2.989-5.657a1,1,0,1,0-2,0c0,2.212-.68,3.457-.992,3.647-.311-.19-.992-1.435-.992-3.647S142.466,91.47,142.778,91.276Z" transform="translate(-121.179 -77.38)"/>
        <path id="Trazado_896538" data-name="Trazado 896538" d="M45.895,299.247c0-6.977-3.175-12.442-7.228-12.442s-7.228,5.465-7.228,12.442a20.33,20.33,0,0,0,.733,5.515,1,1,0,1,0,1.922-.542,18.592,18.592,0,0,1-.658-4.973,16.241,16.241,0,0,1,1.705-7.61c.98-1.8,2.266-2.834,3.526-2.834s2.545,1.033,3.526,2.834a17.836,17.836,0,0,1,0,15.221c-.98,1.8-2.266,2.834-3.526,2.834-1.107,0-2.229-.787-3.158-2.217a1,1,0,0,0-1.675,1.088c1.31,2.016,3.026,3.126,4.832,3.126C42.72,311.688,45.895,306.223,45.895,299.247Z" transform="translate(-27.253 -248.619)"/>
        <path id="Trazado_896539" data-name="Trazado 896539" d="M66.264,339.776a1.8,1.8,0,0,1,.491.746,1,1,0,0,0,1.836-.785c-.733-1.716-1.771-1.972-2.325-1.972-1.962,0-2.989,2.846-2.989,5.656s1.027,5.657,2.989,5.657,2.989-2.846,2.989-5.657a1,1,0,0,0-2,0c0,2.212-.68,3.457-.992,3.647-.311-.19-.992-1.435-.992-3.647S65.952,339.97,66.264,339.776Z" transform="translate(-54.852 -292.793)"/>
        <path id="Trazado_896540" data-name="Trazado 896540" d="M64.966,38.4c-2.157-3.426-5.072-5.312-8.21-5.312H51.481a13.384,13.384,0,0,0,2.876-3.315,23.22,23.22,0,0,0,3.2-12.23,23.221,23.221,0,0,0-3.2-12.23C52.2,1.887,49.285,0,46.148,0H21.6a8.886,8.886,0,0,0-6.4,2.979,1,1,0,0,0,1.436,1.387A6.946,6.946,0,0,1,21.6,2c2.427,0,4.742,1.555,6.52,4.379a21.212,21.212,0,0,1,2.9,11.166,21.212,21.212,0,0,1-2.9,11.166c-1.778,2.824-4.093,4.379-6.52,4.379s-4.742-1.555-6.52-4.379a21.212,21.212,0,0,1-2.9-11.166A22.127,22.127,0,0,1,14.51,7.368a1,1,0,0,0-1.765-.935,24.152,24.152,0,0,0-2.557,11.108,23.22,23.22,0,0,0,3.2,12.23,13.382,13.382,0,0,0,2.876,3.315H11.414c-3.138,0-6.053,1.887-8.21,5.312A23.22,23.22,0,0,0,0,50.628a23.22,23.22,0,0,0,3.2,12.23c2.157,3.425,5.072,5.312,8.21,5.312H56.756c3.063,0,5.93-1.81,8.072-5.1a1,1,0,0,0-1.673-1.09c-1.761,2.7-4.034,4.19-6.4,4.19H54.415a13.384,13.384,0,0,0,2.876-3.315,23.22,23.22,0,0,0,3.2-12.23,23.221,23.221,0,0,0-3.2-12.23,13.384,13.384,0,0,0-2.876-3.315h2.341c2.427,0,4.742,1.555,6.52,4.379a21.212,21.212,0,0,1,2.9,11.166,23.333,23.333,0,0,1-1.393,8.093c-.209.558-.254,1.31.451,1.588.721.284,1.192-.284,1.419-.887a25.347,25.347,0,0,0,1.52-8.794A23.221,23.221,0,0,0,64.966,38.4ZM46.148,2c2.427,0,4.742,1.555,6.52,4.379a21.212,21.212,0,0,1,2.9,11.166,21.212,21.212,0,0,1-2.9,11.166c-1.778,2.824-4.093,4.379-6.52,4.379h-2.34a13.384,13.384,0,0,0,2.876-3.315,23.22,23.22,0,0,0,3.2-12.23,26.3,26.3,0,0,0-.743-6.265l1.749-3.32a1,1,0,0,0-1.767-.931l-.821,1.558a18.8,18.8,0,0,0-1.622-3.272A13.384,13.384,0,0,0,43.807,2Zm.929,37.465a21.212,21.212,0,0,1,2.9,11.166,24.343,24.343,0,0,1-.667,5.722c0,.008,0,.015-.007.022s0,.014,0,.021a18.331,18.331,0,0,1-2.22,5.4c-1.778,2.824-4.093,4.379-6.52,4.379H37.543a13.384,13.384,0,0,0,2.876-3.315,23.22,23.22,0,0,0,3.2-12.23,23.221,23.221,0,0,0-3.2-12.23,13.382,13.382,0,0,0-2.876-3.315h3.015C42.984,35.084,45.3,36.639,47.077,39.462ZM25.69,61.794a20.8,20.8,0,0,1-2.879-10.233q.033-.932,0-1.865A20.8,20.8,0,0,1,25.69,39.462c1.778-2.824,4.093-4.379,6.52-4.379s4.742,1.555,6.52,4.379a21.212,21.212,0,0,1,2.9,11.166,21.212,21.212,0,0,1-2.9,11.166c-1.778,2.824-4.093,4.379-6.519,4.379S27.468,64.618,25.69,61.794ZM38.474,2c2.427,0,4.742,1.555,6.52,4.379a21.212,21.212,0,0,1,2.9,11.166,21.212,21.212,0,0,1-2.9,11.166c-1.778,2.824-4.093,4.379-6.52,4.379H35.283a13.387,13.387,0,0,0,2.876-3.315c.3-.472.573-.968.831-1.482a.984.984,0,0,0,.056-.113,24.227,24.227,0,0,0,2.318-10.635,23.221,23.221,0,0,0-3.2-12.23A13.387,13.387,0,0,0,35.283,2ZM29.811,29.772a23.22,23.22,0,0,0,3.2-12.23,23.22,23.22,0,0,0-3.2-12.23A13.387,13.387,0,0,0,26.935,2H29.95c2.427,0,4.742,1.555,6.52,4.379a21.212,21.212,0,0,1,2.9,11.166A23.1,23.1,0,0,1,37.9,25.817L36.75,24.268a1,1,0,0,0-1.6,1.194l1.8,2.416c-1.413,2.588-3.826,5.208-7,5.208H26.935a13.392,13.392,0,0,0,2.876-3.315Zm-2.935,5.312A13.384,13.384,0,0,0,24,38.4a19.765,19.765,0,0,0-2.188,4.945A19.767,19.767,0,0,0,19.624,38.4a13.381,13.381,0,0,0-2.876-3.315ZM4.894,61.794A21.212,21.212,0,0,1,2,50.628a21.212,21.212,0,0,1,2.9-11.166c1.778-2.824,4.093-4.379,6.52-4.379s4.742,1.555,6.52,4.379A20.8,20.8,0,0,1,20.812,49.7q-.033.932,0,1.865a20.8,20.8,0,0,1-2.879,10.233c-1.778,2.824-4.093,4.379-6.52,4.379s-4.742-1.555-6.52-4.379Zm11.853,4.379a13.384,13.384,0,0,0,2.876-3.315,19.765,19.765,0,0,0,2.188-4.945A19.767,19.767,0,0,0,24,62.858a13.384,13.384,0,0,0,2.876,3.315ZM55.6,39.462a17.907,17.907,0,0,1,2.028,4.673l-1.449-.34a1,1,0,0,0-.456,1.944l2.4.563a24.89,24.89,0,0,1,.375,4.326,21.212,21.212,0,0,1-2.9,11.166c-1.777,2.824-4.093,4.379-6.519,4.379H45.891a13.384,13.384,0,0,0,2.876-3.315,19.241,19.241,0,0,0,1.893-4.016l.591.816a1,1,0,1,0,1.617-1.172l-1.1-1.524,2.981-1.529a1,1,0,0,0-.911-1.777l-2.18,1.117a27.019,27.019,0,0,0,.317-4.146,23.221,23.221,0,0,0-3.2-12.23,13.384,13.384,0,0,0-2.876-3.315h3.191C51.508,35.084,53.824,36.639,55.6,39.462Z" transform="translate(0 0)"/>
        <path id="Trazado_896541" data-name="Trazado 896541" d="M194.855,286.8c-4.053,0-7.228,5.465-7.228,12.442a20.33,20.33,0,0,0,.733,5.515,1,1,0,1,0,1.922-.542,18.591,18.591,0,0,1-.658-4.973,16.24,16.24,0,0,1,1.705-7.61c.98-1.8,2.266-2.834,3.526-2.834s2.545,1.033,3.526,2.834a17.836,17.836,0,0,1,0,15.221c-.98,1.8-2.266,2.834-3.526,2.834-1.107,0-2.229-.787-3.158-2.217a1,1,0,0,0-1.675,1.088c1.31,2.016,3.026,3.126,4.832,3.126,4.053,0,7.228-5.465,7.228-12.442S198.908,286.8,194.855,286.8Z" transform="translate(-162.646 -248.618)"/>
        <path id="Trazado_896542" data-name="Trazado 896542" d="M222.451,339.776a1.806,1.806,0,0,1,.491.746,1,1,0,0,0,1.837-.785c-.733-1.716-1.771-1.972-2.325-1.972-1.962,0-2.989,2.846-2.989,5.656s1.027,5.657,2.989,5.657,2.989-2.846,2.989-5.657a1,1,0,0,0-2,0c0,2.212-.68,3.457-.992,3.647-.311-.19-.992-1.435-.992-3.647s.678-3.452.99-3.646Z" transform="translate(-190.244 -292.793)"/>
      </g>
    </g>
  </g>
</svg>
