<svg xmlns="http://www.w3.org/2000/svg" width="110" height="110" viewBox="0 0 110 110">
  <g id="Grupo_1108429" data-name="Grupo 1108429" transform="translate(-1207.051 -1074)">
    <path id="Trazado_896607" data-name="Trazado 896607" d="M55,0A55,55,0,1,1,0,55,55,55,0,0,1,55,0Z" transform="translate(1207.051 1074)" fill="#ff7c32" opacity="0.859"/>
    <g id="Grupo_1108428" data-name="Grupo 1108428" transform="translate(1223.128 1095.154)">
      <g id="Grupo_1108427" data-name="Grupo 1108427" transform="translate(1.14 8.149)">
        <ellipse id="Elipse_11632" data-name="Elipse 11632" cx="9.065" cy="6.388" rx="9.065" ry="6.388" transform="translate(53.095 18.131) rotate(-88.568)" fill="#4eb229"/>
        <ellipse id="Elipse_11633" data-name="Elipse 11633" cx="6.388" cy="9.065" rx="6.388" ry="9.065" transform="translate(38.152 9.451) rotate(-38.955)" fill="#8dd470"/>
        <path id="Trazado_896592" data-name="Trazado 896592" d="M234.824,185.208l-4.888,4.431a26.6,26.6,0,0,1-21.923,6.576l-6.845-1.058c-5.147-3.5-7.807-14.964-.763-18.945l33.264,5.141A2.23,2.23,0,0,1,234.824,185.208Z" transform="translate(-167.447 -162.949)" fill="#6dc847"/>
        <path id="Trazado_896593" data-name="Trazado 896593" d="M41.22,188.749,9.391,183.83a2.231,2.231,0,0,1-1.157-3.857l4.89-4.429a26.6,26.6,0,0,1,21.923-6.576l5.41.836c-3.832,4.87-2.276,13.953.763,18.945Z" transform="translate(-7.499 -156.541)" fill="#4eb229"/>
        <path id="Trazado_896594" data-name="Trazado 896594" d="M422.633,189.669l2.325-1.018a2.137,2.137,0,1,0-1.714-3.915l-2.325,1.018a1.905,1.905,0,0,1-1.745-.13,5.092,5.092,0,0,0-4.667-.3c-2.58,1.13-1.615,3.2-.486,5.78s2,4.694,4.576,3.565a5.092,5.092,0,0,0,2.947-3.631,1.905,1.905,0,0,1,1.089-1.37Z" transform="translate(-351.233 -170.024)" fill="#3f8e20"/>
        <path id="Trazado_896595" data-name="Trazado 896595" d="M221.536,246.185l-4.155,5.124a26.6,26.6,0,0,1-20.661,9.848H186.9c-8.373-3.556-10.527-13.564-5.535-18.606H219.8A2.23,2.23,0,0,1,221.536,246.185Z" transform="translate(-152.68 -219.201)" fill="#8dd470"/>
        <path id="Trazado_896596" data-name="Trazado 896596" d="M56.631,261.157H27.314a2.23,2.23,0,0,1-1.732-3.634l4.155-5.125A26.6,26.6,0,0,1,50.4,242.551h.7A16.591,16.591,0,0,0,56.631,261.157Z" transform="translate(-22.408 -219.201)" fill="#6dc847"/>
        <path id="Trazado_896597" data-name="Trazado 896597" d="M428.036,215.84l2.142-1.361a2.137,2.137,0,1,0-2.292-3.608l-2.142,1.361a1.905,1.905,0,0,1-1.745.138,5.092,5.092,0,0,0-4.658.418c-2.378,1.51-1.108,3.409.4,5.787s2.689,4.334,5.067,2.824a5.092,5.092,0,0,0,2.358-4.039A1.9,1.9,0,0,1,428.036,215.84Z" transform="translate(-355.604 -192.056)" fill="#4eb229"/>
        <path id="Trazado_896598" data-name="Trazado 896598" d="M295.487,313.543a9.215,9.215,0,0,1-8.026,9.138,4.161,4.161,0,0,1-.673-2.79c0-5.5-5.21-9.131-7.467-12.392a9.214,9.214,0,0,1,16.167,6.044Z" transform="translate(-237.991 -271.588)" fill="#6dc847"/>
        <path id="Trazado_896599" data-name="Trazado 896599" d="M275.091,337.844a13.725,13.725,0,0,1-.231,2.509,9.218,9.218,0,0,1-10.4-9.138,9.174,9.174,0,0,1,2.259-6.044A13.8,13.8,0,0,1,275.091,337.844Z" transform="translate(-225.391 -289.259)" fill="#4eb229"/>
        <path id="Trazado_896600" data-name="Trazado 896600" d="M110.957,320.172c0,.856-.08,2.053-1.012,2.509a9.213,9.213,0,1,1,8.142-15.18C115.031,310.679,110.957,314.493,110.957,320.172Z" transform="translate(-87.564 -271.588)" fill="#4eb229"/>
        <path id="Trazado_896601" data-name="Trazado 896601" d="M163.821,331.223a9.22,9.22,0,0,1-10.4,9.138,13.781,13.781,0,0,1,8.142-15.18A9.173,9.173,0,0,1,163.821,331.223Z" transform="translate(-131.039 -289.268)" fill="#3f8e20"/>
        <path id="Trazado_896602" data-name="Trazado 896602" d="M231.491,361.587A9.216,9.216,0,0,1,226.034,370c-4.624,0-7.613-4.663-7.613-8.414s2.154-8.167,7.613-8.416A9.216,9.216,0,0,1,231.491,361.587Z" transform="translate(-186.352 -313.002)" fill="#8dd470"/>
        <path id="Trazado_896603" data-name="Trazado 896603" d="M196.159,365.549a9.213,9.213,0,1,1,0-16.83,9.216,9.216,0,0,0,0,16.83Z" transform="translate(-156.477 -308.55)" fill="#6dc847"/>
      </g>
      <path id="Trazado_896604" data-name="Trazado 896604" d="M77.337,62.392a3.306,3.306,0,0,0-.471-.579A3.28,3.28,0,0,0,72.7,57.2L70.37,58.215a.762.762,0,0,1-.7-.064,6.242,6.242,0,0,0-2.114-.789,13.309,13.309,0,0,0,.842-4.388,12.34,12.34,0,0,0-1.9-7.118,6.7,6.7,0,0,0-5.368-3.276c-3.279-.086-6.177,2.688-7.3,6.712a11.452,11.452,0,0,0-4.1-2.208,6.7,6.7,0,0,0-6.211.987c-2.311,1.869-2.891,5.287-1.646,8.769l-6.06-.937c-5.308-2.641-8.844-6.225-9.965-10.108A6.571,6.571,0,0,1,29,38.352a5.545,5.545,0,0,1,3.107-.687,12.739,12.739,0,0,0-1.927,1.782,6.4,6.4,0,0,0,.194,8.881,6.313,6.313,0,0,0,8.916-.161,6.46,6.46,0,0,0-.09-8.84,14.907,14.907,0,0,0-1.166-1.211c2.515.292,4.62,2.179,5.946,5.182a1.14,1.14,0,1,0,2.09-.912c-1.582-3.627-4.284-5.991-7.412-6.487a8.01,8.01,0,0,0-3.555.239,8.786,8.786,0,0,0-1.688-.562,7.823,7.823,0,0,0-5.5.772,8.782,8.782,0,0,0-4.26,10.082,17.073,17.073,0,0,0,6.374,8.582l-1.168-.18a27.705,27.705,0,0,0-8.539.011,1.14,1.14,0,0,0,.354,2.253,25.42,25.42,0,0,1,7.836-.01L61.8,62.229a17.079,17.079,0,0,0,.975,2.6,3.056,3.056,0,0,0-.311.913H29.133a27.622,27.622,0,0,0-16.477,5.414l-9.449-1.46a1.09,1.09,0,0,1-.565-1.884l4.889-4.43a25.345,25.345,0,0,1,8.22-4.993,1.14,1.14,0,0,0-.795-2.138A27.618,27.618,0,0,0,6,61.688l-4.889,4.43a3.37,3.37,0,0,0,1.748,5.828L10.311,73.1a28.011,28.011,0,0,0-2.725,2.911L3.43,81.133a3.37,3.37,0,0,0,2.618,5.493h8.373a10.344,10.344,0,0,0,12.867,8.885,10.351,10.351,0,0,0,19.557,0,10.327,10.327,0,0,0,8.231-1.352,1.14,1.14,0,1,0-1.247-1.91,8.052,8.052,0,0,1-6.477,1.038A10.325,10.325,0,0,0,41.778,82.9,8.072,8.072,0,0,1,57.5,85.486a8.015,8.015,0,0,1-.656,3.191,1.14,1.14,0,0,0,2.094.9,10.341,10.341,0,0,0,.46-6.875,27.588,27.588,0,0,0,7.334-6.348l1.515-1.868a3.672,3.672,0,0,0,2.717-.652A6.255,6.255,0,0,0,73.846,68.9a.762.762,0,0,1,.339-.618l2.143-1.361A3.281,3.281,0,0,0,77.337,62.392ZM34.953,38.626a10.677,10.677,0,0,1,2.522,2.19c1.6,1.848,1.667,4.219.175,5.766a4.029,4.029,0,0,1-5.691.1,4.129,4.129,0,0,1-.071-5.725,9.1,9.1,0,0,1,3.065-2.334ZM71.285,60.3l2.325-1.018a1,1,0,0,1,1.128,1.593,3.251,3.251,0,0,0-1.926.5L70.67,62.744a.762.762,0,0,1-.7.044,6.255,6.255,0,0,0-5.431.353,6.829,6.829,0,0,1-.618-2.068c-.018-.4.042-.8.955-1.2a3.97,3.97,0,0,1,3.624.232A3.055,3.055,0,0,0,71.285,60.3ZM60.986,44.86c2.913.016,5.23,3.728,5.129,8.057a10.653,10.653,0,0,1-1.079,4.511,6.2,6.2,0,0,0-1.079.358,3.638,3.638,0,0,0-2.128,2.065l.226-8.9a1.14,1.14,0,0,0-2.28-.058l-.22,8.676-.951-.147a11.815,11.815,0,0,0-2.856-8.2c.544-3.624,2.774-6.362,5.237-6.362ZM44.953,49.845c2.211-1.789,6.363-.479,9.065,2.861a9.556,9.556,0,0,1,2.327,6.371l-2.808-.434-3.881-4.8a1.14,1.14,0,1,0-1.773,1.434l2.3,2.846-5.656-.874c-1.476-2.938-1.322-5.993.425-7.406ZM24.71,93.559A8.073,8.073,0,1,1,32.356,82.9a10.324,10.324,0,0,0-5.574,10.387,8.034,8.034,0,0,1-2.071.272Zm20.43-1.444a8.073,8.073,0,1,1-8.073-8.073A8.082,8.082,0,0,1,45.14,92.115Zm13.39-11.55a10.351,10.351,0,0,0-18.885,1.522,10.387,10.387,0,0,0-5.158,0,10.352,10.352,0,0,0-20.067,2.26H6.048A1.09,1.09,0,0,1,5.2,82.57l4.155-5.125A25.389,25.389,0,0,1,29.133,68.02H62.817a25.784,25.784,0,0,0,3.43,5.311l-1.289,1.59a25.316,25.316,0,0,1-6.427,5.644ZM75.1,64.991l-2.143,1.361a3.056,3.056,0,0,0-1.394,2.423,3.97,3.97,0,0,1-1.831,3.137c-.806.479-1.074.432-1.526.124a17.5,17.5,0,0,1-3.482-5.48c-.166-.534.239-1.027.761-1.329a3.97,3.97,0,0,1,3.617-.324,3.056,3.056,0,0,0,2.785-.232l2.143-1.361A1,1,0,0,1,75.1,64.991Z" transform="translate(0 -35.381)"/>
    </g>
  </g>
</svg>
