<svg xmlns="http://www.w3.org/2000/svg" xmlns:xlink="http://www.w3.org/1999/xlink" width="150.001" height="145.561" viewBox="0 0 150.001 145.561">
  <defs>
    <clipPath id="clip-path">
      <rect id="Rectángulo_401289" data-name="Rectángulo 401289" width="29.848" height="7.416" fill="#12263f"/>
    </clipPath>
    <clipPath id="clip-path-2">
      <rect id="Rectángulo_401290" data-name="Rectángulo 401290" width="30.519" height="37.401" fill="#727997"/>
    </clipPath>
    <clipPath id="clip-path-3">
      <rect id="Rectángulo_401291" data-name="Rectángulo 401291" width="30.519" height="6.546" fill="#12263f"/>
    </clipPath>
  </defs>
  <g id="Grupo_1110654" data-name="Grupo 1110654" transform="translate(18782.002 4290)">
    <g id="Grupo_1099281" data-name="Grupo 1099281" transform="translate(-18782.002 -4290)">
      <path id="Trazado_873129" data-name="Trazado 873129" d="M130.011,65v80.563H0V65q0-2.041.131-4.041c.048-.919.124-1.831.221-2.743.021-.221.048-.442.076-.656.131-1.2.3-2.383.5-3.558q.383-2.29.933-4.518A65.111,65.111,0,0,1,21.388,16.814c1.451-1.319,2.97-2.577,4.539-3.758a64.629,64.629,0,0,1,15.115-8.49c.988-.394,2-.767,3.012-1.112a64.812,64.812,0,0,1,59.52,9.229c.332.242.656.484.974.732a65.005,65.005,0,0,1,24.724,41.8A65.276,65.276,0,0,1,130.011,65" fill="#fff2eb"/>
      <path id="Trazado_873130" data-name="Trazado 873130" d="M56.122,161.365c-.124.394-.269.788-.428,1.167a18.538,18.538,0,0,1-2.784,4.767A20.168,20.168,0,0,1,48,171.616H0V91.054q0-2.041.131-4.041c.048-.919.124-1.831.221-2.743q.777.352,1.534.767A20.687,20.687,0,0,1,3.917,86.3a20.167,20.167,0,0,1,4.414,4.186v.007c.352.449.677.919.981,1.4.028.041.055.09.083.138a16.1,16.1,0,0,1,1.188,2.3.634.634,0,0,1,.062.159,12.464,12.464,0,0,1,.47,1.319,3.872,3.872,0,0,1,.117.373c.028.09.048.187.069.276.021.069.041.131.055.2.083.318.152.642.207.967.041.207.076.414.1.629.076.484.124.967.159,1.458l.021.332a23.548,23.548,0,0,1-.028,2.418A40.967,40.967,0,0,1,9.547,112.51c-.642,1.907-1.333,3.82-1.955,5.741A33.647,33.647,0,0,0,5.63,128.634a12.327,12.327,0,0,0,.1,1.582c.276,2.01,1.119,3.965,2.915,4.746a4.4,4.4,0,0,0,2.066.325,11.519,11.519,0,0,0,3.475-.926c1.471-.587,2.929-1.216,4.394-1.851,1.962-.843,3.931-1.692,5.934-2.425.421-.159.843-.3,1.271-.449,1.022-.345,2.059-.663,3.109-.926a28.222,28.222,0,0,1,5.043-.815,23.567,23.567,0,0,1,2.418-.041,17.832,17.832,0,0,1,6.48,1.4,13.873,13.873,0,0,1,1.4.691,22.1,22.1,0,0,1,7.15,7.108c.47.684.912,1.389,1.34,2.107.3.511.587,1.022.864,1.547.111.2.214.408.325.615a29.89,29.89,0,0,1,3.233,10.728,22.876,22.876,0,0,1-1.029,9.319" transform="translate(0 -26.055)" fill="#fbe9cc"/>
      <path id="Trazado_873131" data-name="Trazado 873131" d="M147.512,65V79.368c-.7.269-1.423.511-2.141.739-10.328,3.226-21.657,2.307-31.881-1.209-7.965-2.743-16.172-8.069-17.623-16.365-.608-3.516.1-7.108.339-10.673s-.1-7.433-2.4-10.169c-1.962-2.321-5.029-3.426-8.041-3.841-6.431-.884-13.305.85-19.267-1.713-6.528-2.8-10.127-10.362-9.886-17.464.187-5.492,2.363-10.48,4.939-15.219a64.812,64.812,0,0,1,59.52,9.229c.332.242.656.484.974.732a65.006,65.006,0,0,1,24.724,41.8A65.276,65.276,0,0,1,147.512,65" transform="translate(-17.5)" fill="#fbe9cc"/>
      <path id="Trazado_873132" data-name="Trazado 873132" d="M130.011,155.83v37.912H0V165Z" transform="translate(0 -48.18)" fill="#b4c0b4"/>
    </g>
    <g id="Grupo_1099280" data-name="Grupo 1099280" transform="translate(-18711.717 -4275.756)">
      <path id="Trazado_873137" data-name="Trazado 873137" d="M143.663,42.6a21.219,21.219,0,0,0-11.157,38.3l-7.463,12.318,12.524-9.579a21.221,21.221,0,1,0,6.1-41.037" transform="translate(-123.817 -42.55)" fill="#456345"/>
      <rect id="Rectángulo_401286" data-name="Rectángulo 401286" width="0.898" height="17.352" transform="translate(21.745 12.928)" fill="#502750"/>
      <path id="Trazado_873138" data-name="Trazado 873138" d="M151.925,77.7a.7.7,0,0,1-.7-.7V57.5a.7.7,0,0,1,1.4,0V77.007a.7.7,0,0,1-.7.7" transform="translate(-129.73 -45.625)" fill="#fff"/>
      <path id="Trazado_873139" data-name="Trazado 873139" d="M157.078,75.929a.7.7,0,0,1-.7-.7V60.538a.7.7,0,0,1,1.4,0V75.231a.7.7,0,0,1-.7.7" transform="translate(-130.842 -46.28)" fill="#fff"/>
      <path id="Trazado_873140" data-name="Trazado 873140" d="M146.167,75.929a.7.7,0,0,1-.7-.7V60.538a.7.7,0,0,1,1.4,0V75.231a.7.7,0,0,1-.7.7" transform="translate(-128.488 -46.28)" fill="#fff"/>
      <path id="Trazado_873141" data-name="Trazado 873141" d="M162.231,74.653a.7.7,0,0,1-.7-.7V62.783a.7.7,0,0,1,1.4,0V73.955a.7.7,0,0,1-.7.7" transform="translate(-131.953 -46.765)" fill="#fff"/>
      <path id="Trazado_873142" data-name="Trazado 873142" d="M141.317,74.653a.7.7,0,0,1-.7-.7V62.783a.7.7,0,0,1,1.4,0V73.955a.7.7,0,0,1-.7.7" transform="translate(-127.44 -46.765)" fill="#fff"/>
      <path id="Trazado_873143" data-name="Trazado 873143" d="M166.776,73.032a.7.7,0,0,1-.7-.7v-6.7a.7.7,0,0,1,1.4,0v6.7a.7.7,0,0,1-.7.7" transform="translate(-132.934 -47.38)" fill="#fff"/>
      <path id="Trazado_873144" data-name="Trazado 873144" d="M136.165,73.032a.7.7,0,0,1-.7-.7v-6.7a.7.7,0,0,1,1.4,0v6.7a.7.7,0,0,1-.7.7" transform="translate(-126.33 -47.38)" fill="#fff"/>
    </g>
    <g id="Grupo_1099277" data-name="Grupo 1099277" transform="translate(-18776.695 -4260.174)">
      <rect id="Rectángulo_401288" data-name="Rectángulo 401288" width="21.039" height="3.312" transform="translate(13.919 66.235)" fill="#12263f"/>
      <path id="Trazado_873157" data-name="Trazado 873157" d="M10.877,124.76H4.838a2.825,2.825,0,0,1-2.825-2.825V119.6a2.824,2.824,0,0,1,2.825-2.824h6.039Z" transform="translate(-0.562 -76.934)" fill="#12263f"/>
      <path id="Trazado_873158" data-name="Trazado 873158" d="M46.924,124.76h6.039a2.825,2.825,0,0,0,2.825-2.825V119.6a2.824,2.824,0,0,0-2.825-2.824H46.924Z" transform="translate(-9.725 -76.934)" fill="#12263f"/>
      <path id="Trazado_873159" data-name="Trazado 873159" d="M41.5,90.336v.008c0,.786-.008,1.511-.03,2.144,0,.115-.008.221-.008.328-.023.725-.053,1.32-.068,1.74-.015.3-.023.5-.031.6v.069s-.679.007-1.839.022c-.076,0-.152.008-.228.008-.931.007-2.136.023-3.525.045h-.228l-1.527.023c-.115,0-.228.008-.343.008l-1.656.022h-.229c-1.137.016-2.327.031-3.524.046a.081.081,0,0,1-.038.008H27.87c-1.121.022-2.251.038-3.365.053h-.22c-.634.007-1.259.022-1.878.03h-.35l-1.3.023c-.076,0-.145.007-.221.007-1.259.015-2.449.038-3.525.061h-.435c-.122.008-.236.008-.351.008-2.785.053-4.647.1-4.67.122,0,0-.007-.107-.007-.3,0-.076-.008-.161,0-.259a2.065,2.065,0,0,1-.008-.229c-.007-.77.015-2.052.13-3.639.008-.076.008-.161.015-.236.069-.825.161-1.733.283-2.686.015-.092.031-.183.038-.282.008-.031.008-.054.015-.084.038-.267.076-.534.115-.809.015-.084.023-.168.038-.259.145-1.03.3-2.105.5-3.2.015-.084.03-.176.053-.267.031-.168.061-.343.092-.519a2.475,2.475,0,0,0,.053-.259,30.13,30.13,0,0,1,.8-3.136,2.054,2.054,0,0,1,.076-.236c.107-.344.228-.679.351-1.015.045-.1.084-.206.122-.306a17.208,17.208,0,0,1,.915-1.93c.038-.061.068-.122.107-.183a12.509,12.509,0,0,1,1.893-2.494,1.866,1.866,0,0,1,.137-.13A10.567,10.567,0,0,1,19.66,71.49c.053-.03.107-.06.167-.092a12.588,12.588,0,0,1,2.853-1.053c.061-.015.13-.03.2-.045a17.262,17.262,0,0,1,3.3-.389h.161a.1.1,0,0,1,.068,0c.092-.008.191-.008.283-.008h.053a17.165,17.165,0,0,1,3.441.336c.1.023.191.046.275.068.236.054.466.115.694.184a1.307,1.307,0,0,1,.236.068,11.856,11.856,0,0,1,3.136,1.473c.061.038.115.076.168.115a11.607,11.607,0,0,1,2.266,2.045c.038.045.084.092.122.145A14.173,14.173,0,0,1,38.735,76.8c.03.053.061.107.092.168a19.737,19.737,0,0,1,1.167,2.777c.016.061.039.13.061.191a24.881,24.881,0,0,1,.77,3.044c.016.069.031.13.046.2.206,1.106.351,2.2.443,3.265.007.053.007.107.015.153,0,.023.008.038.008.061v.007c.007.115.015.221.022.328.092,1.106.123,2.159.13,3.121a2.056,2.056,0,0,1,.008.221" transform="translate(-2.505 -67.37)" fill="#727997"/>
      <g id="Grupo_1099282" data-name="Grupo 1099282" transform="translate(9.036 2.511)">
        <path id="Trazado_873160" data-name="Trazado 873160" d="M27.068,69.905c.092-.008.191-.008.283-.008l-.2.13-.161.107-2.464,1.64-.16.107L21.9,73.529l-.152.1-2.472,1.648-.153.1-2.464,1.64-.153.107-1.754,1.168c.045-.1.084-.206.122-.306L16.4,76.97l.16-.107,2.465-1.64.152-.107,2.464-1.64.161-.107,2.464-1.64.16-.107,2.457-1.64L27,69.905l.045-.03Z" transform="translate(-12.198 -69.875)" fill="#12263f"/>
        <path id="Trazado_873161" data-name="Trazado 873161" d="M31.722,70.71l-.527.351-.161.107-2.464,1.64-.159.107-2.464,1.64-.161.107L23.33,76.3l-.161.107L20.7,78.058l-.16.1L18.088,79.8l-.16.107-2.464,1.648-.16.1-2.159,1.442a2.533,2.533,0,0,0,.053-.259l2-1.336.161-.107,2.464-1.64.16-.107L20.444,78,20.6,77.9l2.463-1.64.161-.107,2.465-1.64.16-.107L28.3,72.755l.16-.107,2.464-1.64.16-.107.4-.259a1.394,1.394,0,0,1,.236.068" transform="translate(-11.869 -70.032)" fill="#12263f"/>
        <path id="Trazado_873162" data-name="Trazado 873162" d="M34.851,72.692l-2.083,1.389-.16.107-2.457,1.64-.16.107-2.464,1.64-.161.107L24.9,79.322l-.16.107-2.464,1.64-.153.107-2.464,1.64-.161.107-2.464,1.64-.16.107-2.464,1.64-.161.107L12.29,87.73c.015-.084.023-.167.038-.259l1.816-1.213.161-.107,2.464-1.64.16-.107,2.464-1.64.161-.107,2.464-1.64.152-.107,2.465-1.64.16-.107,2.464-1.64.16-.107,2.465-1.64.16-.107,2.457-1.64.16-.107,2.022-1.343c.061.038.115.076.168.115" transform="translate(-11.695 -70.426)" fill="#12263f"/>
        <path id="Trazado_873163" data-name="Trazado 873163" d="M37.121,75.436,34.4,77.252l-.16.107L31.773,79l-.161.107-2.456,1.64-.161.107L26.531,82.5l-.16.1-2.464,1.648-.161.1L21.288,86l-.16.1-2.464,1.648-.16.107L16.04,89.49l-.161.107-2.456,1.64-.161.107-1.556,1.038c.007-.076.007-.16.015-.236l1.434-.962.16-.107,2.465-1.64.16-.107L18.4,87.69l.16-.107,2.464-1.64.16-.107,2.465-1.64.152-.107,2.464-1.64.161-.107,2.463-1.64.16-.107,2.465-1.64.161-.107,2.464-1.64.16-.107L37,75.291c.038.046.084.092.123.145" transform="translate(-11.574 -70.98)" fill="#12263f"/>
        <path id="Trazado_873164" data-name="Trazado 873164" d="M38.826,78.737l-2.716,1.808-.161.107-2.456,1.64-.161.107-2.464,1.64-.16.107-2.464,1.64-.161.107-2.464,1.648-.153.1L23,89.289l-.16.1-2.464,1.648-.161.107-2.456,1.64-.16.107-2.465,1.64-.16.107L11.55,96.919a2.057,2.057,0,0,1-.008-.229l3.327-2.213.16-.107,2.464-1.64.161-.107,2.464-1.64.153-.107,2.464-1.64.16-.107,2.464-1.64.153-.107,2.464-1.648.16-.1L30.6,83.986l.16-.107,2.464-1.64.16-.107,2.465-1.64.16-.107,2.724-1.816c.03.053.061.107.092.168" transform="translate(-11.541 -71.649)" fill="#12263f"/>
        <path id="Trazado_873165" data-name="Trazado 873165" d="M41.256,82.459l-2.19,1.458-.16.107-2.465,1.648-.16.107-2.464,1.64-.16.107-2.465,1.64-.16.107-2.464,1.64v.008l-.153.1-2.464,1.64-.16.107-2.464,1.648-.153.1-2.464,1.648-.161.1L18.084,97.91l-.3.2h-.007c-.123.008-.236.008-.351.008l.389-.259.16-.107L20.441,96.1l.16-.1,2.465-1.648.152-.1,2.465-1.648.16-.106,2.464-1.64.153-.1v-.007l2.472-1.64.152-.107,2.464-1.64.161-.107,2.464-1.64.16-.107L38.8,83.864l.161-.107,2.235-1.488a1.7,1.7,0,0,0,.061.19" transform="translate(-12.744 -72.404)" fill="#12263f"/>
        <path id="Trazado_873166" data-name="Trazado 873166" d="M43.567,86.531l-1.259.84-.16.107-2.464,1.648-.16.107-2.465,1.64-.16.107-2.464,1.64-.153.107-2.464,1.64-.16.107-2.464,1.64-.153.107-2.472,1.648-.153.1-1.312.877h-.351l1.556-1.037.153-.1,2.472-1.648.152-.107,2.464-1.64.161-.107,2.464-1.64.153-.107,2.464-1.64.16-.107,2.464-1.64.161-.107,2.464-1.648.16-.107,1.32-.877c.015.068.03.13.045.2" transform="translate(-14.237 -73.233)" fill="#12263f"/>
        <path id="Trazado_873167" data-name="Trazado 873167" d="M45.546,90.883l-.024.015v.008l-.136.084-2.465,1.64-.16.107L40.3,94.385l-.161.107-2.464,1.64-.159.107-2.464,1.64-.161.107-2.464,1.64-.023.023h-.351l.115-.076.153-.107,2.463-1.64.16-.107,2.465-1.64.16-.107,2.465-1.64.16-.107,2.456-1.648.16-.107,2.464-1.64.161-.107.061-.038c.008.053.008.107.015.153Z" transform="translate(-15.728 -74.121)" fill="#12263f"/>
        <path id="Trazado_873168" data-name="Trazado 873168" d="M47.169,95.517v.008l-1.015.671-.16.107-2.464,1.64-.161.107-2.456,1.64-.161.107-1.068.709c-.115,0-.228.008-.343.008l1.3-.87.16-.107,2.465-1.648.16-.107,2.464-1.64.16-.107,1.106-.74a2.057,2.057,0,0,1,.008.221" transform="translate(-17.215 -75.062)" fill="#12263f"/>
        <path id="Trazado_873169" data-name="Trazado 873169" d="M46.117,86.752c.008.115.015.221.023.328l-.161-.244-.107-.16-1.64-2.464-.107-.16-1.64-2.465-.107-.16L40.73,78.97l-.1-.161-1.648-2.464-.1-.153-1.648-2.464-.107-.16L35.489,71.1l-.107-.161-.412-.618c.1.023.191.045.275.068l.3.443.107.161,1.64,2.464.107.16,1.648,2.464.1.153L40.792,78.7l.1.16,1.648,2.457.107.16,1.64,2.465.107.16,1.64,2.464.076.115.031.045-.023.015Z" transform="translate(-16.322 -69.967)" fill="#12263f"/>
        <path id="Trazado_873170" data-name="Trazado 873170" d="M45.22,92.482c0,.115-.008.221-.008.328l-1.137-1.694-.1-.16-1.648-2.464-.107-.161-1.64-2.456-.107-.161-1.64-2.464-.107-.16-1.64-2.464-.107-.161L35.332,78l-.1-.152-1.64-2.465-.107-.16-1.648-2.464-.107-.16-1.64-2.465-.107-.152-.045-.076h.16l.046-.03.022.03.084.122,1.64,2.464.107.161,1.648,2.464.107.16,1.64,2.464.1.153,1.648,2.464.107.161,1.64,2.464.107.16,1.64,2.464.107.161,1.64,2.456.107.16,1.648,2.465.1.16Z" transform="translate(-15.295 -69.875)" fill="#12263f"/>
        <path id="Trazado_873171" data-name="Trazado 873171" d="M42.376,95.351c-.076,0-.153.008-.229.008L40.553,92.97l-.1-.16-1.64-2.457-.107-.16-1.648-2.464-.107-.16L35.311,85.1l-.107-.16L33.563,82.48l-.107-.16-1.64-2.465L31.71,79.7l-1.64-2.465-.107-.16-1.648-2.464-.1-.153-1.648-2.472-.1-.152-.931-1.389c.061-.015.13-.03.2-.045l.892,1.328.1.152,1.648,2.472.1.153,1.648,2.464.107.16L31.87,79.6l.107.153,1.64,2.464.107.161,1.64,2.464.107.16,1.64,2.464.107.161,1.648,2.464.107.16,1.64,2.457.1.16Z" transform="translate(-14.397 -69.983)" fill="#12263f"/>
        <path id="Trazado_873172" data-name="Trazado 873172" d="M37.848,95.686h-.229L37.161,95l-.107-.153-1.64-2.464-.107-.16-1.64-2.464L33.56,89.6l-1.648-2.464-.1-.16-1.648-2.464-.107-.16-1.64-2.465-.107-.152-1.64-2.465-.107-.16-1.64-2.464-.107-.153-1.64-2.471-.107-.153-1.328-1.991c.054-.031.107-.061.168-.092l1.32,1.976.1.16,1.648,2.464.107.153L26.724,79l.107.16,1.64,2.464.107.161,1.64,2.464.107.153,1.64,2.464.107.16,1.64,2.464.107.161,1.648,2.464.107.16,1.64,2.464.107.153Z" transform="translate(-13.624 -70.264)" fill="#12263f"/>
        <path id="Trazado_873173" data-name="Trazado 873173" d="M33.447,96.215h-.229L32.142,94.6l-.107-.16L30.4,91.98l-.107-.16-1.64-2.465-.107-.16L26.9,86.731l-.107-.153-1.648-2.471-.1-.153-1.64-2.464-.107-.161-1.648-2.464-.1-.153L19.9,76.24l-.1-.153-1.236-1.847c.045-.045.092-.092.137-.13l1.251,1.87.1.16L21.7,78.6l.107.16,1.64,2.457.107.16,1.64,2.465.107.16,1.64,2.464.107.16,1.64,2.457V89.1l.107.152v.008l1.648,2.456.107.161,1.64,2.464Z" transform="translate(-12.975 -70.74)" fill="#12263f"/>
        <path id="Trazado_873174" data-name="Trazado 873174" d="M29.181,96.934a.079.079,0,0,1-.038.008h-.183l-.053-.076L27.266,94.4l-.107-.161-1.648-2.464-.107-.16-1.64-2.464L23.657,89l-1.64-2.472-.107-.153-1.64-2.464-.107-.16-1.64-2.464-.107-.153-1.64-2.472-.107-.152-.61-.916c.038-.061.069-.122.107-.183l.664.992.1.153,1.648,2.472.107.152,1.64,2.465.107.16,1.64,2.464.107.16,1.64,2.464.107.161,1.64,2.456.107.161,1.64,2.464.107.16,1.64,2.465.107.16Z" transform="translate(-12.464 -71.412)" fill="#12263f"/>
        <path id="Trazado_873175" data-name="Trazado 873175" d="M25.052,97.875H24.83l-.564-.847-.107-.16L22.519,94.4l-.107-.16-1.648-2.457-.1-.16-1.648-2.464L18.91,89l-1.64-2.465-.107-.16-1.64-2.464-.107-.153-1.2-1.8a2.284,2.284,0,0,1,.076-.236l1.281,1.93.107.16,1.64,2.457.107.16L19.07,88.9l.107.16,1.64,2.464.107.16,1.64,2.465.107.16,1.64,2.464.107.16Z" transform="translate(-12.087 -72.293)" fill="#12263f"/>
        <path id="Trazado_873176" data-name="Trazado 873176" d="M21.049,98.993c-.076,0-.145.008-.221.008l-1.19-1.785-.107-.161L17.89,94.6l-.107-.161-1.648-2.464-.1-.16-1.648-2.464-.107-.161L12.961,87.2c.015-.084.03-.175.053-.267l1.427,2.143.107.16L16.2,91.707l.1.16,1.648,2.464.107.16,1.64,2.465.107.16Z" transform="translate(-11.832 -73.357)" fill="#12263f"/>
        <path id="Trazado_873177" data-name="Trazado 873177" d="M17.122,100.244h-.229l-.06-.092-.107-.16-1.64-2.464-.107-.161L13.338,94.9l-.107-.16-1.152-1.725c.015-.092.03-.183.038-.282l1.274,1.9.107.161,1.64,2.464.107.16,1.64,2.464.107.161Z" transform="translate(-11.652 -74.54)" fill="#12263f"/>
        <g id="Grupo_1099262" data-name="Grupo 1099262" transform="translate(0 18.112)" opacity="0.27">
          <g id="Grupo_1099261" data-name="Grupo 1099261">
            <g id="Grupo_1099260" data-name="Grupo 1099260" clip-path="url(#clip-path)">
              <path id="Trazado_873178" data-name="Trazado 873178" d="M41.39,99.193c-.015.3-.023.5-.03.6l-29.81.252a47.736,47.736,0,0,1,.474-7.417Z" transform="translate(-11.542 -92.631)" fill="#12263f"/>
            </g>
          </g>
        </g>
      </g>
      <path id="Trazado_873179" data-name="Trazado 873179" d="M41.505,103.6v33.83A3.565,3.565,0,0,1,37.935,141H14.557a3.57,3.57,0,0,1-3.571-3.571V103.6Z" transform="translate(-2.393 -74.245)" fill="#a284a3"/>
      <g id="Grupo_1099265" data-name="Grupo 1099265" transform="translate(8.593 29.352)">
        <g id="Grupo_1099264" data-name="Grupo 1099264">
          <g id="Grupo_1099263" data-name="Grupo 1099263" clip-path="url(#clip-path-2)">
            <path id="Trazado_873180" data-name="Trazado 873180" d="M41.505,103.6v33.83A3.565,3.565,0,0,1,37.935,141H14.557a3.57,3.57,0,0,1-3.571-3.571V103.6Z" transform="translate(-10.986 -103.597)" fill="#727997"/>
          </g>
        </g>
      </g>
      <g id="Grupo_1099268" data-name="Grupo 1099268" transform="translate(8.593 29.352)" opacity="0.27">
        <g id="Grupo_1099267" data-name="Grupo 1099267">
          <g id="Grupo_1099266" data-name="Grupo 1099266" clip-path="url(#clip-path-3)">
            <path id="Trazado_873181" data-name="Trazado 873181" d="M41.506,103.689v.351L31.7,106l-1.907.381-18.808,3.762V103.6H37.492Z" transform="translate(-10.986 -103.597)" fill="#12263f"/>
          </g>
        </g>
      </g>
      <path id="Trazado_873182" data-name="Trazado 873182" d="M42.4,103.787H9.049a1.407,1.407,0,1,1,0-2.814H42.4a1.407,1.407,0,1,1,0,2.814" transform="translate(-1.71 -73.71)" fill="#12263f"/>
      <rect id="Rectángulo_401292" data-name="Rectángulo 401292" width="30.519" height="0.381" transform="translate(8.593 31.756)" fill="#12263f"/>
      <path id="Trazado_873183" data-name="Trazado 873183" d="M33,131.092c0,2.5-1.156,4.529-2.581,4.529s-2.581-2.027-2.581-4.529,1.156-4.529,2.581-4.529S33,128.59,33,131.092" transform="translate(-5.83 -78.931)" fill="#12263f"/>
      <rect id="Rectángulo_401293" data-name="Rectángulo 401293" width="1.363" height="19.967" transform="translate(23.758 68.865)" fill="#12263f"/>
      <path id="Trazado_873184" data-name="Trazado 873184" d="M33.331,152.456H17.455A10.426,10.426,0,0,1,7.041,142.041V125.288H7.8v16.753a9.662,9.662,0,0,0,9.651,9.651H33.331a9.662,9.662,0,0,0,9.651-9.651V125.094h.763v16.947a10.426,10.426,0,0,1-10.414,10.414" transform="translate(-1.587 -78.631)" fill="#12263f"/>
      <rect id="Rectángulo_401294" data-name="Rectángulo 401294" width="16.732" height="1.626" transform="translate(15.785 88.131)" fill="#12263f"/>
      <g id="Grupo_1099276" data-name="Grupo 1099276">
        <path id="Trazado_873185" data-name="Trazado 873185" d="M50.184,79.93,60.549,66.72,65.223,72Z" transform="translate(-10.392 -66.72)" fill="#12263f"/>
        <path id="Trazado_873186" data-name="Trazado 873186" d="M50.648,84.352l16.327-3.914.381,7.044Z" transform="translate(-10.486 -69.519)" fill="#12263f"/>
        <path id="Trazado_873187" data-name="Trazado 873187" d="M10.153,81.476l-8.8-4.64Q1.792,74.2,2.425,71.63Z" transform="translate(-0.427 -67.722)" fill="#12263f"/>
        <path id="Trazado_873188" data-name="Trazado 873188" d="M9.542,85.485l-4.991.931-4.362.82c.056-1.059.143-2.109.255-3.16.024-.255.056-.509.088-.756Z" transform="translate(-0.19 -70.108)" fill="#12263f"/>
      </g>
    </g>
    <g id="Grupo_1099279" data-name="Grupo 1099279" transform="translate(-18779.166 -4221.936)">
      <g id="Grupo_1099278" data-name="Grupo 1099278" transform="translate(0)">
        <path id="Trazado_873133" data-name="Trazado 873133" d="M164.04,110.8l-15.663,64.774L148,177.122l-21.17.479-.024-.008L41.57,179.526,17.455,170.06a.909.909,0,0,1-.416-1.375.856.856,0,0,1,.746-.385H44.712l16.111-57.5Z" transform="translate(-16.875 -110.608)" fill="#353a40"/>
        <path id="Trazado_873134" data-name="Trazado 873134" d="M48.471,179.071a.2.2,0,0,1-.053-.007.2.2,0,0,1-.137-.242L67.369,110.7a.2.2,0,0,1,.379.106L48.661,178.927a.2.2,0,0,1-.189.144" transform="translate(-23.611 -110.555)" fill="#becce3"/>
      </g>
      <path id="Trazado_873135" data-name="Trazado 873135" d="M132.886,165.613a4.409,4.409,0,0,1-1.166-.155c-4-1.093-5.693-7.663-3.785-14.645a19.189,19.189,0,0,1,4.485-8.308c2.036-2.072,4.25-2.913,6.224-2.374s3.452,2.391,4.151,5.21a19.2,19.2,0,0,1-.366,9.435c-1.726,6.315-5.82,10.838-9.543,10.838m4.565-24.855a6.558,6.558,0,0,0-4.47,2.3,18.4,18.4,0,0,0-4.287,7.965c-1.795,6.565-.343,12.7,3.234,13.68s7.949-3.567,9.744-10.132a18.4,18.4,0,0,0,.361-9.038c-.628-2.531-1.9-4.179-3.6-4.641a3.714,3.714,0,0,0-.987-.131" transform="translate(-40.529 -116.865)" fill="#becce3"/>
      <path id="Trazado_873136" data-name="Trazado 873136" d="M148.377,191.38,148,192.927l-21.17.479-.024-.008L41.57,195.331l-24.115-9.465a.909.909,0,0,1-.416-1.375l24.848,9.59Z" transform="translate(-16.875 -126.413)" fill="#becce3"/>
    </g>
    <path id="Trazado_873151" data-name="Trazado 873151" d="M98.211,83.455l.576.169a.143.143,0,0,1,0,.273l-.562.174a3,3,0,0,0-1.946,1.88l-.261.752a.143.143,0,0,1-.272-.006l-.176-.6a3,3,0,0,0-2.036-2.036l-.563-.165a.143.143,0,0,1,0-.274l.563-.164a3,3,0,0,0,2.036-2.036l.165-.563a.143.143,0,0,1,.274,0l.165.563a3,3,0,0,0,2.036,2.036" transform="translate(-18768.16 -4305.848)" fill="#fff"/>
    <path id="Trazado_873152" data-name="Trazado 873152" d="M113.561,8.283l.661.194a.164.164,0,0,1,0,.314l-.646.2a3.447,3.447,0,0,0-2.236,2.161l-.3.864a.164.164,0,0,1-.313-.007l-.2-.692a3.445,3.445,0,0,0-2.339-2.339l-.647-.189a.164.164,0,0,1,0-.315l.647-.189a3.446,3.446,0,0,0,2.339-2.339l.189-.646a.164.164,0,0,1,.315,0l.189.646a3.446,3.446,0,0,0,2.339,2.339" transform="translate(-18852.6 -4272.301)" fill="#fff"/>
    <path id="Trazado_873154" data-name="Trazado 873154" d="M166.239,192.148l.561.164a.139.139,0,0,1,0,.266l-.547.169a2.918,2.918,0,0,0-1.894,1.83l-.254.732a.139.139,0,0,1-.265-.006l-.172-.587a2.917,2.917,0,0,0-1.981-1.981l-.548-.16a.139.139,0,0,1,0-.267l.548-.16a2.918,2.918,0,0,0,1.981-1.981l.16-.547a.139.139,0,0,1,.267,0l.16.547a2.918,2.918,0,0,0,1.981,1.981" transform="translate(-18828.959 -4356.174)" fill="#fff"/>
    <path id="Trazado_873156" data-name="Trazado 873156" d="M12.877,194.361l.561.164a.139.139,0,0,1,0,.266l-.547.169A2.918,2.918,0,0,0,11,196.791l-.254.732a.139.139,0,0,1-.265-.007l-.172-.587a2.917,2.917,0,0,0-1.981-1.981l-.548-.16a.139.139,0,0,1,0-.267l.548-.16a2.918,2.918,0,0,0,1.981-1.981l.16-.548a.139.139,0,0,1,.267,0l.16.548a2.918,2.918,0,0,0,1.981,1.981" transform="translate(-18778.211 -4359.525)" fill="#fff"/>
  </g>
</svg>
