<svg xmlns="http://www.w3.org/2000/svg" xmlns:xlink="http://www.w3.org/1999/xlink" width="93.895" height="96.853" viewBox="0 0 93.895 96.853">
  <defs>
    <filter id="Trazado_896608" x="2.521" y="5.479" width="91.374" height="91.374" filterUnits="userSpaceOnUse">
      <feOffset dy="3" input="SourceAlpha"/>
      <feGaussianBlur stdDeviation="3" result="blur"/>
      <feFlood flood-opacity="0.161"/>
      <feComposite operator="in" in2="blur"/>
      <feComposite in="SourceGraphic"/>
    </filter>
  </defs>
  <g id="Grupo_1110665" data-name="Grupo 1110665" transform="translate(-180 -2463.243)">
    <g transform="matrix(1, 0, 0, 1, 180, 2463.24)" filter="url(#Trazado_896608)">
      <g id="Trazado_896608-2" data-name="Trazado 896608" transform="translate(11.52 11.48)" fill="none">
        <path d="M0,0H73.374V73.374H0Z" stroke="none"/>
        <path d="M 9.999996185302734 9.999996185302734 L 9.999996185302734 63.37383651733398 L 63.37383651733398 63.37383651733398 L 63.37383651733398 9.999996185302734 L 9.999996185302734 9.999996185302734 M 0 0 L 73.37383270263672 0 L 73.37383270263672 73.37383270263672 L 0 73.37383270263672 L 0 0 Z" stroke="none" fill="#f0c869"/>
      </g>
    </g>
    <path id="Trazado_896609" data-name="Trazado 896609" d="M0,0H70.872V70.872H0Z" transform="translate(180 2463.243)" fill="#456345"/>
    <g id="Grupo_1110671" data-name="Grupo 1110671" transform="translate(163.474 2469.482)">
      <path id="Trazado_910194" data-name="Trazado 910194" d="M46.267,58.394a6.869,6.869,0,0,1-6.862-6.862,13.806,13.806,0,0,1,2.087-7.315,6.76,6.76,0,0,1-2.228-1.5,6.87,6.87,0,0,1-2-4.537A13.775,13.775,0,0,1,26.11,27.924a.855.855,0,1,1,1.659-.416A12.074,12.074,0,0,0,39.5,36.648,5.157,5.157,0,0,0,44.654,31.5a5.239,5.239,0,0,0-3.1-4.74,3.626,3.626,0,0,1-2.32,1.762,3.307,3.307,0,0,1-3.7-3.7A3.626,3.626,0,0,1,37.3,22.5a5.239,5.239,0,0,0-4.74-3.1,5.157,5.157,0,0,0-5.151,5.151.855.855,0,1,1-1.711,0,6.869,6.869,0,0,1,6.862-6.862c2.971,0,5.334,1.725,6.654,4.859a4.225,4.225,0,0,0,2.3,2.3q.239.1.467.21a13.929,13.929,0,0,1,4.594-6.141,13.693,13.693,0,0,1,8.329-2.79,6.823,6.823,0,0,1,2.884.636,12.1,12.1,0,0,0,1.379-5.619,5.157,5.157,0,0,0-5.151-5.151,5.24,5.24,0,0,0-4.74,3.1,3.625,3.625,0,0,1,1.762,2.319,3.027,3.027,0,0,1-.942,2.76,3.027,3.027,0,0,1-2.76.942,3.626,3.626,0,0,1-2.32-1.762,5.239,5.239,0,0,0-3.1,4.74,5.107,5.107,0,0,0,.474,2.163.855.855,0,1,1-1.552.719,6.8,6.8,0,0,1-.633-2.882c0-2.971,1.726-5.334,4.859-6.654a4.225,4.225,0,0,0,2.295-2.293V9.132C48.676,6,51.039,4.277,54.008,4.277a6.869,6.869,0,0,1,6.862,6.862,13.8,13.8,0,0,1-1.637,6.531,6.851,6.851,0,0,1,2.525,5.314,7.18,7.18,0,0,1-.1,1.229,13.825,13.825,0,0,1,13.2,13.8,6.869,6.869,0,0,1-6.862,6.862c-2.97,0-5.332-1.725-6.652-4.856v0a4.359,4.359,0,0,0-.619-1.042,6.785,6.785,0,0,1-1.2,2.9,6.826,6.826,0,0,1,.562,2.719c0,2.97-1.725,5.332-4.856,6.653h0a4.225,4.225,0,0,0-2.294,2.3c-1.32,3.133-3.683,4.859-6.654,4.859Zm3.781-20.281a.856.856,0,0,1,.207,1.685,12.074,12.074,0,0,0-9.14,11.734,5.157,5.157,0,0,0,5.151,5.151,5.239,5.239,0,0,0,4.74-3.1,3.626,3.626,0,0,1-1.762-2.319,3.307,3.307,0,0,1,3.7-3.7,3.625,3.625,0,0,1,2.32,1.762,5.239,5.239,0,0,0,3.1-4.74,5.157,5.157,0,0,0-5.151-5.151.855.855,0,0,1,0-1.711,6.851,6.851,0,0,1,5.3,2.51,5.1,5.1,0,0,0,.574-2.5l-.05-.021a7.342,7.342,0,0,1-4.709-5.184,6.948,6.948,0,0,1-6.381,4.261,6.826,6.826,0,0,1-3.251-.817,6.848,6.848,0,0,1-5.2,2.384q-.259,0-.515-.009a5.157,5.157,0,0,0,1.485,3.155,4.973,4.973,0,0,0,2.054,1.268,13.753,13.753,0,0,1,7.312-4.634.845.845,0,0,1,.209-.026Zm2.364,11.11a1.493,1.493,0,0,0-1.016.493,1.388,1.388,0,0,0-.473,1.221,1.849,1.849,0,0,0,.844,1.105,5.829,5.829,0,0,1,1.955-1.955,1.849,1.849,0,0,0-1.105-.844A1.068,1.068,0,0,0,52.412,49.222Zm10.837-9.163a5.239,5.239,0,0,0,4.74,3.1,5.157,5.157,0,0,0,5.151-5.151,12.112,12.112,0,0,0-12.026-12.1A7.837,7.837,0,0,1,56.9,29.637a4.388,4.388,0,0,0-.931.532A5.178,5.178,0,0,0,58.991,35.8a3.626,3.626,0,0,1,2.319-1.762,3.307,3.307,0,0,1,3.7,3.7A3.627,3.627,0,0,1,63.249,40.059Zm-2.716-3.5a5.827,5.827,0,0,1,1.955,1.955,1.849,1.849,0,0,0,.844-1.105,1.619,1.619,0,0,0-1.694-1.694,1.849,1.849,0,0,0-1.105.844Zm-14.882-2.02a5.127,5.127,0,0,0,2.3.539,5.239,5.239,0,0,0,4.74-3.1,3.625,3.625,0,0,1-1.762-2.319,3.307,3.307,0,0,1,3.7-3.7,3.626,3.626,0,0,1,2.32,1.762,5.239,5.239,0,0,0,3.1-4.74A5.157,5.157,0,0,0,54.9,17.833a12,12,0,0,0-7.3,2.443,12.2,12.2,0,0,0-4.128,5.661,6.662,6.662,0,0,1,2.893,5.56,6.822,6.822,0,0,1-.713,3.044Zm8.443-6.922a1.493,1.493,0,0,0-1.016.493,1.388,1.388,0,0,0-.473,1.221,1.848,1.848,0,0,0,.844,1.105,5.829,5.829,0,0,1,1.955-1.955A1.849,1.849,0,0,0,54.3,27.64a1.06,1.06,0,0,0-.205-.02ZM38.058,24.042a1.848,1.848,0,0,0-.844,1.105,1.619,1.619,0,0,0,1.694,1.694A1.848,1.848,0,0,0,40.012,26,5.829,5.829,0,0,1,38.058,24.042Zm8.495-11.457a1.849,1.849,0,0,0,1.105.844,1.389,1.389,0,0,0,1.221-.472,1.388,1.388,0,0,0,.472-1.221,1.848,1.848,0,0,0-.844-1.105A5.827,5.827,0,0,1,46.553,12.584ZM69.322,23.54a6.839,6.839,0,0,1-4.852-2.007c-2.1-2.1-2.551-4.992-1.269-8.141a4.225,4.225,0,0,0,0-3.247C61.919,7,62.37,4.106,64.47,2.006a6.869,6.869,0,0,1,9.7,0,.855.855,0,0,1-1.21,1.21,5.157,5.157,0,0,0-7.284,0,5.239,5.239,0,0,0-1.16,5.543,3.626,3.626,0,0,1,2.886.394,3.027,3.027,0,0,1,1.286,2.617,3.027,3.027,0,0,1-1.285,2.617,3.626,3.626,0,0,1-2.886.394,5.239,5.239,0,0,0,1.16,5.543,5.157,5.157,0,0,0,7.284,0A12.075,12.075,0,0,0,74.8,5.571a.855.855,0,0,1,1.468-.878,13.784,13.784,0,0,1-2.1,16.841,6.841,6.841,0,0,1-4.852,2.007Zm-4.25-10.388a1.848,1.848,0,0,0,1.379-.185,1.388,1.388,0,0,0,.529-1.2,1.388,1.388,0,0,0-.53-1.2,1.85,1.85,0,0,0-1.379-.185,5.832,5.832,0,0,1,0,2.764Z" fill="#fff"/>
    </g>
  </g>
</svg>
