<svg xmlns="http://www.w3.org/2000/svg" xmlns:xlink="http://www.w3.org/1999/xlink" width="88" height="88" viewBox="0 0 88 88">
  <defs>
    <filter id="Elipse_11681" x="0" y="0" width="88" height="88" filterUnits="userSpaceOnUse">
      <feOffset input="SourceAlpha"/>
      <feGaussianBlur stdDeviation="3" result="blur"/>
      <feFlood flood-opacity="0.161"/>
      <feComposite operator="in" in2="blur"/>
      <feComposite in="SourceGraphic"/>
    </filter>
  </defs>
  <g id="Grupo_1110781" data-name="Grupo 1110781" transform="translate(-1072.051 -3353)">
    <g transform="matrix(1, 0, 0, 1, 1072.05, 3353)" filter="url(#Elipse_11681)">
      <circle id="Elipse_11681-2" data-name="Elipse 11681" cx="35" cy="35" r="35" transform="translate(9 9)" fill="#fff"/>
    </g>
    <g id="Grupo_1110780" data-name="Grupo 1110780" transform="translate(1092.8 3366.744)">
      <path id="Trazado_910720" data-name="Trazado 910720" d="M.727,93.455H8.139A7.21,7.21,0,0,1,8.6,92H.727a.727.727,0,1,0,0,1.453Z" transform="translate(0 -51.574)" fill="#ff7c32"/>
      <path id="Trazado_910721" data-name="Trazado 910721" d="M0,82.728a.727.727,0,0,0,.727.726h9.352A7.3,7.3,0,0,1,12.112,82H.727A.727.727,0,0,0,0,82.728Z" transform="translate(0 -45.207)" fill="#ff7c32"/>
      <path id="Trazado_910722" data-name="Trazado 910722" d="M52.727,61a.727.727,0,0,0-.727.727v.726a.727.727,0,1,0,1.453,0v-.726A.727.727,0,0,0,52.727,61Z" transform="translate(-33.109 -31.835)" fill="#ff7c32"/>
      <path id="Trazado_910723" data-name="Trazado 910723" d="M60.727,61a.727.727,0,0,0-.727.727v.726a.727.727,0,1,0,1.453,0v-.726A.727.727,0,0,0,60.727,61Z" transform="translate(-38.202 -31.835)" fill="#ff7c32"/>
      <path id="Trazado_910724" data-name="Trazado 910724" d="M45.776,49.079H42.869V46.714a2.617,2.617,0,0,0,.963.185,2.712,2.712,0,0,0,1.709-4.783,3.446,3.446,0,0,0,.039-.516,3.372,3.372,0,1,0-6.718.421,2.712,2.712,0,0,0,1.59,4.878,2.619,2.619,0,0,0,.964-.185v2.365H34.15V47.568a2.03,2.03,0,0,0,.457.058,2.117,2.117,0,0,0,1.427-3.653,2.58,2.58,0,1,0-5.142-.275c0,.066,0,.132.007.2a2.117,2.117,0,0,0,1.341,3.729,2.03,2.03,0,0,0,.457-.058v1.511H26.884V42.035a.727.727,0,0,0-.184-.484l-4.243-4.759A2.568,2.568,0,0,0,20.7,36H10.9a.7.7,0,0,0-.514.213L5.811,40.789a2.724,2.724,0,0,0-.726,1.754v6.536H.726a.727.727,0,0,0,0,1.454h25.1l-1.99,2.18H18.4a7.3,7.3,0,0,1,2.034,1.453H22.5L21.4,55.38a7.205,7.205,0,0,1,.687,1.4s5.657-6.206,5.683-6.25h1.453l-6.7,8.523c0,.066.01.13.01.2a7.219,7.219,0,0,1-.626,2.937s9.139-11.627,9.156-11.656h1.2l-8.83,13.777a.727.727,0,0,0,1.223.784l9.314-14.533c.006-.009.009-.019.015-.028h.947L28.143,64.382a.727.727,0,1,0,1.3.64l7.1-14.489h1.008L32.142,64.438a.727.727,0,0,0,1.355.527l5.618-14.433h1.073l-3.681,13.8a.727.727,0,0,0,1.4.375l3.781-14.177h1.132L41.241,64.439a.727.727,0,0,0,1.444.164l1.6-14.072h.763V64.338a.727.727,0,0,0,1.453,0V49.806a.727.727,0,0,0-.726-.727Zm-5.323-3.633a1.236,1.236,0,0,1-1.216-1.252,1.253,1.253,0,0,1,.735-1.149.726.726,0,0,0,.4-.87,2.023,2.023,0,0,1-.084-.574,1.919,1.919,0,1,1,3.837,0,2.026,2.026,0,0,1-.1.615.727.727,0,0,0,.354.864,1.249,1.249,0,0,1,.665,1.113,1.236,1.236,0,0,1-1.217,1.252,1.212,1.212,0,0,1-1.055-.631.726.726,0,0,0-1.27,0,1.213,1.213,0,0,1-1.055.631Zm-8.212.727a.647.647,0,0,1-.633-.658.658.658,0,0,1,.385-.605.726.726,0,0,0,.4-.87,1.205,1.205,0,0,1-.05-.341,1.125,1.125,0,1,1,2.25,0,1.2,1.2,0,0,1-.057.365.727.727,0,0,0,.354.864.657.657,0,0,1,.348.587.647.647,0,0,1-.633.658.623.623,0,0,1-.548-.33.727.727,0,0,0-1.27,0,.632.632,0,0,1-.548.33ZM11.989,49.079H9.809V45.446h2.18ZM16.712,42.9h8.719v6.176H16.712Zm4.66-5.143,3.291,3.69H16.609c-.031-.053-3.957-4-3.957-4H20.7A1.162,1.162,0,0,1,21.372,37.759ZM6.539,42.542a1.334,1.334,0,0,1,.3-.727L10.9,37.754l4.36,4.363v6.962H13.442v-4.36a.727.727,0,0,0-.727-.727H9.082a.727.727,0,0,0-.727.727v4.36H6.539Z" transform="translate(0 -15.917)" fill="#ff7c32"/>
      <path id="Trazado_910725" data-name="Trazado 910725" d="M85.157,21.67h-.009a3.236,3.236,0,0,0-2.315.981,3.353,3.353,0,0,0-.957,2.421.727.727,0,0,0,.726.715h.012a.727.727,0,0,0,.715-.738,1.909,1.909,0,0,1,.542-1.381,1.794,1.794,0,0,1,1.282-.544h0a1.94,1.94,0,0,1,1.9,1.931.727.727,0,1,0,1.453-.024A3.4,3.4,0,0,0,85.157,21.67Z" transform="translate(-52.13 -6.794)" fill="#ff7c32"/>
      <path id="Trazado_910726" data-name="Trazado 910726" d="M89.469,14.035h.012A.727.727,0,0,0,90.2,13.3l-.026-1.582A.727.727,0,0,0,89.445,11h-.012a.726.726,0,0,0-.715.738l.026,1.582A.727.727,0,0,0,89.469,14.035Z" transform="translate(-56.487)" fill="#ff7c32"/>
      <path id="Trazado_910727" data-name="Trazado 910727" d="M82.9,14.817a.727.727,0,1,0,1.339-.564l-.614-1.459a.726.726,0,0,0-1.339.564Z" transform="translate(-52.358 -0.859)" fill="#ff7c32"/>
      <path id="Trazado_910728" data-name="Trazado 910728" d="M78.1,18.5a.735.735,0,0,0,1.027,0,.727.727,0,0,0,0-1.028l-1.108-1.115a.727.727,0,0,0-1.031,1.024Z" transform="translate(-48.887 -3.274)" fill="#ff7c32"/>
      <path id="Trazado_910729" data-name="Trazado 910729" d="M73.628,23.2l1.438.6a.727.727,0,1,0,.561-1.341l-1.438-.6a.727.727,0,1,0-.561,1.341Z" transform="translate(-46.594 -6.88)" fill="#ff7c32"/>
      <path id="Trazado_910730" data-name="Trazado 910730" d="M72.725,29.918h0l1.544-.005a.727.727,0,1,0,0-1.454h0l-1.544.006a.727.727,0,1,0,0,1.453Z" transform="translate(-45.841 -11.116)" fill="#ff7c32"/>
      <path id="Trazado_910731" data-name="Trazado 910731" d="M104.017,28.359l-1.543.006a.727.727,0,0,0,0,1.453h0l1.543-.006a.727.727,0,0,0,0-1.454Z" transform="translate(-64.784 -11.053)" fill="#ff7c32"/>
      <path id="Trazado_910732" data-name="Trazado 910732" d="M100.761,23.325a.736.736,0,0,0,.955.379l1.416-.611a.727.727,0,1,0-.576-1.334l-1.416.611A.727.727,0,0,0,100.761,23.325Z" transform="translate(-64.117 -6.812)" fill="#ff7c32"/>
      <path id="Trazado_910733" data-name="Trazado 910733" d="M98.088,18.436a.734.734,0,0,0,1.027-.023l1.074-1.122a.727.727,0,1,0-1.05-1l-1.074,1.122A.727.727,0,0,0,98.088,18.436Z" transform="translate(-62.31 -3.223)" fill="#ff7c32"/>
      <path id="Trazado_910734" data-name="Trazado 910734" d="M94.147,15.174a.734.734,0,0,0,.94-.415l.567-1.463A.727.727,0,1,0,94.3,12.77l-.567,1.464a.727.727,0,0,0,.415.94Z" transform="translate(-59.648 -0.831)" fill="#ff7c32"/>
      <path id="Trazado_910735" data-name="Trazado 910735" d="M5.222,16.215l-.241,1.478a.727.727,0,0,0,1.069.753l1.22-.675,1.22.675a.732.732,0,0,0,.77-.042.725.725,0,0,0,.3-.711l-.241-1.478,1.015-1.041a.727.727,0,0,0-.41-1.226l-1.374-.21-.621-1.323a.726.726,0,0,0-1.316,0l-.621,1.323-1.374.21a.727.727,0,0,0-.41,1.226Zm1.371-1.1a.726.726,0,0,0,.548-.409l.128-.273.128.273a.726.726,0,0,0,.548.409l.359.055-.284.291a.726.726,0,0,0-.2.625l.059.363-.262-.145a.727.727,0,0,0-.7,0l-.262.145.059-.363a.726.726,0,0,0-.2-.625l-.284-.291Z" transform="translate(-2.547 -0.635)" fill="#ff7c32"/>
      <path id="Trazado_910736" data-name="Trazado 910736" d="M21.074,89.792a5.814,5.814,0,1,0-9.648,4.359H.727a.727.727,0,0,0,0,1.453H15.262A5.819,5.819,0,0,0,21.074,89.792Zm-1.459,0a4.429,4.429,0,0,1-1.732,3.5,4.138,4.138,0,0,1-1.275.636,4.639,4.639,0,0,1-2.226.132,4.36,4.36,0,0,1,.88-8.63,4.411,4.411,0,0,1,4.12,2.908,4.328,4.328,0,0,1,.233,1.451Z" transform="translate(0 -46.457)" fill="#ff7c32"/>
      <path id="Trazado_910737" data-name="Trazado 910737" d="M35.008,95.547A2.543,2.543,0,1,0,37.551,93,2.543,2.543,0,0,0,35.008,95.547Zm3.633,0a1.09,1.09,0,1,1-1.09-1.09A1.09,1.09,0,0,1,38.641,95.547Z" transform="translate(-22.29 -52.212)" fill="#ff7c32"/>
      <path id="Trazado_910738" data-name="Trazado 910738" d="M.726,103.456h7.6a7.219,7.219,0,0,1-.3-1.453H.726a.727.727,0,0,0,0,1.453Z" transform="translate(0 -57.941)" fill="#ff7c32"/>
    </g>
  </g>
</svg>
