<svg xmlns="http://www.w3.org/2000/svg" width="100" height="100" viewBox="0 0 100 100">
  <g id="Grupo_1108326" data-name="Grupo 1108326" transform="translate(-198 -535)">
    <rect id="Rectángulo_403501" data-name="Rectángulo 403501" width="100" height="100" transform="translate(198 535)" fill="#b4c0b4"/>
    <g id="Grupo_1108321" data-name="Grupo 1108321" transform="translate(210.469 514.284)">
      <g id="Grupo_1108297" data-name="Grupo 1108297" transform="translate(47.919 45.888)">
        <path id="Trazado_896266" data-name="Trazado 896266" d="M333.206,83.084a2.033,2.033,0,0,0-3.8,1.2l-.219,4.16a12.437,12.437,0,0,1,6.421-2.282Z" transform="translate(-329.183 -82.023)" fill="#2b4d66" fill-rule="evenodd"/>
      </g>
      <g id="Grupo_1108298" data-name="Grupo 1108298" transform="translate(55.994 45.888)">
        <path id="Trazado_896267" data-name="Trazado 896267" d="M387.057,83.084l-2.4,3.074a12.46,12.46,0,0,1,6.421,2.282l-.219-4.16a2.033,2.033,0,0,0-3.8-1.2Z" transform="translate(-384.66 -82.023)" fill="#2b4d66" fill-rule="evenodd"/>
      </g>
      <g id="Grupo_1108299" data-name="Grupo 1108299" transform="translate(1.391 40.823)">
        <path id="Trazado_896268" data-name="Trazado 896268" d="M16.332,47.508c-1.7-1.094-4.671,1.234-6.264,3.6A3.042,3.042,0,0,0,10.9,55.32l.111.074a3.043,3.043,0,0,0,4.1-.9C17.248,51.309,18.032,48.606,16.332,47.508Z" transform="translate(-9.556 -47.23)" fill="#365e7d" fill-rule="evenodd"/>
      </g>
      <g id="Grupo_1108300" data-name="Grupo 1108300" transform="translate(48.133 86.045)">
        <path id="Trazado_896269" data-name="Trazado 896269" d="M338.9,357.891a26.24,26.24,0,0,1-8.241,1.3l.743,9.764h6.512Z" transform="translate(-330.656 -357.891)" fill="#d0cee7" fill-rule="evenodd"/>
      </g>
      <g id="Grupo_1108301" data-name="Grupo 1108301" transform="translate(5.06 55.461)">
        <path id="Trazado_896270" data-name="Trazado 896270" d="M56.238,147.791c-3.38,1.783-17.361,15.009-21.483,17.658.058,5.8.33,10.478.792,16.589l.561,7.4H42.62l.668-8.179a9.7,9.7,0,0,0,1.3.087H64.846l.611,8.092h6.512l.879-9.813c.417-.049,2.435.111,4.981.049a26.24,26.24,0,0,0,8.241-1.3c2.757-1.032,4.841-2.847,4.849-6l0-1.139c-5.847-8.262-10.18-20.914-22.218-23.407.1-.054-9.59-.029-12.466-.029Z" transform="translate(-34.755 -147.785)" fill="#dddaec" fill-rule="evenodd"/>
      </g>
      <g id="Grupo_1108302" data-name="Grupo 1108302" transform="translate(62.956 52.187)">
        <path id="Trazado_896271" data-name="Trazado 896271" d="M438.575,126.788a5.386,5.386,0,0,0-6.091-.961c0,2.744.839,4.11,1.6,6.483.3.924,1.092,1.591,2.911,1.994,2.8-.466,5.464-2.092,5.893-4.123C443.312,128.191,441.992,130.366,438.575,126.788Z" transform="translate(-432.484 -125.291)" fill="#2b4d66" fill-rule="evenodd"/>
      </g>
      <g id="Grupo_1108303" data-name="Grupo 1108303" transform="translate(36.883 52.186)">
        <path id="Trazado_896272" data-name="Trazado 896272" d="M257.763,126.788A9.1,9.1,0,0,1,255.5,128.6c-1.725.912-2.36.116-2.051,1.581.429,2.03,3.107,3.6,5.905,4.069,1.679-.942,5.055-5.678,4.5-8.423A5.388,5.388,0,0,0,257.763,126.788Z" transform="translate(-253.371 -125.291)" fill="#2b4d66" fill-rule="evenodd"/>
      </g>
      <g id="Grupo_1108304" data-name="Grupo 1108304" transform="translate(5.051 55.467)">
        <path id="Trazado_896273" data-name="Trazado 896273" d="M50.127,147.824A15.431,15.431,0,0,0,34.7,163.258c0,.759,0,1.5.008,2.224,1.659.9,8.154,3.6,10.663-1.878,4.057-8.86,12.178-.743,10.82-15.78Z" transform="translate(-34.698 -147.824)" fill="#365e7d" fill-rule="evenodd"/>
      </g>
      <g id="Grupo_1108305" data-name="Grupo 1108305" transform="translate(48.876 97.109)">
        <path id="Trazado_896274" data-name="Trazado 896274" d="M335.759,433.895l.219,2.88a1.666,1.666,0,0,0,1.613,1.614h4.667c1.7,0,2.01-1.238,1.329-2.344l-1.316-2.15h-6.512Z" transform="translate(-335.759 -433.895)" fill="#365e7d" fill-rule="evenodd"/>
      </g>
      <g id="Grupo_1108306" data-name="Grupo 1108306" transform="translate(35.761 97.109)">
        <path id="Trazado_896275" data-name="Trazado 896275" d="M245.667,433.895l.219,2.88a1.669,1.669,0,0,0,1.613,1.614h4.671c1.692,0,2.005-1.238,1.329-2.344l-1.321-2.15h-6.512Z" transform="translate(-245.667 -433.895)" fill="#365e7d" fill-rule="evenodd"/>
      </g>
      <g id="Grupo_1108307" data-name="Grupo 1108307" transform="translate(19.251 89.017)">
        <path id="Trazado_896276" data-name="Trazado 896276" d="M132.245,378.3l.615,8.092h6.512l.722-8.092Z" transform="translate(-132.245 -378.303)" fill="#d0cee7" fill-rule="evenodd"/>
      </g>
      <g id="Grupo_1108308" data-name="Grupo 1108308" transform="translate(19.866 97.109)">
        <path id="Trazado_896277" data-name="Trazado 896277" d="M142.981,433.895h-6.512l.219,2.88a1.666,1.666,0,0,0,1.613,1.614h4.667c1.7,0,2.01-1.238,1.329-2.344Z" transform="translate(-136.469 -433.895)" fill="#365e7d" fill-rule="evenodd"/>
      </g>
      <g id="Grupo_1108309" data-name="Grupo 1108309" transform="translate(16.95 71.859)">
        <path id="Trazado_896278" data-name="Trazado 896278" d="M122.493,262.7a5.1,5.1,0,0,0-4.8,1.341,4.43,4.43,0,0,0,.524,6.628c1.68,1.378,4.156,1.622,5.571-.569a6.849,6.849,0,0,1,2.472-2.352c1.593-.9,3.074-1.077,3.7-2.955a3.222,3.222,0,0,0-5.088-3.586C123.966,261.96,123.64,262.946,122.493,262.7Z" transform="translate(-116.436 -260.434)" fill="#365e7d" fill-rule="evenodd"/>
      </g>
      <g id="Grupo_1108310" data-name="Grupo 1108310" transform="translate(35.676 64.153)">
        <path id="Trazado_896279" data-name="Trazado 896279" d="M245.8,218.714c-3.813,5.072,8.62,11.873,11.01,2.27-.066-.058-.132-.116-.2-.177-3.7-3.31-4.477-5.93-3.528-7.874l-.211-2.682c-.07-.916-.219-1.832-.351-2.753C243.617,207.461,249.485,213.816,245.8,218.714Z" transform="translate(-245.079 -207.498)" fill="#365e7d" fill-rule="evenodd"/>
      </g>
      <g id="Grupo_1108311" data-name="Grupo 1108311" transform="translate(6.413 97.109)">
        <path id="Trazado_896280" data-name="Trazado 896280" d="M50.565,433.895H44.053l.219,2.88a1.666,1.666,0,0,0,1.613,1.614h4.671c1.692,0,2.005-1.238,1.325-2.344Z" transform="translate(-44.053 -433.895)" fill="#365e7d" fill-rule="evenodd"/>
      </g>
      <g id="Grupo_1108312" data-name="Grupo 1108312" transform="translate(42.862 49.999)">
        <path id="Trazado_896281" data-name="Trazado 896281" d="M306.747,110.261a12.519,12.519,0,0,0-11.914,8.674,8.317,8.317,0,0,0-.384,2.472,19.468,19.468,0,0,0,.256,3.008c.132.92.281,1.836.351,2.753l.111,1.411.1,1.271c2.641-2.963,20.29-2.546,22.927.318l.3-3.937c.136-1.812.557-3.223.561-4.771a7.816,7.816,0,0,0-.4-2.526,12.519,12.519,0,0,0-11.913-8.674Z" transform="translate(-294.449 -110.261)" fill="#f9f6f6" fill-rule="evenodd"/>
      </g>
      <g id="Grupo_1108313" data-name="Grupo 1108313" transform="translate(43.311 65.417)">
        <path id="Trazado_896282" data-name="Trazado 896282" d="M320.829,220.668c-2.476-5.848-20.138-6.013-22.927-.318-.949,1.944-.169,4.564,3.528,7.874l.2.177a14.413,14.413,0,0,0,2.125,1.531,10.8,10.8,0,0,0,7.329,1.449,11.562,11.562,0,0,0,4.366-1.717,14.644,14.644,0,0,0,1.886-1.44C320.825,225.1,321.638,222.583,320.829,220.668Z" transform="translate(-297.532 -216.179)" fill="#d09080" fill-rule="evenodd"/>
      </g>
      <g id="Grupo_1108314" data-name="Grupo 1108314" transform="translate(55.792 50.011)">
        <path id="Trazado_896283" data-name="Trazado 896283" d="M390.435,113.058a12.455,12.455,0,0,0-7.164-2.711,12.595,12.595,0,0,1,7.436,7.853,8.042,8.042,0,0,1,.4,2.526c-.008,1.548-.429,2.959-.565,4.771l-.124,1.647a6.459,6.459,0,0,1,3.673,3.1l.3-3.937c.136-1.812.557-3.223.561-4.771a7.815,7.815,0,0,0-.4-2.526A12.507,12.507,0,0,0,390.435,113.058Z" transform="translate(-383.271 -110.347)" fill="#dddaec" fill-rule="evenodd"/>
      </g>
      <g id="Grupo_1108315" data-name="Grupo 1108315" transform="translate(45.694 66.807)">
        <path id="Trazado_896284" data-name="Trazado 896284" d="M329.628,231.242a18.374,18.374,0,0,1-1.981,2.043,14.954,14.954,0,0,1-1.886,1.44,11.647,11.647,0,0,1-4.37,1.717,10.833,10.833,0,0,1-7.329-1.449l-.161-.1a20.046,20.046,0,0,0,1.515,1.49l.2.177a14.411,14.411,0,0,0,2.125,1.531,10.8,10.8,0,0,0,7.329,1.449,11.562,11.562,0,0,0,4.366-1.717,14.647,14.647,0,0,0,1.886-1.44c3.491-3.12,4.3-5.641,3.5-7.556a6.458,6.458,0,0,0-3.673-3.1,3.659,3.659,0,0,1,.281,1.622,6.875,6.875,0,0,1-1.8,3.891Z" transform="translate(-313.902 -225.729)" fill="#ce775f" fill-rule="evenodd"/>
      </g>
      <g id="Grupo_1108316" data-name="Grupo 1108316" transform="translate(45.579 77.639)">
        <path id="Trazado_896285" data-name="Trazado 896285" d="M324.391,303.123a10.8,10.8,0,0,1-7.329-1.449,14.4,14.4,0,0,1-2.125-1.531,6.994,6.994,0,0,1-1.828,3.442c.037.029.07.062.1.091,3.033,2.67,7.952,3.223,14.381,2.385a5.561,5.561,0,0,0,1.16-3.516l0-1.139A11.557,11.557,0,0,1,324.391,303.123Z" transform="translate(-313.109 -300.143)" fill="#d0cee7" fill-rule="evenodd"/>
      </g>
      <g id="Grupo_1108317" data-name="Grupo 1108317" transform="translate(40.433 64.153)">
        <path id="Trazado_896286" data-name="Trazado 896286" d="M280.444,207.5a10.875,10.875,0,0,0-2.686.268c.318,2.175.47,4.271.64,6.462-.4,3.008-.235,5.913,4.506,10.2a6.993,6.993,0,0,0,1.828-3.442l-.2-.177a20.076,20.076,0,0,1-1.514-1.49c-2.385-2.616-2.814-4.742-2.014-6.384l-.1-1.271-.111-1.411C280.725,209.335,280.576,208.419,280.444,207.5Z" transform="translate(-277.758 -207.498)" fill="#2b4d66" fill-rule="evenodd"/>
      </g>
      <g id="Grupo_1108318" data-name="Grupo 1108318" transform="translate(33.283 55.462)">
        <path id="Trazado_896287" data-name="Trazado 896287" d="M238.221,153.477a10.648,10.648,0,0,1-2.86-.9,5.129,5.129,0,0,1-3.045-3.174c-.309-1.465.326-.669,2.051-1.581.045-.025-2.992-.033-5.67-.033-.78,6.982,6.809,7.048,7.094,8.959a10.873,10.873,0,0,1,2.686-.268A19.453,19.453,0,0,1,238.221,153.477Z" transform="translate(-228.641 -147.794)" fill="#d0cee7" fill-rule="evenodd"/>
      </g>
      <g id="Grupo_1108320" data-name="Grupo 1108320" transform="translate(0 39.732)">
        <path id="Trazado_896288" data-name="Trazado 896288" d="M339.556,174.059a1.092,1.092,0,0,0-1.092,1.092v.838a1.092,1.092,0,1,0,2.184,0v-.838A1.092,1.092,0,0,0,339.556,174.059Z" transform="translate(-289.195 -154.505)"/>
        <path id="Trazado_896289" data-name="Trazado 896289" d="M405.58,174.059a1.092,1.092,0,0,0-1.092,1.092v.838a1.092,1.092,0,1,0,2.184,0v-.838A1.092,1.092,0,0,0,405.58,174.059Z" transform="translate(-345.608 -154.505)"/>
        <path id="Trazado_896290" data-name="Trazado 896290" d="M347.324,252.246a1.092,1.092,0,0,0-1.092,1.092V255.1a1.092,1.092,0,0,0,2.184,0v-1.766A1.092,1.092,0,0,0,347.324,252.246Z" transform="translate(-295.832 -221.311)"/>
        <path id="Trazado_896291" data-name="Trazado 896291" d="M397.812,256.2A1.092,1.092,0,0,0,398.9,255.1v-1.766a1.092,1.092,0,1,0-2.184,0V255.1A1.092,1.092,0,0,0,397.812,256.2Z" transform="translate(-338.971 -221.312)"/>
        <g id="Grupo_1108319" data-name="Grupo 1108319" transform="translate(0)">
          <path id="Trazado_896292" data-name="Trazado 896292" d="M122.948,253.651a4.205,4.205,0,0,0-5.171.27,7.431,7.431,0,0,0-.786.787c-.464.518-.494.513-.659.477a6.176,6.176,0,0,0-5.859,1.692,5.494,5.494,0,0,0-1.136,5.765,5.944,5.944,0,0,0,4.774,3.7q.228.023.453.022a4.4,4.4,0,0,0,3.746-2.125,6.447,6.447,0,0,1,3.149-2.521,4.974,4.974,0,0,0,3.143-3.033A4.307,4.307,0,0,0,122.948,253.651ZM122.529,258c-.313.934-.836,1.21-1.989,1.743a8.494,8.494,0,0,0-4.066,3.317,2.186,2.186,0,0,1-2.152,1.115,3.816,3.816,0,0,1-2.958-2.339,3.269,3.269,0,0,1,.755-3.524,3.724,3.724,0,0,1,2.781-1.094,4.573,4.573,0,0,1,.967.1h0a2.7,2.7,0,0,0,2.747-1.154,5.524,5.524,0,0,1,.561-.569,2.045,2.045,0,0,1,2.541-.14A2.141,2.141,0,0,1,122.529,258Z" transform="translate(-93.094 -221.861)"/>
          <path id="Trazado_896293" data-name="Trazado 896293" d="M74.287,55.647a1.776,1.776,0,0,0-1.261-.707,5.556,5.556,0,0,1-3.19-2.011,6.422,6.422,0,0,0-6.377-1.569l-.172-3.274a3.111,3.111,0,0,0-5.756-1.808l-2.055,2.635c-.1,0-.2-.006-.3-.006s-.21,0-.315.006L52.8,46.276a3.111,3.111,0,0,0-5.755,1.812l-.172,3.275a6.431,6.431,0,0,0-6.39,1.566,8.651,8.651,0,0,1-1.719,1.445H20.481A16.55,16.55,0,0,0,4.889,65.436,15.678,15.678,0,0,1,3.433,50.4a4.074,4.074,0,0,0,.978.121,4.178,4.178,0,0,0,.805-.079A4.1,4.1,0,0,0,7.847,48.7c1.831-2.723,2.591-4.921,2.259-6.535a3.029,3.029,0,0,0-1.349-1.979C6.287,38.594,2.732,41.514,1,44.095l0,0a4.138,4.138,0,0,0,.519,5.222A18.2,18.2,0,0,0,4.185,68.181,16.569,16.569,0,0,0,3.96,70.9c0,.751,0,1.478.01,2.188q0,.045,0,.09c.055,5.888.33,10.543.793,16.619l.78,10.274a2.748,2.748,0,0,0,2.7,2.624h4.671a2.6,2.6,0,0,0,2.465-1.237,2.731,2.731,0,0,0-.209-2.768l-1.13-1.846.551-6.739q.152,0,.3,0H18.24L19,100.071a2.748,2.748,0,0,0,2.7,2.624h4.667a2.608,2.608,0,0,0,2.469-1.238,2.729,2.729,0,0,0-.209-2.767L27.5,96.847l.6-6.738h6.038l.536,7.089c0,.011,0,.021,0,.032l.215,2.847a2.755,2.755,0,0,0,2.7,2.619h4.671a2.607,2.607,0,0,0,2.465-1.236,2.736,2.736,0,0,0-.206-2.771l-1.131-1.842.757-8.45.147,0c.717.023,1.695.055,2.825.051l.883,11.618a2.748,2.748,0,0,0,2.7,2.624h4.667a2.608,2.608,0,0,0,2.469-1.238,2.73,2.73,0,0,0-.209-2.767l-1.128-1.842.9-10.05a9.508,9.508,0,0,0,2.851-1.826,6.625,6.625,0,0,0,2.06-4.926l0-.56a16.063,16.063,0,0,0,1.524-1.21c3.416-3.055,4.734-5.883,3.919-8.4-.01-.03-.021-.059-.031-.088.006-.035.011-.07.014-.106l.21-2.686c.056-.715.161-1.431.273-2.189.131-.891.263-1.8.316-2.714,2.625-.661,5.371-2.33,5.89-4.786a2.109,2.109,0,0,0-.144-1.655ZM2.81,45.312c1.608-2.39,3.964-3.807,4.765-3.293a.836.836,0,0,1,.392.583c.095.461.1,1.86-1.932,4.877A1.943,1.943,0,0,1,2.81,45.312Zm56.442,2.31c.484-.618.97-.688,1.13-.624a1.093,1.093,0,0,0,.149.047c.169.04.532.377.575,1.158l.111,2.111a13.576,13.576,0,0,0-3.2-1.109Zm-10.024.584c.043-.783.407-1.12.576-1.161a1.137,1.137,0,0,1,.267-.065,1.412,1.412,0,0,1,1.01.641l1.236,1.584c-.032.007-.063.015-.094.024a13.562,13.562,0,0,0-3.106,1.091ZM42.063,54.44a4.1,4.1,0,0,1,3.1-1.158,13.587,13.587,0,0,0-2.94,5.056,9.361,9.361,0,0,0-.348,1.462c-1.933-.567-3.455-1.66-3.805-2.792A7.872,7.872,0,0,0,42.063,54.44Zm4.105,23.551a4.378,4.378,0,0,1-3.489,3.35,5.9,5.9,0,0,1-5.5-2.565,2.294,2.294,0,0,1,.09-2.749c1.676-2.227,1.641-4.683,1.614-6.656-.023-1.64-.007-2.676.588-3.275a4.333,4.333,0,0,1,2.785-.829c.032.256.06.517.081.787l.254,3.306c-.048.113-.093.228-.132.344C41.64,72.171,42.888,74.958,46.168,77.991Zm-32.692,22.4a.877.877,0,0,1-.559.119H8.245a.589.589,0,0,1-.525-.6L7.591,98.2h4.722l1,1.631a.778.778,0,0,1,.164.561Zm13.453,0a.881.881,0,0,1-.563.12H21.7a.589.589,0,0,1-.525-.6L21.044,98.2h4.722l1,1.63A.777.777,0,0,1,26.928,100.391Zm-1.549-4.374h-4.5l-.448-5.909h5.478Zm17.446,4.374c-.017.024-.169.12-.56.12H37.594a.593.593,0,0,1-.525-.6L36.94,98.2h4.723l1,1.628A.783.783,0,0,1,42.825,100.392Zm13.114,0a.881.881,0,0,1-.563.12H50.708a.589.589,0,0,1-.525-.6l-.13-1.706h4.722l1,1.63a.778.778,0,0,1,.164.56Zm-1.55-4.374h-4.5l-.58-7.622a29.051,29.051,0,0,0,5.834-.829ZM58.738,83.4a7.864,7.864,0,0,1-2.65,1.594,1.086,1.086,0,0,0-.193.073,25.329,25.329,0,0,1-7.721,1.189,1.114,1.114,0,0,0-.124,0h-.012c-1.487.032-2.791-.01-3.67-.039a11.278,11.278,0,0,0-1.341-.008,1.092,1.092,0,0,0-.963.987l-.79,8.819h-4.5l-.535-7.083a1.092,1.092,0,0,0-1.089-1.01H19.434c-.086-.015-4.537,0-4.537,0a8.64,8.64,0,0,1-1.157-.077,1.092,1.092,0,0,0-1.235.993l-.586,7.176H7.425l-.485-6.386c-.415-5.446-.677-9.739-.765-14.817a12.6,12.6,0,0,0,4.311.861,7.492,7.492,0,0,0,2.385-.367A6.4,6.4,0,0,0,16.715,71.7a7.94,7.94,0,0,1,2.138-2.924,1.092,1.092,0,0,0-1.383-1.69,10.061,10.061,0,0,0-2.74,3.7,4.25,4.25,0,0,1-2.552,2.446c-1.974.661-4.5-.089-6.03-.792,0-.506,0-1.02,0-1.546A14.356,14.356,0,0,1,20.481,56.558h5.052c.436,6.728-1.4,7.513-2.63,8.039a1.092,1.092,0,1,0,.859,2.008c2.669-1.141,4.366-3.329,3.958-10.047h8.072a3.873,3.873,0,0,0,.1.743c.517,2.447,3.215,4.08,5.917,4.74.029.356.074.707.124,1.057a5.979,5.979,0,0,0-4.012,1.459c-1.27,1.281-1.245,3.092-1.22,4.843.025,1.81.052,3.682-1.175,5.313a4.471,4.471,0,0,0-.222,5.177,8.065,8.065,0,0,0,6.711,3.681A6.756,6.756,0,0,0,43,83.5a6.276,6.276,0,0,0,4.958-4.051,12.466,12.466,0,0,0,7.206,2.4,11.872,11.872,0,0,0,4.922-1.092A4.361,4.361,0,0,1,58.738,83.4Zm7.327-18.915c-.112.76-.228,1.547-.29,2.336l-.026.331A15.687,15.687,0,0,0,57.8,64.475a1.092,1.092,0,1,0-.227,2.172c4.309.451,7.493,1.981,8.113,3.9.654,2.023-1.432,4.436-3.3,6.105a13.883,13.883,0,0,1-1.7,1.309c-.028.016-.055.033-.081.052-4.113,2.623-8.721,2.17-12.662-1.361-2.765-2.475-3.943-4.639-3.406-6.257.046-.138.115-.263.172-.4.919-1.717,3.978-3.026,8.013-3.389a1.092,1.092,0,1,0-.2-2.175A15.965,15.965,0,0,0,44.6,66.956l-.082-1.069c-.064-.849-.183-1.592-.3-2.31a8.826,8.826,0,0,1,.084-4.569,11.429,11.429,0,0,1,21.752,0A12,12,0,0,1,66.065,64.485Zm2.4-4.64a8.839,8.839,0,0,0-.339-1.507,13.606,13.606,0,0,0-2.946-5.058,4.089,4.089,0,0,1,3.073,1.158,7.878,7.878,0,0,0,4,2.569C71.9,58.144,70.367,59.269,68.468,59.845Z" transform="translate(0 -39.732)"/>
        </g>
      </g>
    </g>
  </g>
</svg>
