<svg xmlns="http://www.w3.org/2000/svg" xmlns:xlink="http://www.w3.org/1999/xlink" width="130" height="130" viewBox="0 0 130 130">
  <defs>
    <filter id="Elipse_11689" x="0" y="0" width="130" height="130" filterUnits="userSpaceOnUse">
      <feOffset input="SourceAlpha"/>
      <feGaussianBlur stdDeviation="5" result="blur"/>
      <feFlood flood-opacity="0.161"/>
      <feComposite operator="in" in2="blur"/>
      <feComposite in="SourceGraphic"/>
    </filter>
  </defs>
  <g id="Grupo_1110797" data-name="Grupo 1110797" transform="translate(-893.051 -4327)">
    <g transform="matrix(1, 0, 0, 1, 893.05, 4327)" filter="url(#Elipse_11689)">
      <circle id="Elipse_11689-2" data-name="Elipse 11689" cx="50" cy="50" r="50" transform="translate(15 15)" fill="#fff"/>
    </g>
    <g id="Grupo_1110796" data-name="Grupo 1110796" transform="translate(926.501 4364.398)">
      <path id="Trazado_910739" data-name="Trazado 910739" d="M84.787,131.156l-.822,5.578-4.049,27.553-.031.222-.032-.232c-.622,3.068-10.755,5.5-23.166,5.5s-22.544-2.436-23.166-5.5l-.032.232-.031-.222-4.049-27.553-.822-5.578Zm0,0" transform="translate(-25.053 -114.949)" fill="#c81e1e"/>
      <path id="Trazado_910740" data-name="Trazado 910740" d="M86.855,131.156l-.772,5.578-3.8,27.553-.029.222-.03-.232c-.584,3.068-10.089,5.5-21.732,5.5s-21.148-2.436-21.732-5.5l-.029.232-.029-.222-3.8-27.553-.772-5.578Zm0,0" transform="translate(-29.915 -114.949)" fill="#f44335"/>
      <path id="Trazado_910741" data-name="Trazado 910741" d="M69.692,59.734v6.327c0,.822-.749,1.6-2.109,2.32a3.877,3.877,0,0,1-.369.179,22.582,22.582,0,0,1-3.828,1.35C57.8,71.417,49,72.387,39.113,72.387c-12.6,0-23.419-1.582-28.1-3.828a3.878,3.878,0,0,1-.369-.179c-1.36-.717-2.109-1.5-2.109-2.32V59.734Zm0,0" transform="translate(-7.48 -52.353)" fill="#bb193b"/>
      <path id="Trazado_910742" data-name="Trazado 910742" d="M66.529,68.266v6.327c0,.822-.749,1.6-2.109,2.32a4.066,4.066,0,0,1-.369.18c-.211.105-.432.2-.664.295C57.8,78.894,49,79.864,39.113,79.864c-12.6,0-23.419-1.582-28.1-3.828a3.876,3.876,0,0,1-.369-.179c-1.36-.717-2.109-1.5-2.109-2.32V68.266Zm0,0" transform="translate(-7.48 -59.83)" fill="#ef314c"/>
      <path id="Trazado_910743" data-name="Trazado 910743" d="M185.33,258.108a2.124,2.124,0,0,1-2.109,2.109h-18.98a2.109,2.109,0,1,1,0-4.218h18.98A2.115,2.115,0,0,1,185.33,258.108Zm0,0" transform="translate(-142.098 -224.366)" fill="#545c60"/>
      <path id="Trazado_910744" data-name="Trazado 910744" d="M182.167,258.108a2.124,2.124,0,0,1-2.109,2.109H164.242a2.109,2.109,0,1,1,0-4.218h15.817A2.115,2.115,0,0,1,182.167,258.108Zm0,0" transform="translate(-142.099 -224.366)" fill="#7f8e94"/>
      <path id="Trazado_910745" data-name="Trazado 910745" d="M69.692,14.862c0-3.494-13.69-6.327-30.579-6.327S8.535,11.368,8.535,14.862s13.69,6.327,30.579,6.327S69.692,18.356,69.692,14.862Zm0,0" transform="translate(-7.48 -7.48)" fill="#c81e1e"/>
      <path id="Trazado_910746" data-name="Trazado 910746" d="M94.68,62.9a40.1,40.1,0,0,1-6.053,1.54A115.723,115.723,0,0,1,68.2,66.061c-10.7,0-20.119-1.139-25.581-2.857-.316-.106-.612-.2-.9-.306,5.294-1.887,15.163-3.163,26.477-3.163S89.386,61.01,94.68,62.9Zm0,0" transform="translate(-36.57 -52.353)" fill="#0377bc"/>
      <path id="Trazado_910747" data-name="Trazado 910747" d="M94.985,77.49a115.722,115.722,0,0,1-20.424,1.624c-10.7,0-20.119-1.139-25.581-2.857A115.735,115.735,0,0,1,69.4,74.632C80.107,74.632,89.523,75.771,94.985,77.49Zm0,0" transform="translate(-42.928 -65.406)" fill="#02a9f4"/>
      <path id="Trazado_910748" data-name="Trazado 910748" d="M31.633,14.762C20.692,14.762,0,13.22,0,7.381S20.692,0,31.633,0,63.266,1.543,63.266,7.381,42.575,14.762,31.633,14.762Zm0-12.653c-19.1,0-29.524,3.483-29.524,5.272s10.421,5.272,29.524,5.272S61.158,9.171,61.158,7.381,50.737,2.109,31.633,2.109Zm0,0" transform="translate(0 0)"/>
      <path id="Trazado_910749" data-name="Trazado 910749" d="M31.634,110.834c-12.369,0-23.579-1.544-28.557-3.931-.141-.061-.28-.128-.416-.2C.9,105.77,0,104.676,0,103.453a1.054,1.054,0,1,1,2.109,0c0,.264.405.784,1.547,1.387a2.7,2.7,0,0,0,.281.138c4.768,2.286,15.619,3.748,27.7,3.748S54.563,107.264,59.278,105a3.477,3.477,0,0,0,.322-.156c1.152-.609,1.557-1.129,1.557-1.393a1.054,1.054,0,1,1,2.109,0c0,1.223-.9,2.317-2.671,3.253-.137.073-.3.153-.458.221-4.926,2.364-16.135,3.908-28.5,3.908Zm0,0" transform="translate(0 -89.745)"/>
      <path id="Trazado_910750" data-name="Trazado 910750" d="M87.2,56.472a1.066,1.066,0,0,1-.354-.061c-5.366-1.914-15.375-3.1-26.123-3.1S39.967,54.5,34.6,56.411a1.055,1.055,0,1,1-.709-1.987C39.471,52.435,49.751,51.2,60.724,51.2s21.253,1.236,26.831,3.224a1.054,1.054,0,0,1-.354,2.048Zm0,0" transform="translate(-29.09 -44.873)"/>
      <path id="Trazado_910751" data-name="Trazado 910751" d="M84.208,398.269c-11.035,0-23.315-1.986-24.2-6.348a1.055,1.055,0,1,1,2.067-.42c.394,1.946,9,4.659,22.132,4.659s21.738-2.713,22.132-4.659a1.055,1.055,0,0,1,2.067.42c-.884,4.362-13.164,6.348-24.2,6.348Zm0,0" transform="translate(-52.575 -342.384)"/>
      <path id="Trazado_910752" data-name="Trazado 910752" d="M1.055,59.635A1.054,1.054,0,0,1,0,58.581V52.254a1.054,1.054,0,1,1,2.109,0v6.327A1.054,1.054,0,0,1,1.055,59.635Zm0,0" transform="translate(0 -44.873)"/>
      <path id="Trazado_910753" data-name="Trazado 910753" d="M495.988,59.635a1.054,1.054,0,0,1-1.054-1.054V52.254a1.054,1.054,0,1,1,2.109,0v6.327A1.054,1.054,0,0,1,495.988,59.635Zm0,0" transform="translate(-433.776 -44.873)"/>
      <path id="Trazado_910754" data-name="Trazado 910754" d="M26.02,158.164a1.055,1.055,0,0,1-1.043-.906l-.031-.222L20.076,123.91a1.055,1.055,0,0,1,2.087-.307l4.9,33.357a1.054,1.054,0,0,1-1.045,1.2Zm0,0" transform="translate(-17.586 -107.55)"/>
      <path id="Trazado_910755" data-name="Trazado 910755" d="M436.255,158.164a1.053,1.053,0,0,1-1.046-1.2l.031-.222,4.873-33.135a1.054,1.054,0,0,1,2.086.307l-4.9,33.347A1.054,1.054,0,0,1,436.255,158.164Zm0,0" transform="translate(-381.422 -107.55)"/>
      <path id="Trazado_910756" data-name="Trazado 910756" d="M175.744,253.792h-18.98a3.164,3.164,0,0,1,0-6.327h18.98a3.164,3.164,0,0,1,0,6.327Zm-18.98-4.218a1.054,1.054,0,0,0,0,2.109h18.98a1.054,1.054,0,0,0,0-2.109Zm0,0" transform="translate(-134.621 -216.886)"/>
      <path id="Trazado_910757" data-name="Trazado 910757" d="M35.044,140.524a1.038,1.038,0,0,1-.272-.036,32.038,32.038,0,0,1-10.092-4.576,18,18,0,0,1-6.337-7.51c-.013-.029-.023-.057-.033-.087a16.082,16.082,0,0,1-1.244-6.081,1.055,1.055,0,0,1,1.039-1.07,1.024,1.024,0,0,1,1.07,1.039,13.972,13.972,0,0,0,1.105,5.356c.012.028.023.056.032.085a15.988,15.988,0,0,0,5.589,6.548,29.98,29.98,0,0,0,9.414,4.258,1.054,1.054,0,0,1-.271,2.073Zm0,0" transform="translate(-14.957 -106.192)"/>
      <path id="Trazado_910758" data-name="Trazado 910758" d="M341.964,140.527a1.054,1.054,0,0,1-.273-2.073c3.511-.942,11.981-3.88,15.006-10.81.01-.028.02-.056.031-.081a13.973,13.973,0,0,0,1.105-5.356,1.033,1.033,0,0,1,1.07-1.039,1.055,1.055,0,0,1,1.039,1.07,16.093,16.093,0,0,1-1.245,6.085c-.009.028-.02.057-.032.083-3.242,7.547-11.684,10.811-16.427,12.085a1.057,1.057,0,0,1-.274.036Zm0,0" transform="translate(-298.785 -106.195)"/>
      <path id="Trazado_910759" data-name="Trazado 910759" d="M87.9,321.451a1.055,1.055,0,0,1-1.045-.924l-.991-7.929a1.054,1.054,0,0,1,2.092-.262l.991,7.93a1.054,1.054,0,0,1-.916,1.177A1.2,1.2,0,0,1,87.9,321.451Zm0,0" transform="translate(-75.25 -272.947)"/>
      <path id="Trazado_910760" data-name="Trazado 910760" d="M81.172,267.872a1.054,1.054,0,0,1-1.044-.92l-.158-1.224a1.054,1.054,0,0,1,.911-1.181,1.066,1.066,0,0,1,1.181.911l.158,1.223a1.054,1.054,0,0,1-.911,1.181A1.315,1.315,0,0,1,81.172,267.872Zm0,0" transform="translate(-70.081 -231.852)"/>
    </g>
  </g>
</svg>
