<svg xmlns="http://www.w3.org/2000/svg" width="79.383" height="79.384" viewBox="0 0 79.383 79.384">
  <g id="Grupo_1109264" data-name="Grupo 1109264" transform="translate(-0.002)">
    <g id="Grupo_1109263" data-name="Grupo 1109263" transform="translate(0.002)">
      <g id="Grupo_1109262" data-name="Grupo 1109262">
        <path id="Trazado_908583" data-name="Trazado 908583" d="M50.726.429a1.65,1.65,0,0,0-2.219,0c-.72.649-17.193,15.7-24.843,33.155a8.762,8.762,0,0,0-3-.506,8.961,8.961,0,0,0-5.7,1.949,5.746,5.746,0,0,1-3.81,1.358,5.744,5.744,0,0,1-3.805-1.357,8.95,8.95,0,0,0-5.695-1.951,1.654,1.654,0,1,0,0,3.308,5.744,5.744,0,0,1,3.805,1.357,8.95,8.95,0,0,0,5.695,1.951,8.965,8.965,0,0,0,5.7-1.951,6.03,6.03,0,0,1,7.623,0,9.312,9.312,0,0,0,11.4,0,5.752,5.752,0,0,1,3.813-1.358,1.654,1.654,0,0,0,0-3.308,8.976,8.976,0,0,0-5.7,1.949,5.751,5.751,0,0,1-3.811,1.358,5.545,5.545,0,0,1-3.6-1.218C32.8,20.8,45.749,7.652,49.617,3.927c5.15,4.963,26.461,26.647,26.461,45.688a26.424,26.424,0,0,1-44.1,19.677,9.464,9.464,0,0,0,3.9-1.78,5.752,5.752,0,0,1,3.813-1.358,1.654,1.654,0,1,0,0-3.308,8.976,8.976,0,0,0-5.7,1.949,6.03,6.03,0,0,1-7.625,0,8.976,8.976,0,0,0-5.7-1.949,8.961,8.961,0,0,0-5.7,1.949,5.746,5.746,0,0,1-3.81,1.358A5.744,5.744,0,0,1,7.351,64.8a8.95,8.95,0,0,0-5.695-1.951,1.654,1.654,0,1,0,0,3.308A5.744,5.744,0,0,1,5.461,67.51a8.95,8.95,0,0,0,5.695,1.951,8.965,8.965,0,0,0,5.7-1.951,6.03,6.03,0,0,1,7.623,0,11.342,11.342,0,0,0,2.475,1.374A29.751,29.751,0,0,0,79.385,49.615C79.385,26.612,51.9,1.487,50.726.429Z" transform="translate(-0.002 0)" fill="#456345"/>
        <path id="Trazado_908584" data-name="Trazado 908584" d="M1.656,344.646A5.744,5.744,0,0,1,5.461,346a8.95,8.95,0,0,0,5.695,1.951,1.654,1.654,0,0,0,0-3.308,5.744,5.744,0,0,1-3.805-1.357,8.95,8.95,0,0,0-5.695-1.951,1.654,1.654,0,0,0,0,3.308Z" transform="translate(-0.002 -288.415)" fill="#456345"/>
        <path id="Trazado_908585" data-name="Trazado 908585" d="M124.25,341.339a1.654,1.654,0,1,0,0,3.308A5.753,5.753,0,0,1,128.063,346a9.314,9.314,0,0,0,11.4,0,5.752,5.752,0,0,1,3.813-1.358,6.61,6.61,0,0,1,4.07,1.394,9.77,9.77,0,0,0,5.853,1.914,1.654,1.654,0,1,0,0-3.308,6.61,6.61,0,0,1-4.07-1.394,9.77,9.77,0,0,0-5.853-1.914,8.976,8.976,0,0,0-5.7,1.949,6.032,6.032,0,0,1-7.626,0A8.967,8.967,0,0,0,124.25,341.339Z" transform="translate(-103.588 -288.416)" fill="#456345"/>
        <path id="Trazado_908586" data-name="Trazado 908586" d="M20.663,277.339a8.961,8.961,0,0,0-5.7,1.949,5.746,5.746,0,0,1-3.81,1.358,5.744,5.744,0,0,1-3.805-1.357,8.95,8.95,0,0,0-5.695-1.951,1.654,1.654,0,0,0,0,3.308A5.744,5.744,0,0,1,5.461,282a8.95,8.95,0,0,0,5.695,1.951,8.965,8.965,0,0,0,5.7-1.951,5.753,5.753,0,0,1,3.808-1.357,1.654,1.654,0,0,0,0-3.308Z" transform="translate(-0.002 -234.339)" fill="#456345"/>
        <path id="Trazado_908587" data-name="Trazado 908587" d="M191.327,282a6.023,6.023,0,0,1,7.618,0,9.294,9.294,0,0,0,11.394,0,5.753,5.753,0,0,1,3.808-1.357,1.654,1.654,0,0,0,0-3.308,8.961,8.961,0,0,0-5.7,1.949,6.019,6.019,0,0,1-7.615,0,9.3,9.3,0,0,0-11.4,0,5.751,5.751,0,0,1-3.811,1.358,1.654,1.654,0,1,0,0,3.308A8.975,8.975,0,0,0,191.327,282Z" transform="translate(-155.448 -234.338)" fill="#456345"/>
      </g>
    </g>
  </g>
</svg>
