<svg xmlns="http://www.w3.org/2000/svg" width="430.051" height="85" viewBox="0 0 430.051 85">
  <g id="Grupo_1110861" data-name="Grupo 1110861" transform="translate(-214 -407)">
    <g id="Grupo_1108330" data-name="Grupo 1108330" transform="translate(34 -280)">
      <circle id="Elipse_11626" data-name="Elipse 11626" cx="42.5" cy="42.5" r="42.5" transform="translate(180.051 687)" fill="#ff7c32"/>
      <g id="Grupo_1108329" data-name="Grupo 1108329" transform="translate(180 646.095)">
        <path id="Trazado_896391" data-name="Trazado 896391" d="M114.143,337.1a4.98,4.98,0,0,1-4.98-4.98V352.6h6.546V337.1Z" transform="translate(-91.04 -236.082)" fill="#d88a55"/>
        <path id="Trazado_896392" data-name="Trazado 896392" d="M109.163,332.125V352.6h3.32V336.821A4.981,4.981,0,0,1,109.163,332.125Z" transform="translate(-91.04 -236.082)" fill="#c57a44"/>
        <path id="Trazado_896393" data-name="Trazado 896393" d="M356.106,362.122h6.546v15.494h-6.546Z" transform="translate(-296.987 -261.099)" fill="#d88a55"/>
        <path id="Trazado_896394" data-name="Trazado 896394" d="M356.106,362.122h3.32v15.494h-3.32Z" transform="translate(-296.987 -261.099)" fill="#c57a44"/>
        <path id="Trazado_896395" data-name="Trazado 896395" d="M356.106,424.2h6.546v5.188h-6.546Z" transform="translate(-296.987 -312.873)" fill="#32569d"/>
        <path id="Trazado_896396" data-name="Trazado 896396" d="M356.106,424.2h3.32v5.188h-3.32Z" transform="translate(-296.987 -312.873)" fill="#303a78"/>
        <path id="Trazado_896397" data-name="Trazado 896397" d="M158.175,118.24h-25.13a6.2,6.2,0,0,1-6.718,1.97l-.217-.071v8.507a12.722,12.722,0,0,1-1.853,6.606,6.1,6.1,0,0,1,.306,1.907v.463a6.172,6.172,0,0,1-6.154,6.154h-9.246v9.972a4.98,4.98,0,0,0,4.98,4.98h6.451a1.66,1.66,0,0,1,1.66,1.66v13.834H128.8V160.388a1.66,1.66,0,0,1,1.66-1.66h31.131a1.66,1.66,0,0,1,1.66,1.66v13.834H169.8V129.86A11.62,11.62,0,0,0,158.175,118.24Z" transform="translate(-91.039 -57.705)" fill="#ea9b58"/>
        <path id="Trazado_896398" data-name="Trazado 896398" d="M114.143,282.031v-9.972h-4.98v9.972a4.98,4.98,0,0,0,4.98,4.98h4.98A4.98,4.98,0,0,1,114.143,282.031Z" transform="translate(-91.04 -185.988)" fill="#d88a55"/>
        <path id="Trazado_896399" data-name="Trazado 896399" d="M79.58,62.859V58.716a2.174,2.174,0,0,0-2.168-2.168H77.25a2.174,2.174,0,0,0-2.168,2.168v4.143Z" transform="translate(-62.617 -6.255)" fill="#e7b795"/>
        <path id="Trazado_896400" data-name="Trazado 896400" d="M170.543,62.859V58.716a2.174,2.174,0,0,0-2.168-2.168h-.163a2.174,2.174,0,0,0-2.168,2.168v4.143Z" transform="translate(-138.479 -6.255)" fill="#e7b795"/>
        <path id="Trazado_896401" data-name="Trazado 896401" d="M218.631,94.561h-6.382v6.059a6.375,6.375,0,0,0,7.947-3.844,1.656,1.656,0,0,0-1.565-2.216Z" transform="translate(-177.012 -37.957)" fill="#f6a96c"/>
        <path id="Trazado_896402" data-name="Trazado 896402" d="M15.538,94.561H9.156a1.656,1.656,0,0,0-1.565,2.216,6.375,6.375,0,0,0,7.947,3.844V94.561Z" transform="translate(-6.246 -37.957)" fill="#f6a96c"/>
        <path id="Trazado_896403" data-name="Trazado 896403" d="M10.912,96.776a1.656,1.656,0,0,1,1.565-2.216H9.157a1.656,1.656,0,0,0-1.565,2.216,6.375,6.375,0,0,0,7.635,3.936,6.385,6.385,0,0,1-4.315-3.936Z" transform="translate(-6.246 -37.956)" fill="#ea9b58"/>
        <path id="Trazado_896404" data-name="Trazado 896404" d="M55.973,94.561V108.9a12.866,12.866,0,0,0,1.954,6.82,6.178,6.178,0,0,1,5.914-4.461H74.05a6.178,6.178,0,0,1,5.914,4.461,12.865,12.865,0,0,0,1.953-6.82V94.561Z" transform="translate(-46.68 -37.957)" fill="#d88a55"/>
        <path id="Trazado_896405" data-name="Trazado 896405" d="M61.288,111.817a12.881,12.881,0,0,1-.335-2.918V94.561h-4.98V108.9a12.866,12.866,0,0,0,1.954,6.82A6.2,6.2,0,0,1,61.288,111.817Z" transform="translate(-46.68 -37.957)" fill="#c57a44"/>
        <path id="Trazado_896406" data-name="Trazado 896406" d="M82.656,207.9H72.447a6.172,6.172,0,0,1-6.154-6.154v-.463a6.172,6.172,0,0,1,6.154-6.154H82.656a6.172,6.172,0,0,1,6.154,6.154v.463A6.172,6.172,0,0,1,82.656,207.9Z" transform="translate(-55.287 -121.831)" fill="#edcab2"/>
        <path id="Trazado_896407" data-name="Trazado 896407" d="M69.945,201.749v-.463a6.172,6.172,0,0,1,6.154-6.154H72.447a6.172,6.172,0,0,0-6.154,6.154v.463a6.172,6.172,0,0,0,6.154,6.154H76.1A6.173,6.173,0,0,1,69.945,201.749Z" transform="translate(-55.287 -121.832)" fill="#e7b795"/>
        <path id="Trazado_896408" data-name="Trazado 896408" d="M109.163,424.2h6.546v5.188h-6.546Z" transform="translate(-91.04 -312.873)" fill="#32569d"/>
        <path id="Trazado_896409" data-name="Trazado 896409" d="M109.163,424.2h3.32v5.188h-3.32Z" transform="translate(-91.04 -312.873)" fill="#303a78"/>
        <path id="Trazado_896410" data-name="Trazado 896410" d="M434.961,424.2h6.546v5.188h-6.546Z" transform="translate(-362.751 -312.873)" fill="#32569d"/>
        <path id="Trazado_896411" data-name="Trazado 896411" d="M434.961,424.2h3.32v5.188h-3.32Z" transform="translate(-362.751 -312.873)" fill="#303a78"/>
        <path id="Trazado_896412" data-name="Trazado 896412" d="M188.018,424.2h6.546v5.188h-6.546Z" transform="translate(-156.804 -312.873)" fill="#32569d"/>
        <path id="Trazado_896413" data-name="Trazado 896413" d="M188.018,424.2h3.32v5.188h-3.32Z" transform="translate(-156.804 -312.873)" fill="#303a78"/>
        <path id="Trazado_896414" data-name="Trazado 896414" d="M83.755,115.272H80V86.449a1.245,1.245,0,0,0-2.49,0v23.635H73.455v-7.4a2.908,2.908,0,0,0-2.905-2.905H49.362a1.245,1.245,0,0,0,0,2.49h8.512v13H56.138v-2.194a1.245,1.245,0,1,0-2.49,0v2.194H52.154v-2.194a1.245,1.245,0,1,0-2.49,0v2.194H48.17v-2.194a1.245,1.245,0,1,0-2.49,0v2.194H44.186v-2.194a1.245,1.245,0,1,0-2.49,0v2.194H39V102.683a.415.415,0,0,1,.415-.415h4.021a1.245,1.245,0,0,0,0-2.49H39.42a2.908,2.908,0,0,0-2.905,2.905v7.4H32.459v-7.4a2.908,2.908,0,0,0-2.905-2.905H23.1a3.739,3.739,0,0,1-3.735-3.735V87.316h8a7.408,7.408,0,0,0,7.4-7.4v-.463a7.4,7.4,0,0,0-.151-1.492,14.112,14.112,0,0,0,1.864-7.021,1.245,1.245,0,0,0-2.49,0,11.643,11.643,0,0,1-.725,4.05,7.392,7.392,0,0,0-5.9-2.937H17.16a7.391,7.391,0,0,0-5.9,2.937,11.644,11.644,0,0,1-.725-4.05V57.849H33.991V65.06a1.245,1.245,0,1,0,2.49,0v-.879c.239.023.481.039.726.039a7.646,7.646,0,0,0,5.581-2.44H67.136A10.387,10.387,0,0,1,77.511,72.155v8.428a1.245,1.245,0,1,0,2.49,0V72.155A12.88,12.88,0,0,0,67.136,59.29h-22.8l.015-.037a2.877,2.877,0,0,0-.339-2.642,2.917,2.917,0,0,0-2.393-1.252H33.309v-2.9A3.417,3.417,0,0,0,29.9,49.048h-.163a3.417,3.417,0,0,0-3.413,3.413v2.9H18.208v-2.9A3.417,3.417,0,0,0,14.8,49.048h-.163a3.417,3.417,0,0,0-3.413,3.413v2.9H2.911A2.917,2.917,0,0,0,.517,56.61a2.878,2.878,0,0,0-.339,2.642,7.649,7.649,0,0,0,7.143,4.968c.245,0,.487-.016.726-.039v6.76a14.111,14.111,0,0,0,1.864,7.021,7.4,7.4,0,0,0-.151,1.492v.463a7.407,7.407,0,0,0,7.117,7.392v27.963H15.3v-2.194a1.245,1.245,0,0,0-2.49,0v2.194h-1v-2.194a1.245,1.245,0,0,0-2.49,0v2.194H7.706a1.245,1.245,0,1,0,0,2.49H83.755a1.245,1.245,0,0,0,0-2.49ZM36.482,57.849h5.137a.423.423,0,0,1,.349.184.373.373,0,0,1,.048.354,5.121,5.121,0,0,1-5.534,3.291Zm-7.671-5.388a.924.924,0,0,1,.923-.923H29.9a.924.924,0,0,1,.923.923v2.9H28.811v-2.9Zm-15.1,0a.924.924,0,0,1,.923-.923H14.8a.924.924,0,0,1,.923.923v2.9H13.71v-2.9ZM8.047,61.678a5.121,5.121,0,0,1-5.534-3.292.373.373,0,0,1,.049-.354.422.422,0,0,1,.349-.184H8.047Zm4.2,18.239v-.463a4.915,4.915,0,0,1,4.909-4.909H27.369a4.915,4.915,0,0,1,4.909,4.909v.463a4.915,4.915,0,0,1-4.909,4.909H17.16a4.915,4.915,0,0,1-4.909-4.909Zm11.172,35.355H19.368v-2.7h4.055Zm0-5.188H19.368V101.02a6.193,6.193,0,0,0,3.735,1.248h.321Zm6.546,5.188H25.914v-13h3.641a.415.415,0,0,1,.415.415Zm6.545,0H32.459v-2.7h4.055Zm27.905,0H60.364v-2.7H64.42Zm0-5.188H60.364v-7.816H64.42Zm6.546,5.188H66.91v-13H70.55a.415.415,0,0,1,.415.415Zm6.546,0H73.455v-2.7h4.055Z"/>
        <path id="Trazado_896415" data-name="Trazado 896415" d="M93.443,143.8v2.5a1.245,1.245,0,0,0,2.49,0v-2.5a1.245,1.245,0,0,0-2.49,0Z" transform="translate(-77.93 -77.985)"/>
        <path id="Trazado_896416" data-name="Trazado 896416" d="M159.779,143.8v2.5a1.245,1.245,0,1,0,2.49,0v-2.5a1.245,1.245,0,1,0-2.49,0Z" transform="translate(-133.253 -77.985)"/>
        <path id="Trazado_896417" data-name="Trazado 896417" d="M97.851,222.5H95.859a1.245,1.245,0,0,0,0,2.49h1.992a1.245,1.245,0,0,0,0-2.49Z" transform="translate(-78.906 -144.658)"/>
        <path id="Trazado_896418" data-name="Trazado 896418" d="M151.091,223.747a1.245,1.245,0,0,0-1.245-1.245h-1.992a1.245,1.245,0,0,0,0,2.49h1.992A1.245,1.245,0,0,0,151.091,223.747Z" transform="translate(-122.27 -144.658)"/>
      </g>
    </g>
    <g id="Grupo_1108371" data-name="Grupo 1108371" transform="translate(115 -597)">
      <circle id="Elipse_11626-2" data-name="Elipse 11626" cx="42.5" cy="42.5" r="42.5" transform="translate(214.051 1004)" fill="#ff7c32"/>
      <g id="Grupo_1108335" data-name="Grupo 1108335" transform="translate(217.972 1009)">
        <g id="Grupo_1108333" data-name="Grupo 1108333" transform="translate(1.13 1.131)">
          <g id="Grupo_1108332" data-name="Grupo 1108332">
            <path id="Trazado_896419" data-name="Trazado 896419" d="M283.958,92.256S283.109,84,288.736,71.8c.223-.483.824-1.479.347-1.243a19.037,19.037,0,0,0-3.182,1.516,22.779,22.779,0,0,0-9.389,18.677Z" transform="translate(-235.962 -62.32)" fill="#ffe177"/>
            <path id="Trazado_896420" data-name="Trazado 896420" d="M317.963,65.94a25.769,25.769,0,0,0-3.655,2.191c-4.926,11.371-4.339,18.676-4.339,18.676L313,88.314l.741-1.507s-.639-7.93,4.988-20.13A.562.562,0,0,0,317.963,65.94Z" transform="translate(-264.369 -58.377)" fill="#ffc344"/>
            <path id="Trazado_896421" data-name="Trazado 896421" d="M338.18,90.841S336.84,82.7,342.467,70.5c.223-.483,1.1-1.849.626-1.614a23.849,23.849,0,0,0-4.71,2.633,22.815,22.815,0,0,0-8.27,17.819Z" transform="translate(-281.486 -60.905)" fill="#ffe177"/>
            <path id="Trazado_896422" data-name="Trazado 896422" d="M367.318,65.94a25.162,25.162,0,0,0-4.773,3.049c-4.532,10.88-3.974,17.817-3.974,17.817l2.451,2.943,2.07-2.943s-.639-7.93,4.988-20.13A.562.562,0,0,0,367.318,65.94Z" transform="translate(-305.646 -58.377)" fill="#ffc344"/>
            <path id="Trazado_896423" data-name="Trazado 896423" d="M391.477,91.508s-1.122-7.843,4.506-20.042c.223-.483,1-2.037.527-1.8a22.005,22.005,0,0,0-4.524,2.518A22.815,22.815,0,0,0,383.715,90Z" transform="translate(-327.01 -61.571)" fill="#ffe177"/>
            <path id="Trazado_896424" data-name="Trazado 896424" d="M420.919,65.94a25.171,25.171,0,0,0-4.773,3.049c-4.532,10.88-3.974,17.817-3.974,17.817l3.627,1.507.894-1.507s-.639-7.93,4.988-20.13A.562.562,0,0,0,420.919,65.94Z" transform="translate(-351.169 -58.377)" fill="#ffc344"/>
            <path id="Trazado_896425" data-name="Trazado 896425" d="M180.228,49.532s.639-7.93-4.988-20.13a.562.562,0,0,1,.763-.737,22.8,22.8,0,0,1,13.044,20.866h-8.819Z" transform="translate(-149.916 -26.72)" fill="#f6ab31"/>
            <path id="Trazado_896426" data-name="Trazado 896426" d="M43.308,90.28s.577-7.165-4.2-18.351c-.249-.582-.142-.913-.421-1.517-.223-.483.162-.547.639-.311C53.253,76.987,50.62,91.787,50.62,91.787Z" transform="translate(-33.934 -61.85)" fill="#ffe177"/>
            <path id="Trazado_896427" data-name="Trazado 896427" d="M37.063,65.94a.562.562,0,0,0-.763.737q.418.905.79,1.779a22.793,22.793,0,0,1,8.949,18.351l2.375,1.507,1.694-1.507A22.8,22.8,0,0,0,37.063,65.94Z" transform="translate(-31.914 -58.377)" fill="#ffc344"/>
            <path id="Trazado_896428" data-name="Trazado 896428" d="M96.6,91.569s.577-7.165-4.2-18.351c-.249-.582-.229-1.01-.508-1.613-.223-.483.741.653,1.218.889,13.925,6.886,11.863,20.269,11.863,20.269Z" transform="translate(-79.147 -63.139)" fill="#ffe177"/>
            <path id="Trazado_896429" data-name="Trazado 896429" d="M90.664,65.94a.562.562,0,0,0-.763.737q.418.905.79,1.779a22.792,22.792,0,0,1,8.949,18.351l1.852,1.507,2.217-1.507A22.8,22.8,0,0,0,90.664,65.94Z" transform="translate(-77.438 -58.377)" fill="#ffc344"/>
            <path id="Trazado_896430" data-name="Trazado 896430" d="M152.108,92.7s.577-7.165-4.2-18.351c-.249-.582.148-.667-.13-1.27-.223-.483.1-.189.577.047,13.925,6.886,10.429,20.912,10.429,20.912Z" transform="translate(-126.578 -64.274)" fill="#ffe177"/>
            <path id="Trazado_896431" data-name="Trazado 896431" d="M144.266,65.94a.562.562,0,0,0-.763.737q.418.905.79,1.779a22.793,22.793,0,0,1,8.949,18.351l1.927,1.507,2.142-1.507A22.8,22.8,0,0,0,144.266,65.94Z" transform="translate(-122.962 -58.377)" fill="#ffc344"/>
            <path id="Trazado_896432" data-name="Trazado 896432" d="M223.63,48.273s2-10.848,9.642-27.421c.3-.656.72-2.022.072-1.7a30.311,30.311,0,0,0-3.822,1.957,30.928,30.928,0,0,0-13.615,25.972Z" transform="translate(-184.487 -18.65)" fill="#ffe177"/>
            <path id="Trazado_896433" data-name="Trazado 896433" d="M275.585,16.181a35.523,35.523,0,0,0-4.1,2.376c-6.976,15.791-6.156,25.971-6.156,25.971l2.75,1.507,1.771-1.507s-.868-10.773,6.776-27.346a.763.763,0,0,0-1.036-1Z" transform="translate(-226.444 -16.098)" fill="#ffc344"/>
            <path id="Trazado_896434" data-name="Trazado 896434" d="M87.722,235.807h50.72v34.516H87.722Z" transform="translate(-75.632 -202.696)" fill="#ffc344"/>
            <path id="Trazado_896435" data-name="Trazado 896435" d="M58.463,248.307h6.614v30.965H58.463Z" transform="translate(-50.783 -213.312)" fill="#d6694b"/>
            <path id="Trazado_896436" data-name="Trazado 896436" d="M87.722,248.307h4.409v30.965H87.722Z" transform="translate(-75.632 -213.312)" fill="#a74b30"/>
            <path id="Trazado_896437" data-name="Trazado 896437" d="M395.018,253.307h5.54v28.7h-5.54Z" transform="translate(-336.618 -217.559)" fill="#d6694b"/>
            <path id="Trazado_896438" data-name="Trazado 896438" d="M424.278,253.307h4.409v28.7h-4.409Z" transform="translate(-361.469 -217.559)" fill="#a74b30"/>
            <path id="Trazado_896439" data-name="Trazado 896439" d="M80.138,328.623H8.254a.754.754,0,0,1-.754-.754v-7.855a.754.754,0,0,1,.754-.753H80.138a.754.754,0,0,1,.754.753v7.855A.754.754,0,0,1,80.138,328.623Z" transform="translate(-7.5 -273.573)" fill="#e49280"/>
            <path id="Trazado_896440" data-name="Trazado 896440" d="M80.138,443.139H8.254a.754.754,0,0,1-.754-.754v-7.855a.754.754,0,0,1,.754-.753H80.138a.754.754,0,0,1,.754.753v7.855A.754.754,0,0,1,80.138,443.139Z" transform="translate(-7.5 -370.832)" fill="#e49280"/>
            <path id="Trazado_896441" data-name="Trazado 896441" d="M80.138,214.107H8.254a.754.754,0,0,1-.754-.754V205.5a.754.754,0,0,1,.754-.754H80.138a.754.754,0,0,1,.754.754v7.855A.754.754,0,0,1,80.138,214.107Z" transform="translate(-7.5 -176.315)" fill="#e49280"/>
            <g id="Grupo_1108331" data-name="Grupo 1108331" transform="translate(69.624 28.43)">
              <path id="Trazado_896442" data-name="Trazado 896442" d="M474.021,204.745H469.5a.753.753,0,0,1,.753.754v7.855a.754.754,0,0,1-.753.754h4.521a.754.754,0,0,0,.754-.754V205.5A.753.753,0,0,0,474.021,204.745Z" transform="translate(-469.5 -204.745)" fill="#d6694b"/>
              <path id="Trazado_896443" data-name="Trazado 896443" d="M474.021,319.261H469.5a.753.753,0,0,1,.753.753v7.855a.754.754,0,0,1-.753.754h4.521a.754.754,0,0,0,.754-.754v-7.855A.753.753,0,0,0,474.021,319.261Z" transform="translate(-469.5 -302.003)" fill="#d6694b"/>
              <path id="Trazado_896444" data-name="Trazado 896444" d="M474.021,433.777H469.5a.753.753,0,0,1,.753.753v7.855a.753.753,0,0,1-.753.754h4.521a.754.754,0,0,0,.754-.754v-7.855A.753.753,0,0,0,474.021,433.777Z" transform="translate(-469.5 -399.261)" fill="#d6694b"/>
            </g>
          </g>
        </g>
        <g id="Grupo_1108334" data-name="Grupo 1108334" transform="translate(0 0)">
          <path id="Trazado_896445" data-name="Trazado 896445" d="M81.352,228.311a1.13,1.13,0,1,0,1.13,1.13A1.13,1.13,0,0,0,81.352,228.311Z" transform="translate(-68.132 -195.199)"/>
          <path id="Trazado_896446" data-name="Trazado 896446" d="M81.352,345.088a1.13,1.13,0,1,0-1.13-1.13A1.13,1.13,0,0,0,81.352,345.088Z" transform="translate(-68.132 -292.457)"/>
          <path id="Trazado_896447" data-name="Trazado 896447" d="M81.352,457.343a1.13,1.13,0,1,0,1.13,1.13A1.13,1.13,0,0,0,81.352,457.343Z" transform="translate(-68.132 -389.715)"/>
          <path id="Trazado_896448" data-name="Trazado 896448" d="M417.908,230.572a1.13,1.13,0,1,0-1.13-1.13A1.13,1.13,0,0,0,417.908,230.572Z" transform="translate(-353.969 -195.199)"/>
          <path id="Trazado_896449" data-name="Trazado 896449" d="M417.908,345.088a1.13,1.13,0,1,0-1.13-1.13A1.13,1.13,0,0,0,417.908,345.088Z" transform="translate(-353.969 -292.457)"/>
          <path id="Trazado_896450" data-name="Trazado 896450" d="M417.908,459.6a1.13,1.13,0,1,0-1.13-1.13A1.13,1.13,0,0,0,417.908,459.6Z" transform="translate(-353.969 -389.715)"/>
          <path id="Trazado_896451" data-name="Trazado 896451" d="M75.276,48.648a1.886,1.886,0,0,0,1.884-1.884V38.909a1.886,1.886,0,0,0-1.884-1.884H68.54a33.475,33.475,0,0,1,6.543-8.478,1.13,1.13,0,0,0-1.478-1.711,31.575,31.575,0,0,0-5.545,6.631A53.531,53.531,0,0,1,72.669,18.5a1.692,1.692,0,0,0-2.29-2.224,25.4,25.4,0,0,0-7,5.015q.55-1.353,1.211-2.792a1.692,1.692,0,0,0-2.29-2.224,25.4,25.4,0,0,0-7,5.015q.55-1.354,1.21-2.791a1.692,1.692,0,0,0-2.29-2.223,26.254,26.254,0,0,0-5.2,3.362c1.392-4.089,2.8-7.244,3.309-8.354A1.894,1.894,0,0,0,49.77,8.8a35.435,35.435,0,0,0-6.835,4.388,1.13,1.13,0,0,0,1.438,1.744,32.754,32.754,0,0,1,5.471-3.63c-5.832,13.02-6.472,22.316-6.473,25.727h-9.7a30.361,30.361,0,0,1,7.284-18.784,1.13,1.13,0,0,0-1.7-1.489c-.663.758-1.269,1.527-1.825,2.3a24.289,24.289,0,0,0-9.711-8.4,1.692,1.692,0,0,0-2.29,2.223,62.355,62.355,0,0,1,2.644,6.693,26.421,26.421,0,0,0-5.137-3.3,1.692,1.692,0,0,0-2.29,2.223q.663,1.438,1.211,2.791a25.405,25.405,0,0,0-7-5.014,1.692,1.692,0,0,0-2.29,2.223q.663,1.439,1.211,2.791a25.4,25.4,0,0,0-7-5.015A1.692,1.692,0,0,0,4.49,18.5,55.725,55.725,0,0,1,8.822,31.768,30.3,30.3,0,0,0,3.2,23.876a1.13,1.13,0,1,0-1.517,1.676c2.336,2.113,4.513,5.9,6.108,9.16a32.309,32.309,0,0,0-4.93-2.437,1.13,1.13,0,1,0-.84,2.1,28.651,28.651,0,0,1,5.2,2.651H1.884A1.886,1.886,0,0,0,0,38.908v7.855a1.886,1.886,0,0,0,1.884,1.884h5.8v5.635h-5.8A1.886,1.886,0,0,0,0,56.166v7.855a1.886,1.886,0,0,0,1.884,1.884h5.8v5.635h-5.8A1.886,1.886,0,0,0,0,73.424V81.28a1.886,1.886,0,0,0,1.884,1.884H75.276a1.886,1.886,0,0,0,1.884-1.884V73.424a1.886,1.886,0,0,0-1.884-1.884h-5.8V65.906h5.8a1.886,1.886,0,0,0,1.884-1.884V56.167a1.886,1.886,0,0,0-1.884-1.884h-5.8V48.648ZM60.855,29.027a21.228,21.228,0,0,1,9.082-9.954,56.7,56.7,0,0,0-3.826,12.3,35.051,35.051,0,0,0-.606,5.656H59.688a36.643,36.643,0,0,1,1.145-7.955C60.84,29.055,60.848,29.041,60.855,29.027Zm-8.05-.063a21.233,21.233,0,0,1,9.054-9.891c-3.848,8.9-4.388,15.406-4.431,17.952H51.612a37.138,37.138,0,0,1,1.159-7.994C52.783,29.008,52.795,28.986,52.805,28.963Zm-5.218-4.669a22.1,22.1,0,0,1,6.194-5.22c-3.85,8.9-4.4,15.329-4.433,17.951H45.629A48.486,48.486,0,0,1,47.587,24.294ZM36.063,21.128a31.88,31.88,0,0,0-2.473,5.089,22.892,22.892,0,0,0-2.21-3.3,59.737,59.737,0,0,0-3.219-9.464A21.505,21.505,0,0,1,36.063,21.128ZM32.58,29.312a32.628,32.628,0,0,0-1.169,7.713h-3.6c-.041-2.58-.585-9.057-4.432-17.953A21.186,21.186,0,0,1,32.58,29.312Zm-8.173-.229.008.016a36.319,36.319,0,0,1,1.135,7.925H19.731c-.041-2.577-.584-9.056-4.431-17.952a21.22,21.22,0,0,1,9.108,10.011Zm-8.081-.007.01.02a36.338,36.338,0,0,1,1.136,7.928H11.655c-.038-2.607-.584-9.056-4.433-17.952A21.22,21.22,0,0,1,16.327,29.077ZM2.261,39.285H74.9v7.1H53.531a1.13,1.13,0,0,0,0,2.261H58.4v5.635H18.76V48.648H48.605a1.13,1.13,0,0,0,0-2.261H2.261Zm7.68,9.362H16.5v5.635H9.941Zm0,17.258H16.5v5.635H9.941ZM74.9,80.9H2.261V73.8H24.683a1.13,1.13,0,0,0,0-2.261H18.76V65.906H58.4v5.635H29.609a1.13,1.13,0,0,0,0,2.261H74.9Zm-7.68-9.362H60.66V65.906h6.558Zm7.68-7.9H2.261v-7.1H74.9Zm-7.68-9.362H60.66V48.648h6.558Z" transform="translate(0 -8.594)"/>
        </g>
      </g>
    </g>
    <g id="Grupo_1108372" data-name="Grupo 1108372" transform="translate(126 -596)">
      <circle id="Elipse_11630" data-name="Elipse 11630" cx="42.5" cy="42.5" r="42.5" transform="translate(318.051 1003)" fill="#ff7c32"/>
      <g id="Grupo_1108401" data-name="Grupo 1108401" transform="translate(321.913 978.935)">
        <g id="Grupo_1108375" data-name="Grupo 1108375" transform="translate(49.006 53.487)">
          <path id="Trazado_896500" data-name="Trazado 896500" d="M324.69,205.966s0-18.624,9.758-27.749c0,0-4.879,8.75-3.049,27.749Z" transform="translate(-324.69 -178.217)" fill="#51be26"/>
        </g>
        <g id="Grupo_1108376" data-name="Grupo 1108376" transform="translate(49.005 64.37)">
          <path id="Trazado_896501" data-name="Trazado 896501" d="M331.155,264.139h-2.017a1.526,1.526,0,0,1-1.523-1.457,108.227,108.227,0,0,1,.1-12.359,55.95,55.95,0,0,0-3.023,16.866H331.4Q331.246,265.616,331.155,264.139Z" transform="translate(-324.689 -250.323)" fill="#49a61f"/>
        </g>
        <g id="Grupo_1108377" data-name="Grupo 1108377" transform="translate(42.602 47.388)">
          <path id="Trazado_896502" data-name="Trazado 896502" d="M282.264,171.658s0-22.717,9.758-33.847c0,0-4.879,10.672-3.049,33.847Z" transform="translate(-282.264 -137.811)" fill="#a1e42c"/>
        </g>
        <g id="Grupo_1108378" data-name="Grupo 1108378" transform="translate(42.602 63.133)">
          <path id="Trazado_896503" data-name="Trazado 896503" d="M288.765,257.179h-.513a2.135,2.135,0,0,1-2.12-1.889l-1.522-13.164a83.59,83.59,0,0,0-2.347,18.1h6.708Q288.848,258.665,288.765,257.179Z" transform="translate(-282.263 -242.125)" fill="#89c627"/>
        </g>
        <g id="Grupo_1108379" data-name="Grupo 1108379" transform="translate(18.513 53.487)">
          <path id="Trazado_896504" data-name="Trazado 896504" d="M132.418,205.966s0-18.624-9.758-27.749c0,0,4.879,8.75,3.049,27.749Z" transform="translate(-122.66 -178.217)" fill="#51be26"/>
        </g>
        <g id="Grupo_1108380" data-name="Grupo 1108380" transform="translate(21.562 64.369)">
          <path id="Trazado_896505" data-name="Trazado 896505" d="M146.548,250.319a108.2,108.2,0,0,1,.1,12.36,1.526,1.526,0,0,1-1.523,1.457h-2.017q-.093,1.479-.242,3.049h6.708a55.947,55.947,0,0,0-3.023-16.866Z" transform="translate(-142.863 -250.319)" fill="#49a61f"/>
        </g>
        <g id="Grupo_1108381" data-name="Grupo 1108381" transform="translate(24.917 47.388)">
          <path id="Trazado_896506" data-name="Trazado 896506" d="M174.844,171.658s0-22.717-9.758-33.847c0,0,4.879,10.672,3.049,33.847Z" transform="translate(-165.086 -137.811)" fill="#a1e42c"/>
        </g>
        <g id="Grupo_1108382" data-name="Grupo 1108382" transform="translate(27.966 63.133)">
          <path id="Trazado_896507" data-name="Trazado 896507" d="M189.65,242.125l-1.522,13.164a2.135,2.135,0,0,1-2.12,1.889h-.513q-.084,1.487-.207,3.049H192a83.571,83.571,0,0,0-2.347-18.1Z" transform="translate(-185.288 -242.125)" fill="#89c627"/>
        </g>
        <g id="Grupo_1108383" data-name="Grupo 1108383" transform="translate(32.997 32.447)">
          <path id="Trazado_896508" data-name="Trazado 896508" d="M224.265,38.815,218.624,87.6h11.282Z" transform="translate(-218.624 -38.815)" fill="#a1e42c"/>
        </g>
        <g id="Grupo_1108384" data-name="Grupo 1108384" transform="translate(32.997 78.186)">
          <path id="Trazado_896509" data-name="Trazado 896509" d="M218.624,344.913h11.282l-.353-3.049H218.977Z" transform="translate(-218.624 -341.864)" fill="#89c627"/>
        </g>
        <g id="Grupo_1108385" data-name="Grupo 1108385" transform="translate(10.89 60.5)">
          <path id="Trazado_896510" data-name="Trazado 896510" d="M72.15,245.42s0-13.917,9.758-20.735c0,0-4.879,6.538-3.049,20.735Z" transform="translate(-72.15 -224.685)" fill="#51be26"/>
        </g>
        <g id="Grupo_1108386" data-name="Grupo 1108386" transform="translate(10.89 66.073)">
          <path id="Trazado_896511" data-name="Trazado 896511" d="M76.608,261.607l2.154,14.357c.03.266.062.534.1.805H72.15A31.345,31.345,0,0,1,76.608,261.607Z" transform="translate(-72.15 -261.607)" fill="#49a61f"/>
        </g>
        <g id="Grupo_1108387" data-name="Grupo 1108387" transform="translate(1.132 60.5)">
          <path id="Trazado_896512" data-name="Trazado 896512" d="M17.258,245.42s0-13.917-9.758-20.735c0,0,4.879,6.538,3.049,20.735Z" transform="translate(-7.5 -224.685)" fill="#51be26"/>
        </g>
        <g id="Grupo_1108388" data-name="Grupo 1108388" transform="translate(4.181 66.073)">
          <path id="Trazado_896513" data-name="Trazado 896513" d="M34.411,276.769H27.7c.035-.272.067-.539.1-.805l2.154-14.357A31.344,31.344,0,0,1,34.411,276.769Z" transform="translate(-27.703 -261.607)" fill="#49a61f"/>
        </g>
        <g id="Grupo_1108389" data-name="Grupo 1108389" transform="translate(6.316 50.743)">
          <path id="Trazado_896514" data-name="Trazado 896514" d="M46.419,160.035l4.574,30.493H41.845Z" transform="translate(-41.845 -160.035)" fill="#a1e42c"/>
        </g>
        <g id="Grupo_1108390" data-name="Grupo 1108390" transform="translate(6.316 78.186)">
          <path id="Trazado_896515" data-name="Trazado 896515" d="M50.993,344.913H41.845l.457-3.049h8.233Z" transform="translate(-41.845 -341.864)" fill="#89c627"/>
        </g>
        <g id="Grupo_1108391" data-name="Grupo 1108391" transform="translate(1.132 81.235)">
          <path id="Trazado_896516" data-name="Trazado 896516" d="M7.5,362.067H82.512v6.1H7.5Z" transform="translate(-7.5 -362.067)" fill="#a1e42c"/>
        </g>
        <g id="Grupo_1108392" data-name="Grupo 1108392" transform="translate(71.418 81.235)">
          <path id="Trazado_896517" data-name="Trazado 896517" d="M473.185,362.067h4.726v6.1h-4.726Z" transform="translate(-473.185 -362.067)" fill="#89c627"/>
        </g>
        <g id="Grupo_1108393" data-name="Grupo 1108393" transform="translate(1.132 87.334)">
          <path id="Trazado_896518" data-name="Trazado 896518" d="M7.5,402.474H82.512v10.672H7.5Z" transform="translate(-7.5 -402.474)" fill="#c56e37"/>
        </g>
        <g id="Grupo_1108394" data-name="Grupo 1108394" transform="translate(71.418 87.334)">
          <path id="Trazado_896519" data-name="Trazado 896519" d="M473.185,402.474h4.726v10.672h-4.726Z" transform="translate(-473.185 -402.474)" fill="#a95e2c"/>
        </g>
        <g id="Grupo_1108395" data-name="Grupo 1108395" transform="translate(56.629 60.5)">
          <path id="Trazado_896520" data-name="Trazado 896520" d="M384.958,245.42s0-13.917-9.758-20.735c0,0,4.879,6.538,3.049,20.735Z" transform="translate(-375.2 -224.685)" fill="#51be26"/>
        </g>
        <g id="Grupo_1108396" data-name="Grupo 1108396" transform="translate(59.678 66.073)">
          <path id="Trazado_896521" data-name="Trazado 896521" d="M397.652,261.607,395.5,275.964c-.03.266-.062.534-.1.805h6.708A31.342,31.342,0,0,0,397.652,261.607Z" transform="translate(-395.402 -261.607)" fill="#49a61f"/>
        </g>
        <g id="Grupo_1108397" data-name="Grupo 1108397" transform="translate(66.387 60.5)">
          <path id="Trazado_896522" data-name="Trazado 896522" d="M439.85,245.42s0-13.917,9.758-20.735c0,0-4.879,6.538-3.049,20.735Z" transform="translate(-439.85 -224.685)" fill="#51be26"/>
        </g>
        <g id="Grupo_1108398" data-name="Grupo 1108398" transform="translate(66.387 66.073)">
          <path id="Trazado_896523" data-name="Trazado 896523" d="M439.85,276.769h6.708c-.035-.272-.067-.539-.1-.805l-2.154-14.357A31.344,31.344,0,0,0,439.85,276.769Z" transform="translate(-439.85 -261.607)" fill="#49a61f"/>
        </g>
        <g id="Grupo_1108399" data-name="Grupo 1108399" transform="translate(61.813 50.743)">
          <path id="Trazado_896524" data-name="Trazado 896524" d="M414.119,160.035l-4.574,30.493h9.148Z" transform="translate(-409.545 -160.035)" fill="#a1e42c"/>
        </g>
        <g id="Grupo_1108400" data-name="Grupo 1108400" transform="translate(61.813 78.186)">
          <path id="Trazado_896525" data-name="Trazado 896525" d="M409.545,344.913h9.148l-.457-3.049H410Z" transform="translate(-409.545 -341.864)" fill="#89c627"/>
        </g>
        <path id="Trazado_896526" data-name="Trazado 896526" d="M76.144,80.1H74.1c-1.4-12.76,2.773-18.684,2.956-18.936l0-.007a1.131,1.131,0,0,0-1.6-1.563,21.021,21.021,0,0,0-5.692,6.06L67.506,50.575a1.132,1.132,0,0,0-2.239,0L63,65.658a21.145,21.145,0,0,0-5.213-5.711,25.768,25.768,0,0,1,1.96-5.908A1.132,1.132,0,0,0,57.99,52.66c-3.978,3.72-6.39,8.946-7.853,13.887.559-12.571,3.218-18.615,3.252-18.689a1.132,1.132,0,0,0-1.881-1.217c-4.162,4.746-6.6,11.468-8.033,17.784l-.927-8.016a1.132,1.132,0,0,0-2.249.26L43.009,80.1H34.267l4.371-37.8,1.051,9.086a1.132,1.132,0,1,0,2.249-.26L39.763,32.317a1.132,1.132,0,0,0-2.249,0L33.8,64.426C32.37,58.11,29.93,51.388,25.768,46.642a1.132,1.132,0,0,0-1.881,1.217c.034.075,2.7,6.082,3.256,18.7-1.463-4.945-3.875-10.177-7.857-13.9a1.132,1.132,0,0,0-1.762,1.378,25.282,25.282,0,0,1,1.97,5.9,21.146,21.146,0,0,0-5.226,5.724,1.132,1.132,0,0,0-2.221.423l2.1,14.017H7.63L9.241,69.366v-.008L10.89,58.374l.362,2.411a1.132,1.132,0,1,0,2.239-.336l-1.481-9.874a1.132,1.132,0,0,0-2.239,0L7.508,65.658A21.018,21.018,0,0,0,1.815,59.6a1.131,1.131,0,0,0-1.6,1.57h0C.4,61.42,4.575,67.347,3.175,80.1H1.132A1.132,1.132,0,0,0,0,81.236v16.77a1.132,1.132,0,1,0,2.264,0v-9.54H58.883a1.132,1.132,0,1,0,0-2.264H2.264V82.368H75.012V86.2H64.167a1.132,1.132,0,0,0,0,2.264H75.012v9.54a1.132,1.132,0,0,0,2.264,0V81.236A1.132,1.132,0,0,0,76.144,80.1ZM72.882,65.161a37.491,37.491,0,0,0-1.211,13.18l-1.349-8.99A22.113,22.113,0,0,1,72.882,65.161Zm-6.5-6.787L69.646,80.1H63.127ZM56.749,80.1a71.3,71.3,0,0,1,.321-16.276c1.151,2.9,2.484,8.229,1.6,16.276Zm5.7-10.754L61.1,78.343a37.507,37.507,0,0,0-1.211-13.182,22.146,22.146,0,0,1,2.56,4.189ZM54.477,80.1H50.361c-.037-.518-.071-1.024-.1-1.51.3-4,1.388-12.479,5.314-19.215A67.306,67.306,0,0,0,54.477,80.1ZM44.391,72.342c.689-5.43,2.07-12.258,4.839-18.022A97.1,97.1,0,0,0,48,78.635c0,.006,0,.013,0,.019.028.468.06.953.095,1.45h-2.8Zm-11.5,0-.9,7.761h-2.8c.035-.5.067-.982.095-1.45v-.018A97.123,97.123,0,0,0,28.047,54.32C30.817,60.084,32.2,66.912,32.886,72.343Zm-5.87,6.251c-.029.487-.063.992-.1,1.51H22.8a67.279,67.279,0,0,0-1.1-20.725C25.627,66.114,26.715,74.594,27.016,78.594ZM18.6,80.1c-.884-8.062.456-13.4,1.609-16.294A71.427,71.427,0,0,1,20.527,80.1ZM17.386,65.16a37.507,37.507,0,0,0-1.212,13.184L14.825,69.35A22.16,22.16,0,0,1,17.386,65.16ZM6.954,69.351,5.608,78.326A37.646,37.646,0,0,0,4.47,65.369c-.017-.06-.034-.118-.051-.176a22.114,22.114,0,0,1,2.535,4.158Z" transform="translate(0 0)"/>
      </g>
    </g>
    <g id="Grupo_1108373" data-name="Grupo 1108373" transform="translate(110 -596)">
      <circle id="Elipse_11631" data-name="Elipse 11631" cx="42.5" cy="42.5" r="42.5" transform="translate(449.051 1003)" fill="#ff7c32"/>
      <g id="Grupo_1108370" data-name="Grupo 1108370" transform="translate(459.052 1006.999)">
        <g id="Grupo_1108368" data-name="Grupo 1108368" transform="translate(1.13 1.131)">
          <g id="Grupo_1108367" data-name="Grupo 1108367">
            <g id="Grupo_1108349" data-name="Grupo 1108349" transform="translate(51.073 43.694)">
              <path id="Trazado_896468" data-name="Trazado 896468" d="M394.793,301.9h-11.07v-4.46h11.07a1.507,1.507,0,0,1,1.507,1.507v1.446A1.507,1.507,0,0,1,394.793,301.9Z" transform="translate(-383.723 -297.439)" fill="#6c3328"/>
            </g>
            <g id="Grupo_1108366" data-name="Grupo 1108366">
              <g id="Grupo_1108351" data-name="Grupo 1108351" transform="translate(2.514 15.934)">
                <path id="Trazado_896469" data-name="Trazado 896469" d="M109.361,139.433c0-23-23.926-26.2-23.926-26.2s-23.926,3.2-23.926,26.2Z" transform="translate(-61.508 -113.233)" fill="#fca62f"/>
                <g id="Grupo_1108350" data-name="Grupo 1108350" transform="translate(1.889)">
                  <path id="Trazado_896470" data-name="Trazado 896470" d="M111.281,127.089a13.6,13.6,0,0,1,.992,6.72,1.534,1.534,0,0,1-1.48,1.392c-2.03.058-6.038-.479-9.355-4.932a6.846,6.846,0,0,1-4.858,6.907,1.5,1.5,0,0,1-1,0,6.846,6.846,0,0,1-4.858-6.907c-3.317,4.453-7.325,4.991-9.355,4.932a1.534,1.534,0,0,1-1.48-1.392,13.6,13.6,0,0,1,.992-6.72,26.475,26.475,0,0,1-6.834,2.13c5.65-13.793,22.038-15.984,22.038-15.984s16.388,2.191,22.038,15.984A26.475,26.475,0,0,1,111.281,127.089Z" transform="translate(-74.04 -113.234)" fill="#f98824"/>
                  <path id="Trazado_896471" data-name="Trazado 896471" d="M229.333,139.432h-5.276c0-18.253-15.066-24.035-21.288-25.644a25,25,0,0,1,2.638-.556S229.333,116.432,229.333,139.432Z" transform="translate(-183.37 -113.232)" fill="#f98824"/>
                </g>
              </g>
              <g id="Grupo_1108362" data-name="Grupo 1108362" transform="translate(0 40.557)">
                <g id="Grupo_1108352" data-name="Grupo 1108352" transform="translate(3.666 22.694)">
                  <path id="Trazado_896472" data-name="Trazado 896472" d="M72.062,438.86H70.756a1.607,1.607,0,0,1-1.607-1.607V427.212h4.52v10.041a1.607,1.607,0,0,1-1.607,1.607Z" transform="translate(-69.149 -427.212)" fill="#ac8380"/>
                  <path id="Trazado_896473" data-name="Trazado 896473" d="M69.149,427.212h4.52v5.254h-4.52Z" transform="translate(-69.149 -427.212)" fill="#6c524e"/>
                </g>
                <g id="Grupo_1108359" data-name="Grupo 1108359">
                  <path id="Trazado_896474" data-name="Trazado 896474" d="M96.1,301.03H46.431a1.607,1.607,0,0,1-1.607-1.607V278.235a1.607,1.607,0,0,1,1.607-1.607H96.1a1.607,1.607,0,0,1,1.607,1.607v21.188A1.607,1.607,0,0,1,96.1,301.03Z" transform="translate(-44.824 -276.627)" fill="#edc1bb"/>
                  <path id="Trazado_896475" data-name="Trazado 896475" d="M361.051,278.231v21.188a1.608,1.608,0,0,1-1.606,1.608H354.9a1.608,1.608,0,0,0,1.606-1.608V278.231a1.608,1.608,0,0,0-1.606-1.608h4.546A1.608,1.608,0,0,1,361.051,278.231Z" transform="translate(-308.17 -276.623)" fill="#d6a59d"/>
                  <path id="Trazado_896476" data-name="Trazado 896476" d="M44.824,309.215H97.705v14.58H44.824Z" transform="translate(-44.824 -304.303)" fill="#80635e"/>
                  <path id="Trazado_896477" data-name="Trazado 896477" d="M44.824,309.215H97.705v3.29H44.824Z" transform="translate(-44.824 -304.303)" fill="#6c524e"/>
                  <g id="Grupo_1108358" data-name="Grupo 1108358" transform="translate(0 4.912)">
                    <g id="Grupo_1108353" data-name="Grupo 1108353">
                      <path id="Trazado_896478" data-name="Trazado 896478" d="M44.824,309.215h7.328v14.58H44.824Z" transform="translate(-44.824 -309.215)" fill="#d6a59d"/>
                      <path id="Trazado_896479" data-name="Trazado 896479" d="M44.824,309.215h7.328v3.29H44.824Z" transform="translate(-44.824 -309.215)" fill="#ac8380"/>
                    </g>
                    <g id="Grupo_1108354" data-name="Grupo 1108354" transform="translate(15.154)">
                      <path id="Trazado_896480" data-name="Trazado 896480" d="M145.381,309.215h7.328v14.58h-7.328Z" transform="translate(-145.381 -309.215)" fill="#d6a59d"/>
                      <path id="Trazado_896481" data-name="Trazado 896481" d="M145.381,309.215h7.328v3.29h-7.328Z" transform="translate(-145.381 -309.215)" fill="#ac8380"/>
                    </g>
                    <g id="Grupo_1108355" data-name="Grupo 1108355" transform="translate(30.353)">
                      <path id="Trazado_896482" data-name="Trazado 896482" d="M246.238,309.215h7.328v14.58h-7.328Z" transform="translate(-246.238 -309.215)" fill="#d6a59d"/>
                      <path id="Trazado_896483" data-name="Trazado 896483" d="M246.238,309.215h7.328v3.29h-7.328Z" transform="translate(-246.238 -309.215)" fill="#ac8380"/>
                    </g>
                    <g id="Grupo_1108357" data-name="Grupo 1108357" transform="translate(45.552)">
                      <path id="Trazado_896484" data-name="Trazado 896484" d="M347.092,309.219h7.328V323.8h-7.328Z" transform="translate(-347.092 -309.218)" fill="#d6a59d"/>
                      <g id="Grupo_1108356" data-name="Grupo 1108356" transform="translate(0.001)">
                        <path id="Trazado_896485" data-name="Trazado 896485" d="M365.557,309.219H370.1V323.8h-4.546Z" transform="translate(-362.775 -309.218)" fill="#ac8380"/>
                        <path id="Trazado_896486" data-name="Trazado 896486" d="M347.1,309.215h7.328v3.29H347.1Z" transform="translate(-347.096 -309.215)" fill="#ac8380"/>
                      </g>
                    </g>
                  </g>
                </g>
                <ellipse id="Elipse_11627" data-name="Elipse 11627" cx="9.94" cy="9.94" rx="9.94" ry="9.94" transform="translate(24.473 14.463)" fill="#6c3328"/>
                <path id="Trazado_896487" data-name="Trazado 896487" d="M264.987,382.532a9.947,9.947,0,0,1-13.156,9.407,9.416,9.416,0,0,0,0-18.815,9.947,9.947,0,0,1,13.156,9.408Z" transform="translate(-220.635 -358.129)" fill="#54231d"/>
                <g id="Grupo_1108360" data-name="Grupo 1108360" transform="translate(28.343 18.333)">
                  <ellipse id="Elipse_11628" data-name="Elipse 11628" cx="6.07" cy="6.07" rx="6.07" ry="6.07" fill="#ac8380"/>
                </g>
                <g id="Grupo_1108361" data-name="Grupo 1108361" transform="translate(32.239 22.228)">
                  <ellipse id="Elipse_11629" data-name="Elipse 11629" cx="2.174" cy="2.174" rx="2.174" ry="2.174" fill="#fff6f2"/>
                </g>
              </g>
              <g id="Grupo_1108364" data-name="Grupo 1108364" transform="translate(1.856 6.832)">
                <path id="Trazado_896488" data-name="Trazado 896488" d="M106.15,72.23C99.582,58.692,84.9,53.721,82.166,52.9a1.527,1.527,0,0,0-.883,0c-2.731.822-17.417,5.794-23.984,19.332a1.543,1.543,0,0,0,1.509,2.217,24.211,24.211,0,0,0,7.715-2.231,13.571,13.571,0,0,0-.993,6.722,1.535,1.535,0,0,0,1.481,1.392c2.028.058,6.038-.479,9.355-4.932A6.844,6.844,0,0,0,81.222,82.3a1.5,1.5,0,0,0,1,0A6.844,6.844,0,0,0,87.084,75.4c3.317,4.453,7.327,4.991,9.355,4.932a1.535,1.535,0,0,0,1.481-1.392,13.571,13.571,0,0,0-.993-6.722,24.211,24.211,0,0,0,7.715,2.231A1.543,1.543,0,0,0,106.15,72.23Z" transform="translate(-57.139 -52.833)" fill="#fcc16d"/>
                <g id="Grupo_1108363" data-name="Grupo 1108363" transform="translate(5.313)">
                  <path id="Trazado_896489" data-name="Trazado 896489" d="M129.189,66.829a20.868,20.868,0,0,1-5.47-1.7,10.652,10.652,0,0,1,.815,4.992,1.544,1.544,0,0,1-1.575,1.443,8.886,8.886,0,0,1-7.045-3.913,5.415,5.415,0,0,1-3.693,5.419,1.562,1.562,0,0,1-1.115,0,5.415,5.415,0,0,1-3.693-5.419,8.886,8.886,0,0,1-7.045,3.913,1.544,1.544,0,0,1-1.575-1.443,10.652,10.652,0,0,1,.815-4.992,20.876,20.876,0,0,1-5.47,1.7A1.539,1.539,0,0,1,92.566,64.6q.081-.159.166-.314A44.384,44.384,0,0,1,111.222,52.9a1.543,1.543,0,0,1,.884,0A44.387,44.387,0,0,1,130.6,64.282q.085.155.166.314a1.54,1.54,0,0,1-1.573,2.233Z" transform="translate(-92.391 -52.834)" fill="#fca62f"/>
                  <path id="Trazado_896490" data-name="Trazado 896490" d="M220.5,74.447a16.165,16.165,0,0,1-2.31-.368c-6.682-13.44-20.992-18.725-24.634-19.882,1.672-.694,2.95-1.109,3.585-1.3a1.543,1.543,0,0,1,.884,0c2.73.822,17.416,5.795,23.984,19.332A1.543,1.543,0,0,1,220.5,74.447Z" transform="translate(-178.308 -52.833)" fill="#fca62f"/>
                </g>
              </g>
              <g id="Grupo_1108365" data-name="Grupo 1108365" transform="translate(7.169)">
                <path id="Trazado_896491" data-name="Trazado 896491" d="M130.761,22.324C125.507,12.15,114.47,8.293,112.113,7.569a1.529,1.529,0,0,0-.9,0c-2.357.724-13.395,4.581-18.649,14.755a1.539,1.539,0,0,0,1.572,2.233,20.866,20.866,0,0,0,5.469-1.7,10.661,10.661,0,0,0-.814,4.993,1.544,1.544,0,0,0,1.575,1.443,8.886,8.886,0,0,0,7.044-3.913,5.415,5.415,0,0,0,3.694,5.419,1.566,1.566,0,0,0,1.114,0,5.415,5.415,0,0,0,3.694-5.419,8.887,8.887,0,0,0,7.044,3.913,1.544,1.544,0,0,0,1.575-1.443,10.661,10.661,0,0,0-.814-4.993,20.866,20.866,0,0,0,5.469,1.7,1.539,1.539,0,0,0,1.572-2.233Z" transform="translate(-92.392 -7.502)" fill="#ffd496"/>
                <path id="Trazado_896492" data-name="Trazado 896492" d="M212.182,24.557a16.7,16.7,0,0,1-2.8-.667c-5.7-10.1-16.788-13.966-19.207-14.709-.022-.006-.045-.014-.068-.019a33.728,33.728,0,0,1,4.1-1.592,1.507,1.507,0,0,1,.9,0c2.358.722,13.4,4.58,18.65,14.754A1.539,1.539,0,0,1,212.182,24.557Z" transform="translate(-175.384 -7.502)" fill="#fcc16d"/>
              </g>
            </g>
          </g>
        </g>
        <g id="Grupo_1108369" data-name="Grupo 1108369" transform="translate(-0.001 0.001)">
          <path id="Trazado_896493" data-name="Trazado 896493" d="M100.6,43.695H92.466v-.4a2.738,2.738,0,0,0-2.627-2.732,26.084,26.084,0,0,0-2.785-9.93q.34.043.669.069a2.673,2.673,0,0,0,2.615-3.837,33.539,33.539,0,0,0-5.8-8.345,2.7,2.7,0,0,0,.261-.314,2.664,2.664,0,0,0,.2-2.772,27.7,27.7,0,0,0-6.3-8,1.13,1.13,0,1,0-1.5,1.691,25.448,25.448,0,0,1,5.794,7.342.4.4,0,0,1-.031.428.384.384,0,0,1-.38.167,20.01,20.01,0,0,1-5.168-1.612,1.13,1.13,0,0,0-1.47,1.535,9.72,9.72,0,0,1,.7,4.42.41.41,0,0,1-.425.385,7.737,7.737,0,0,1-6.16-3.458,1.13,1.13,0,0,0-2.031.788,4.294,4.294,0,0,1-2.972,4.25.433.433,0,0,1-.309,0,4.294,4.294,0,0,1-2.971-4.25,1.13,1.13,0,0,0-2.031-.788A7.737,7.737,0,0,1,53.578,21.8a.408.408,0,0,1-.425-.384,9.717,9.717,0,0,1,.7-4.42,1.13,1.13,0,0,0-1.47-1.535,20.009,20.009,0,0,1-5.168,1.612.386.386,0,0,1-.381-.167.4.4,0,0,1-.031-.428C51.869,6.66,62.665,2.927,64.778,2.279a.4.4,0,0,1,.234,0,34.935,34.935,0,0,1,8.4,3.986,1.13,1.13,0,0,0,1.229-1.9A37.289,37.289,0,0,0,65.675.117a2.654,2.654,0,0,0-1.561,0c-2.264.7-13.839,4.7-19.321,15.317a2.669,2.669,0,0,0,.457,3.087,33.548,33.548,0,0,0-5.8,8.345A2.673,2.673,0,0,0,42.067,30.7q.329-.026.669-.069a26.087,26.087,0,0,0-2.785,9.93A2.738,2.738,0,0,0,37.324,43.3V64.483a2.74,2.74,0,0,0,2.737,2.737h.929v7.2a2.74,2.74,0,0,0,2.737,2.737h1.306a2.74,2.74,0,0,0,2.737-2.737v-7.2H61.855a11.07,11.07,0,0,0,22.025,0h5.849a2.74,2.74,0,0,0,2.737-2.737V50.415H100.6a2.64,2.64,0,0,0,2.637-2.637V46.332a2.64,2.64,0,0,0-2.637-2.637Zm-23.33,12.24v-8.2h5.611V60.049h-.741A11.139,11.139,0,0,0,77.266,55.935ZM63.6,60.049H62.067V47.73h5.61v8.586A11.149,11.149,0,0,0,63.6,60.049ZM39.585,47.73h5.068V60.049H39.585Zm7.328,0h5.565V60.049H46.913Zm7.826,0h5.068V60.049H54.739Zm15.2,0h5.068v7.5a11.025,11.025,0,0,0-5.068.187V47.73Zm15.2,0h5.068V60.049H85.138ZM41.889,28.45a.4.4,0,0,1-.374-.177.405.405,0,0,1-.028-.42,31.578,31.578,0,0,1,6.173-8.568,18.947,18.947,0,0,0,3.428-.883,12.78,12.78,0,0,0-.191,3.152,2.666,2.666,0,0,0,2.726,2.5,9.665,9.665,0,0,0,6.271-2.543,6.629,6.629,0,0,0,4.042,3.975,2.692,2.692,0,0,0,1.919,0A6.629,6.629,0,0,0,69.9,21.512a9.663,9.663,0,0,0,6.271,2.543,2.674,2.674,0,0,0,2.726-2.5A12.78,12.78,0,0,0,78.7,18.4a18.938,18.938,0,0,0,3.426.883A31.58,31.58,0,0,1,88.3,27.853a.405.405,0,0,1-.028.42.4.4,0,0,1-.374.177,23.149,23.149,0,0,1-7.347-2.138,1.13,1.13,0,0,0-1.47,1.535,12.441,12.441,0,0,1,.881,6.117.4.4,0,0,1-.388.366c-1.858.054-5.421-.457-8.416-4.478a1.132,1.132,0,0,0-2.032.781,5.714,5.714,0,0,1-4.112,5.735.371.371,0,0,1-.246,0A5.714,5.714,0,0,1,60.66,30.64a1.13,1.13,0,0,0-2.031-.788c-2.995,4.02-6.557,4.532-8.416,4.478a.4.4,0,0,1-.388-.366,12.644,12.644,0,0,1,.881-6.117,1.13,1.13,0,0,0-1.47-1.535A23.145,23.145,0,0,1,41.889,28.45Zm-1.827,14.37H52.892a1.13,1.13,0,0,0,0-2.261H42.22A23.251,23.251,0,0,1,45.7,30.014c.7-.2,1.425-.433,2.177-.71a15.807,15.807,0,0,0-.3,4.867,2.665,2.665,0,0,0,2.574,2.418,11.8,11.8,0,0,0,8.575-3.431,8.1,8.1,0,0,0,5.291,5.34,2.634,2.634,0,0,0,1.763,0,8.1,8.1,0,0,0,5.291-5.34,11.8,11.8,0,0,0,8.575,3.431,2.665,2.665,0,0,0,2.574-2.418,15.8,15.8,0,0,0-.3-4.867q1.128.416,2.176.71a23.248,23.248,0,0,1,3.482,10.545H57.815a1.13,1.13,0,0,0,0,2.261H89.729a.477.477,0,0,1,.477.477v2.174H39.585V43.3A.477.477,0,0,1,40.061,42.819Zm-.477,21.664V62.31H62.463a10.986,10.986,0,0,0-.608,2.65H40.061A.477.477,0,0,1,39.585,64.484Zm5.925,9.94a.477.477,0,0,1-.477.477H43.727a.477.477,0,0,1-.477-.477v-7.2H45.51v7.2Zm27.357.477a8.809,8.809,0,1,1,8.809-8.809A8.819,8.819,0,0,1,72.867,74.9ZM89.729,64.96H83.88a10.985,10.985,0,0,0-.608-2.65h6.934v2.174A.477.477,0,0,1,89.729,64.96Zm11.245-17.182a.377.377,0,0,1-.377.377H92.466v-2.2H100.6a.377.377,0,0,1,.377.377Z" transform="translate(-37.324 0)"/>
          <path id="Trazado_896494" data-name="Trazado 896494" d="M232.6,390.77a7.2,7.2,0,1,0,6.554,10.18,1.13,1.13,0,1,0-2.057-.937,4.939,4.939,0,1,1,.037-4,1.13,1.13,0,1,0,2.074-.9A7.2,7.2,0,0,0,232.6,390.77Z" transform="translate(-197.055 -331.88)"/>
          <path id="Trazado_896495" data-name="Trazado 896495" d="M251.247,419.925a3.3,3.3,0,1,0,3.3-3.3A3.308,3.308,0,0,0,251.247,419.925Zm4.349,0a1.044,1.044,0,1,1-1.044-1.044A1.045,1.045,0,0,1,255.6,419.925Z" transform="translate(-219.008 -353.834)"/>
          <path id="Trazado_896496" data-name="Trazado 896496" d="M264.761,171.6a1.131,1.131,0,0,0,1.119.982,1.114,1.114,0,0,0,.15-.01,1.13,1.13,0,0,0,.972-1.269l-.118-.891a1.13,1.13,0,0,0-2.241.3Z" transform="translate(-230.377 -143.899)"/>
          <path id="Trazado_896497" data-name="Trazado 896497" d="M285.5,166.065a1.13,1.13,0,0,0,2.064-.923l-.367-.82a1.13,1.13,0,1,0-2.064.923Z" transform="translate(-247.708 -138.99)"/>
          <path id="Trazado_896498" data-name="Trazado 896498" d="M160.913,79.313l-.412.8a1.13,1.13,0,1,0,2.009,1.036l.412-.8a1.13,1.13,0,1,0-2.009-1.036Z" transform="translate(-141.832 -66.84)"/>
          <path id="Trazado_896499" data-name="Trazado 896499" d="M182.242,86.522l-.167.883a1.13,1.13,0,1,0,2.221.42l.167-.883a1.13,1.13,0,1,0-2.221-.42Z" transform="translate(-160.244 -72.701)"/>
        </g>
      </g>
    </g>
  </g>
</svg>
