<svg xmlns="http://www.w3.org/2000/svg" xmlns:xlink="http://www.w3.org/1999/xlink" width="93.895" height="96.853" viewBox="0 0 93.895 96.853">
  <defs>
    <filter id="Trazado_896608" x="2.521" y="5.479" width="91.374" height="91.374" filterUnits="userSpaceOnUse">
      <feOffset dy="3" input="SourceAlpha"/>
      <feGaussianBlur stdDeviation="3" result="blur"/>
      <feFlood flood-opacity="0.161"/>
      <feComposite operator="in" in2="blur"/>
      <feComposite in="SourceGraphic"/>
    </filter>
  </defs>
  <g id="Grupo_1108451" data-name="Grupo 1108451" transform="translate(-180 -2463.243)">
    <g transform="matrix(1, 0, 0, 1, 180, 2463.24)" filter="url(#Trazado_896608)">
      <g id="Trazado_896608-2" data-name="Trazado 896608" transform="translate(11.52 11.48)" fill="none">
        <path d="M0,0H73.374V73.374H0Z" stroke="none"/>
        <path d="M 9.999996185302734 9.999996185302734 L 9.999996185302734 63.37383651733398 L 63.37383651733398 63.37383651733398 L 63.37383651733398 9.999996185302734 L 9.999996185302734 9.999996185302734 M 0 0 L 73.37383270263672 0 L 73.37383270263672 73.37383270263672 L 0 73.37383270263672 L 0 0 Z" stroke="none" fill="#f0c869"/>
      </g>
    </g>
    <path id="Trazado_896609" data-name="Trazado 896609" d="M0,0H70.872V70.872H0Z" transform="translate(180 2463.243)" fill="#456345"/>
    <g id="Grupo_1108439" data-name="Grupo 1108439" transform="translate(185.968 2469.212)">
      <g id="Grupo_1108440" data-name="Grupo 1108440" transform="translate(0.001 0)">
        <g id="Grupo_1108439-2" data-name="Grupo 1108439" transform="translate(0 0)">
          <path id="Trazado_896624" data-name="Trazado 896624" d="M258.608,21.431c7.312,0,16.144-5.316,16.144-11.916a6.518,6.518,0,0,0-1.921-4.566,25.792,25.792,0,0,1,3.859-2.411,1.34,1.34,0,1,0-1.2-2.4A28.978,28.978,0,0,0,270.62,3.3a6.23,6.23,0,0,0-2.7-.623c-6.6,0-11.916,8.832-11.916,16.144A2.611,2.611,0,0,0,258.608,21.431Zm9.308-16.073c.1,0,.192.023.29.03a32.509,32.509,0,0,0-6.707,8.747,1.34,1.34,0,0,0,2.4,1.2,30.183,30.183,0,0,1,6.873-8.688l.01.009a3.942,3.942,0,0,1,1.295,2.861c0,4.869-7.469,9.2-13.394,9.237C258.713,12.828,263.048,5.358,267.916,5.358Z" transform="translate(-223.854 0)" fill="#fcfbfa"/>
          <path id="Trazado_896625" data-name="Trazado 896625" d="M.539,226.459a1.339,1.339,0,0,0,1.876-.268c.076-.1,7.84-10.179,25.716-10.179a1.339,1.339,0,1,0,0-2.679c-19.2,0-27.516,10.791-27.861,11.252A1.341,1.341,0,0,0,.539,226.459Z" transform="translate(-0.003 -186.544)" fill="#fcfbfa"/>
          <path id="Trazado_896626" data-name="Trazado 896626" d="M50.9,170.668c-6.012,0-7.72,3.069-7.9,3.419a1.325,1.325,0,0,0,.575,1.763,1.354,1.354,0,0,0,1.805-.534c.044-.081,1.175-1.97,5.515-1.97,4.835,0,5.358,3.746,5.358,5.358,0,2.085-2.216,8.037-12.055,8.037a46.255,46.255,0,0,1-12.22-1.537,31.171,31.171,0,0,0-7.872-1.142c-6.891,0-19.655,5.507-23.968,14.135a1.34,1.34,0,0,0,2.4,1.2c3.8-7.608,15.5-12.654,21.572-12.654a28.626,28.626,0,0,1,7.246,1.069A48.618,48.618,0,0,0,44.2,189.42c12.026,0,14.734-7.936,14.734-10.715C58.936,175,56.83,170.668,50.9,170.668Z" transform="translate(-0.001 -149.237)" fill="#fcfbfa"/>
          <path id="Trazado_896627" data-name="Trazado 896627" d="M102.742,341.335c-14.2,0-17.222,8.587-17.345,8.952a1.34,1.34,0,0,0,2.543.848c.024-.072,2.514-7.121,14.8-7.121,12.029,0,17.413,3.364,17.413,6.7s-2.184,4.018-4.018,4.018c-1.729,0-3.77-1.652-4.413-2.288a1.339,1.339,0,0,0-1.891,1.9c.314.314,3.163,3.071,6.3,3.071,3.239,0,6.7-1.759,6.7-6.7C122.834,346.179,117.555,341.335,102.742,341.335Z" transform="translate(-74.614 -298.473)" fill="#fcfbfa"/>
        </g>
      </g>
    </g>
  </g>
</svg>
