<svg xmlns="http://www.w3.org/2000/svg" xmlns:xlink="http://www.w3.org/1999/xlink" width="130" height="130" viewBox="0 0 130 130">
  <defs>
    <filter id="Elipse_11688" x="0" y="0" width="130" height="130" filterUnits="userSpaceOnUse">
      <feOffset input="SourceAlpha"/>
      <feGaussianBlur stdDeviation="5" result="blur"/>
      <feFlood flood-opacity="0.161"/>
      <feComposite operator="in" in2="blur"/>
      <feComposite in="SourceGraphic"/>
    </filter>
  </defs>
  <g id="Grupo_1110799" data-name="Grupo 1110799" transform="translate(-1208.051 -4327)">
    <g transform="matrix(1, 0, 0, 1, 1208.05, 4327)" filter="url(#Elipse_11688)">
      <circle id="Elipse_11688-2" data-name="Elipse 11688" cx="50" cy="50" r="50" transform="translate(15 15)" fill="#fff"/>
    </g>
    <g id="Grupo_1110798" data-name="Grupo 1110798" transform="translate(1190.485 4358.12)">
      <path id="Trazado_910761" data-name="Trazado 910761" d="M110.107,427.922h38.584a19.026,19.026,0,0,0-6.493-7.616H116.6A19.028,19.028,0,0,0,110.107,427.922Z" transform="translate(-47.35 -364.681)" fill="#dbb395"/>
      <g id="Grupo_1110794" data-name="Grupo 1110794" transform="translate(57.921 21.487)">
        <path id="Trazado_910762" data-name="Trazado 910762" d="M125.37,420.306H116.6a19.025,19.025,0,0,0-6.493,7.616h8.77A19.026,19.026,0,0,1,125.37,420.306Z" transform="translate(-105.271 -386.168)" fill="#cca489"/>
        <path id="Trazado_910763" data-name="Trazado 910763" d="M114.651,192.176l7.169-29.815H73.563l7.169,29.815A6.034,6.034,0,0,0,86.6,196.8h22.185A6.034,6.034,0,0,0,114.651,192.176Z" transform="translate(-73.563 -162.361)" fill="#cca489"/>
      </g>
      <path id="Trazado_910764" data-name="Trazado 910764" d="M87.88,192.175,80.712,162.36H73.563l7.169,29.815A6.034,6.034,0,0,0,86.6,196.8h7.148A6.034,6.034,0,0,1,87.88,192.175Z" transform="translate(-15.642 -140.873)" fill="#bf977b"/>
      <path id="Trazado_910765" data-name="Trazado 910765" d="M120.061,169.677l1.759-7.317H73.563l1.759,7.317Z" transform="translate(-15.642 -140.873)" fill="#dbb395"/>
      <path id="Trazado_910766" data-name="Trazado 910766" d="M80.712,162.36H73.563l1.759,7.317h7.148Z" transform="translate(-15.642 -140.873)" fill="#cca489"/>
      <path id="Trazado_910767" data-name="Trazado 910767" d="M308.506,7.927h0a4.048,4.048,0,0,0-5.54,1.561c-3.366,6.028-6.9,12.355-8.326,14.908h9.337l6.076-10.881A4.122,4.122,0,0,0,308.506,7.927Z" transform="translate(-207.461 -6.419)" fill="#dbb395"/>
      <path id="Trazado_910768" data-name="Trazado 910768" d="M306.512,11.473a4.059,4.059,0,0,1,3.481-2.088A4.093,4.093,0,0,0,308.5,7.926h0a4.048,4.048,0,0,0-5.54,1.561c-16.261,29.119.151-.27-8.326,14.908H299.3Z" transform="translate(-207.46 -6.419)" fill="#cca489"/>
      <path id="Trazado_910769" data-name="Trazado 910769" d="M139.212,478.683a1.835,1.835,0,0,0-1.829-1.829H99.044a1.829,1.829,0,1,0,0,3.659h38.338A1.835,1.835,0,0,0,139.212,478.683Z" transform="translate(-36.164 -413.745)" fill="#bf977b"/>
      <path id="Trazado_910770" data-name="Trazado 910770" d="M106.05,478.683a1.835,1.835,0,0,1,1.829-1.829H99.043a1.829,1.829,0,1,0,0,3.659h8.836A1.835,1.835,0,0,1,106.05,478.683Z" transform="translate(-36.163 -413.745)" fill="#ad866c"/>
      <path id="Trazado_910771" data-name="Trazado 910771" d="M112.145,135.717H64.722a1.829,1.829,0,1,0,0,3.659h47.423a1.829,1.829,0,1,0,0-3.659Z" transform="translate(-6.384 -117.756)" fill="#bf977b"/>
      <path id="Trazado_910772" data-name="Trazado 910772" d="M69.622,137.546a1.835,1.835,0,0,1,1.829-1.829H64.722a1.829,1.829,0,1,0,0,3.659h6.729A1.835,1.835,0,0,1,69.622,137.546Z" transform="translate(-6.384 -117.756)" fill="#ad866c"/>
      <path id="Trazado_910773" data-name="Trazado 910773" d="M105.777,16.836H98.231l5.242-9.306a5.06,5.06,0,1,0-8.817-4.967l-4,7.105a.993.993,0,1,0,1.729.976l4-7.107a3.074,3.074,0,1,1,5.357,3.018l-5.791,10.28H88.9l1.214-2.155a.993.993,0,1,0-1.73-.975l-1.763,3.129H58.354a2.823,2.823,0,0,0-1.273,5.337L62.64,45.294a.993.993,0,1,0,1.931-.464L60.956,29.8H92.847a.993.993,0,0,0,0-1.986H60.479L59.2,22.48h45.737l-1.282,5.331H97.481a.993.993,0,1,0,0,1.986h5.694L98.06,51.07a5.026,5.026,0,0,1-4.9,3.863H70.973a5.026,5.026,0,0,1-4.9-3.863l-.417-1.735a.993.993,0,1,0-1.931.464l.417,1.735a7.006,7.006,0,0,0,3.324,4.451,18.889,18.889,0,0,0-5.359,6.246,2.821,2.821,0,0,0,.79,5.529h38.338a2.821,2.821,0,0,0,.79-5.529,18.892,18.892,0,0,0-5.359-6.246,7.008,7.008,0,0,0,3.324-4.451l7.06-29.361A2.823,2.823,0,0,0,105.777,16.836Zm-3.706,48.1a.837.837,0,0,1-.836.836H62.9a.836.836,0,0,1,0-1.673h38.338A.837.837,0,0,1,102.071,64.938Zm-2.4-2.822H64.456a17.59,17.59,0,0,1,5.11-5.2h25A17.587,17.587,0,0,1,99.675,62.116Zm6.1-41.622H58.354a.836.836,0,1,1,0-1.673h47.423a.836.836,0,0,1,0,1.673Z" transform="translate(0)"/>
    </g>
  </g>
</svg>
