<svg xmlns="http://www.w3.org/2000/svg" xmlns:xlink="http://www.w3.org/1999/xlink" width="130" height="130" viewBox="0 0 130 130">
  <defs>
    <filter id="Elipse_11686" x="0" y="0" width="130" height="130" filterUnits="userSpaceOnUse">
      <feOffset input="SourceAlpha"/>
      <feGaussianBlur stdDeviation="5" result="blur"/>
      <feFlood flood-opacity="0.161"/>
      <feComposite operator="in" in2="blur"/>
      <feComposite in="SourceGraphic"/>
    </filter>
  </defs>
  <g id="Grupo_1110816" data-name="Grupo 1110816" transform="translate(-263.051 -4327)">
    <g transform="matrix(1, 0, 0, 1, 263.05, 4327)" filter="url(#Elipse_11686)">
      <circle id="Elipse_11686-2" data-name="Elipse 11686" cx="50" cy="50" r="50" transform="translate(15 15)" fill="#fff"/>
    </g>
    <g id="Grupo_1110815" data-name="Grupo 1110815" transform="translate(299.734 4363.684)">
      <g id="Grupo_1110814" data-name="Grupo 1110814" transform="translate(0.85 0.85)">
        <g id="Grupo_1110807" data-name="Grupo 1110807" transform="translate(14.562)">
          <path id="Trazado_910784" data-name="Trazado 910784" d="M179.3,10.582l.311,6.677v6.562l-.443,4.073.443,3.87v6.627l-.411,6.714A2.594,2.594,0,0,1,176.61,47.7l-6.555.411h-6.788l-3.857-.373-3.89.373h-6.756l-6.455-.533a2.594,2.594,0,0,1-2.594-2.594l-.533-6.659V31.773l.554-4-.554-4.1V17.237l.539-6.612a2.594,2.594,0,0,1,2.594-2.593l6.586-.354h6.274l4.235.332,4.061-.332h6.357l6.882.311a2.594,2.594,0,0,1,2.593,2.593Z" transform="translate(-139.182 -7.678)" fill="#e2e2e2"/>
          <g id="Grupo_1110806" data-name="Grupo 1110806">
            <path id="Trazado_910785" data-name="Trazado 910785" d="M139.182,38.323l3.276-3.276.491-1.717,1.886-.66,3.325-3.325,3.345-2.041,2.163-3.468,3.32-3.32.869-1.506,1.508-.871,3.292-3.292L166,12.792l2.166-3.451,1.664-1.664h4.792l-.046.559L174,8.326l-3.427,3.42L167.337,14.3l-2.28,2.95-3.295,3.289-.739,1.63-1.64.744L156.06,26.23l-3.311,2.093-2.2,3.41-3.328,3.322L146.6,36.8l-1.765.625L139.8,42.46l-.432-.011-.185-.606Z" transform="translate(-139.182 -7.677)" fill="#7a6d79"/>
            <path id="Trazado_910786" data-name="Trazado 910786" d="M139.183,316.228l5.734,5.734-.9.532h-2.237a2.594,2.594,0,0,1-2.593-2.594Z" transform="translate(-139.183 -282.062)" fill="#cecece"/>
            <g id="Grupo_1110803" data-name="Grupo 1110803" transform="translate(0 0)">
              <path id="Trazado_910787" data-name="Trazado 910787" d="M159.928,7.678v.507l-.551.045-3.351,3.351-3.2,2.25-2.307,3.259-3.366,3.365-.868,1.48-1.509.9-4.891,4.891-.432.173-.27-.875V23.672l3.217-3.218,1.02-1.5,1.356-.874,3.366-3.365,2.949-2.228L153.649,9.2l1.526-1.526Z" transform="translate(-139.182 -7.678)" fill="#7a6d79"/>
              <path id="Trazado_910788" data-name="Trazado 910788" d="M218.4,56.324v3.315l-3.226,3.23-.306,1.84-2.125.588-3.257,3.256-3.552,2.583-2.022,2.99-3.341,3.341-.5,1.8-1.878.575-3.395,3.4-3.379,2.137L189.3,88.748l-1.742,1.742H182.8l4.118-4.118,3.149-2.413,2.359-3.1,3.4-3.4.607-1.93,1.77-.446,3.341-3.341,3.211-2.047,2.3-3.462,3.322-3.322.8-1.313,1.58-1.063,5.209-5.209Z" transform="translate(-177.972 -50.058)" fill="#7a6d79"/>
              <path id="Trazado_910789" data-name="Trazado 910789" d="M460.444,128.782v4.753l-.629.2-.137-.941-3.341-3.286-1.357-1.534,2.248-2.149,1.527,1.265Z" transform="translate(-420.011 -112.745)" fill="#7a6d79"/>
              <path id="Trazado_910790" data-name="Trazado 910790" d="M333.411,189.5v3.3l-3.314,3.313-.708,1.615-1.669.762-3.346,3.346-3.071,2.345-2.437,3.164-1.8,1.8h-4.753l-.182-.774,1.061-.105,3.3-3.3,3.287-2.331L322,199.457l3.346-3.346.784-1.665,1.592-.712,4.925-4.971Z" transform="translate(-292.978 -168.712)" fill="#7a6d79"/>
            </g>
            <path id="Trazado_910791" data-name="Trazado 910791" d="M353.575,30.611l5.514-5.5L356.682,22.7l-5.508,5.508Z" transform="translate(-327.7 -21.038)" fill="#685e68"/>
            <path id="Trazado_910792" data-name="Trazado 910792" d="M0,0H7.79V3.361H0Z" transform="translate(8.957 7.038) rotate(-45)" fill="#685e68"/>
            <path id="Trazado_910793" data-name="Trazado 910793" d="M335.835,18.089,333.8,20.068l-1.552-1.053L321.555,8.23l.551-.552h3.65l8.869,8.96Z" transform="translate(-301.361 -7.678)" fill="#7a6d79"/>
            <path id="Trazado_910794" data-name="Trazado 910794" d="M202.743,18.033l-1.753,1.555-1.6-.612L188.6,8.185l.794-.507h3.453l8.921,8.921Z" transform="translate(-183.126 -7.678)" fill="#7a6d79"/>
            <path id="Trazado_910795" data-name="Trazado 910795" d="M353.868,293.238l5.525-5.526-2.376-2.376-5.508,5.508Z" transform="translate(-327.998 -254.59)" fill="#685e68"/>
            <path id="Trazado_910796" data-name="Trazado 910796" d="M354.331,161.8l5.583-5.582-2.376-2.376-5.508,5.509Z" transform="translate(-328.46 -137.654)" fill="#685e68"/>
            <g id="Grupo_1110804" data-name="Grupo 1110804">
              <path id="Trazado_910797" data-name="Trazado 910797" d="M145.448,7.678l-5.909,5.909-.357-1.1V10.271a2.594,2.594,0,0,1,2.594-2.593Z" transform="translate(-139.182 -7.678)" fill="#7a6d79"/>
              <path id="Trazado_910798" data-name="Trazado 910798" d="M144.249,56.617l-1.828,2.017L140.842,57.5l-1.66-1.66V51.088l4.036,4.036Z" transform="translate(-139.182 -46.281)" fill="#7a6d79"/>
              <path id="Trazado_910799" data-name="Trazado 910799" d="M338.611,270.841h-3.293l-9.107-9.107-1.187-1.619,1.753-1.8.177-.177,1.634,1.215,10.888,10.888Z" transform="translate(-304.445 -230.409)" fill="#7a6d79"/>
              <path id="Trazado_910800" data-name="Trazado 910800" d="M337.23,138.795l-1.979,2.021-1.559-1.179-9.141-9.14L323.235,129l2.251-2.026,2.48,2.112,8.1,8.172Z" transform="translate(-302.854 -113.767)" fill="#7a6d79"/>
              <path id="Trazado_910801" data-name="Trazado 910801" d="M447.733,325.563l5.884-5.884.382.918v2.373a2.594,2.594,0,0,1-2.594,2.593Z" transform="translate(-413.567 -285.131)" fill="#7a6d79"/>
              <path id="Trazado_910802" data-name="Trazado 910802" d="M461.579,261.122v4.753l-.776-.776-3.386-3.386-1.16-1.513,2.007-2.057,1.53,1.194Z" transform="translate(-421.147 -230.409)" fill="#7a6d79"/>
              <path id="Trazado_910803" data-name="Trazado 910803" d="M459.214,13.943,453.6,8.326l.623-.649h2.4a2.594,2.594,0,0,1,2.593,2.594Z" transform="translate(-418.781 -7.677)" fill="#7a6d79"/>
            </g>
            <g id="Grupo_1110805" data-name="Grupo 1110805" transform="translate(1.657 8.844)">
              <path id="Trazado_910804" data-name="Trazado 910804" d="M0,0H3.361V2.182H0Z" transform="translate(14.601 2.456) rotate(-45)" fill="#685e68"/>
              <path id="Trazado_910805" data-name="Trazado 910805" d="M326.527,126.289l-3.415,1.408-1.495-1.495L324,123.828Z" transform="translate(-303.072 -119.81)" fill="#685e68"/>
              <path id="Trazado_910806" data-name="Trazado 910806" d="M0,0H3.361V2.2H0Z" transform="translate(0 2.376) rotate(-45)" fill="#685e68"/>
              <path id="Trazado_910807" data-name="Trazado 910807" d="M193.935,124.844l-2.74,2.091-1.5-1.5,2.377-2.376Z" transform="translate(-185.758 -119.126)" fill="#685e68"/>
              <path id="Trazado_910808" data-name="Trazado 910808" d="M0,0H3.361V2.162H0Z" transform="translate(29.173 17.029) rotate(-45)" fill="#685e68"/>
              <path id="Trazado_910809" data-name="Trazado 910809" d="M0,0H3.361V2.162H0Z" transform="translate(33.077 20.934) rotate(-45)" fill="#685e68"/>
              <path id="Trazado_910810" data-name="Trazado 910810" d="M422.005,90.119l-2.376,2.376-1.512-1.525,2.377-2.378Z" transform="translate(-388.887 -88.476)" fill="#685e68"/>
              <path id="Trazado_910811" data-name="Trazado 910811" d="M457.2,124.915l-2.417,2.417-1.551-1.525,2.432-2.428Z" transform="translate(-420.114 -119.41)" fill="#685e68"/>
            </g>
          </g>
        </g>
        <g id="Grupo_1110813" data-name="Grupo 1110813" transform="translate(0 14.562)">
          <path id="Trazado_910812" data-name="Trazado 910812" d="M47.8,142.087l.311,6.677v6.562l-.443,4.073.443,3.87V169.9L47.7,176.61a2.594,2.594,0,0,1-2.593,2.594l-6.555.411H31.762l-3.857-.373-3.89.373H17.26l-6.455-.533a2.594,2.594,0,0,1-2.594-2.594l-.533-6.659v-6.551l.554-4-.554-4.1v-6.435l.539-6.612a2.594,2.594,0,0,1,2.594-2.593l6.586-.354H23.67l4.235.332,4.168-.332h6.251l6.882.311A2.594,2.594,0,0,1,47.8,142.087Z" transform="translate(-7.677 -139.183)" fill="#ebebeb"/>
          <g id="Grupo_1110812" data-name="Grupo 1110812" transform="translate(0)">
            <g id="Grupo_1110808" data-name="Grupo 1110808" transform="translate(0 0)">
              <path id="Trazado_910813" data-name="Trazado 910813" d="M7.677,169.828l3.276-3.276.491-1.717,1.886-.66,3.325-3.325L20,158.81l2.163-3.468,3.32-3.32.869-1.506,1.508-.871,3.292-3.292,3.343-2.057,2.166-3.451,1.664-1.664h4.792l-.046.559-.577.091-3.427,3.42-3.233,2.553-2.28,2.95-3.295,3.288-.739,1.63-1.64.744-3.323,3.317-3.311,2.093-2.2,3.41-3.328,3.322-.614,1.749-1.765.625-5.04,5.031-.432-.011-.185-.606Z" transform="translate(-7.677 -139.182)" fill="#918291"/>
              <path id="Trazado_910814" data-name="Trazado 910814" d="M7.677,447.733l5.734,5.734-.9.532H10.27A2.594,2.594,0,0,1,7.677,451.4Z" transform="translate(-7.677 -413.567)" fill="#918291"/>
              <path id="Trazado_910815" data-name="Trazado 910815" d="M28.423,139.183v.507l-.551.045-3.351,3.351-3.2,2.249-2.307,3.259-3.365,3.365-.868,1.48-1.509.9-4.891,4.891-.432.173-.27-.875v-3.347l3.217-3.218,1.021-1.5,1.356-.874,3.366-3.365,2.949-2.228,2.559-3.281,1.526-1.526Z" transform="translate(-7.677 -139.183)" fill="#918291"/>
              <path id="Trazado_910816" data-name="Trazado 910816" d="M86.9,187.83v3.315l-3.226,3.23-.306,1.84-2.125.588-3.257,3.256-3.552,2.583-2.022,2.99-3.341,3.341-.5,1.8-1.878.575-3.395,3.4-3.379,2.137-2.129,3.372L56.05,222H51.3l4.118-4.118,3.149-2.413,2.359-3.1,3.4-3.4.607-1.93,1.77-.446,3.341-3.341,3.21-2.047,2.3-3.462,3.322-3.322.8-1.313,1.58-1.063,5.209-5.209Z" transform="translate(-46.467 -181.564)" fill="#918291"/>
              <path id="Trazado_910817" data-name="Trazado 910817" d="M328.939,260.366v4.674l-.629.2-.137-.941-3.341-3.287-1.357-1.534,2.248-2.149,1.527,1.265Z" transform="translate(-288.506 -244.25)" fill="#918291"/>
              <path id="Trazado_910818" data-name="Trazado 910818" d="M201.906,321.008v3.3l-3.314,3.313-.708,1.615-1.669.762-3.346,3.346-3.071,2.344-2.437,3.164-1.8,1.8h-4.753l-.182-.774,1.061-.105,3.3-3.3,3.287-2.331,2.221-3.177,3.346-3.346.784-1.665,1.592-.712,4.925-4.971Z" transform="translate(-161.473 -300.218)" fill="#918291"/>
            </g>
            <path id="Trazado_910819" data-name="Trazado 910819" d="M222.07,162.116l5.514-5.5-2.406-2.406-5.508,5.508Z" transform="translate(-196.195 -152.543)" fill="#7a6d79"/>
            <path id="Trazado_910820" data-name="Trazado 910820" d="M0,0H7.79V3.361H0Z" transform="translate(8.955 7.035) rotate(-45)" fill="#7a6d79"/>
            <path id="Trazado_910821" data-name="Trazado 910821" d="M204.33,149.594l-2.036,1.979-1.552-1.053L190.05,139.735l.551-.552h3.65l8.869,8.96Z" transform="translate(-169.856 -139.183)" fill="#918291"/>
            <path id="Trazado_910822" data-name="Trazado 910822" d="M71.238,149.538l-1.753,1.555-1.6-.612L57.093,139.69l.794-.507H61.34l8.921,8.921Z" transform="translate(-51.621 -139.183)" fill="#918291"/>
            <g id="Grupo_1110809" data-name="Grupo 1110809" transform="translate(8.94 16.16)">
              <path id="Trazado_910823" data-name="Trazado 910823" d="M91.139,293.02l5.514-5.5-2.392-2.392-5.508,5.508Z" transform="translate(-88.715 -285.124)" fill="#7a6d79"/>
              <path id="Trazado_910824" data-name="Trazado 910824" d="M0,0H7.79V3.361H0Z" transform="translate(14.563 20.091) rotate(-45)" fill="#7a6d79"/>
              <path id="Trazado_910825" data-name="Trazado 910825" d="M0,0H7.79V3.36H0Z" transform="translate(0 20.152) rotate(-45)" fill="#7a6d79"/>
              <path id="Trazado_910826" data-name="Trazado 910826" d="M222.9,293.229l5.509-5.508-2.376-2.377-5.508,5.509Z" transform="translate(-205.896 -285.32)" fill="#7a6d79"/>
            </g>
            <g id="Grupo_1110810" data-name="Grupo 1110810" transform="translate(0)">
              <path id="Trazado_910827" data-name="Trazado 910827" d="M13.943,139.183l-5.909,5.909-.357-1.1v-2.214a2.594,2.594,0,0,1,2.594-2.593Z" transform="translate(-7.677 -139.183)" fill="#918291"/>
              <path id="Trazado_910828" data-name="Trazado 910828" d="M63.255,255.823l1.543,1.36,9.239,9.239,1.12,1.5-1.894,1.937-1.6-1.059-9.239-9.239-1.16-1.619Z" transform="translate(-55.328 -242.907)" fill="#918291"/>
              <path id="Trazado_910829" data-name="Trazado 910829" d="M12.744,188.122l-1.828,2.017-1.579-1.134-1.66-1.66v-4.753l4.036,4.036Z" transform="translate(-7.677 -177.786)" fill="#918291"/>
              <path id="Trazado_910830" data-name="Trazado 910830" d="M207.1,402.346h-3.293l-9.107-9.107-1.188-1.619,1.753-1.8.177-.177,1.634,1.215,10.888,10.888Z" transform="translate(-172.939 -361.914)" fill="#918291"/>
              <path id="Trazado_910831" data-name="Trazado 910831" d="M205.725,270.3l-1.979,2.021-1.559-1.179L193.046,262l-1.316-1.495,2.251-2.026,1.442,1.144,9.14,9.14Z" transform="translate(-171.35 -245.272)" fill="#918291"/>
              <path id="Trazado_910832" data-name="Trazado 910832" d="M12.706,319.492l-1.546,1.828-1.751-.981-1.732-1.732v-4.754l4.109,4.109Z" transform="translate(-7.677 -294.511)" fill="#918291"/>
              <path id="Trazado_910833" data-name="Trazado 910833" d="M76.71,400.391l-.879.879H72.836L63.664,392.1l-1.087-1.942,1.72-1.719,1.743,1.284Z" transform="translate(-56.498 -360.838)" fill="#918291"/>
              <path id="Trazado_910834" data-name="Trazado 910834" d="M316.228,457.068l5.884-5.884.382.918v2.373a2.594,2.594,0,0,1-2.594,2.593Z" transform="translate(-282.062 -416.636)" fill="#918291"/>
              <path id="Trazado_910835" data-name="Trazado 910835" d="M330.073,392.627v4.753l-.776-.776-3.386-3.386-1.161-1.513,2.007-2.057,1.53,1.194Z" transform="translate(-289.641 -361.914)" fill="#918291"/>
              <path id="Trazado_910836" data-name="Trazado 910836" d="M327.708,145.448l-5.617-5.617.623-.649h2.4a2.594,2.594,0,0,1,2.593,2.594Z" transform="translate(-287.275 -139.182)" fill="#918291"/>
            </g>
            <g id="Grupo_1110811" data-name="Grupo 1110811" transform="translate(1.657 8.841)">
              <path id="Trazado_910837" data-name="Trazado 910837" d="M0,0H3.361V2.182H0Z" transform="translate(0.071 16.983) rotate(-45)" fill="#7a6d79"/>
              <path id="Trazado_910838" data-name="Trazado 910838" d="M62.653,387.935l-2.377,2.377L58.767,388.8l2.379-2.375Z" transform="translate(-54.766 -367.892)" fill="#7a6d79"/>
              <path id="Trazado_910839" data-name="Trazado 910839" d="M0,0H3.361V2.182H0Z" transform="translate(14.601 2.456) rotate(-45)" fill="#7a6d79"/>
              <path id="Trazado_910840" data-name="Trazado 910840" d="M193.984,256.826l-2.377,2.377-1.495-1.495,2.379-2.375Z" transform="translate(-171.567 -251.312)" fill="#7a6d79"/>
              <path id="Trazado_910841" data-name="Trazado 910841" d="M0,0H3.361V2.2H0Z" transform="translate(0 2.376) rotate(-45)" fill="#7a6d79"/>
              <path id="Trazado_910842" data-name="Trazado 910842" d="M0,0H3.361V2.121H0Z" transform="translate(3.933 6.31) rotate(-45)" fill="#7a6d79"/>
              <path id="Trazado_910843" data-name="Trazado 910843" d="M0,0H3.361V2.162H0Z" transform="translate(29.173 17.029) rotate(-45)" fill="#7a6d79"/>
              <path id="Trazado_910844" data-name="Trazado 910844" d="M0,0H3.361V2.162H0Z" transform="translate(33.077 20.934) rotate(-45)" fill="#7a6d79"/>
              <path id="Trazado_910845" data-name="Trazado 910845" d="M290.5,221.624,288.124,224l-1.512-1.525,2.377-2.377Z" transform="translate(-257.382 -219.979)" fill="#7a6d79"/>
              <path id="Trazado_910846" data-name="Trazado 910846" d="M325.7,256.42l-2.417,2.417-1.551-1.525,2.432-2.428Z" transform="translate(-288.609 -250.913)" fill="#7a6d79"/>
              <path id="Trazado_910847" data-name="Trazado 910847" d="M0,0H3.361V2.148H0Z" transform="translate(14.67 17.047) rotate(-45)" fill="#7a6d79"/>
              <path id="Trazado_910848" data-name="Trazado 910848" d="M0,0H3.361V2.176H0Z" transform="translate(18.564 20.944) rotate(-45)" fill="#7a6d79"/>
            </g>
          </g>
        </g>
      </g>
      <path id="Trazado_910849" data-name="Trazado 910849" d="M53.27,0H18.025A3.428,3.428,0,0,0,14.6,3.424V14.6H3.425A3.428,3.428,0,0,0,0,18.025V53.27a3.429,3.429,0,0,0,3.425,3.425H38.67a3.428,3.428,0,0,0,3.424-3.425V42.093H53.27a3.428,3.428,0,0,0,3.424-3.424V3.424A3.428,3.428,0,0,0,53.27,0ZM49,40.433H46.61l-4.516-4.516V33.511l6.915,6.915Zm-14.6,14.6H32.009l-9.819-9.819,1.2-1.2L34.407,55.027Zm-12.205,0-.006-.006L25.921,51.3l1.2,1.2-2.536,2.536Zm-4.753,0L10.808,48.4a.83.83,0,1,0-1.174,1.175l.546.546L6.448,53.852,2.716,50.12l3.732-3.732.445.445a.83.83,0,0,0,1.174-1.175l-.445-.445,1.2-1.2L19.84,55.027l-.006.006Zm-9.813,0-.007-.007,3.732-3.732,1.2,1.2-2.536,2.536Zm6.1-1.362,1.362,1.362H12.37Zm-3.523-37.41,9.631,9.631-1.2,1.2L7.8,16.262Zm14.6-14.6,9.632,9.632-1.2,1.2L22.406,1.661Zm9.45,0-3.55,3.55-1.2-1.2,2.348-2.349Zm7.848,29.515-.014-.013V23.7l4.538,4.538L42.9,31.968ZM40.433,48.89l-3.676-3.676,1.2-1.2,2.456,2.456.018.016Zm-9.757.056-1.2-1.2L40.433,36.785V39.19l-.018.016Zm-9.66-2.557,3.732,3.732-3.732,3.732-3.732-3.732Zm-4.907,2.558-1.2-1.2L25.921,36.728l1.2,1.2ZM1.661,48.826v-2.4l9.693-9.694,1.2,1.2Zm10.9-25.462-10.9,10.9v-2.4l9.694-9.694Zm7.1-7.1-3.55,3.55-1.2-1.2,2.348-2.348Zm12.406-2.593-.932.932H23.668l4.664-4.664Zm7.283-7.283-3.732,3.732L31.884,6.386l3.732-3.732ZM40.522,7.56l1.2,1.2L35.886,14.6h-2.4Zm14.511.055v2.405l-9.758,9.757-1.2-1.2Zm-2.474,7.229,2.474,2.474v2.4l-3.676-3.676Zm2.474.125-1.3-1.3,1.3-1.3ZM42.9,17.4s-1.878-1.87-1.916-1.9a3.41,3.41,0,0,0-2.314-.9h-.435L42.9,9.937l3.732,3.732ZM33.205,41.662,22.189,30.646l1.2-1.2L34.407,40.461Zm-14.568,0L7.622,30.647l1.2-1.2L19.84,40.46Zm-14.566,0-2.41-2.41v-2.4l3.612,3.612Zm2.376-2.377L2.716,35.554l3.732-3.732,3.732,3.732Zm14.567,0-3.732-3.732,3.732-3.732,3.732,3.732Zm7.764-14.266a.831.831,0,1,0,1.175-1.175l-7.582-7.582h2.406l9.63,9.63-1.2,1.2-.51-.51A.831.831,0,1,0,31.52,27.76l.51.51L28.3,32,24.566,28.27,28.3,24.538Zm11.654-6.994v1.732l-3.495-3.495H38.67a1.765,1.765,0,0,1,1.763,1.763Zm0,6.6-9.757,9.757-1.2-1.2,10.96-10.96Zm0,2.349v2.6l-1.3-1.3Zm-4.851-9.716,3.732,3.732-3.732,3.732-3.732-3.732Zm-4.907,2.558-1.2-1.2,2.347-2.347h2.405ZM28.3,17.436l-1.174-1.174h2.348Zm7.284,21.85L31.85,35.554l3.732-3.732,3.732,3.732Zm1.175-8.639,1.2-1.2,2.474,2.474v2.4ZM21.015,17.255l3.732,3.732-3.732,3.732-3.732-3.732Zm4.907,4.907,1.2,1.2L16.108,34.378l-1.2-1.2ZM13.732,32,10,28.27l3.732-3.732,3.732,3.732ZM4.071,27.1l-2.41-2.41V22.28l3.613,3.613Zm-2.41-.061L2.9,28.271,1.661,29.507ZM2.9,42.837,1.661,44.073V41.6ZM13.731,39.1l3.732,3.732-3.732,3.732L10,42.837Zm14.568,0,3.732,3.732L28.3,46.569l-3.732-3.732ZM47.806,27.061l-5.713-5.713v-2.4l6.915,6.915Zm2.376-2.376-3.732-3.732,3.732-3.732,3.732,3.732Zm4.851,4.851-1.3-1.3,1.3-1.3Zm-2.474-.125,2.456,2.456.018.016v2.405l-3.676-3.676ZM50.182,10.118,46.45,6.386l3.732-3.732,3.732,3.732ZM45.275,5.211l-1.2-1.2L46.42,1.662v0h2.4ZM42.9,2.835,41.725,1.661h2.348ZM39.377,1.663l9.63,9.63-1.2,1.2L36.972,1.661h2.4v0ZM28.333,2.835,27.159,1.661h2.348ZM24.782,6.386,21.05,10.118,17.317,6.386,21.05,2.654ZM16.262,7.68l3.613,3.613-1.2,1.2-2.41-2.41Zm9.694-.119,1.2,1.2L21.319,14.6h-2.4Zm-11.051,8.7-1.174,1.174-1.174-1.174Zm-4.725,4.725L6.449,24.719,2.716,20.987l3.732-3.732ZM28.3,53.672l1.362,1.362H26.936ZM31.85,50.12l3.732-3.732,3.732,3.732-3.732,3.732Zm7.283-7.283,1.3-1.3v2.6Zm7.318-7.318L46.967,35a.83.83,0,0,0-1.175-1.174l-.516.516-1.2-1.2L55.034,22.183v2.405l-.018.016-6.482,6.482a.831.831,0,0,0,1.175,1.175l.475-.475,3.732,3.732-3.732,3.732ZM55.034,3.424V5.156l-3.5-3.5H53.27A1.766,1.766,0,0,1,55.034,3.424ZM18.025,1.661h1.668L16.262,5.092V3.424a1.766,1.766,0,0,1,1.764-1.764ZM16.262,12.434,17.5,13.67l-.931.931h-.3ZM3.425,16.262H5.092L1.661,19.693V18.025A1.765,1.765,0,0,1,3.425,16.262ZM1.661,53.27V51.415l3.612,3.612-.007.007H3.425A1.766,1.766,0,0,1,1.661,53.27ZM38.67,55.034H36.763l-.007-.007,3.676-3.676V53.27a1.765,1.765,0,0,1-1.763,1.764Zm3.424-16.768,2.167,2.167H42.093ZM53.27,40.433H51.364l-.007-.007,3.676-3.676v1.92A1.766,1.766,0,0,1,53.27,40.433Z"/>
    </g>
  </g>
</svg>
