<svg xmlns="http://www.w3.org/2000/svg" xmlns:xlink="http://www.w3.org/1999/xlink" width="80" height="80" viewBox="0 0 80 80">
  <defs>
    <filter id="Elipse_11701" x="0" y="0" width="80" height="80" filterUnits="userSpaceOnUse">
      <feOffset input="SourceAlpha"/>
      <feGaussianBlur stdDeviation="5" result="blur"/>
      <feFlood flood-opacity="0.161"/>
      <feComposite operator="in" in2="blur"/>
      <feComposite in="SourceGraphic"/>
    </filter>
  </defs>
  <g id="Grupo_1110858" data-name="Grupo 1110858" transform="translate(-700.051 -4885)">
    <g transform="matrix(1, 0, 0, 1, 700.05, 4885)" filter="url(#Elipse_11701)">
      <circle id="Elipse_11701-2" data-name="Elipse 11701" cx="25" cy="25" r="25" transform="translate(15 15)" fill="#fff"/>
    </g>
    <g id="Grupo_1110857" data-name="Grupo 1110857" transform="translate(706.591 4908.872)">
      <path id="Trazado_910890" data-name="Trazado 910890" d="M18.5,20.767v10.86a.63.63,0,0,0,.63.63h2.749a.63.63,0,0,0,.63-.63v-6.49l1.274,1.391a.63.63,0,0,0,.465.2H29.9v1.316h-.944a.63.63,0,0,0-.63.63v1.374a2.2,2.2,0,0,0,4.407,0V28.678a.63.63,0,0,0-.63-.63h-.944V26.732H36.7a.63.63,0,0,0,.465-.2l1.274-1.391v6.489a.63.63,0,0,0,.63.63h2.749a.63.63,0,0,0,.63-.63V28.88a.63.63,0,1,0-1.26,0V31H39.7V23.53a.637.637,0,0,0-.63-.644H21.876a.637.637,0,0,0-.63.63V31H19.757V21.4H41.185v1.94a.63.63,0,0,0,1.26,0V17.352l2.577-1.565a2.052,2.052,0,0,0,1.362.518,2.041,2.041,0,0,0,1.766-3.06A2.042,2.042,0,0,0,44.386,14.7l-1.941,1.178V12.637a.63.63,0,0,0-.63-.63H38.272v-1.15l.8-1.1a.63.63,0,0,0-.508-1H33.492l.157-.2a1.685,1.685,0,0,0-1.31-2.7h-1.18V4.208H32.1a.63.63,0,0,0,.63-.63V2.2a2.2,2.2,0,1,0-4.407,0V3.34l-.909,1.032a1.65,1.65,0,0,0,1.239,2.741H29.9V8.759H22.151a.63.63,0,0,0-.508,1l.8,1.1v1.15h-.57a.63.63,0,0,0-.63.63v7.5h-2.12a.63.63,0,0,0-.63.63Zm12.975,9.286a.944.944,0,1,1-1.887,0v-.744h1.887Zm4.948-4.58h-11.9l-1.214-1.326H37.635ZM45.626,14.06a.777.777,0,0,1,.365-.474.782.782,0,1,1-.287,1.067.777.777,0,0,1-.077-.593Zm-4.441,6.076H39.7v-6.87h1.489ZM29.585,2.2a.944.944,0,0,1,1.887,0v.744H29.585Zm-.93,3.65a.39.39,0,0,1-.293-.648l.878-1H29.9V5.854Zm2.5,1.26h1.18a.391.391,0,0,1,.39.39.418.418,0,0,1-.08.284l-.744.971h-.746Zm-7.574,3.165-.19-.259H37.323l-.19.259a.63.63,0,0,0-.122.373v1.356h-13.3V10.651A.63.63,0,0,0,23.585,10.278Zm-1.078,2.989h15.93v6.87H22.507Z" fill="#456345"/>
      <path id="Trazado_910891" data-name="Trazado 910891" d="M379.729,404.7a.63.63,0,1,0-.227.905A.631.631,0,0,0,379.729,404.7Z" transform="translate(-337.39 -378.95)" fill="#456345"/>
    </g>
  </g>
</svg>
