<svg xmlns="http://www.w3.org/2000/svg" xmlns:xlink="http://www.w3.org/1999/xlink" width="93.788" height="44.114" viewBox="0 0 93.788 44.114">
  <defs>
    <clipPath id="clip-path">
      <rect id="Rectángulo_403732" data-name="Rectángulo 403732" width="93.788" height="44.114" fill="none"/>
    </clipPath>
  </defs>
  <g id="Grupo_1108466" data-name="Grupo 1108466" transform="translate(0 0)">
    <g id="Grupo_1108465" data-name="Grupo 1108465" transform="translate(0 0)" clip-path="url(#clip-path)">
      <path id="Trazado_896646" data-name="Trazado 896646" d="M79.54,27.872H68.848a1.731,1.731,0,1,0,0,3.462H79.54A10.8,10.8,0,0,1,90.326,42.12V44.8A10.8,10.8,0,0,1,79.54,55.591H58.006l-11.2,10.163-.135.234a.247.247,0,0,1-.428,0l-.135-.234L34.917,55.591H14.249A10.8,10.8,0,0,1,3.462,44.8V42.12A10.8,10.8,0,0,1,14.249,31.334h9.825a1.731,1.731,0,1,0,0-3.462H14.249A14.265,14.265,0,0,0,0,42.12V44.8A14.266,14.266,0,0,0,14.249,59.053H33.58l9.834,8.928a3.71,3.71,0,0,0,6.093,0l9.835-8.928h20.2A14.265,14.265,0,0,0,93.788,44.8V42.12A14.265,14.265,0,0,0,79.54,27.872" transform="translate(0 -25.46)" fill="#ed1c24"/>
      <path id="Trazado_896647" data-name="Trazado 896647" d="M377.489,16.628h8.316c-2.4,3-4.2,9.818-.477,9.972a2.724,2.724,0,0,0,2.8-2.47c.406-4.067,2.867-6.441,6.187-8.042a1.226,1.226,0,0,0,.692-1.1l0-12.874a1.227,1.227,0,0,0-.561-1.031L394.154.89a5.2,5.2,0,0,0-2.819-.831H378.529A2.044,2.044,0,0,0,376.486,2.1v.274a1.145,1.145,0,0,0,1.145,1.145h.8l0,.022h-1.047a1.5,1.5,0,0,0-1.5,1.5V6.081A1.814,1.814,0,0,0,377.7,7.894h-.164l0,.022h-.867a1.378,1.378,0,0,0-1.378,1.378V10.57a1.7,1.7,0,0,0,1.7,1.7h-.344l0,.011h-.4a1.314,1.314,0,0,0-1.314,1.315v.468a2.568,2.568,0,0,0,2.568,2.568" transform="translate(-342.474 -0.054)" fill="#ed1c24"/>
      <path id="Trazado_896648" data-name="Trazado 896648" d="M620.281,15.979h5.3a.816.816,0,0,0,.816-.816V.816A.816.816,0,0,0,625.585,0h-5.3a.816.816,0,0,0-.816.816V15.163a.816.816,0,0,0,.816.816m2.652-13.926a.959.959,0,1,1-.959.959.959.959,0,0,1,.959-.959" transform="translate(-565.854)" fill="#ed1c24"/>
    </g>
  </g>
</svg>
