<svg xmlns="http://www.w3.org/2000/svg" xmlns:xlink="http://www.w3.org/1999/xlink" width="80" height="80" viewBox="0 0 80 80">
  <defs>
    <filter id="Elipse_11687" x="0" y="0" width="80" height="80" filterUnits="userSpaceOnUse">
      <feOffset input="SourceAlpha"/>
      <feGaussianBlur stdDeviation="5" result="blur"/>
      <feFlood flood-opacity="0.161"/>
      <feComposite operator="in" in2="blur"/>
      <feComposite in="SourceGraphic"/>
    </filter>
  </defs>
  <g id="Grupo_1110842" data-name="Grupo 1110842" transform="translate(-700.051 -4605)">
    <g transform="matrix(1, 0, 0, 1, 700.05, 4605)" filter="url(#Elipse_11687)">
      <circle id="Elipse_11687-2" data-name="Elipse 11687" cx="25" cy="25" r="25" transform="translate(15 15)" fill="#fff"/>
    </g>
    <g id="XMLID_2093_" transform="translate(724.75 4604.253)">
      <g id="XMLID_828_" transform="translate(0 27.063)">
        <path id="XMLID_873_" d="M30.005,377.937a.6.6,0,0,0-.6.6,3.231,3.231,0,0,1-3.228,3.228H22.47l-3.9-3.9a4.76,4.76,0,0,0-6.724,0l-3.9,3.9H4.423A3.231,3.231,0,0,1,1.2,378.535a.6.6,0,1,0-1.2,0,4.428,4.428,0,0,0,4.423,4.423H26.18a4.428,4.428,0,0,0,4.423-4.423A.6.6,0,0,0,30.005,377.937Zm-17.311.774a3.563,3.563,0,0,1,5.034,0l3.052,3.052H9.642Z" transform="translate(0 -355.59)" fill="#456345"/>
        <path id="XMLID_874_" d="M.6,28.258H1.614V30.2a5.718,5.718,0,0,0,5.712,5.712H23.277A5.718,5.718,0,0,0,28.989,30.2V28.258h1.016a.6.6,0,0,0,0-1.2H17.991a.6.6,0,0,0,0,1.2h9.8V30.2a4.522,4.522,0,0,1-3.975,4.483v-.153a.6.6,0,1,0-1.2,0v.187H20.64v-.187a.6.6,0,1,0-1.2,0v.187H17.461v-.187a.6.6,0,1,0-1.2,0v.187H14.282v-.187a.6.6,0,1,0-1.2,0v.187H11.1v-.187a.6.6,0,1,0-1.2,0v.187H7.923v-.187a.6.6,0,1,0-1.2,0v.146A4.522,4.522,0,0,1,2.809,30.2V28.258h9.8a.6.6,0,0,0,0-1.2H.6a.6.6,0,0,0,0,1.2Z" transform="translate(0 -27.063)" fill="#456345"/>
        <path id="XMLID_876_" d="M122.08,219.113a.6.6,0,1,0,.175.423A.6.6,0,0,0,122.08,219.113Z" transform="translate(-113.824 -207.469)" fill="#456345"/>
        <path id="XMLID_877_" d="M147.534,268.313a.6.6,0,1,0,.423-.175A.6.6,0,0,0,147.534,268.313Z" transform="translate(-138.551 -253.729)" fill="#456345"/>
        <path id="XMLID_878_" d="M121.658,323.268a.6.6,0,1,0,.423.175A.6.6,0,0,0,121.658,323.268Z" transform="translate(-113.824 -305.563)" fill="#456345"/>
        <path id="XMLID_880_" d="M247.02,219.113a.6.6,0,1,0,.175.423A.6.6,0,0,0,247.02,219.113Z" transform="translate(-231.296 -207.469)" fill="#456345"/>
        <path id="XMLID_881_" d="M219.875,268.313a.6.6,0,1,0,.423-.175A.6.6,0,0,0,219.875,268.313Z" transform="translate(-206.568 -253.729)" fill="#456345"/>
        <path id="XMLID_882_" d="M246.6,323.268a.6.6,0,1,0,.423.175A.6.6,0,0,0,246.6,323.268Z" transform="translate(-231.296 -305.563)" fill="#456345"/>
        <path id="XMLID_884_" d="M184.551,231.724a.6.6,0,1,0,.175.423A.6.6,0,0,0,184.551,231.724Z" transform="translate(-172.561 -219.327)" fill="#456345"/>
        <path id="XMLID_885_" d="M184.128,312.049a.6.6,0,1,0,.423.175A.6.6,0,0,0,184.128,312.049Z" transform="translate(-172.56 -295.015)" fill="#456345"/>
        <path id="XMLID_886_" d="M371.96,219.113a.6.6,0,1,0,.175.423A.6.6,0,0,0,371.96,219.113Z" transform="translate(-348.768 -207.469)" fill="#456345"/>
        <path id="XMLID_888_" d="M344.814,268.313a.6.6,0,1,0,.423-.175A.6.6,0,0,0,344.814,268.313Z" transform="translate(-324.039 -253.729)" fill="#456345"/>
        <path id="XMLID_889_" d="M371.538,323.268a.6.6,0,1,0,.423.175A.6.6,0,0,0,371.538,323.268Z" transform="translate(-348.768 -305.563)" fill="#456345"/>
        <path id="XMLID_890_" d="M272.474,268.313a.6.6,0,1,0,.423-.175A.6.6,0,0,0,272.474,268.313Z" transform="translate(-256.023 -253.729)" fill="#456345"/>
        <path id="XMLID_892_" d="M309.49,231.724a.6.6,0,1,0,.175.423A.6.6,0,0,0,309.49,231.724Z" transform="translate(-290.032 -219.327)" fill="#456345"/>
        <path id="XMLID_893_" d="M309.068,312.049a.6.6,0,1,0,.423.175A.6.6,0,0,0,309.068,312.049Z" transform="translate(-290.032 -295.015)" fill="#456345"/>
        <path id="XMLID_894_" d="M246.6,28.263a.6.6,0,1,0-.423-.176A.6.6,0,0,0,246.6,28.263Z" transform="translate(-231.296 -27.068)" fill="#456345"/>
      </g>
    </g>
  </g>
</svg>
