<svg xmlns="http://www.w3.org/2000/svg" xmlns:xlink="http://www.w3.org/1999/xlink" width="80" height="80" viewBox="0 0 80 80">
  <defs>
    <filter id="Elipse_11698" x="0" y="0" width="80" height="80" filterUnits="userSpaceOnUse">
      <feOffset input="SourceAlpha"/>
      <feGaussianBlur stdDeviation="5" result="blur"/>
      <feFlood flood-opacity="0.161"/>
      <feComposite operator="in" in2="blur"/>
      <feComposite in="SourceGraphic"/>
    </filter>
  </defs>
  <g id="Grupo_1110856" data-name="Grupo 1110856" transform="translate(-700.051 -4815)">
    <g transform="matrix(1, 0, 0, 1, 700.05, 4815)" filter="url(#Elipse_11698)">
      <circle id="Elipse_11698-2" data-name="Elipse 11698" cx="25" cy="25" r="25" transform="translate(15 15)" fill="#fff"/>
    </g>
    <g id="Grupo_1110855" data-name="Grupo 1110855" transform="translate(688.362 4838)">
      <path id="Trazado_910886" data-name="Trazado 910886" d="M41.285,32.841a9.156,9.156,0,0,0,5.2,1.623h5.142a8.988,8.988,0,0,0,4.406-1.144c7.911-4.458,5.723-10.984,2.219-13.655a6.163,6.163,0,0,1-2.246-2.839A1.347,1.347,0,0,0,57.1,15.5v-.524a1.347,1.347,0,0,0-1.346-1.346H51.411V12.319a1.317,1.317,0,0,0,.744-1.64,1.316,1.316,0,0,0,.31-.073l.478-.177a1.324,1.324,0,0,0,.8-1.626,1.331,1.331,0,0,0,.311-.074l.478-.177a1.323,1.323,0,0,0,.781-1.7l-.045-.122L58.83,5.412a.5.5,0,1,0-.351-.947L54.923,5.783l-.4-1.067,9.909-3.67a.569.569,0,0,1,.395,1.066l-4.14,1.534a.5.5,0,1,0,.351.947l4.14-1.533A1.578,1.578,0,0,0,64.086.1l-9.909,3.67-.045-.122a1.325,1.325,0,0,0-1.7-.781l-.478.177a1.33,1.33,0,0,0-.284.148A1.32,1.32,0,0,0,50,2.48l-.478.177a1.328,1.328,0,0,0-.283.147,1.324,1.324,0,0,0-1.684-.743l-.478.177A1.324,1.324,0,0,0,46.282,3.9a1.331,1.331,0,0,0-.31.073l-.478.177a1.32,1.32,0,0,0-.8,1.627,1.33,1.33,0,0,0-.311.073l-.478.177a1.325,1.325,0,0,0-.781,1.7l1.187,3.2.008.019v2.685H42.362a1.347,1.347,0,0,0-1.346,1.346V15.5a1.347,1.347,0,0,0,1.093,1.321,6.16,6.16,0,0,1-2.245,2.839c-3.388,2.583-5.544,8.746,1.421,13.176ZM52.3,3.99l.478-.177a.314.314,0,0,1,.4.185l1.187,3.2a.314.314,0,0,1-.185.4l-.478.177a.314.314,0,0,1-.4-.185L52.118,4.393a.313.313,0,0,1,.185-.4ZM49.871,3.6l.478-.177a.313.313,0,0,1,.4.185l2.025,5.467a.314.314,0,0,1-.185.4l-.478.177a.314.314,0,0,1-.4-.185L49.686,4.007A.313.313,0,0,1,49.871,3.6Zm-2.445-.419.478-.177a.314.314,0,0,1,.4.185l.432,1.165L51.2,10.99a.314.314,0,0,1-.185.4l-.478.177a.313.313,0,0,1-.4-.185L49.7,10.22h0L47.241,3.588a.314.314,0,0,1,.185-.4ZM50.4,12.6v1.035H45.323V11.776a1.337,1.337,0,0,0,.683-.063l.478-.177a1.42,1.42,0,0,0,.283-.146,1.327,1.327,0,0,0,1.671.708l.478-.177a1.406,1.406,0,0,0,.282-.145A1.335,1.335,0,0,0,50.4,12.6ZM45.845,5.1l.478-.177a.313.313,0,0,1,.4.185h0l2.025,5.467a.316.316,0,0,1-.185.4l-.478.177a.314.314,0,0,1-.4-.185L45.66,5.5a.313.313,0,0,1,.185-.4Zm-1.78,2.28a.314.314,0,0,1,.185-.4l.478-.177a.313.313,0,0,1,.4.185l1.187,3.205a.314.314,0,0,1-.185.4l-.478.177a.318.318,0,0,1-.4-.185ZM42.026,15.5v-.524a.336.336,0,0,1,.336-.336h13.4a.336.336,0,0,1,.336.336V15.5a.336.336,0,0,1-.336.336h-13.4A.336.336,0,0,1,42.026,15.5Zm5.836,2.057a1.522,1.522,0,0,0-1.513,1.38.5.5,0,0,0-.006.08.51.51,0,1,1-1.02,0V16.85H50.4v3.8a.51.51,0,0,1-1.02,0V19.081a1.521,1.521,0,0,0-1.52-1.519Zm-9.819,6.275c1.587-.565,5.433-1.468,10.861.3a20.348,20.348,0,0,0,2.728.689.5.5,0,0,0,.177-.994,19.33,19.33,0,0,1-2.592-.655,18.583,18.583,0,0,0-10.61-.572,7.487,7.487,0,0,1,1.869-2.137,6.809,6.809,0,0,0,2.679-3.618h1.157v2.172a1.519,1.519,0,0,0,3.033.14.5.5,0,0,0,.006-.08.51.51,0,0,1,1.02,0V20.65a1.519,1.519,0,0,0,3.039,0v-3.8h3.554a6.809,6.809,0,0,0,2.679,3.618,7.507,7.507,0,0,1,2.11,2.584,12.285,12.285,0,0,1-5.659,1.028.5.5,0,1,0-.036,1.009,13.377,13.377,0,0,0,6.069-1.1c1.142,3.659-1.233,6.559-4.586,8.448a7.977,7.977,0,0,1-3.91,1.014H46.489a7.977,7.977,0,0,1-3.91-1.014C39.143,30.5,36.761,27.531,38.043,23.836Z" transform="translate(0 0)" fill="#456345"/>
      <path id="Trazado_910887" data-name="Trazado 910887" d="M193.811,405.54a1.472,1.472,0,1,0-1.472-1.472A1.473,1.473,0,0,0,193.811,405.54Zm0-1.934a.462.462,0,1,1-.462.462A.463.463,0,0,1,193.811,403.607Z" transform="translate(-145.174 -375.498)" fill="#456345"/>
      <path id="Trazado_910888" data-name="Trazado 910888" d="M119.3,365.287a2.01,2.01,0,1,0-2.01-2.01A2.013,2.013,0,0,0,119.3,365.287Zm0-3.011a1,1,0,1,1-1,1A1,1,0,0,1,119.3,362.276Z" transform="translate(-75.18 -336.949)" fill="#456345"/>
      <path id="Trazado_910889" data-name="Trazado 910889" d="M196.748,371.36a.5.5,0,1,0-.5-.5A.505.505,0,0,0,196.748,371.36Z" transform="translate(-148.815 -345.421)" fill="#456345"/>
    </g>
  </g>
</svg>
