<svg xmlns="http://www.w3.org/2000/svg" xmlns:xlink="http://www.w3.org/1999/xlink" width="93.788" height="44.156" viewBox="0 0 93.788 44.156">
  <defs>
    <clipPath id="clip-path">
      <rect id="Rectángulo_403731" data-name="Rectángulo 403731" width="93.788" height="44.156" fill="none"/>
    </clipPath>
  </defs>
  <g id="Grupo_1108464" data-name="Grupo 1108464" transform="translate(0 0)">
    <g id="Grupo_1108463" data-name="Grupo 1108463" transform="translate(0 0)" clip-path="url(#clip-path)">
      <path id="Trazado_896643" data-name="Trazado 896643" d="M79.54,28.362H68.848a1.731,1.731,0,1,0,0,3.462H79.54A10.8,10.8,0,0,1,90.326,42.61v2.683A10.8,10.8,0,0,1,79.54,56.081H58.006l-11.2,10.163-.135.234a.247.247,0,0,1-.428,0l-.135-.234L34.917,56.081H14.249A10.8,10.8,0,0,1,3.462,45.293V42.61A10.8,10.8,0,0,1,14.249,31.824h9.825a1.731,1.731,0,1,0,0-3.462H14.249A14.265,14.265,0,0,0,0,42.61v2.683A14.265,14.265,0,0,0,14.249,59.543H33.58l9.834,8.928a3.71,3.71,0,0,0,6.093,0l9.835-8.928h20.2A14.265,14.265,0,0,0,93.788,45.293V42.61A14.265,14.265,0,0,0,79.54,28.362" transform="translate(0 -25.907)" fill="#39b54a"/>
      <path id="Trazado_896644" data-name="Trazado 896644" d="M467.639,25.524l.292.189a5.2,5.2,0,0,0,2.819.831h12.806A2.044,2.044,0,0,0,485.6,24.5v-.274a1.145,1.145,0,0,0-1.145-1.145h-.8l0-.022H484.7a1.5,1.5,0,0,0,1.5-1.5V20.522a1.814,1.814,0,0,0-1.814-1.814h.164l0-.022h.867a1.378,1.378,0,0,0,1.378-1.378V16.032a1.7,1.7,0,0,0-1.7-1.7h.344l0-.011h.4a1.314,1.314,0,0,0,1.314-1.314v-.468A2.568,2.568,0,0,0,484.6,9.974H476.28c2.4-3,4.2-9.817.477-9.972a2.724,2.724,0,0,0-2.8,2.47c-.406,4.067-2.867,6.441-6.187,8.042a1.226,1.226,0,0,0-.692,1.1l0,12.874a1.227,1.227,0,0,0,.561,1.031" transform="translate(-426.654 0)" fill="#39b54a"/>
      <path id="Trazado_896645" data-name="Trazado 896645" d="M375.33,138.107h5.3a.816.816,0,0,0,.816-.816V122.944a.816.816,0,0,0-.816-.816h-5.3a.816.816,0,0,0-.816.816v14.348a.816.816,0,0,0,.816.816m2.652-3.972a.959.959,0,1,1-.959.959.959.959,0,0,1,.959-.959" transform="translate(-342.102 -111.559)" fill="#39b54a"/>
    </g>
  </g>
</svg>
