<svg xmlns="http://www.w3.org/2000/svg" width="71.999" height="26.706" viewBox="0 0 71.999 26.706">
  <g id="Grupo_1108452" data-name="Grupo 1108452" transform="translate(0 -161.049)">
    <path id="Trazado_896630" data-name="Trazado 896630" d="M9.031,193.13H73.17a.706.706,0,0,0,.706-.721c-.061-2.926-.042-13.923,3.516-17.49,0,0-6.865,2.022-7.863,6.31l-2-7.443-2.246,4.6-4.1-5.851-1.936,9.728-3.439-13.722-2.9,10.45-3.383-7.583-2.719,9.095-1.673-6.97-4.313,10.285-5.866-13.854s1.209,9.693-2.079,13.37l-2.873-7.952L27.6,183.821s-4.456-7.219-2.6-13.619c0,0-4.914,6.455-4.4,10.636l-2.232-5.918-2.5,8.9A17.42,17.42,0,0,0,7.5,170.2a42.182,42.182,0,0,1,.843,22.058A.706.706,0,0,0,9.031,193.13Z" transform="translate(-6.448 -6.441)" fill="#43a838"/>
    <path id="Trazado_896631" data-name="Trazado 896631" d="M78.908,315.679a.7.7,0,0,1-.7.72H14.064a.705.705,0,0,1-.685-.87c.285-1.2.5-2.373.668-3.525H78.2c.4,0,.668-.021.668-.021C78.87,312.968,78.881,314.374,78.908,315.679Z" transform="translate(-11.48 -129.711)" fill="#338727"/>
    <path id="Trazado_896632" data-name="Trazado 896632" d="M66.722,187.744h-13.2a1.055,1.055,0,0,1,0-2.109H66.367c-.054-3.515.112-10.409,1.976-14.928-1.843.979-3.8,2.457-4.235,4.321a1.055,1.055,0,0,1-2.046.034L60.8,170.341l-1.01,2.07a1.055,1.055,0,0,1-1.812.142l-2.68-3.828-1.454,7.306a1.055,1.055,0,0,1-2.057.051l-2.468-9.848-1.834,6.6a1.055,1.055,0,0,1-1.979.147L43.278,168l-1.9,6.37a1.055,1.055,0,0,1-2.036-.056l-.92-3.836-3.067,7.313a1.055,1.055,0,0,1-.971.647h0a1.055,1.055,0,0,1-.971-.643l-3.66-8.644c-.144,3-.742,6.456-2.527,8.452a1.055,1.055,0,0,1-1.778-.345l-1.764-4.883-1.515,5.3a1.055,1.055,0,0,1-1.911.264,23.751,23.751,0,0,1-3.185-9.891c-1.116,2.063-2.089,4.472-1.874,6.225a1.055,1.055,0,0,1-2.034.5l-1.1-2.91-1.628,5.807a1.055,1.055,0,0,1-2.07-.285,14.057,14.057,0,0,0-1.009-4.493A16.607,16.607,0,0,0,2.922,166.5a43.648,43.648,0,0,1,.1,19.13H38.11a1.055,1.055,0,0,1,0,2.109H2.584a1.761,1.761,0,0,1-1.712-2.17,41.365,41.365,0,0,0-.808-21.452,1.055,1.055,0,0,1,1.563-1.246,19.121,19.121,0,0,1,7.967,9.965l1.3-4.647a1.055,1.055,0,0,1,2-.087l.833,2.208a30.143,30.143,0,0,1,3.974-7.192,1.055,1.055,0,0,1,1.852.932c-1.089,3.76.224,7.921,1.317,10.441l1.67-5.841a1.055,1.055,0,0,1,2.006-.068l2.117,5.859c1.307-3.316,1.06-8.662.8-10.789a1.055,1.055,0,0,1,2.018-.541l4.89,11.549,3.345-7.976a1.055,1.055,0,0,1,2,.162l.759,3.161,1.6-5.342a1.055,1.055,0,0,1,1.974-.128l2.188,4.9,2.118-7.624a1.055,1.055,0,0,1,1.016-.772h.014a1.055,1.055,0,0,1,1.01.8l2.3,9.168,1.02-5.123a1.055,1.055,0,0,1,1.9-.4l3.069,4.385,1.461-2.994a1.055,1.055,0,0,1,1.966.189l1.3,4.833c2.432-2.988,7-4.367,7.247-4.438a1.055,1.055,0,0,1,1.045,1.757c-2.568,2.574-3.341,10.326-3.208,16.723a1.759,1.759,0,0,1-1.761,1.8Z" transform="translate(0)"/>
    <path id="Trazado_896633" data-name="Trazado 896633" d="M309.246,338.067h-3.731a1.055,1.055,0,0,1,0-2.109h3.731a1.055,1.055,0,0,1,0,2.109Z" transform="translate(-261.646 -150.313)"/>
    <circle id="Elipse_11639" data-name="Elipse 11639" cx="1.207" cy="1.207" r="1.207" transform="translate(13.07 177.805)"/>
    <circle id="Elipse_11640" data-name="Elipse 11640" cx="1.207" cy="1.207" r="1.207" transform="translate(16.445 181.18)"/>
    <circle id="Elipse_11641" data-name="Elipse 11641" cx="1.207" cy="1.207" r="1.207" transform="translate(56.736 176.05)"/>
  </g>
</svg>
