<svg xmlns="http://www.w3.org/2000/svg" width="110" height="110" viewBox="0 0 110 110">
  <g id="Grupo_1110512" data-name="Grupo 1110512" transform="translate(-1207.051 -1074)">
    <path id="Trazado_896607" data-name="Trazado 896607" d="M55,0A55,55,0,1,1,0,55,55,55,0,0,1,55,0Z" transform="translate(1207.051 1074)" fill="#ff7c32" opacity="0.859"/>
    <g id="Page-1" transform="translate(1225.709 1106.766)">
      <g id="_041---Mattress-Protector-Zip" data-name="041---Mattress-Protector-Zip" transform="translate(0 0)">
        <path id="Path" d="M71.261,26.211v10.9a1.211,1.211,0,0,1-1.211,1.211H2.211A1.211,1.211,0,0,1,1,37.114V25H16.748a4.1,4.1,0,0,0,4.785,4.046l8.734-1.454a1.211,1.211,0,0,0,1.018-1.2V25H70.049a1.211,1.211,0,0,1,1.211,1.211Z" transform="translate(0.211 4.932)" fill="#3f51b5" fill-rule="evenodd"/>
        <path id="Path-2" data-name="Path" d="M58.634,25H55a1.211,1.211,0,0,1,1.211,1.211v10.9A1.211,1.211,0,0,1,55,38.325h3.634a1.211,1.211,0,0,0,1.211-1.211v-10.9A1.211,1.211,0,0,0,58.634,25Z" transform="translate(11.626 4.932)" fill="#283593" fill-rule="evenodd"/>
        <path id="Path-3" data-name="Path" d="M61.13,16.634v10.9H26c7.438,0,11.145-8.395,12.768-14.537H57.5A3.634,3.634,0,0,1,61.13,16.634Z" transform="translate(5.496 2.395)" fill="#f5f5f5" fill-rule="evenodd"/>
        <path id="Path-4" data-name="Path" d="M52.634,13H49a3.634,3.634,0,0,1,3.634,3.634v10.9h3.634v-10.9A3.634,3.634,0,0,0,52.634,13Z" transform="translate(10.358 2.395)" fill="#cfd8dc" fill-rule="evenodd"/>
        <path id="Path-5" data-name="Path" d="M56.724,15.475H44.053c-1.623,6.142-5.33,14.537-12.768,14.537V28.619a1.211,1.211,0,0,0-1.018-1.2l-8.734-1.454a4.43,4.43,0,0,0-.69-.061,4.108,4.108,0,0,0-4.094,4.107H1V10.629A1.211,1.211,0,0,1,2.211,9.418H28.862a18.575,18.575,0,0,0,7.777-1.769c4.858-2.241,9.34-7.9,15.215-5.96a8.821,8.821,0,0,1,5.2,5.379A12.177,12.177,0,0,1,56.724,15.475Z" transform="translate(0.211 -0.08)" fill="#02a9f4" fill-rule="evenodd"/>
        <path id="Path-6" data-name="Path" d="M48.926,7.068a8.821,8.821,0,0,0-5.2-5.379,7.709,7.709,0,0,0-4.293-.168c.219.052.436.094.659.168a8.821,8.821,0,0,1,5.2,5.379,12.177,12.177,0,0,1-.327,8.407H48.6A12.177,12.177,0,0,0,48.926,7.068Z" transform="translate(8.336 -0.079)" fill="#0377bc" fill-rule="evenodd"/>
        <path id="Path-7" data-name="Path" d="M28.535,24.324V27.11a1.211,1.211,0,0,1-1.018,1.2l-8.734,1.454a4.1,4.1,0,1,1-.69-8.153,4.43,4.43,0,0,1,.69.061l8.734,1.454a1.211,1.211,0,0,1,1.018,1.2Z" transform="translate(2.961 4.215)" fill="#7f8e94" fill-rule="evenodd"/>
        <path id="Path-8" data-name="Path" d="M27.069,23.124l-8.734-1.454a4.43,4.43,0,0,0-.69-.061,4.035,4.035,0,0,0-1.513.3l7.3,1.211a1.211,1.211,0,0,1,1.018,1.2v2.786a1.211,1.211,0,0,1-1.018,1.2l-7.268,1.211a4.035,4.035,0,0,0,2.167.242l8.734-1.454a1.211,1.211,0,0,0,1.018-1.2V24.32A1.211,1.211,0,0,0,27.069,23.124Z" transform="translate(3.41 4.215)" fill="#545c60" fill-rule="evenodd"/>
        <g id="Grupo_1110528" data-name="Grupo 1110528">
          <path id="Shape" d="M70.261,29.012H67.838V19.321a4.846,4.846,0,0,0-4.846-4.846H58.6a13.13,13.13,0,0,0-.2-7.6A10.065,10.065,0,0,0,52.442.748C47.76-.792,43.9,1.868,40.489,4.215a29.436,29.436,0,0,1-4.148,2.543,17.306,17.306,0,0,1-7.268,1.661H2.423A2.423,2.423,0,0,0,0,10.841v31.5A2.423,2.423,0,0,0,2.423,44.76H70.261a2.423,2.423,0,0,0,2.423-2.423v-10.9A2.423,2.423,0,0,0,70.261,29.012Zm-4.846-9.691v9.691H38.182c3.755-3.036,5.884-8.3,6.992-12.114H62.992A2.423,2.423,0,0,1,65.415,19.321Zm-35.13,12.3-8.744,1.454a2.894,2.894,0,1,1,0-5.708l8.744,1.461ZM29.073,10.841a19.7,19.7,0,0,0,8.283-1.884,31.561,31.561,0,0,0,4.506-2.746c3.231-2.224,6.282-4.331,9.822-3.162a7.563,7.563,0,0,1,4.43,4.634,10.751,10.751,0,0,1-.028,6.792H45.8c.082-.363.153-.69.208-.969a5.039,5.039,0,0,1,1.944-3.432A3.793,3.793,0,0,1,50.594,9.6a1.211,1.211,0,0,0,.579-2.353,6.212,6.212,0,0,0-4.492.764,7.3,7.3,0,0,0-3.047,5.009c-.712,3.565-3.537,14.77-10.927,15.892v-.087a2.423,2.423,0,0,0-2.024-2.39l-8.745-1.454a5.3,5.3,0,0,0-6.045,4.029H13.325V27.8a1.211,1.211,0,1,0-2.423,0v1.211H8.48V27.8a1.211,1.211,0,1,0-2.423,0v1.211H2.423V10.841Zm41.187,31.5H2.423v-10.9H6.057v1.211a1.211,1.211,0,0,0,2.423,0V31.435H10.9v1.211a1.211,1.211,0,0,0,2.423,0V31.435h2.568a5.307,5.307,0,0,0,6.045,4.033l8.745-1.454a2.423,2.423,0,0,0,2.024-2.394v-.185H70.261Z" transform="translate(0 -0.291)"/>
          <circle id="Oval" cx="1.211" cy="1.211" r="1.211" transform="translate(55.724 19.029)"/>
          <circle id="Oval-2" data-name="Oval" cx="1.211" cy="1.211" r="1.211" transform="translate(55.724 23.875)"/>
          <circle id="Oval-3" data-name="Oval" cx="1.211" cy="1.211" r="1.211" transform="translate(60.569 19.029)"/>
          <circle id="Oval-4" data-name="Oval" cx="1.211" cy="1.211" r="1.211" transform="translate(60.569 23.875)"/>
          <circle id="Oval-5" data-name="Oval" cx="1.211" cy="1.211" r="1.211" transform="translate(50.878 19.029)"/>
          <circle id="Oval-6" data-name="Oval" cx="1.211" cy="1.211" r="1.211" transform="translate(50.878 23.875)"/>
          <circle id="Oval-7" data-name="Oval" cx="1.211" cy="1.211" r="1.211" transform="translate(46.033 19.029)"/>
          <circle id="Oval-8" data-name="Oval" cx="1.211" cy="1.211" r="1.211" transform="translate(46.033 23.875)"/>
          <circle id="Oval-9" data-name="Oval" cx="1.211" cy="1.211" r="1.211" transform="translate(20.594 28.72)"/>
        </g>
      </g>
    </g>
  </g>
</svg>
