<svg xmlns="http://www.w3.org/2000/svg" width="110" height="110" viewBox="0 0 110 110">
  <g id="Grupo_1110515" data-name="Grupo 1110515" transform="translate(-263.051 -1074.121)">
    <path id="Trazado_895728" data-name="Trazado 895728" d="M55,0A55,55,0,1,1,0,55,55,55,0,0,1,55,0Z" transform="translate(263.051 1074.121)" fill="#ff7c32" opacity="0.859"/>
    <g id="Grupo_1110529" data-name="Grupo 1110529" transform="translate(287.589 1096.121)">
      <g id="Grupo_1110522" data-name="Grupo 1110522" transform="translate(0.959 1.311)">
        <g id="Grupo_1110521" data-name="Grupo 1110521" transform="translate(25.19)">
          <path id="Trazado_909926" data-name="Trazado 909926" d="M227.871,21.887c2.011-1.9,4.086-3.548,4.086-5.779s-2.075-3.875-4.086-5.779c-2.011,1.9-4.086,3.548-4.086,5.779S225.86,19.983,227.871,21.887Z" transform="translate(-223.785 -10.329)" fill="#fe8" fill-rule="evenodd"/>
          <path id="Trazado_909927" data-name="Trazado 909927" d="M264.164,116.127c-2.671.022-4.586-.28-6.164,1.3a7.01,7.01,0,0,0-2.009,4.819V124.3c2.8-.023,5.2.183,6.778-1.395S264.142,118.8,264.164,116.127Z" transform="translate(-251.905 -102.695)" fill="#fe8" fill-rule="evenodd"/>
          <path id="Trazado_909928" data-name="Trazado 909928" d="M264.164,208.471c-2.671.022-4.586-.28-6.164,1.3a7.011,7.011,0,0,0-2.009,4.809v2.066c2.8-.023,5.2.183,6.778-1.395S264.142,211.142,264.164,208.471Z" transform="translate(-251.905 -183.323)" fill="#fe8" fill-rule="evenodd"/>
          <path id="Trazado_909929" data-name="Trazado 909929" d="M264.164,300.815c-2.671.022-4.586-.28-6.164,1.3a7.01,7.01,0,0,0-2.009,4.818v2.056c2.8-.023,5.2.183,6.778-1.395S264.142,303.486,264.164,300.815Z" transform="translate(-251.905 -263.951)" fill="#fe8" fill-rule="evenodd"/>
          <path id="Trazado_909930" data-name="Trazado 909930" d="M264.164,393.159c-2.671.022-4.586-.28-6.164,1.3a7.01,7.01,0,0,0-2.009,4.818v2.056c2.8-.023,5.2.183,6.778-1.395S264.142,395.83,264.164,393.159Z" transform="translate(-251.905 -344.579)" fill="#fe8" fill-rule="evenodd"/>
        </g>
        <path id="Trazado_909931" data-name="Trazado 909931" d="M199.749,399.275a7.011,7.011,0,0,0-2.009-4.819c-1.578-1.578-3.493-1.276-6.164-1.3.022,2.671-.183,5.2,1.395,6.778s3.975,1.372,6.778,1.395Z" transform="translate(-170.473 -344.578)" fill="#ffe000" fill-rule="evenodd"/>
        <path id="Trazado_909932" data-name="Trazado 909932" d="M192.971,307.592c1.578,1.578,3.975,1.372,6.778,1.395v-2.056a7.011,7.011,0,0,0-2.009-4.819c-1.578-1.578-3.493-1.276-6.164-1.3C191.6,303.486,191.393,306.015,192.971,307.592Z" transform="translate(-170.473 -263.95)" fill="#ffe000" fill-rule="evenodd"/>
        <path id="Trazado_909933" data-name="Trazado 909933" d="M192.971,215.249c1.578,1.578,3.975,1.372,6.778,1.395v-2.07a7.01,7.01,0,0,0-2.009-4.8c-1.578-1.578-3.493-1.276-6.164-1.3C191.6,211.143,191.393,213.672,192.971,215.249Z" transform="translate(-170.473 -183.323)" fill="#ffe000" fill-rule="evenodd"/>
        <path id="Trazado_909934" data-name="Trazado 909934" d="M192.972,122.9c1.578,1.578,3.975,1.372,6.778,1.395v-2.056a7.011,7.011,0,0,0-2.009-4.819c-1.578-1.578-3.493-1.276-6.164-1.3C191.6,118.8,191.394,121.327,192.972,122.9Z" transform="translate(-170.474 -102.695)" fill="#ffe000" fill-rule="evenodd"/>
        <path id="Trazado_909935" data-name="Trazado 909935" d="M61.543,21.887c2.011-1.9,4.086-3.548,4.086-5.779s-2.075-3.875-4.086-5.779c-2.011,1.9-4.086,3.548-4.086,5.779S59.532,19.983,61.543,21.887Z" transform="translate(-53.37 -10.329)" fill="#fe8" fill-rule="evenodd"/>
        <path id="Trazado_909936" data-name="Trazado 909936" d="M97.836,116.127c-2.671.022-4.586-.28-6.164,1.3a7.01,7.01,0,0,0-2.009,4.819V124.3c2.8-.023,5.2.183,6.778-1.395S97.814,118.8,97.836,116.127Z" transform="translate(-81.49 -102.695)" fill="#fe8" fill-rule="evenodd"/>
        <path id="Trazado_909937" data-name="Trazado 909937" d="M97.835,208.471c-2.671.022-4.586-.28-6.164,1.3a7.011,7.011,0,0,0-2.009,4.809v2.066c2.8-.023,5.2.183,6.778-1.395S97.813,211.142,97.835,208.471Z" transform="translate(-81.489 -183.323)" fill="#fe8" fill-rule="evenodd"/>
        <path id="Trazado_909938" data-name="Trazado 909938" d="M97.835,300.815c-2.671.022-4.586-.28-6.164,1.3a7.01,7.01,0,0,0-2.009,4.818v2.056c2.8-.023,5.2.183,6.778-1.395S97.813,303.486,97.835,300.815Z" transform="translate(-81.489 -263.951)" fill="#fe8" fill-rule="evenodd"/>
        <path id="Trazado_909939" data-name="Trazado 909939" d="M97.835,393.159c-2.671.022-4.586-.28-6.164,1.3a7.01,7.01,0,0,0-2.009,4.818v2.056c2.8-.023,5.2.183,6.778-1.395S97.813,395.83,97.835,393.159Z" transform="translate(-81.489 -344.579)" fill="#fe8" fill-rule="evenodd"/>
        <path id="Trazado_909940" data-name="Trazado 909940" d="M33.421,399.275a7.011,7.011,0,0,0-2.009-4.819c-1.578-1.578-3.493-1.276-6.164-1.3.022,2.671-.183,5.2,1.395,6.778s3.975,1.372,6.778,1.395Z" transform="translate(-25.248 -344.578)" fill="#ffe000" fill-rule="evenodd"/>
        <path id="Trazado_909941" data-name="Trazado 909941" d="M26.643,307.592c1.578,1.578,3.975,1.372,6.778,1.395v-2.056a7.011,7.011,0,0,0-2.009-4.819c-1.578-1.578-3.493-1.276-6.164-1.3C25.27,303.486,25.065,306.015,26.643,307.592Z" transform="translate(-25.248 -263.95)" fill="#ffe000" fill-rule="evenodd"/>
        <path id="Trazado_909942" data-name="Trazado 909942" d="M26.643,215.249c1.578,1.578,3.975,1.372,6.778,1.395v-2.07a7.011,7.011,0,0,0-2.009-4.8c-1.578-1.578-3.493-1.276-6.164-1.3C25.27,211.143,25.065,213.672,26.643,215.249Z" transform="translate(-25.248 -183.323)" fill="#ffe000" fill-rule="evenodd"/>
        <path id="Trazado_909943" data-name="Trazado 909943" d="M26.643,122.9c1.578,1.578,3.975,1.372,6.778,1.395v-2.056a7.011,7.011,0,0,0-2.009-4.819c-1.578-1.578-3.493-1.276-6.164-1.3C25.27,118.8,25.065,121.327,26.643,122.9Z" transform="translate(-25.248 -102.695)" fill="#ffe000" fill-rule="evenodd"/>
        <path id="Trazado_909944" data-name="Trazado 909944" d="M394.2,21.887c2.011-1.9,4.086-3.548,4.086-5.779s-2.075-3.875-4.086-5.779c-2.011,1.9-4.086,3.548-4.086,5.779S392.188,19.983,394.2,21.887Z" transform="translate(-343.82 -10.329)" fill="#fe8" fill-rule="evenodd"/>
        <path id="Trazado_909945" data-name="Trazado 909945" d="M430.493,116.127c-2.671.022-4.586-.28-6.164,1.3a7.01,7.01,0,0,0-2.009,4.819V124.3c2.8-.023,5.2.183,6.778-1.395S430.471,118.8,430.493,116.127Z" transform="translate(-371.941 -102.695)" fill="#fe8" fill-rule="evenodd"/>
        <path id="Trazado_909946" data-name="Trazado 909946" d="M430.492,208.471c-2.671.022-4.586-.28-6.164,1.3a7.011,7.011,0,0,0-2.009,4.809v2.066c2.8-.023,5.2.183,6.778-1.395S430.47,211.142,430.492,208.471Z" transform="translate(-371.94 -183.323)" fill="#fe8" fill-rule="evenodd"/>
        <path id="Trazado_909947" data-name="Trazado 909947" d="M430.492,300.815c-2.671.022-4.586-.28-6.164,1.3a7.01,7.01,0,0,0-2.009,4.818v2.056c2.8-.023,5.2.183,6.778-1.395S430.47,303.486,430.492,300.815Z" transform="translate(-371.94 -263.951)" fill="#fe8" fill-rule="evenodd"/>
        <path id="Trazado_909948" data-name="Trazado 909948" d="M430.492,393.159c-2.671.022-4.586-.28-6.164,1.3a7.01,7.01,0,0,0-2.009,4.818v2.056c2.8-.023,5.2.183,6.778-1.395S430.47,395.83,430.492,393.159Z" transform="translate(-371.94 -344.579)" fill="#fe8" fill-rule="evenodd"/>
        <path id="Trazado_909949" data-name="Trazado 909949" d="M366.078,399.275a7.011,7.011,0,0,0-2.009-4.819c-1.578-1.578-3.493-1.276-6.164-1.3.022,2.671-.183,5.2,1.395,6.778s3.975,1.372,6.778,1.395Z" transform="translate(-315.699 -344.578)" fill="#ffe000" fill-rule="evenodd"/>
        <path id="Trazado_909950" data-name="Trazado 909950" d="M359.3,307.592c1.578,1.578,3.975,1.372,6.778,1.395v-2.056a7.011,7.011,0,0,0-2.009-4.819c-1.578-1.578-3.493-1.276-6.164-1.3C357.927,303.486,357.722,306.015,359.3,307.592Z" transform="translate(-315.699 -263.95)" fill="#ffe000" fill-rule="evenodd"/>
        <path id="Trazado_909951" data-name="Trazado 909951" d="M359.3,215.249c1.578,1.578,3.975,1.372,6.778,1.395v-2.07a7.01,7.01,0,0,0-2.009-4.8c-1.578-1.578-3.493-1.276-6.164-1.3C357.927,211.143,357.722,213.672,359.3,215.249Z" transform="translate(-315.699 -183.323)" fill="#ffe000" fill-rule="evenodd"/>
        <path id="Trazado_909952" data-name="Trazado 909952" d="M359.3,122.9c1.578,1.578,3.975,1.372,6.778,1.395v-2.056a7.011,7.011,0,0,0-2.009-4.819c-1.578-1.578-3.493-1.276-6.164-1.3C357.927,118.8,357.722,121.327,359.3,122.9Z" transform="translate(-315.699 -102.695)" fill="#ffe000" fill-rule="evenodd"/>
      </g>
      <g id="Grupo_1110523" data-name="Grupo 1110523" transform="translate(0 0)">
        <path id="Trazado_909953" data-name="Trazado 909953" d="M248.492,48.376h1.9v1.9h-1.9Z" transform="translate(-219.208 -42.238)"/>
        <path id="Trazado_909954" data-name="Trazado 909954" d="M202.278,13.783l-.967.008c-.392,0-.77,0-1.135,0-2.173-.022-4.052-.042-5.671,1.558a4.762,4.762,0,0,0-.407.411V13.281l.377-.352c1.824-1.694,3.709-3.445,3.709-5.839S196.3,2.944,194.474,1.25c-.224-.208-.449-.417-.674-.63L193.145,0l-.654.62c-.225.213-.451.423-.674.63-1.824,1.694-3.709,3.445-3.709,5.839s1.886,4.146,3.709,5.84l.377.352v2.474a4.773,4.773,0,0,0-.407-.411c-1.619-1.6-3.5-1.581-5.671-1.558-.365,0-.743.008-1.135,0l-.967-.008.008.967c0,.3,0,.6,0,.89,0,2.4-.007,4.874,1.672,6.553s4.019,1.675,6.5,1.672v3.607a4.769,4.769,0,0,0-.407-.411c-1.618-1.6-3.5-1.581-5.67-1.558-.366,0-.743.008-1.136,0l-.967-.008.008.967c0,.3,0,.6,0,.89,0,2.4-.007,4.874,1.672,6.553s4.018,1.675,6.5,1.672v3.607a4.774,4.774,0,0,0-.407-.411c-1.619-1.6-3.5-1.581-5.671-1.558-.365,0-.743.008-1.135,0l-.967-.008.008.967c0,.3,0,.6,0,.89,0,2.4-.007,4.874,1.672,6.553s4.017,1.674,6.5,1.672V50.9a4.762,4.762,0,0,0-.407-.411c-1.619-1.6-3.5-1.581-5.671-1.558-.365,0-.743.008-1.135,0l-.967-.008.008.967c0,.3,0,.6,0,.89,0,2.4-.007,4.874,1.672,6.553s4.018,1.675,6.5,1.672v5.945h1.9V59.014c2.483,0,4.824,0,6.5-1.672s1.675-4.157,1.672-6.553c0-.294,0-.591,0-.89l.008-.967-.967.008c-.392,0-.77,0-1.135,0-2.173-.022-4.052-.042-5.671,1.558a4.759,4.759,0,0,0-.407.411V47.3c2.483,0,4.824,0,6.5-1.672s1.675-4.157,1.672-6.553c0-.294,0-.591,0-.89l.008-.967-.967.008c-.392,0-.77,0-1.135,0-2.173-.022-4.052-.042-5.671,1.558a4.76,4.76,0,0,0-.407.411V35.581c2.483,0,4.824,0,6.5-1.672s1.675-4.157,1.672-6.553c0-.294,0-.591,0-.89l.008-.967-.967.008c-.392,0-.77,0-1.136,0-2.173-.023-4.052-.042-5.67,1.558a4.765,4.765,0,0,0-.407.411V23.865c2.481,0,4.824,0,6.5-1.672s1.675-4.157,1.672-6.553c0-.294,0-.591,0-.89ZM190.011,7.089c0-1.564,1.437-2.9,3.1-4.445l.033-.031.033.031c1.664,1.546,3.1,2.881,3.1,4.445s-1.437,2.9-3.1,4.445l-.033.031-.033-.031C191.448,9.989,190.011,8.654,190.011,7.089Zm-2.97,13.758c-1.112-1.112-1.118-2.985-1.115-5.156l.21,0c2.149-.023,3.317.013,4.328,1.024l.049.046a6.105,6.105,0,0,1,1.681,4.1v1.1C189.941,21.965,188.158,21.965,187.04,20.847Zm0,11.716c-1.112-1.112-1.118-2.985-1.115-5.156l.21,0c2.149-.022,3.317.013,4.328,1.024l.049.046a6.105,6.105,0,0,1,1.681,4.1v1.1C189.937,33.681,188.158,33.681,187.04,32.564Zm0,11.716c-1.112-1.112-1.118-2.985-1.115-5.156l.21,0c2.148-.022,3.317.013,4.328,1.024l.049.046a6.105,6.105,0,0,1,1.681,4.1v1.1C189.938,45.4,188.158,45.4,187.04,44.28Zm0,11.716c-1.112-1.112-1.118-2.985-1.115-5.156l.21,0c2.149-.023,3.317.013,4.328,1.024l.049.046a6.1,6.1,0,0,1,1.681,4.1v1.1C189.937,57.113,188.158,57.113,187.04,56Zm8.737-4.088.049-.046c1.011-1.011,2.179-1.047,4.328-1.024l.21,0c0,2.171,0,4.044-1.115,5.156s-2.9,1.116-5.153,1.114v-1.1A6.105,6.105,0,0,1,195.778,51.908Zm0-11.716.049-.046c1.011-1.011,2.179-1.046,4.328-1.024l.21,0c0,2.171,0,4.044-1.115,5.156s-2.9,1.117-5.153,1.114v-1.1A6.106,6.106,0,0,1,195.778,40.192Zm0-11.716.049-.046c1.011-1.011,2.179-1.047,4.328-1.024l.21,0c0,2.171,0,4.044-1.115,5.156s-2.9,1.117-5.153,1.114v-1.1A6.105,6.105,0,0,1,195.778,28.475Zm3.473-7.628c-1.117,1.117-2.9,1.117-5.153,1.114v-1.1a6.1,6.1,0,0,1,1.681-4.1l.049-.046c1.011-1.011,2.18-1.047,4.328-1.024l.21,0C200.368,17.862,200.362,19.735,199.25,20.847Z" transform="translate(-162.91 0)"/>
        <path id="Trazado_909955" data-name="Trazado 909955" d="M414.82,48.376h1.9v1.9h-1.9Z" transform="translate(-364.433 -42.238)"/>
        <path id="Trazado_909956" data-name="Trazado 909956" d="M368.6,25.5l-.967.008c-.392,0-.77,0-1.136,0-2.172-.023-4.052-.042-5.67,1.558a4.766,4.766,0,0,0-.407.411V23.865c2.481,0,4.824,0,6.5-1.672s1.675-4.157,1.672-6.553c0-.294,0-.591,0-.89l.008-.967-.967.008c-.392,0-.77,0-1.135,0-2.173-.022-4.052-.042-5.671,1.558a4.75,4.75,0,0,0-.407.411V13.281l.377-.352c1.824-1.694,3.709-3.445,3.709-5.84S362.625,2.944,360.8,1.25c-.224-.208-.449-.417-.674-.63L359.473,0l-.654.62c-.225.213-.451.423-.674.63-1.824,1.694-3.709,3.445-3.709,5.839s1.886,4.146,3.709,5.839l.377.353v2.474a4.764,4.764,0,0,0-.407-.411c-1.619-1.6-3.5-1.581-5.671-1.558-.365,0-.743.008-1.135,0l-.967-.008.008.967c0,.3,0,.6,0,.889,0,2.4-.007,4.875,1.672,6.553s4.016,1.676,6.5,1.672v3.607a4.749,4.749,0,0,0-.407-.411c-1.618-1.6-3.5-1.581-5.67-1.558-.366,0-.743.008-1.136,0l-.967-.008.008.967c0,.3,0,.6,0,.889,0,2.4-.007,4.875,1.672,6.553s4.019,1.675,6.5,1.672v3.607a4.775,4.775,0,0,0-.407-.411c-1.619-1.6-3.5-1.581-5.671-1.558-.365,0-.743.008-1.135,0l-.967-.008.008.967c0,.3,0,.6,0,.889,0,2.4-.007,4.875,1.672,6.553s4.016,1.674,6.5,1.672V50.9a4.743,4.743,0,0,0-.407-.411c-1.619-1.6-3.5-1.581-5.671-1.558-.365,0-.743.008-1.135,0l-.967-.008.008.967c0,.3,0,.6,0,.889,0,2.4-.007,4.875,1.672,6.553s4.019,1.675,6.5,1.672v5.945h1.9V59.014c2.481,0,4.824,0,6.5-1.672a5.053,5.053,0,0,0,1.24-2.08l-1.811-.584A3.2,3.2,0,0,1,365.577,56c-1.117,1.117-2.9,1.116-5.153,1.114v-1.1a6.1,6.1,0,0,1,1.681-4.1l.049-.046c1.011-1.011,2.179-1.047,4.328-1.024l.21,0c0,.752,0,1.462-.046,2.128l1.9.135c.053-.749.052-1.509.051-2.314,0-.294,0-.591,0-.89l.008-.967-.967.008c-.392,0-.77,0-1.135,0-2.173-.022-4.052-.042-5.671,1.558a4.753,4.753,0,0,0-.407.411V47.3c2.482,0,4.824,0,6.5-1.672s1.675-4.157,1.672-6.553c0-.294,0-.591,0-.89l.008-.967-.967.008c-.392,0-.77,0-1.135,0-2.173-.022-4.052-.042-5.671,1.558a4.77,4.77,0,0,0-.407.411V35.581c2.483,0,4.824,0,6.5-1.672s1.675-4.157,1.672-6.553c0-.294,0-.591,0-.89Zm-8.18-4.64a6.1,6.1,0,0,1,1.681-4.1l.049-.046c1.011-1.011,2.179-1.047,4.328-1.024l.21,0c0,2.171,0,4.044-1.115,5.156s-2.9,1.118-5.153,1.114Zm-4.086-13.77c0-1.564,1.437-2.9,3.1-4.445l.033-.031.033.031c1.664,1.546,3.1,2.881,3.1,4.445s-1.437,2.9-3.1,4.445l-.033.031-.033-.031c-1.664-1.545-3.1-2.88-3.1-4.445Zm-2.97,13.758c-1.112-1.112-1.118-2.985-1.115-5.156l.21,0c2.149-.023,3.317.013,4.328,1.024l.049.046a6.1,6.1,0,0,1,1.681,4.1v1.1C356.265,21.964,354.485,21.965,353.368,20.847Zm0,11.716c-1.112-1.112-1.118-2.985-1.115-5.156l.21,0c2.149-.022,3.317.013,4.328,1.024l.049.046a6.1,6.1,0,0,1,1.681,4.1v1.1C356.266,33.68,354.485,33.681,353.368,32.564Zm0,11.716c-1.112-1.112-1.118-2.985-1.115-5.156l.21,0c2.149-.022,3.317.013,4.328,1.024l.049.046a6.1,6.1,0,0,1,1.681,4.1v1.1C356.266,45.4,354.485,45.4,353.368,44.28Zm0,11.716c-1.112-1.112-1.118-2.985-1.115-5.156l.21,0c2.149-.023,3.317.013,4.328,1.024l.049.046a6.1,6.1,0,0,1,1.681,4.1v1.1C356.266,57.112,354.485,57.113,353.368,56Zm8.737-15.8.049-.046c1.011-1.011,2.18-1.046,4.328-1.024l.21,0c0,2.171,0,4.044-1.115,5.156s-2.9,1.116-5.153,1.114v-1.1A6.106,6.106,0,0,1,362.1,40.192Zm3.473-7.628c-1.117,1.117-2.9,1.117-5.153,1.114v-1.1a6.105,6.105,0,0,1,1.681-4.1l.049-.046c1.011-1.011,2.18-1.047,4.328-1.024l.21,0C366.7,29.579,366.689,31.452,365.577,32.564Z" transform="translate(-308.134 0)"/>
        <path id="Trazado_909957" data-name="Trazado 909957" d="M82.164,48.376h1.9v1.9h-1.9Z" transform="translate(-73.983 -42.238)"/>
        <path id="Trazado_909958" data-name="Trazado 909958" d="M35.95,13.783l-.967.008c-.392,0-.77,0-1.135,0-2.174-.023-4.052-.042-5.671,1.558a4.75,4.75,0,0,0-.407.411V13.281l.377-.352c1.824-1.694,3.709-3.446,3.709-5.84S29.97,2.944,28.147,1.25c-.224-.208-.449-.417-.674-.63L26.818,0l-.654.62c-.225.213-.451.423-.674.63C23.666,2.944,21.78,4.7,21.78,7.089s1.886,4.146,3.709,5.84l.377.352v2.474a4.767,4.767,0,0,0-.407-.411c-1.619-1.6-3.5-1.581-5.671-1.558-.365,0-.743.008-1.135,0l-.967-.008.008.967c0,.3,0,.6,0,.889a16.5,16.5,0,0,0,.32,4.088l1.843-.475a14.988,14.988,0,0,1-.26-3.56l.21,0c2.149-.023,3.317.013,4.328,1.024l.049.046a6.1,6.1,0,0,1,1.681,4.1v1.1c-2.254,0-4.036,0-5.153-1.114-.063-.063-.126-.133-.186-.206l-1.469,1.21c.1.12.2.235.309.341,1.675,1.675,4.017,1.676,6.5,1.672v3.607a4.752,4.752,0,0,0-.407-.411c-1.619-1.6-3.5-1.581-5.67-1.558-.366,0-.743.008-1.136,0l-.967-.008.008.967c0,.3,0,.6,0,.89,0,2.4-.007,4.874,1.672,6.553s4.018,1.675,6.5,1.672v3.607a4.769,4.769,0,0,0-.407-.411c-1.619-1.6-3.5-1.581-5.671-1.558-.365,0-.743.008-1.135,0l-.967-.008.008.967c0,.3,0,.6,0,.89,0,2.4-.007,4.874,1.672,6.553s4.019,1.675,6.5,1.672V50.9a4.77,4.77,0,0,0-.407-.411c-1.619-1.6-3.5-1.581-5.671-1.558-.365,0-.743.008-1.135,0l-.967-.008.008.967c0,.3,0,.6,0,.89,0,2.4-.007,4.874,1.672,6.553s4.018,1.675,6.5,1.672v5.945h1.9V59.014c2.48,0,4.824,0,6.5-1.672s1.675-4.157,1.672-6.553c0-.294,0-.591,0-.889l.008-.967-.967.008c-.392,0-.77,0-1.135,0-2.173-.022-4.052-.042-5.671,1.558a4.767,4.767,0,0,0-.407.411V47.3c2.482,0,4.824,0,6.5-1.672s1.675-4.157,1.672-6.553c0-.294,0-.591,0-.889l.008-.967-.967.008c-.392,0-.77,0-1.135,0-2.174-.023-4.052-.042-5.671,1.558a4.766,4.766,0,0,0-.407.411V35.581c2.48,0,4.824,0,6.5-1.672s1.675-4.157,1.672-6.553c0-.294,0-.591,0-.889l.008-.967-.967.008c-.392,0-.77,0-1.136,0-2.174-.023-4.052-.042-5.67,1.558a4.766,4.766,0,0,0-.407.411V23.865c2.481,0,4.824,0,6.5-1.672s1.675-4.157,1.672-6.553c0-.294,0-.591,0-.889ZM23.684,7.089c0-1.564,1.437-2.9,3.1-4.445l.033-.031.033.031c1.664,1.546,3.1,2.881,3.1,4.445s-1.437,2.9-3.1,4.445l-.033.031-.033-.031C25.121,9.989,23.684,8.654,23.684,7.089Zm-2.97,25.474C19.6,31.452,19.6,29.579,19.6,27.408l.21,0c2.149-.022,3.317.013,4.328,1.024l.049.046a6.105,6.105,0,0,1,1.681,4.1v1.1C23.612,33.68,21.831,33.681,20.713,32.564Zm0,11.716C19.6,43.168,19.6,41.3,19.6,39.124l.21,0c2.149-.022,3.317.013,4.328,1.024l.049.046a6.1,6.1,0,0,1,1.681,4.1v1.1C23.613,45.4,21.831,45.4,20.713,44.28Zm0,11.716C19.6,54.884,19.6,53.011,19.6,50.84l.21,0c2.149-.023,3.317.013,4.328,1.024l.049.046a6.1,6.1,0,0,1,1.681,4.1v1.1C23.612,57.112,21.831,57.113,20.713,56Zm8.737-4.088.049-.046c1.011-1.011,2.179-1.047,4.328-1.024l.21,0c0,2.171,0,4.044-1.115,5.156s-2.9,1.117-5.153,1.114v-1.1A6.105,6.105,0,0,1,29.45,51.908Zm0-11.716.049-.046c1.011-1.011,2.18-1.046,4.328-1.024l.21,0c0,2.171,0,4.044-1.115,5.156s-2.9,1.117-5.153,1.114v-1.1a6.106,6.106,0,0,1,1.681-4.1Zm0-11.716.049-.046c1.011-1.011,2.179-1.046,4.328-1.024l.21,0c0,2.171,0,4.044-1.115,5.156s-2.9,1.118-5.153,1.114v-1.1a6.106,6.106,0,0,1,1.681-4.1Zm3.473-7.628c-1.117,1.117-2.9,1.118-5.153,1.114v-1.1a6.1,6.1,0,0,1,1.681-4.1l.049-.046c1.011-1.011,2.179-1.047,4.328-1.024l.21,0C34.041,17.862,34.035,19.735,32.923,20.847Z" transform="translate(-17.686 0)"/>
      </g>
    </g>
  </g>
</svg>
