<svg xmlns="http://www.w3.org/2000/svg" width="110" height="110" viewBox="0 0 110 110">
  <g id="Grupo_1110513" data-name="Grupo 1110513" transform="translate(-892.051 -1074)">
    <path id="Trazado_896606" data-name="Trazado 896606" d="M55,0A55,55,0,1,1,0,55,55,55,0,0,1,55,0Z" transform="translate(892.051 1074)" fill="#ff7c32" opacity="0.859"/>
    <g id="Grupo_1110531" data-name="Grupo 1110531" transform="translate(914.77 1096.719)">
      <g id="Grupo_1110525" data-name="Grupo 1110525" transform="translate(6.305 1.261)">
        <path id="Trazado_909959" data-name="Trazado 909959" d="M215.5,409.366H205.413L201,404.575V396h18.915v8.575Z" transform="translate(-181.959 -347.326)" fill="#a0c8ff"/>
        <path id="Trazado_909960" data-name="Trazado 909960" d="M50,10h57v5.044H50Z" transform="translate(-50 -10)" fill="#a0c8ff"/>
        <path id="Trazado_909961" data-name="Trazado 909961" d="M94.387,72.193H62.61L50,50h57Z" transform="translate(-50 -44.956)" fill="#a0c8ff"/>
      </g>
      <path id="Trazado_909962" data-name="Trazado 909962" d="M256,436h5.044v8.322H256Z" transform="translate(-223.719 -381.021)" fill="#fff"/>
      <path id="Trazado_909963" data-name="Trazado 909963" d="M241,396h8.827v5.044H241Z" transform="translate(-210.61 -346.065)" fill="#fff"/>
      <path id="Trazado_909964" data-name="Trazado 909964" d="M131.865,247.437H95.044A5.044,5.044,0,0,1,90,242.393V231.044A5.044,5.044,0,0,1,95.044,226h36.821a5.044,5.044,0,0,1,5.044,5.044v11.349A5.044,5.044,0,0,1,131.865,247.437Z" transform="translate(-78.651 -197.502)" fill="#ffdcd5"/>
      <circle id="Elipse_11651" data-name="Elipse 11651" cx="5.924" cy="5.924" r="5.924" transform="translate(39.025 34.143)" fill="#ffda8f"/>
      <circle id="Elipse_11652" data-name="Elipse 11652" cx="5.924" cy="5.924" r="5.924" transform="translate(20.317 34.143)" fill="#ffda8f"/>
      <g id="Grupo_1110526" data-name="Grupo 1110526">
        <path id="Trazado_909965" data-name="Trazado 909965" d="M64.562,1.261A1.261,1.261,0,0,0,63.3,0H6.3A1.261,1.261,0,0,0,5.044,1.261V6.3a1.253,1.253,0,0,0,.165.622h0L16.747,27.237h-.355a6.312,6.312,0,0,0-6.3,6.3v4.413H6.3a1.261,1.261,0,0,0-1.261,1.261V57.5H1.261a1.261,1.261,0,0,0,0,2.522H6.3a1.261,1.261,0,0,0,1.261-1.261V40.478h2.522v4.413a6.312,6.312,0,0,0,6.3,6.3h7.692V58.51a1.261,1.261,0,0,0,.334.854l4.413,4.792a1.261,1.261,0,0,0,.927.407H39.847a1.261,1.261,0,0,0,.927-.407l4.413-4.792a1.262,1.262,0,0,0,.334-.854V51.2h7.692a6.312,6.312,0,0,0,6.3-6.3V33.542a6.312,6.312,0,0,0-6.3-6.3h-.356l2.908-5.117a1.261,1.261,0,0,0-2.193-1.247h0l-3.615,6.363H19.649L8.471,7.566H61.135l-1.956,3.441a1.261,1.261,0,0,0,2.193,1.246L64.4,6.928s0,0,0-.007a1.254,1.254,0,0,0,.161-.616V1.261ZM26.607,58.017V51.2h2.522v3.783A1.261,1.261,0,0,0,30.39,56.24h.63v5.8h-.708Zm11.349-4.3h-6.3V51.2h6.3ZM33.542,62.04v-5.8h2.522v5.8ZM43,58.017,39.294,62.04h-.708v-5.8h.63a1.261,1.261,0,0,0,1.261-1.261V51.2H43ZM53.213,29.759A3.787,3.787,0,0,1,57,33.542V44.891a3.787,3.787,0,0,1-3.783,3.783H16.393a3.787,3.787,0,0,1-3.783-3.783V33.542a3.787,3.787,0,0,1,3.783-3.783ZM7.566,2.522H62.04V5.044H7.566Z"/>
        <path id="Trazado_909966" data-name="Trazado 909966" d="M447.657,121.525a1.26,1.26,0,1,0-.624,2.357,1.266,1.266,0,0,0,1.1-.638,1.261,1.261,0,0,0-.474-1.719Z" transform="translate(-389.562 -106.057)"/>
        <path id="Trazado_909967" data-name="Trazado 909967" d="M302.935,269.871A6.935,6.935,0,1,0,296,262.935,6.943,6.943,0,0,0,302.935,269.871Zm0-11.349a4.413,4.413,0,1,1-4.413,4.413A4.419,4.419,0,0,1,302.935,258.522Z" transform="translate(-258.675 -223.719)"/>
        <path id="Trazado_909968" data-name="Trazado 909968" d="M152.935,269.871A6.935,6.935,0,1,0,146,262.935,6.943,6.943,0,0,0,152.935,269.871Zm0-11.349a4.413,4.413,0,1,1-4.413,4.413A4.418,4.418,0,0,1,152.935,258.522Z" transform="translate(-127.59 -223.719)"/>
      </g>
    </g>
  </g>
</svg>
