<svg xmlns="http://www.w3.org/2000/svg" width="70" height="70" viewBox="0 0 70 70">
  <g id="Grupo_1110865" data-name="Grupo 1110865" transform="translate(6585 4468)">
    <circle id="Elipse_11657" data-name="Elipse 11657" cx="35" cy="35" r="35" transform="translate(-6585 -4468)" fill="#ff7c32"/>
    <path id="Trazado_910905" data-name="Trazado 910905" d="M9.828,14.665l1.043-8.728h9.973V8.984H14.082L13.7,12.4a4.658,4.658,0,0,1,1.107-.436,5.053,5.053,0,0,1,1.342-.188,5.006,5.006,0,0,1,3.908,1.506A6.066,6.066,0,0,1,21.418,17.5a6.055,6.055,0,0,1-.732,2.971,5.034,5.034,0,0,1-2.057,2.045,6.493,6.493,0,0,1-3.129.715,6.987,6.987,0,0,1-3.012-.662,5.4,5.4,0,0,1-2.2-1.815A4.41,4.41,0,0,1,9.5,18.153h3.961a2.24,2.24,0,0,0,.6,1.485,1.9,1.9,0,0,0,1.418.55q1.992,0,1.992-2.947,0-2.725-2.437-2.725a2.432,2.432,0,0,0-2.062.889Z" transform="translate(-6565 -4447)" fill="#12263f"/>
  </g>
</svg>
