<svg xmlns="http://www.w3.org/2000/svg" xmlns:xlink="http://www.w3.org/1999/xlink" width="80" height="80" viewBox="0 0 80 80">
  <defs>
    <filter id="Elipse_11700" x="0" y="0" width="80" height="80" filterUnits="userSpaceOnUse">
      <feOffset input="SourceAlpha"/>
      <feGaussianBlur stdDeviation="5" result="blur"/>
      <feFlood flood-opacity="0.161"/>
      <feComposite operator="in" in2="blur"/>
      <feComposite in="SourceGraphic"/>
    </filter>
  </defs>
  <g id="Grupo_1110860" data-name="Grupo 1110860" transform="translate(-700.051 -4955)">
    <g transform="matrix(1, 0, 0, 1, 700.05, 4955)" filter="url(#Elipse_11700)">
      <circle id="Elipse_11700-2" data-name="Elipse 11700" cx="25" cy="25" r="25" transform="translate(15 15)" fill="#fff"/>
    </g>
    <g id="Grupo_1110859" data-name="Grupo 1110859" transform="translate(723.827 4977.299)">
      <path id="Trazado_910892" data-name="Trazado 910892" d="M4.563,25.3H21.294v5.58a1.523,1.523,0,0,0,1.521,1.521h8.112a1.523,1.523,0,0,0,1.521-1.521V20.237a1.523,1.523,0,0,0-1.521-1.521H27.372V7.559A4.568,4.568,0,0,0,22.809,3H4.563A4.568,4.568,0,0,0,0,7.559V20.742A4.568,4.568,0,0,0,4.563,25.3Zm26.87,5.58a.507.507,0,0,1-.507.507H22.814a.507.507,0,0,1-.507-.507V30.79a1.5,1.5,0,0,0,.507.094h8.112a1.49,1.49,0,0,0,.507-.094ZM26.886,20.238a.507.507,0,0,0,.507-.507h3.039a.509.509,0,0,0,.51.507A.5.5,0,0,0,31.364,20a.5.5,0,0,1,.069.241v3.472a.5.5,0,0,0-.491-.429h-.006a.507.507,0,1,0,.5.585v3.9a.5.5,0,0,0-.491-.429h-.006a.507.507,0,1,0,.5.585v1.442a.507.507,0,0,1-.507.507H29.421a.507.507,0,0,0-.507-.507h-.006a.5.5,0,0,0-.5.507H25.365a.507.507,0,0,0-.507-.507h-.006a.5.5,0,0,0-.5.507H22.814a.507.507,0,0,1-.507-.507V20.237a.5.5,0,0,1,.084-.264.5.5,0,0,0,.946-.243h3.039a.509.509,0,0,0,.51.507ZM1.014,9.58V7.559A3.553,3.553,0,0,1,4.563,4.01H22.809a3.553,3.553,0,0,1,3.549,3.549V9.586a3.553,3.553,0,0,1-3.549,3.549H4.563A3.553,3.553,0,0,1,1.014,9.586Zm25.2,3.036a3.554,3.554,0,0,1-3.4,2.546H4.563a3.554,3.554,0,0,1-3.4-2.546,4.55,4.55,0,0,0,3.4,1.533H22.809A4.55,4.55,0,0,0,26.212,12.616Zm-25.2,1.859a4.554,4.554,0,0,0,3.549,1.7H22.809a4.555,4.555,0,0,0,3.549-1.7v4.241H22.814a1.523,1.523,0,0,0-1.521,1.521v4.054H4.563a3.553,3.553,0,0,1-3.549-3.549Z" fill="#456345"/>
      <path id="Trazado_910893" data-name="Trazado 910893" d="M44.536,51H44.53a.51.51,0,1,0,.006,0Z" transform="translate(-21.705 -23.668)" fill="#456345"/>
      <path id="Trazado_910894" data-name="Trazado 910894" d="M44.536,43H44.53a.51.51,0,1,0,.006,0Z" transform="translate(-21.705 -19.724)" fill="#456345"/>
      <path id="Trazado_910895" data-name="Trazado 910895" d="M48.536,47H48.53a.51.51,0,1,0,.006,0Z" transform="translate(-23.677 -21.696)" fill="#456345"/>
      <path id="Trazado_910896" data-name="Trazado 910896" d="M52.536,51H52.53a.51.51,0,1,0,.006,0Z" transform="translate(-25.649 -23.668)" fill="#456345"/>
      <path id="Trazado_910897" data-name="Trazado 910897" d="M48.536,39H48.53a.51.51,0,1,0,.006,0Z" transform="translate(-23.677 -17.752)" fill="#456345"/>
      <path id="Trazado_910898" data-name="Trazado 910898" d="M52.536,44.018a.507.507,0,1,0,0-1.014H52.53a.507.507,0,0,0,.006,1.014Z" transform="translate(-25.649 -19.724)" fill="#456345"/>
      <path id="Trazado_910899" data-name="Trazado 910899" d="M56.536,48.018a.507.507,0,1,0,0-1.014H56.53a.507.507,0,0,0,.006,1.014Z" transform="translate(-27.621 -21.696)" fill="#456345"/>
      <path id="Trazado_910900" data-name="Trazado 910900" d="M56.536,40.018a.507.507,0,1,0,0-1.014H56.53a.507.507,0,0,0,.006,1.014Z" transform="translate(-27.621 -17.752)" fill="#456345"/>
    </g>
  </g>
</svg>
