<svg id="Grupo_1110766" data-name="Grupo 1110766" xmlns="http://www.w3.org/2000/svg" xmlns:xlink="http://www.w3.org/1999/xlink" width="505" height="412" viewBox="0 0 505 412">
  <defs>
    <clipPath id="clip-path">
      <rect id="Rectángulo_404390" data-name="Rectángulo 404390" width="185.178" height="176.166" fill="none"/>
    </clipPath>
  </defs>
  <rect id="Rectángulo_404437" data-name="Rectángulo 404437" width="505" height="412" fill="#edf0ed"/>
  <rect id="Rectángulo_404459" data-name="Rectángulo 404459" width="505" height="105" transform="translate(0 307)" fill="#dae0da"/>
  <g id="Grupo_1110785" data-name="Grupo 1110785" transform="translate(17.727 70.268)">
    <path id="Trazado_910251" data-name="Trazado 910251" d="M119.923,108.349H29.874v-.743A4.927,4.927,0,0,1,34.8,102.68h80.192a4.927,4.927,0,0,1,4.928,4.926Z" transform="translate(41.014 140.971)" fill="#fdd363"/>
    <path id="Trazado_910252" data-name="Trazado 910252" d="M66.277,103.14a.378.378,0,0,0-.342.045c-.081.081.009.149.09.176a3.66,3.66,0,0,1,2.451,2.855c.031.183.527.161.5,0a3.946,3.946,0,0,0-2.7-3.075" transform="translate(90.479 141.575)" fill="#f4efb7"/>
    <path id="Trazado_910253" data-name="Trazado 910253" d="M207.412,8.847a8.478,8.478,0,0,1-1.863.166c-.7-.031-1.4-.078-2.1-.121-2.451-.157-4.9-.349-7.361-.4h-2.005q-.854.021-1.709.088c-1.208.1-2.408.249-3.612.377s-2.432.233-3.652.244c-1.089.009-2.176-.059-3.265-.045a13.241,13.241,0,0,0-4.551.766V88.885h32.335V8.489h-.484c-.584.1-1.163.254-1.739.358" transform="translate(243.414 11.657)" fill="#857600"/>
    <path id="Trazado_910254" data-name="Trazado 910254" d="M177.3,98.189h32.335V1.712H177.3Zm31.275-1.061H178.359V2.773h30.216Z" transform="translate(243.415 2.353)" fill="#fdd363"/>
    <rect id="Rectángulo_404376" data-name="Rectángulo 404376" width="35.693" height="6.362" transform="translate(419.036)" fill="#fdd363"/>
    <path id="Trazado_910255" data-name="Trazado 910255" d="M187.172,21.127c-.446-1.144-1.191-2.11-1.621-3.27a2.867,2.867,0,0,0-1.7-1.929,1.056,1.056,0,0,0-.987.216.232.232,0,0,0-.071.282c.626,1.455,1.3,2.893,2.045,4.288a1.51,1.51,0,0,0,2.147.764c.142-.076.247-.187.183-.351" transform="translate(250.93 21.808)" fill="#ada119"/>
    <path id="Trazado_910256" data-name="Trazado 910256" d="M190.139,13.289c.064-.09.126-.183.19-.275.285-.4-1.075-.593-1.362-.19A14.253,14.253,0,0,0,187.1,16.4a.276.276,0,0,0,.18.351c1.984.973,2.641-1.758,3.044-3.108a.3.3,0,0,0-.187-.358" transform="translate(256.847 17.302)" fill="#ada119"/>
    <path id="Trazado_910257" data-name="Trazado 910257" d="M183.489,10.539a7.809,7.809,0,0,0-.119-1.457.956.956,0,0,0-.536-.831,1.415,1.415,0,0,0-1.913.783,1.974,1.974,0,0,0,.342,1.426c.263.425.6.807.826,1.253.147.289.3.65.626.688a.576.576,0,0,0,.534-.316,1.7,1.7,0,0,0,.169-.631,7.9,7.9,0,0,0,.071-.916" transform="translate(248.342 11.171)" fill="#ada119"/>
    <path id="Trazado_910258" data-name="Trazado 910258" d="M184.113,12.267a2.746,2.746,0,0,0-.719,1.813c0,.5,1.41.505,1.414,0a2.211,2.211,0,0,1,.524-1.45c.434-.494-.918-.707-1.22-.363" transform="translate(251.78 16.613)" fill="#ada119"/>
    <path id="Trazado_910259" data-name="Trazado 910259" d="M181.153,24.691A7.126,7.126,0,0,0,181,23.635a.389.389,0,0,1,0-.052.248.248,0,0,0-.059-.164l0-.019c-.142-.439-1.538-.351-1.364.192l.017.05a4.18,4.18,0,0,0,.228,1.3,4.245,4.245,0,0,0,1.035,3.023c.216.2,1.372.316,1.317-.18a19.38,19.38,0,0,0-1.011-3.092" transform="translate(246.506 31.744)" fill="#ada119"/>
    <path id="Trazado_910260" data-name="Trazado 910260" d="M188.021,25.125a3.369,3.369,0,0,1-.9-1.307c-.171-.437-1.566-.33-1.362.19a3.864,3.864,0,0,0,1.039,1.481,1.086,1.086,0,0,0,.966.131c.214-.066.5-.275.256-.494" transform="translate(255 32.328)" fill="#ada119"/>
    <path id="Trazado_910261" data-name="Trazado 910261" d="M189.875,19.84a9.454,9.454,0,0,1-1.046,3.111c-.249.463,1.132.619,1.364.192a10.17,10.17,0,0,0,1.1-3.3c.069-.458-1.336-.522-1.414,0" transform="translate(259.2 26.735)" fill="#ada119"/>
    <path id="Trazado_910262" data-name="Trazado 910262" d="M189.409,29.216a.3.3,0,0,0-.074-.142c.024-.069.045-.135.074-.2.211-.508-1.182-.631-1.362-.19a4.968,4.968,0,0,0-.244,3.161c.107.429,1.229.541,1.388.095a5.057,5.057,0,0,0,.218-2.719" transform="translate(257.623 39.005)" fill="#ada119"/>
    <path id="Trazado_910263" data-name="Trazado 910263" d="M180.874,29.485a.284.284,0,0,0-.114-.135,1.528,1.528,0,0,0-.157-.311c-.268-.406-1.642-.23-1.364.19.688,1.039-.266,2.6,1.115,3.3.218.112,1.258.211,1.205-.254a11.266,11.266,0,0,0-.686-2.786" transform="translate(246.026 39.554)" fill="#ada119"/>
    <path id="Trazado_910264" data-name="Trazado 910264" d="M185.681,29.2a5.174,5.174,0,0,1-1.006-1.092.913.913,0,0,0-.868-.252c-.157.021-.672.183-.494.444a5.868,5.868,0,0,0,1.149,1.262,1.094,1.094,0,0,0,.966.131c.2-.062.51-.285.254-.494" transform="translate(251.619 38.222)" fill="#ada119"/>
    <path id="Trazado_910265" data-name="Trazado 910265" d="M180.73,16.909c-.021-.166-.045-.33-.066-.5a.4.4,0,0,0-.3-.3,4.944,4.944,0,0,0-.256-.427c-.27-.4-1.642-.225-1.362.192a6.069,6.069,0,0,1,.584,1.127q.21,1.57.422,3.139c.069.508,1.326.5,1.414,0a6.507,6.507,0,0,0-.437-3.239" transform="translate(245.348 21.231)" fill="#ada119"/>
    <path id="Trazado_910266" data-name="Trazado 910266" d="M182.422,39.944c-.176-1.31-1.526-1.97-1.773-3.225-.093-.472-1.258-.453-1.4-.109-.159.076-.247.195-.171.344.42.847.823,1.706,1.262,2.541a1.353,1.353,0,0,0,1.561.795c.145-.026.55-.119.52-.346" transform="translate(245.818 49.918)" fill="#ada119"/>
    <path id="Trazado_910267" data-name="Trazado 910267" d="M188.913,37.22a3.764,3.764,0,0,0-.5,2.259c.047.515,1.459.479,1.414,0a3.364,3.364,0,0,1,.444-2.067c.259-.448-1.118-.615-1.362-.192" transform="translate(258.652 50.767)" fill="#ada119"/>
    <path id="Trazado_910268" data-name="Trazado 910268" d="M187.284,39.32a6.458,6.458,0,0,1-1.246-.916,1.083,1.083,0,0,0-.968-.128c-.218.066-.491.273-.254.494a7.684,7.684,0,0,0,1.469,1.061,1.152,1.152,0,0,0,1,0c.261-.138.252-.37,0-.51" transform="translate(253.606 52.475)" fill="#ada119"/>
    <rect id="Rectángulo_404377" data-name="Rectángulo 404377" width="35.693" height="12.546" transform="translate(419.124 92.768)" fill="#fdd363"/>
    <rect id="Rectángulo_404378" data-name="Rectángulo 404378" width="21.204" height="18.2" transform="translate(426.368 113.616)" fill="#fdd363"/>
    <path id="Trazado_910269" data-name="Trazado 910269" d="M179.683,55.55l3.18,4.948h14.845l3.18-4.948Z" transform="translate(246.686 76.267)" fill="#e08d34"/>
    <path id="Trazado_910270" data-name="Trazado 910270" d="M212.323,44.381l-7.244,8.305h-21.2l-7.244-8.305Z" transform="translate(242.494 60.932)" fill="#644e40"/>
    <path id="Trazado_910271" data-name="Trazado 910271" d="M212.323,44.381l-7.244,8.305h-21.2l-7.244-8.305Z" transform="translate(242.494 60.932)" fill="#e08d34"/>
    <path id="Trazado_910272" data-name="Trazado 910272" d="M185.937,53.935a1.574,1.574,0,1,1,.434-2.183,1.572,1.572,0,0,1-.434,2.183" transform="translate(251.909 70.092)" fill="#fff"/>
    <path id="Trazado_910273" data-name="Trazado 910273" d="M189.014,52.634c-1.763,1.179-4.259,2.181-4.641,1.614s1.5-2.492,3.265-3.671,2.636-1.1,3.016-.527.126,1.4-1.64,2.584" transform="translate(253.056 68.163)" fill="#fff"/>
    <path id="Trazado_910274" data-name="Trazado 910274" d="M183.04,53.552c1.763-1.179,4.262-2.181,4.641-1.614s-1.5,2.492-3.265,3.671-2.636,1.1-3.016.527-.126-1.4,1.64-2.584" transform="translate(248.833 71.084)" fill="#fff"/>
    <path id="Trazado_910275" data-name="Trazado 910275" d="M185.988,56.578c-1.179-1.765-2.181-4.262-1.614-4.641s2.492,1.5,3.671,3.265,1.1,2.636.527,3.016-1.4.123-2.584-1.64" transform="translate(252.902 71.238)" fill="#fff"/>
    <path id="Trazado_910276" data-name="Trazado 910276" d="M185.07,50.6c1.179,1.763,2.181,4.262,1.614,4.641s-2.492-1.5-3.671-3.265-1.1-2.636-.527-3.016,1.4-.126,2.584,1.64" transform="translate(249.98 67.015)" fill="#fff"/>
    <path id="Trazado_910277" data-name="Trazado 910277" d="M188.375,12.505v32.3c0,.5,1.414.5,1.414,0v-32.3c0-.5-1.414-.5-1.414,0" transform="translate(258.618 16.655)" fill="#fff"/>
    <rect id="Rectángulo_404379" data-name="Rectángulo 404379" width="34.81" height="3.358" transform="translate(419.478 77.395)" fill="#fdd363"/>
    <path id="Trazado_910278" data-name="Trazado 910278" d="M199.176,38.805a9.541,9.541,0,1,1-9.541-9.541,9.541,9.541,0,0,1,9.541,9.541" transform="translate(247.248 40.179)" fill="#fdd363"/>
    <path id="Trazado_910279" data-name="Trazado 910279" d="M196.8,37.936a8.039,8.039,0,1,1-8.039-8.039,8.04,8.04,0,0,1,8.039,8.039" transform="translate(248.117 41.048)" fill="#fff"/>
    <rect id="Rectángulo_404380" data-name="Rectángulo 404380" width="8.305" height="1.768" transform="translate(432.73 76.245)" fill="#fdd363"/>
    <rect id="Rectángulo_404381" data-name="Rectángulo 404381" width="10.778" height="1.768" transform="translate(431.494 79.958)" fill="#fdd363"/>
    <path id="Trazado_910280" data-name="Trazado 910280" d="M185.147,8.847a8.465,8.465,0,0,1-1.863.166c-.7-.031-1.4-.078-2.1-.121-2.451-.157-4.9-.349-7.361-.4h-2.005q-.854.021-1.708.088c-1.208.1-2.408.249-3.612.377s-2.432.233-3.652.244c-1.089.009-2.176-.059-3.265-.045a13.241,13.241,0,0,0-4.551.766V88.885H187.37V8.489h-.484c-.584.1-1.163.254-1.739.358" transform="translate(212.846 11.657)" fill="#2f2c1b"/>
    <path id="Trazado_910281" data-name="Trazado 910281" d="M155.036,98.189h32.335V1.712H155.036Zm31.275-1.061H156.1V2.773h30.214Z" transform="translate(212.848 2.353)" fill="#fdd363"/>
    <rect id="Rectángulo_404382" data-name="Rectángulo 404382" width="35.693" height="6.362" transform="translate(366.203)" fill="#fdd363"/>
    <path id="Trazado_910282" data-name="Trazado 910282" d="M164.907,21.127c-.446-1.144-1.191-2.11-1.621-3.27a2.867,2.867,0,0,0-1.7-1.929,1.056,1.056,0,0,0-.987.216.232.232,0,0,0-.071.282c.626,1.455,1.3,2.893,2.045,4.288a1.51,1.51,0,0,0,2.147.764c.142-.076.247-.187.183-.351" transform="translate(220.363 21.808)" fill="#644e40"/>
    <path id="Trazado_910283" data-name="Trazado 910283" d="M167.874,13.289c.064-.09.126-.183.19-.275.285-.4-1.075-.593-1.362-.19a14.253,14.253,0,0,0-1.865,3.581.276.276,0,0,0,.18.351c1.984.973,2.641-1.758,3.044-3.108a.3.3,0,0,0-.187-.358" transform="translate(226.28 17.302)" fill="#644e40"/>
    <path id="Trazado_910284" data-name="Trazado 910284" d="M161.224,10.539a7.809,7.809,0,0,0-.119-1.457.956.956,0,0,0-.536-.831,1.415,1.415,0,0,0-1.913.783A1.974,1.974,0,0,0,159,10.46c.263.425.6.807.826,1.253.147.289.3.65.626.688a.576.576,0,0,0,.534-.316,1.7,1.7,0,0,0,.168-.631,7.894,7.894,0,0,0,.071-.916" transform="translate(217.774 11.171)" fill="#644e40"/>
    <path id="Trazado_910285" data-name="Trazado 910285" d="M161.848,12.267a2.746,2.746,0,0,0-.719,1.813c0,.5,1.41.505,1.414,0a2.211,2.211,0,0,1,.524-1.45c.434-.494-.918-.707-1.22-.363" transform="translate(221.213 16.613)" fill="#644e40"/>
    <path id="Trazado_910286" data-name="Trazado 910286" d="M158.888,24.691a7.118,7.118,0,0,0-.157-1.056v-.052a.248.248,0,0,0-.059-.164l0-.019c-.142-.439-1.538-.351-1.364.192l.017.05a4.18,4.18,0,0,0,.228,1.3,4.245,4.245,0,0,0,1.035,3.023c.216.2,1.372.316,1.319-.18a19.636,19.636,0,0,0-1.013-3.092" transform="translate(215.939 31.744)" fill="#644e40"/>
    <path id="Trazado_910287" data-name="Trazado 910287" d="M165.756,25.125a3.369,3.369,0,0,1-.9-1.307c-.171-.437-1.566-.33-1.362.19a3.889,3.889,0,0,0,1.039,1.481,1.086,1.086,0,0,0,.966.131c.214-.066.5-.275.256-.494" transform="translate(224.433 32.328)" fill="#644e40"/>
    <path id="Trazado_910288" data-name="Trazado 910288" d="M167.61,19.84a9.455,9.455,0,0,1-1.046,3.111c-.249.463,1.132.619,1.362.192a10.117,10.117,0,0,0,1.1-3.3c.069-.458-1.336-.522-1.414,0" transform="translate(228.632 26.735)" fill="#644e40"/>
    <path id="Trazado_910289" data-name="Trazado 910289" d="M167.144,29.216a.3.3,0,0,0-.074-.142c.024-.069.047-.135.074-.2.211-.508-1.182-.631-1.362-.19a4.968,4.968,0,0,0-.244,3.161c.107.429,1.229.541,1.388.095a5.058,5.058,0,0,0,.218-2.719" transform="translate(227.055 39.005)" fill="#644e40"/>
    <path id="Trazado_910290" data-name="Trazado 910290" d="M158.609,29.485a.284.284,0,0,0-.114-.135,1.527,1.527,0,0,0-.157-.311c-.268-.406-1.642-.23-1.364.19.688,1.039-.266,2.6,1.115,3.3.218.112,1.258.211,1.205-.254a11.158,11.158,0,0,0-.686-2.786" transform="translate(215.458 39.554)" fill="#644e40"/>
    <path id="Trazado_910291" data-name="Trazado 910291" d="M163.417,29.2A5.174,5.174,0,0,1,162.41,28.1a.913.913,0,0,0-.868-.252c-.157.021-.672.183-.494.444A5.87,5.87,0,0,0,162.2,29.56a1.094,1.094,0,0,0,.966.131c.2-.062.51-.285.254-.494" transform="translate(221.051 38.222)" fill="#644e40"/>
    <path id="Trazado_910292" data-name="Trazado 910292" d="M158.465,16.909c-.021-.166-.045-.33-.066-.5a.4.4,0,0,0-.3-.3,4.944,4.944,0,0,0-.256-.427c-.271-.4-1.642-.225-1.362.192a6.071,6.071,0,0,1,.584,1.127q.21,1.57.422,3.139c.069.508,1.326.5,1.414,0a6.507,6.507,0,0,0-.437-3.239" transform="translate(214.781 21.231)" fill="#644e40"/>
    <path id="Trazado_910293" data-name="Trazado 910293" d="M160.157,39.944c-.176-1.31-1.526-1.97-1.773-3.225-.093-.472-1.258-.453-1.4-.109-.159.076-.247.195-.171.344.42.847.823,1.706,1.262,2.541a1.353,1.353,0,0,0,1.561.795c.145-.026.55-.119.52-.346" transform="translate(215.251 49.918)" fill="#644e40"/>
    <path id="Trazado_910294" data-name="Trazado 910294" d="M166.648,37.22a3.764,3.764,0,0,0-.5,2.259c.047.515,1.459.479,1.414,0a3.364,3.364,0,0,1,.444-2.067c.259-.448-1.118-.615-1.362-.192" transform="translate(228.085 50.767)" fill="#644e40"/>
    <path id="Trazado_910295" data-name="Trazado 910295" d="M165.019,39.32a6.548,6.548,0,0,1-1.248-.916,1.077,1.077,0,0,0-.966-.128c-.218.066-.491.273-.254.494a7.61,7.61,0,0,0,1.469,1.061,1.152,1.152,0,0,0,1,0c.261-.138.252-.37,0-.51" transform="translate(223.039 52.475)" fill="#644e40"/>
    <rect id="Rectángulo_404383" data-name="Rectángulo 404383" width="35.693" height="12.546" transform="translate(366.291 92.768)" fill="#fdd363"/>
    <rect id="Rectángulo_404384" data-name="Rectángulo 404384" width="21.204" height="18.2" transform="translate(373.536 113.616)" fill="#fdd363"/>
    <path id="Trazado_910296" data-name="Trazado 910296" d="M157.418,55.55,160.6,60.5h14.845l3.18-4.948Z" transform="translate(216.118 76.267)" fill="#e08d34"/>
    <path id="Trazado_910297" data-name="Trazado 910297" d="M190.058,44.381l-7.244,8.305h-21.2l-7.244-8.305Z" transform="translate(211.927 60.932)" fill="#644e40"/>
    <path id="Trazado_910298" data-name="Trazado 910298" d="M190.058,44.381l-7.244,8.305h-21.2l-7.244-8.305Z" transform="translate(211.927 60.932)" fill="#e08d34"/>
    <path id="Trazado_910299" data-name="Trazado 910299" d="M161.914,53.928a1.573,1.573,0,1,1,2.185-.418,1.57,1.57,0,0,1-2.185.418" transform="translate(221.341 70.092)" fill="#fff"/>
    <path id="Trazado_910300" data-name="Trazado 910300" d="M165.351,55.629c-1.758-1.189-3.626-3.125-3.244-3.69s2.874.451,4.632,1.64,2.008,2.031,1.625,2.6-1.258.645-3.014-.546" transform="translate(222.486 71.088)" fill="#fff"/>
    <path id="Trazado_910301" data-name="Trazado 910301" d="M162.16,50.576c1.756,1.189,3.626,3.125,3.244,3.69s-2.874-.451-4.632-1.64-2.008-2.029-1.625-2.6,1.255-.643,3.014.546" transform="translate(218.279 68.142)" fill="#fff"/>
    <path id="Trazado_910302" data-name="Trazado 910302" d="M160.747,55.18c1.189-1.758,3.125-3.626,3.69-3.244s-.451,2.874-1.64,4.632-2.031,2.007-2.6,1.625-.643-1.255.546-3.014" transform="translate(219.393 71.236)" fill="#fff"/>
    <path id="Trazado_910303" data-name="Trazado 910303" d="M165.8,51.989c-1.189,1.758-3.125,3.626-3.69,3.244s.451-2.874,1.642-4.632,2.029-2.007,2.594-1.625.645,1.255-.546,3.014" transform="translate(222.338 67.028)" fill="#fff"/>
    <path id="Trazado_910304" data-name="Trazado 910304" d="M166.473,11.516V44.36c0,.5,1.414.5,1.414,0V11.516c0-.5-1.414-.5-1.414,0" transform="translate(228.549 15.297)" fill="#fff"/>
    <rect id="Rectángulo_404385" data-name="Rectángulo 404385" width="34.81" height="3.358" transform="translate(366.645 77.395)" fill="#fdd363"/>
    <path id="Trazado_910305" data-name="Trazado 910305" d="M176.911,38.805a9.541,9.541,0,1,1-9.541-9.541,9.541,9.541,0,0,1,9.541,9.541" transform="translate(216.681 40.179)" fill="#fdd363"/>
    <path id="Trazado_910306" data-name="Trazado 910306" d="M174.54,37.936A8.039,8.039,0,1,1,166.5,29.9a8.04,8.04,0,0,1,8.039,8.039" transform="translate(217.55 41.048)" fill="#fff"/>
    <rect id="Rectángulo_404386" data-name="Rectángulo 404386" width="8.305" height="1.768" transform="translate(379.897 74.392)" fill="#fdd363"/>
    <rect id="Rectángulo_404387" data-name="Rectángulo 404387" width="8.305" height="1.768" transform="translate(379.897 81.812)" fill="#fdd363"/>
    <rect id="Rectángulo_404388" data-name="Rectángulo 404388" width="10.778" height="1.768" transform="translate(378.661 78.102)" fill="#fdd363"/>
    <g id="Grupo_1110755" data-name="Grupo 1110755" transform="translate(144.36 83.225)">
      <g id="Grupo_1110754" data-name="Grupo 1110754" transform="translate(0 0)" clip-path="url(#clip-path)">
        <path id="Trazado_910307" data-name="Trazado 910307" d="M95.67,142.97c.669,9.435,2.359,18.876,3.324,28.242,3.279,31.816,2.195,63.605,3.469,95.606q2,50.262,7.389,100.3c1.334,12.353,9.791,7.479,18.224,6.594,3.049-.318,11.575-1.3,11.822-5.422,0-6.208.306-12.5.567-18.7,1.929-45.9,3.709-91.845,2.81-137.8-.446-22.925-1.559-45.844-3.657-68.676-1.035-11.269.653-39.784-16.708-37.8-.273.031-.546.066-.814.107-.482.071-.963.159-1.438.268q-.8.174-1.6.411c-.114.028-.221.064-.337.1-1.032.308-2.062.691-3.111,1.1-1.4.56-2.833,1.189-4.331,1.858-1.025.458-2.036.861-3.018,1.26-.482.195-.956.387-1.424.584a28.574,28.574,0,0,0-3.089,1.488c-.335.195-.664.4-.989.619-.145.095-.3.195-.441.3a12.494,12.494,0,0,0-2.335,2.193c-.1.121-.209.252-.313.387a15.077,15.077,0,0,0-1.806,3.078,21.674,21.674,0,0,0-.83,2.174c-.109.335-.214.674-.308,1.018a31.179,31.179,0,0,0-.956,5.244,89.035,89.035,0,0,0-.1,15.464" transform="translate(-13.407 61.232)" fill="#fdd363"/>
        <path id="Trazado_910308" data-name="Trazado 910308" d="M133.759,128.146c-.662-12.194-5.477-18.94-17.987-21.978-8.841-2.147-20.585-1.134-22.552,10.014-2.366,13.4-5.033,26.064-6.492,39.7q-2.449,22.89-4.675,45.8c-1.9,19.562-3.683,39.179-3.6,58.843.031,7.15.308,14.3.586,21.442,1.146,29.417,3.9,58.606,3.9,88.011.05,1.708,10.327,2.8,11.732,2.957.418.045.8.09,1.144.14,2.615.368,5.194.247,7.807.429,3.785.263,7.344,1.666,11.328,1.829-2.952-.121-1.31-28.636-1.246-30.855.539-18.482-.021-36.92-.007-55.417,0-6.7.055-13.414.479-20.105,1.481-23.392,7.472-46.1,11.955-68.987,4.347-22.2,7.619-45.738,7.707-68.413,0-1.182-.021-2.316-.081-3.41" transform="translate(-36.651 61.284)" fill="#fdd363"/>
        <path id="Trazado_910309" data-name="Trazado 910309" d="M71.875,87.44c2.2-1.227,4.594-1.984,6.829-3.263C89.029,78.268,99.2,72,109.763,66.57q.961-.495,1.924-.975a22.227,22.227,0,0,1,3.635-1.542,5.283,5.283,0,0,1,6.343,1.927c3.386,4.115,4.416,9.643,5.021,14.937A20.773,20.773,0,0,1,126.464,89c-1.241,4.3-4.985,7.491-9.079,9.3s-8.58,2.465-12.965,3.36a119.3,119.3,0,0,0-19,5.56,44.792,44.792,0,0,1-8.134,2.646,12.076,12.076,0,0,1-8.305-1.17c-3.718-2.242-4.791-6.8-3.97-10.844.32-1.576,1.144-2.966,1.592-4.485a9.172,9.172,0,0,1,2.8-4.2,14.028,14.028,0,0,1,2.475-1.725" transform="translate(-55.467 4.237)" fill="#b9e6df"/>
        <path id="Trazado_910310" data-name="Trazado 910310" d="M159.8,158.257q1.281-7.638,2.817-15.234,1.566-7.724,3.388-15.4c1.023-4.288,1.317-9.152,3.7-12.944,2.726-4.335,7.5-7.75,10.87-11.646a20.3,20.3,0,0,0,4.971-12.752,4.636,4.636,0,0,0-1.673-4.838A45.308,45.308,0,0,0,172.4,77c-4.143-2.007-9.121-3.336-12.833-6.12-1.046-.65-.74-1.077-1.068-2.024a3.422,3.422,0,0,0-.56-.93c-2.416-3.151-5.484-6.02-9.3-7.1a21.754,21.754,0,0,0-4.416-.65,94.894,94.894,0,0,0-16.442.285,14.688,14.688,0,0,0-3.7.74,9.706,9.706,0,0,0-2.745,1.654c-.674.562-1.331,1.716-2.1,2.081a10.6,10.6,0,0,1-3.044.294l-7.4.7c-2.831.266-5.671.475-8.5.793-7.831.88-20.31,7.325-17.707,17.014.71,2.641,2.653,4.641,4.231,6.786,1.965,2.67,1.547,5.671,1.533,8.91-.123,26.629-1.286,53.2-3.213,79.7a5.386,5.386,0,0,0,.354,3c.747,1.367,2.47,1.806,4,2.093A216.081,216.081,0,0,0,149.074,187a11.053,11.053,0,0,0,5.557-1.564c5.427-3.92,4.136-21.012,5.171-27.179" transform="translate(-31.467 -0.922)" fill="#b9e6df"/>
        <path id="Trazado_910311" data-name="Trazado 910311" d="M104.749,75.946a1.545,1.545,0,0,0-2.114.641,1.672,1.672,0,0,0,.311,2.083,1.5,1.5,0,0,0,1.132.292,1.557,1.557,0,0,0,.99-.629,1.877,1.877,0,0,0,.282-.52,1.577,1.577,0,0,0-.6-1.867" transform="translate(-3.759 20.766)" fill="#77b7b2"/>
        <path id="Trazado_910312" data-name="Trazado 910312" d="M102.59,87.748a1.545,1.545,0,0,0-2.114.641,1.672,1.672,0,0,0,.311,2.083,1.508,1.508,0,0,0,1.132.292,1.557,1.557,0,0,0,.99-.629,1.779,1.779,0,0,0,.28-.52,1.573,1.573,0,0,0-.6-1.867" transform="translate(-6.723 36.969)" fill="#fdd363"/>
        <path id="Trazado_910313" data-name="Trazado 910313" d="M100.581,99.551a1.548,1.548,0,0,0-2.117.641,1.675,1.675,0,0,0,.311,2.083,1.5,1.5,0,0,0,1.132.292,1.545,1.545,0,0,0,.989-.629,1.779,1.779,0,0,0,.28-.52,1.575,1.575,0,0,0-.6-1.867" transform="translate(-9.484 53.174)" fill="#77b7b2"/>
        <path id="Trazado_910314" data-name="Trazado 910314" d="M82.458,90.987a28.618,28.618,0,0,0,3.071-15.5,2.261,2.261,0,0,0-.551-1.535,1.734,1.734,0,0,0-1.262-.358,5.111,5.111,0,0,0-2.98,1.464,13.164,13.164,0,0,0-4.2,8.272,16.012,16.012,0,0,0,1.78,9.176c1.234,2.38,3.379-.036,4.145-1.519" transform="translate(-39.425 17.808)" fill="#77b7b2"/>
        <path id="Trazado_910315" data-name="Trazado 910315" d="M106.9,78.234c.2-.916.46-2.34-.323-3.066-.816-.757-2.527-.752-3.559-.8-5.574-.271-11.167.135-16.734-.228-1.981-.131-4.395-.446-6.2.6-1.625.944-2.632,2.995-3.279,4.679a15.061,15.061,0,0,0-.8,7.425,7.255,7.255,0,0,0,1.315,3.578,1.666,1.666,0,0,0,.864.643,1.9,1.9,0,0,0,.925-.071c2.055-.529,3.982-1.471,6.032-2.015.954-.254,1.932-.42,2.888-.667a35.822,35.822,0,0,0,4.554-1.618c3.384-1.376,6.768-2.753,10.106-4.236a9.88,9.88,0,0,0,2.655-1.542,5.085,5.085,0,0,0,1.557-2.681" transform="translate(-40.217 18.359)" fill="#fcb285"/>
        <path id="Trazado_910316" data-name="Trazado 910316" d="M64.885,81.508a11.338,11.338,0,0,0-.838,5.415A15.225,15.225,0,0,0,66.4,93.135a7.693,7.693,0,0,0,2.233,2.522c1.609,1.039,3.668.971,5.579.854a176.57,176.57,0,0,0,22.417-2.473c1.122-.214,1.279-.923.183-1.345a3.368,3.368,0,0,1-1.682-2.385A19.886,19.886,0,0,1,95.2,79.088c.5-1.673,1.03-3.2,2.719-3.963.382-.171,4.338-.586,4.231-.287.209-.591-.783-1.319-1.262-1.412a15.231,15.231,0,0,0-2.613-.019c-1.917-.026-3.839.083-5.757.192-4.729,0-9.522.546-14.244.814-3.514.2-6.727-.126-9.705,2.1a11.756,11.756,0,0,0-3.687,5" transform="translate(-56.508 17.482)" fill="#b9e6df"/>
        <path id="Trazado_910317" data-name="Trazado 910317" d="M95.927,81.2a5.546,5.546,0,0,0,1.106-1.175,3.58,3.58,0,0,1,2.627-1.163c.593,0,1.182.152,1.773.107a11.661,11.661,0,0,0,2.017-.553,10.119,10.119,0,0,1,4.167.088,5.037,5.037,0,0,1,1.471.394,13.343,13.343,0,0,1,1.561,1.165,11.4,11.4,0,0,0,1.611.84A14.835,14.835,0,0,1,115.6,83.1a2.749,2.749,0,0,1,1.2,2.159,2.576,2.576,0,0,1-1.58,1.806c-2.544,1.307-5.557,1.279-8.4.952s-5.685-.933-8.533-.667c-2.045.19-5.65.719-6.186-2.152-.475-2.539,2.278-3.061,3.83-4" transform="translate(-17.994 24.175)" fill="#ada119"/>
        <path id="Trazado_910318" data-name="Trazado 910318" d="M136.248,82.556l-26.733-1.412L79.607,79.566a1.325,1.325,0,1,0-.14,2.646l30.314,1.6a8.838,8.838,0,0,0,8.092,6.62L128.636,91a8.834,8.834,0,0,0,9.288-8.357Z" transform="translate(-36.983 26.011)" fill="#644e40"/>
        <path id="Trazado_910319" data-name="Trazado 910319" d="M114.836,79.317a88.513,88.513,0,0,1,11.309,19.135c1.084,2.513,2.057,5.08,3.362,7.486,3.839,7.074,10.417,12.479,13.63,19.861a3.259,3.259,0,0,1,.365,1.471,3.217,3.217,0,0,1-.847,1.735c-2.6,3.227-6.184,5.474-9.7,7.66-1.538.956-3.424,1.939-5.064,1.175a5.43,5.43,0,0,1-1.661-1.419,171.364,171.364,0,0,1-20.31-28.209,36.061,36.061,0,0,0-2.919-4.58c-1.542-1.932-3.528-3.524-4.76-5.666-.32-.558-1.433-1.732-1.409-2.347.031-.871,1.5-1.654,2.1-2.147q2.8-2.306,5.545-4.686c.9-.776,10.578-9.19,10.362-9.468" transform="translate(-11.423 25.672)" fill="#fdd363"/>
        <path id="Trazado_910320" data-name="Trazado 910320" d="M103.688,89.733a18.789,18.789,0,0,0-3.809-5c-.145-.135-.738-.033-.534.159a18.57,18.57,0,0,1,3.747,4.926c.1.187.7.123.6-.083" transform="translate(-8.027 33.019)" fill="#e08d34"/>
        <path id="Trazado_910321" data-name="Trazado 910321" d="M108.462,99.466q-2.207-4.414-4.748-8.652-.719-1.192-1.462-2.371c-.112-.178-.714-.1-.6.085q2.634,4.175,4.938,8.542c.432.821.857,1.649,1.272,2.477.093.187.7.128.6-.083" transform="translate(-4.817 38.062)" fill="#e08d34"/>
        <path id="Trazado_910322" data-name="Trazado 910322" d="M118.676,112.088q-2.8-3.264-5.405-6.687t-5.021-6.988q-1.356-2-2.646-4.053c-.114-.18-.717-.107-.6.083q2.306,3.659,4.817,7.18t5.22,6.893q1.52,1.89,3.1,3.73c.128.15.721.062.534-.159" transform="translate(-0.217 46.182)" fill="#e08d34"/>
        <path id="Trazado_910323" data-name="Trazado 910323" d="M115.46,104.743q-2.057-4.528-4.331-8.955t-4.755-8.739q-1.406-2.435-2.874-4.836c-.112-.18-.714-.107-.6.085q2.595,4.243,4.99,8.6t4.573,8.837q1.232,2.527,2.4,5.087c.085.19.7.135.6-.083" transform="translate(-3.103 29.506)" fill="#e08d34"/>
        <path id="Trazado_910324" data-name="Trazado 910324" d="M122,72.444c.306-.508.61-1.018.918-1.526a6.761,6.761,0,0,0,1.239-4.867c-.216-2.091.242-4.21-.311-6.272a.9.9,0,0,0-.325-.558.909.909,0,0,0-.527-.088c-1.742.071-3.36.826-5.052.883a54.959,54.959,0,0,1-6.162-.432,25.062,25.062,0,0,0-6.473.235,6.119,6.119,0,0,0-1.742.634,3.63,3.63,0,0,0-1.927.833c-1.194,1.208-.736,3.315-.579,4.812a12.36,12.36,0,0,1-.206,2.257c-.076,1.146-.028,2.318.007,3.464a12.44,12.44,0,0,0,.332,2.8c.638,2.385,2.484,4.269,3.332,6.585a23.547,23.547,0,0,1,.89,4.537,29.818,29.818,0,0,0,.921,4.041c.356,1.165.5,2.328,1.45,3.17a13.786,13.786,0,0,1,2.931-5.41c.975-1.106,2.119-2.043,3.156-3.092a41.5,41.5,0,0,0,5.64-7.88Q120.749,74.5,122,72.444" transform="translate(-5.961 -2.041)" fill="#fcb285"/>
        <path id="Trazado_910325" data-name="Trazado 910325" d="M119.348,68.4a7.047,7.047,0,0,0,1.953-2.287c.795-1.5,1.573-4.888.252-6.347-.771-.849-2.6-.441-3.633-.472q-3.4-.1-6.8-.361a28.2,28.2,0,0,0-6.855.235c-1.756.292-2.7.581-2.912,2.335a7.648,7.648,0,0,0,.814,4.447,9.662,9.662,0,0,0,8.042,4.751c3.042.195,6.689-.4,9.14-2.3" transform="translate(-5.288 -2.452)" fill="#da6357"/>
        <path id="Trazado_910326" data-name="Trazado 910326" d="M132.823,61.281c-.043,1.02-.1,2.043-.185,3.061-.384,4.914-.937,10.078-2.828,14.662a26.524,26.524,0,0,1-3.3,5.645,11.324,11.324,0,0,1-1.782,2.012,16.028,16.028,0,0,1-7.107,3.014,11.8,11.8,0,0,1-8.284-1.307c-.121-.071-.242-.145-.361-.218a18.073,18.073,0,0,1-4.962-4.7,20.738,20.738,0,0,1-2.964-6.537c-1.628-5.265-3.037-10.714-2.864-16.269.052-1.663.244-3.32.437-4.971.244-2.091.406-4.532,1.678-6.274,1.53-2.1,4-3.3,6.445-4.15A29.515,29.515,0,0,1,117.9,43.531a21.909,21.909,0,0,1,10.723,3.324,6.068,6.068,0,0,1,2.427,2.247c.271.619.543,1.248.8,1.882.235.581.453,1.17.645,1.765a17.146,17.146,0,0,1,.4,5.4q-.007,1.563-.074,3.127" transform="translate(-9.577 -23.504)" fill="#fcb285"/>
        <path id="Trazado_910327" data-name="Trazado 910327" d="M134.744,69.323c.123.864.2,1.732.394,2.584.15.672.605,1.165,1.1.3a6.96,6.96,0,0,0,.505-2.411c.574-5.771,1.421-11.962-.721-17.517a8.256,8.256,0,0,0-3.381-4.271,20.491,20.491,0,0,1-1.9-1.044,10.4,10.4,0,0,1-2.347-3.189,4.334,4.334,0,0,0-3.03-2.359,18.239,18.239,0,0,0-1.991.178c-2.473.069-4.6-2.487-7.019-1.993-1.158.237-2.053,1.127-3.08,1.708-2.152,1.22-4.793,1.042-7.192,1.642a11.26,11.26,0,0,0-4.043,1.934A3.72,3.72,0,0,0,100.7,46.47a10.536,10.536,0,0,0-.287,1.758c-.472,2.515-3.329,4.022-3.892,6.518-.475,2.117.847,4.269.638,6.428A6.846,6.846,0,0,0,97,63.647c.363,1.322,2,2,2.328,3.327a3.873,3.873,0,0,0,.622,1.727,2.083,2.083,0,0,1,.432.6c.173.389.2.778.562,1.061.373-1.595.513-3.782,1.735-4.995.437-.432.949-.778,1.381-1.217a14.858,14.858,0,0,1,2.038-2.261,6.069,6.069,0,0,1,3.742-.548,15.376,15.376,0,0,0,3.809-.159,6.509,6.509,0,0,0,3.367-1.685,5.8,5.8,0,0,1,1.239-1.151,3.088,3.088,0,0,1,2.219-.1,9.6,9.6,0,0,0,2.219.467c1.251.007,2.086-.785,3.042-1.455a13.073,13.073,0,0,0,2.817-2.693,1.008,1.008,0,0,1,.6-.463c.32-.04.581.237.778.494a23.013,23.013,0,0,1,3.647,6.976,23.265,23.265,0,0,1,.906,3.977c.171,1.251.088,2.53.266,3.771" transform="translate(-11.988 -28.939)" fill="#644e40"/>
        <path id="Trazado_910328" data-name="Trazado 910328" d="M102.49,52.54c-3.5-2.427-5.484,1.578-5.023,4.119a12.327,12.327,0,0,0,2.088,4.449c.793,1.2,2.209,2.893,4.115,2.119a2.383,2.383,0,0,0,1.284-1.6,9.215,9.215,0,0,0-1-7.577,5.425,5.425,0,0,0-1.462-1.512" transform="translate(-10.64 -12.123)" fill="#fcb285"/>
        <path id="Trazado_910329" data-name="Trazado 910329" d="M113.379,52.546c3.5-2.423,5.481,1.585,5.021,4.124a12.406,12.406,0,0,1-2.1,4.449c-.793,1.2-2.212,2.888-4.115,2.112a2.383,2.383,0,0,1-1.284-1.6,9.2,9.2,0,0,1,1.011-7.574,5.361,5.361,0,0,1,1.462-1.512" transform="translate(7.344 -12.112)" fill="#fcb285"/>
        <path id="Trazado_910330" data-name="Trazado 910330" d="M101.477,54.975a1.8,1.8,0,0,1,1.137-1.8,1.426,1.426,0,0,1,1.519.52,2.032,2.032,0,0,1,.27.766,2.078,2.078,0,0,1-.429,1.984,1.329,1.329,0,0,1-1.3.268,1.556,1.556,0,0,1-1.2-1.739" transform="translate(-5.055 -10.282)" fill="#2f2c1b"/>
        <path id="Trazado_910331" data-name="Trazado 910331" d="M111.234,54.98a1.8,1.8,0,0,0-1.137-1.8,1.426,1.426,0,0,0-1.516.52,1.991,1.991,0,0,0-.271.766,2.072,2.072,0,0,0,.425,1.984,1.329,1.329,0,0,0,1.3.268,1.556,1.556,0,0,0,1.2-1.737" transform="translate(4.245 -10.277)" fill="#2f2c1b"/>
        <path id="Trazado_910332" data-name="Trazado 910332" d="M104.694,51.068a11.23,11.23,0,0,0-3.341,1.023c-.337.168-2.506,1.265-1.678,1.625a1.23,1.23,0,0,0,.745-.007,23.263,23.263,0,0,1,3.723-.588c1.369-.081,2.743-.055,4.117-.112a1.591,1.591,0,0,0,1.243-.422c.323-.463-.18-1.044-.745-1.291a5.586,5.586,0,0,0-2.181-.363,12.831,12.831,0,0,0-1.884.135" transform="translate(-7.773 -13.297)" fill="#644e40"/>
        <path id="Trazado_910333" data-name="Trazado 910333" d="M111.538,51.071a11.2,11.2,0,0,1,3.339,1.025c.337.168,2.506,1.267,1.675,1.628a1.23,1.23,0,0,1-.745-.009,23.506,23.506,0,0,0-3.721-.591c-1.369-.081-2.745-.057-4.117-.114a1.6,1.6,0,0,1-1.243-.425c-.32-.463.183-1.044.747-1.288a5.541,5.541,0,0,1,2.181-.361,12.511,12.511,0,0,1,1.884.135" transform="translate(2.026 -13.292)" fill="#644e40"/>
        <path id="Trazado_910334" data-name="Trazado 910334" d="M107.991,64.967a7.675,7.675,0,0,1-2.624-.565c-.406-.171-.456-.539-.408-.968.057-.491.152-.98.223-1.469q.441-3,.7-6.015.146-1.723.237-3.45c.009-.2-.52-.209-.532,0q-.167,3.264-.546,6.511-.192,1.62-.432,3.234a9.329,9.329,0,0,0-.2,1.471.9.9,0,0,0,.508.864,7.919,7.919,0,0,0,3.071.681c.078,0,.266-.028.266-.147s-.192-.145-.266-.147" transform="translate(-1.012 -11.354)" fill="#da6357"/>
        <path id="Trazado_910335" data-name="Trazado 910335" d="M112.224,58.748q-1.929.246-3.875.316-1.947-.071-3.877-.316c-.491-.064-1.1-.1-1.082.46a1.094,1.094,0,0,0,.009.166,1.206,1.206,0,0,0,.342.622,3.288,3.288,0,0,0,.37.392,5.013,5.013,0,0,0,2.423,1.054,14.811,14.811,0,0,0,3.628,0,5.013,5.013,0,0,0,2.423-1.054,3.106,3.106,0,0,0,.37-.392,1.206,1.206,0,0,0,.342-.622,1.092,1.092,0,0,0,.009-.166c.019-.558-.591-.524-1.082-.46" transform="translate(-2.418 -2.615)" fill="#fff"/>
        <path id="Trazado_910336" data-name="Trazado 910336" d="M112.6,45.323a5.415,5.415,0,0,0-3.913,2.254,20.236,20.236,0,0,1-1.675,1.818,5.087,5.087,0,0,1-2.093,1.144,4.779,4.779,0,0,1-2.646-.069.394.394,0,0,0-.363.047c-.076.09,0,.157.1.185a5.684,5.684,0,0,0,4.634-.551c1.419-.88,2.257-2.371,3.493-3.453a3.838,3.838,0,0,1,2.465-1.106c.078,0,.266-.024.266-.135s-.192-.135-.266-.135" transform="translate(-4.493 -20.998)" fill="#2f2c1b"/>
        <path id="Trazado_910337" data-name="Trazado 910337" d="M104.993,46.014a2.67,2.67,0,0,1-2.819.876.4.4,0,0,0-.363.047c-.085.085.009.159.095.185a3.38,3.38,0,0,0,3.545-.973c.159-.19-.349-.266-.458-.135" transform="translate(-4.63 -20.14)" fill="#2f2c1b"/>
        <path id="Trazado_910338" data-name="Trazado 910338" d="M101.353,44.391a.45.45,0,0,0-.375,0c-1.9.833-3.844,2.342-3.865,4.608,0,.185.529.19.532,0,.019-2.183,1.884-3.616,3.709-4.416.1-.047.085-.142,0-.192" transform="translate(-11.034 -22.335)" fill="#2f2c1b"/>
        <path id="Trazado_910339" data-name="Trazado 910339" d="M100.282,45.413a.426.426,0,0,0-.363.05A4.493,4.493,0,0,0,98.427,48.1c-.028.168.5.195.532,0a4.268,4.268,0,0,1,1.419-2.506c.093-.076-.017-.159-.095-.185" transform="translate(-9.232 -20.901)" fill="#2f2c1b"/>
        <path id="Trazado_910340" data-name="Trazado 910340" d="M108.75,40.788a5.213,5.213,0,0,0-4.686,1.633c-.164.185.344.263.456.135a4.551,4.551,0,0,1,4.091-1.507c.088.014.282.007.325-.095s-.109-.154-.185-.166" transform="translate(-1.536 -27.315)" fill="#2f2c1b"/>
        <path id="Trazado_910341" data-name="Trazado 910341" d="M115.46,43.959c-.043-.1-.24-.1-.325-.095a2.5,2.5,0,0,0-1.5.821,14.973,14.973,0,0,0-1.262,1.58q-.662.9-1.265,1.83a5.315,5.315,0,0,1-1.227,1.533,4.53,4.53,0,0,1-2.083.624c-.078.009-.228.059-.185.166s.242.107.327.095a7.031,7.031,0,0,0,1.832-.429,3.234,3.234,0,0,0,1.374-1.194c.406-.579.771-1.186,1.175-1.768q.637-.911,1.326-1.784a2.712,2.712,0,0,1,1.63-1.213c.078-.009.228-.062.185-.166" transform="translate(3.367 -23.007)" fill="#2f2c1b"/>
        <path id="Trazado_910342" data-name="Trazado 910342" d="M82.151,87.6a2.94,2.94,0,0,1,.249.237,4.2,4.2,0,0,1,.515.828c1.125,2.062,2.705,4.186,5.178,4.589a2.547,2.547,0,0,0,2.4-.636,3.952,3.952,0,0,0,6.113.007,3.614,3.614,0,0,0,2.762,1.322c1.054,0,1.571-.672,2.475-.925,1.082-.3.764,1.03.835,1.706a3.7,3.7,0,0,0,1.782,2.75c.743.434,2.2.522,2.689-.392a2.438,2.438,0,0,0,.195-1.094,59.81,59.81,0,0,0-.1-6.872,16.123,16.123,0,0,0-1.841-5.882q-1.146-2.3-2.361-4.568c-.65-1.22-1.073-2.632-2.226-3.491a6.546,6.546,0,0,0-4.352-.835A44.437,44.437,0,0,0,84.092,76.89a5.35,5.35,0,0,0-3.977,4.924c-.164,2.029.171,4.188,1.782,5.572.083.074.171.142.254.214" transform="translate(-34.422 18.797)" fill="#fcb285"/>
        <path id="Trazado_910343" data-name="Trazado 910343" d="M88.9,85.774a70.162,70.162,0,0,1-2.157-6.934c-.057-.225-.664-.185-.617,0A71.851,71.851,0,0,0,88.3,85.857c.071.195.681.147.6-.083" transform="translate(-26.122 24.805)" fill="#da6357"/>
        <path id="Trazado_910344" data-name="Trazado 910344" d="M91.608,85.919a7.276,7.276,0,0,0-.453-1.73q-.758-2.118-1.54-4.233a3.471,3.471,0,0,0-.534-1.063c-.059-.069-.975-.7-.795-.218,1.016,2.7,2.423,5.477,2.667,8.381a.625.625,0,0,0,.081.316.21.21,0,0,0,.287.069.3.3,0,0,0,.074-.109,2.757,2.757,0,0,0,.214-1.412" transform="translate(-23.185 24.542)" fill="#da6357"/>
        <path id="Trazado_910345" data-name="Trazado 910345" d="M85.972,85.354a42.472,42.472,0,0,1-1.7-6.025c-.045-.228-.657-.195-.619,0a43.141,43.141,0,0,0,1.723,6.108c.071.192.681.149.6-.083" transform="translate(-29.518 25.47)" fill="#da6357"/>
        <path id="Trazado_910346" data-name="Trazado 910346" d="M84.6,75.475c.123-.05.1-.166,0-.223a.52.52,0,0,0-.437,0,7.245,7.245,0,0,0-4.435,6.032.107.107,0,0,0,.047.093A6.216,6.216,0,0,0,82.032,86.2a.475.475,0,0,0,.422.057.359.359,0,0,0,.085-.043,16.486,16.486,0,0,0,1.45,2.34.4.4,0,0,0,.38.112c.064-.009.3-.083.216-.195A16.386,16.386,0,0,1,82.456,84.6c-.076-.192-.686-.145-.6.083q.235.605.517,1.189a6,6,0,0,1-1.941-5.19.1.1,0,0,0,0-.038A6.965,6.965,0,0,1,84.6,75.475" transform="translate(-34.906 20.024)" fill="#da6357"/>
        <path id="Trazado_910347" data-name="Trazado 910347" d="M132.684,132.46a40.854,40.854,0,0,0,5.541,8.284,12.763,12.763,0,0,0,5.156,3.868,9.222,9.222,0,0,0,8.267-1.426,12.132,12.132,0,0,0,3.678-4.475c1-2.024.731-3.4.463-5.581a99.424,99.424,0,0,0-2.719-13.552c-2.394-8.974-5.666-17.678-8.438-26.536-1.077-3.574-1.773-7.15-3.063-10.633a40.988,40.988,0,0,0-3.2-7.18c-1.493-2.451-3.856-5.239-6.853-5.688a6.882,6.882,0,0,0-3.31.225,8.808,8.808,0,0,0-3.761,3.18c-4.174,5.439-7.389,13.053-7.131,20.032.268,7.185,4.66,14.38,7.479,20.813,2.7,6.167,4.807,12.733,7.892,18.67" transform="translate(16.678 12.113)" fill="#b9e6df"/>
        <path id="Trazado_910348" data-name="Trazado 910348" d="M107.473,93.539a2.308,2.308,0,0,0-.429,1.269,2.576,2.576,0,0,0,1.213,2.28,5.733,5.733,0,0,0,2.406.532c-.19.486-.657.736-.807,1.315a3.193,3.193,0,0,0,.081,1.867,3.087,3.087,0,0,0,1.058,1.4c.351.261,1.666.432,1.822.648.266.363-.109.38-.306.766a2.95,2.95,0,0,0-.451,2,3.632,3.632,0,0,0,3.215,2.987,1.818,1.818,0,0,0-.634,2.366,2.311,2.311,0,0,0,1.6,1.338,23.557,23.557,0,0,0,6.881.358,1.67,1.67,0,0,1,.624.031,1.856,1.856,0,0,1,.579.389,5.253,5.253,0,0,0,4.8.923,20.934,20.934,0,0,1,3.555-.591c2.432-.192,4.876-.047,7.313-.078.65-.007,1.884,0,2.14-.707a3.628,3.628,0,0,0-.09-1.089c-.04-.565-.074-1.129-.116-1.7q-.231-3.1-.622-6.2c-.1-.788-.247-1.576-.306-2.368-.033-.425.069-.9-.306-1.205-.467-.38-1.706-.339-2.295-.434q-1.31-.21-2.617-.418a8.3,8.3,0,0,1-3.877-1.305c-1.217-.952-1.746-2.484-2.684-3.692a9.2,9.2,0,0,0-5.688-3.13,28.306,28.306,0,0,0-9.245-.059,26.573,26.573,0,0,0-4.558,1.1,4.463,4.463,0,0,0-2.252,1.407" transform="translate(2.596 41.279)" fill="#fcb285"/>
        <path id="Trazado_910349" data-name="Trazado 910349" d="M118.618,97.934c-.078-.09-.263-.071-.363-.047a28.591,28.591,0,0,1-7.259.664c-.078,0-.263.026-.263.135s.19.133.263.135a29.5,29.5,0,0,0,7.527-.7c.095-.021.166-.1.095-.185" transform="translate(7.665 51.139)" fill="#da6357"/>
        <path id="Trazado_910350" data-name="Trazado 910350" d="M119.278,93.4a100.231,100.231,0,0,0-10.168.142c-.078,0-.266.017-.266.135s.192.14.266.135a98.864,98.864,0,0,1,10.168-.14c.078,0,.266-.026.266-.135s-.192-.133-.266-.138" transform="translate(5.071 44.911)" fill="#da6357"/>
        <path id="Trazado_910351" data-name="Trazado 910351" d="M118.368,95.694q-4.189.189-8.364.574c-.081.007-.228.062-.185.166s.24.1.325.095q4.1-.381,8.224-.565c.078,0,.266-.021.266-.135s-.192-.138-.266-.135" transform="translate(6.399 48.156)" fill="#da6357"/>
        <path id="Trazado_910352" data-name="Trazado 910352" d="M116.382,92.5c-.085-.159-.605-.1-.51.071a4.148,4.148,0,0,1-.2,3.322c-.069.2.453.237.513.071a4.312,4.312,0,0,0,.2-3.464" transform="translate(14.438 43.643)" fill="#da6357"/>
        <path id="Trazado_910353" data-name="Trazado 910353" d="M116.2,94.6c-.047-.195-.569-.161-.529,0a8.456,8.456,0,0,1,.05,3.854c-.036.164.486.2.529,0a8.423,8.423,0,0,0-.05-3.854" transform="translate(14.441 46.468)" fill="#da6357"/>
        <path id="Trazado_910354" data-name="Trazado 910354" d="M116.193,97.192a.43.43,0,0,0-.187-.04c-.095,0-.244.024-.266.135-.071.382-.145.766-.218,1.148-.007.04.05.081.078.095a.423.423,0,0,0,.187.04c.095,0,.242-.024.263-.135l.221-1.148c.007-.04-.052-.081-.078-.095" transform="translate(14.238 50.157)" fill="#da6357"/>
        <path id="Trazado_910355" data-name="Trazado 910355" d="M122.819,114.247c1.146.131,2.408.112,2.857.164q2.4.285,4.826.358a66.614,66.614,0,0,0,15.8-1.379,10.981,10.981,0,0,0,3.336-1.141,8.306,8.306,0,0,0,3.619-5.74c.641-3.453.233-7.847-1.628-10.9-.75-1.229-2.473-1.96-3.8-2.4a17.5,17.5,0,0,0-4.6-.724,79.985,79.985,0,0,0-9.914.344,36.753,36.753,0,0,0-6.542.793,55.315,55.315,0,0,1-7.273,1.369q.577,9.126,1.151,18.252c.038.61,1.049.878,2.169,1" transform="translate(19.7 43.681)" fill="#b9e6df"/>
        <path id="Trazado_910356" data-name="Trazado 910356" d="M127.407,79.1c-1.037,1.635-2.632,2.821-3.939,4.224a28.152,28.152,0,0,0-4.974,7.422c-.1.216.51.275.6.085a28.134,28.134,0,0,1,2.945-4.983,33.852,33.852,0,0,1,3.861-4.238A13.248,13.248,0,0,0,128,79.185c.119-.185-.479-.263-.6-.083" transform="translate(18.305 25.237)" fill="#77b7b2"/>
        <path id="Trazado_910357" data-name="Trazado 910357" d="M141.37,93.849a37.057,37.057,0,0,0-7.085-1.424,21.972,21.972,0,0,0-3.621.1c-1.243.123-2.487.254-3.728.382l-4.169.425c-.093.009-.266.074-.216.195s.28.121.38.109l7.211-.736a25.3,25.3,0,0,1,3.595-.19,22.038,22.038,0,0,1,3.436.448c1.307.266,2.6.615,3.884.963a.478.478,0,0,0,.425-.057c.095-.1-.009-.187-.111-.216" transform="translate(23.876 43.617)" fill="#77b7b2"/>
        <path id="Trazado_910358" data-name="Trazado 910358" d="M86.3,70.7q-.018-1.63-.033-3.26c0-.218-.622-.218-.619,0q.061,5.816.119,11.63l.033,3.258c0,.221.622.221.619,0Q86.362,76.517,86.3,70.7" transform="translate(-26.77 9.143)" fill="#77b7b2"/>
        <path id="Trazado_910359" data-name="Trazado 910359" d="M108.695,78.416c-.923-1.139-2.548-.89-3.742-.392a11.09,11.09,0,0,0-1.905,1.044,20.808,20.808,0,0,0-1.649,1.3A3.847,3.847,0,0,1,99.8,81.3a73.033,73.033,0,0,1-1.376-14.866q.021-2.111.166-4.214c.014-.211-.6-.225-.619,0A73,73,0,0,0,98.5,77.246q.292,2.089.7,4.157l0,.012a.111.111,0,0,0-.036.081c0,.126.223.159.311.157,1.272-.026,2.174-.906,3.094-1.671a11.782,11.782,0,0,1,1.685-1.177,7.242,7.242,0,0,1,1.953-.831,1.854,1.854,0,0,1,1.882.524.41.41,0,0,0,.38.112c.057-.009.3-.085.216-.195" transform="translate(-10.084 1.973)" fill="#77b7b2"/>
        <path id="Trazado_910360" data-name="Trazado 910360" d="M123.086,64.288a.4.4,0,0,0-.38.109,35.976,35.976,0,0,0-3.46,5.932,18.821,18.821,0,0,1-1.744,2.98c-.683.954-1.407,1.884-2.136,2.8-.766.968-1.554,1.922-2.354,2.862-1.727-1.585-2.449-4.6-5.14-4.81-.107-.007-.33-.014-.38.112s.126.185.216.192a4.081,4.081,0,0,1,2.779,2.034,11.712,11.712,0,0,0,2.3,2.895.464.464,0,0,0,.534,0c1.557-1.818,3.066-3.683,4.487-5.612a18.832,18.832,0,0,0,1.811-2.914c.51-1.042.989-2.093,1.559-3.1a33.408,33.408,0,0,1,2.119-3.286c.081-.112-.15-.185-.216-.195" transform="translate(3.206 5.029)" fill="#77b7b2"/>
        <path id="Trazado_910361" data-name="Trazado 910361" d="M94.986,74.3c-.783-1.08-2.3-1.013-3.493-.978q-2.645.085-5.287.178-5.286.189-10.569.427-3,.135-5.989.287c-.093,0-.308.024-.308.157s.223.161.308.159q5.108-.26,10.215-.47,5.133-.214,10.263-.377c.84-.028,1.694-.1,2.532-.05a2.2,2.2,0,0,1,1.732.75.4.4,0,0,0,.38.112c.064-.009.3-.081.216-.195" transform="translate(-49.163 17.414)" fill="#77b7b2"/>
      </g>
    </g>
    <path id="Trazado_910362" data-name="Trazado 910362" d="M162.882,8.847a8.466,8.466,0,0,1-1.863.166c-.7-.031-1.4-.078-2.1-.121-2.451-.157-4.9-.349-7.361-.4h-2.005q-.854.021-1.708.088c-1.208.1-2.408.249-3.612.377s-2.432.233-3.652.244c-1.089.009-2.176-.059-3.265-.045a13.241,13.241,0,0,0-4.551.766V88.885h32.335V8.489h-.484c-.584.1-1.163.254-1.739.358" transform="translate(182.279 11.657)" fill="#644e40"/>
    <path id="Trazado_910363" data-name="Trazado 910363" d="M132.771,98.189h32.335V1.712H132.771Zm31.275-1.061H133.832V2.773h30.214Z" transform="translate(182.28 2.353)" fill="#fdd363"/>
    <rect id="Rectángulo_404391" data-name="Rectángulo 404391" width="35.693" height="6.362" transform="translate(313.371)" fill="#fdd363"/>
    <path id="Trazado_910364" data-name="Trazado 910364" d="M139.783,22.318c.444-1.144,1.191-2.11,1.618-3.27a2.871,2.871,0,0,1,1.7-1.929,1.058,1.058,0,0,1,.987.216.228.228,0,0,1,.069.282c-.624,1.455-1.3,2.893-2.043,4.288a1.51,1.51,0,0,1-2.147.764c-.142-.076-.247-.187-.183-.351" transform="translate(191.881 23.444)" fill="#2f2c1b"/>
    <path id="Trazado_910365" data-name="Trazado 910365" d="M135.936,10.609c-.062-.093-.126-.185-.19-.278-.285-.4,1.077-.591,1.362-.19a14.267,14.267,0,0,1,1.865,3.583c.057.161-.033.278-.18.349-1.984.973-2.641-1.756-3.044-3.106a.3.3,0,0,1,.187-.358" transform="translate(186.312 13.623)" fill="#2f2c1b"/>
    <path id="Trazado_910366" data-name="Trazado 910366" d="M143.606,12.7a7.808,7.808,0,0,1,.119-1.457.952.952,0,0,1,.536-.831,1.413,1.413,0,0,1,1.91.783,1.962,1.962,0,0,1-.342,1.426c-.261.425-.6.807-.823,1.253-.147.289-.3.65-.626.688a.574.574,0,0,1-.534-.316,1.7,1.7,0,0,1-.169-.631,7.894,7.894,0,0,1-.071-.916" transform="translate(197.155 14.135)" fill="#2f2c1b"/>
    <path id="Trazado_910367" data-name="Trazado 910367" d="M141.086,12.267a2.746,2.746,0,0,1,.719,1.813c0,.5-1.407.505-1.414,0a2.21,2.21,0,0,0-.524-1.45c-.434-.494.918-.707,1.22-.363" transform="translate(191.904 16.613)" fill="#2f2c1b"/>
    <path id="Trazado_910368" data-name="Trazado 910368" d="M144.611,22.532a7.116,7.116,0,0,1,.157-1.056v-.052a.248.248,0,0,1,.059-.164l0-.019c.14-.439,1.538-.351,1.364.192l-.017.05a4.178,4.178,0,0,1-.228,1.3,4.237,4.237,0,0,1-1.037,3.023c-.214.2-1.369.316-1.315-.18a19.626,19.626,0,0,1,1.011-3.092" transform="translate(197.145 28.78)" fill="#2f2c1b"/>
    <path id="Trazado_910369" data-name="Trazado 910369" d="M137.76,15.681a7.116,7.116,0,0,1,.157-1.056l0-.052a.234.234,0,0,1,.057-.164l0-.019c.142-.439,1.538-.351,1.364.192l-.014.05a4.251,4.251,0,0,1-.23,1.3,4.246,4.246,0,0,1-1.035,3.023c-.216.2-1.372.316-1.317-.18a19.625,19.625,0,0,1,1.011-3.092" transform="translate(187.739 19.374)" fill="#2f2c1b"/>
    <path id="Trazado_910370" data-name="Trazado 910370" d="M137.381,25.125a3.388,3.388,0,0,0,.9-1.307c.171-.437,1.566-.33,1.362.19a3.889,3.889,0,0,1-1.039,1.481,1.086,1.086,0,0,1-.966.131c-.214-.066-.5-.275-.254-.494" transform="translate(188.481 32.328)" fill="#2f2c1b"/>
    <path id="Trazado_910371" data-name="Trazado 910371" d="M135.6,19.84a9.455,9.455,0,0,0,1.046,3.111c.249.463-1.132.619-1.362.192a10.118,10.118,0,0,1-1.1-3.3c-.069-.458,1.336-.522,1.414,0" transform="translate(184.213 26.735)" fill="#2f2c1b"/>
    <path id="Trazado_910372" data-name="Trazado 910372" d="M134.723,27.874a.34.34,0,0,1,.074-.142c-.024-.066-.045-.133-.074-.2-.209-.505,1.182-.629,1.362-.19a4.97,4.97,0,0,1,.247,3.161c-.109.429-1.232.543-1.391.1a5.09,5.09,0,0,1-.218-2.722" transform="translate(184.832 37.165)" fill="#2f2c1b"/>
    <path id="Trazado_910373" data-name="Trazado 910373" d="M144.519,29.485a.292.292,0,0,1,.112-.135,1.673,1.673,0,0,1,.159-.311c.268-.406,1.642-.23,1.364.19-.688,1.039.266,2.6-1.115,3.3-.218.112-1.258.211-1.205-.254a11.16,11.16,0,0,1,.686-2.786" transform="translate(197.465 39.554)" fill="#2f2c1b"/>
    <path id="Trazado_910374" data-name="Trazado 910374" d="M140.315,27.261a5.175,5.175,0,0,0,1.006-1.092.913.913,0,0,1,.868-.252c.157.021.672.183.494.444a5.868,5.868,0,0,1-1.148,1.262,1.094,1.094,0,0,1-.966.131c-.2-.062-.51-.285-.254-.494" transform="translate(192.504 35.564)" fill="#2f2c1b"/>
    <path id="Trazado_910375" data-name="Trazado 910375" d="M144.754,16.909c.021-.166.045-.33.066-.5a.4.4,0,0,1,.3-.3,4.96,4.96,0,0,1,.256-.427c.271-.4,1.642-.225,1.362.192a6.064,6.064,0,0,0-.584,1.127q-.21,1.57-.422,3.139c-.069.508-1.329.5-1.414,0a6.507,6.507,0,0,1,.437-3.239" transform="translate(198.051 21.231)" fill="#2f2c1b"/>
    <path id="Trazado_910376" data-name="Trazado 910376" d="M143.557,39.944c.176-1.31,1.526-1.97,1.773-3.225.093-.472,1.258-.453,1.4-.109.161.076.247.195.171.344-.42.847-.823,1.706-1.262,2.541a1.353,1.353,0,0,1-1.561.795c-.145-.026-.55-.119-.52-.346" transform="translate(197.086 49.918)" fill="#2f2c1b"/>
    <path id="Trazado_910377" data-name="Trazado 910377" d="M136.219,37.22a3.764,3.764,0,0,1,.5,2.259c-.05.515-1.459.479-1.412,0a3.382,3.382,0,0,0-.446-2.067c-.259-.448,1.118-.615,1.362-.192" transform="translate(185.099 50.767)" fill="#2f2c1b"/>
    <path id="Trazado_910378" data-name="Trazado 910378" d="M139.527,38.65a6.446,6.446,0,0,0,1.248-.916,1.078,1.078,0,0,1,.966-.128c.218.066.491.273.254.494a7.611,7.611,0,0,1-1.469,1.061,1.144,1.144,0,0,1-1,0c-.261-.138-.251-.368,0-.51" transform="translate(191.292 51.555)" fill="#2f2c1b"/>
    <rect id="Rectángulo_404392" data-name="Rectángulo 404392" width="35.693" height="12.546" transform="translate(313.459 92.768)" fill="#fdd363"/>
    <rect id="Rectángulo_404393" data-name="Rectángulo 404393" width="21.204" height="18.2" transform="translate(320.704 113.616)" fill="#fdd363"/>
    <path id="Trazado_910379" data-name="Trazado 910379" d="M135.154,55.55l3.18,4.948h14.842l3.182-4.948Z" transform="translate(185.551 76.267)" fill="#e08d34"/>
    <path id="Trazado_910380" data-name="Trazado 910380" d="M167.793,44.381l-7.244,8.305h-21.2L132.1,44.381Z" transform="translate(181.36 60.932)" fill="#644e40"/>
    <path id="Trazado_910381" data-name="Trazado 910381" d="M167.793,44.381l-7.244,8.305h-21.2L132.1,44.381Z" transform="translate(181.36 60.932)" fill="#e08d34"/>
    <path id="Trazado_910382" data-name="Trazado 910382" d="M140.192,54.163a1.574,1.574,0,1,1,1.877-1.2,1.574,1.574,0,0,1-1.877,1.2" transform="translate(190.775 70.092)" fill="#fff"/>
    <path id="Trazado_910383" data-name="Trazado 910383" d="M144.225,54.3c-2.072-.46-4.52-1.573-4.373-2.24s2.838-.636,4.91-.176,2.615,1.148,2.465,1.815-.93,1.061-3,.6" transform="translate(191.993 70.774)" fill="#fff"/>
    <path id="Trazado_910384" data-name="Trazado 910384" d="M139.3,50.836c2.072.46,4.52,1.571,4.373,2.24s-2.838.636-4.91.176-2.615-1.148-2.465-1.815.93-1.061,3-.6" transform="translate(187.094 69.522)" fill="#fff"/>
    <path id="Trazado_910385" data-name="Trazado 910385" d="M138.742,56.319c.46-2.072,1.573-4.52,2.24-4.373s.636,2.838.176,4.91-1.148,2.615-1.815,2.465-1.061-.93-.6-3" transform="translate(190.205 71.31)" fill="#fff"/>
    <path id="Trazado_910386" data-name="Trazado 910386" d="M142.207,51.4c-.46,2.072-1.571,4.52-2.24,4.373s-.636-2.838-.176-4.91,1.148-2.615,1.815-2.465,1.061.93.6,3" transform="translate(191.457 66.411)" fill="#fff"/>
    <path id="Trazado_910387" data-name="Trazado 910387" d="M143.811,12.657V45.32c0,.5,1.412.5,1.412,0V12.657c0-.5-1.412-.5-1.412,0" transform="translate(197.437 16.864)" fill="#fff"/>
    <rect id="Rectángulo_404394" data-name="Rectángulo 404394" width="34.81" height="3.358" transform="translate(313.813 77.395)" fill="#fdd363"/>
    <path id="Trazado_910388" data-name="Trazado 910388" d="M154.646,38.805a9.541,9.541,0,1,1-9.541-9.541,9.541,9.541,0,0,1,9.541,9.541" transform="translate(186.113 40.179)" fill="#fdd363"/>
    <path id="Trazado_910389" data-name="Trazado 910389" d="M152.275,37.936a8.039,8.039,0,1,1-8.039-8.039,8.04,8.04,0,0,1,8.039,8.039" transform="translate(186.982 41.048)" fill="#fff"/>
    <rect id="Rectángulo_404395" data-name="Rectángulo 404395" width="10.778" height="1.768" transform="translate(325.829 76.245)" fill="#fdd363"/>
    <rect id="Rectángulo_404396" data-name="Rectángulo 404396" width="10.778" height="1.768" transform="translate(325.829 79.958)" fill="#fdd363"/>
    <rect id="Rectángulo_404397" data-name="Rectángulo 404397" width="162.384" height="4.594" transform="translate(11.131 139.767)" fill="#644e40"/>
    <path id="Trazado_910423" data-name="Trazado 910423" d="M63.145,58.093a1.858,1.858,0,0,0-.161-.527,1.1,1.1,0,0,0-1-.515.465.465,0,0,0-.389.244l0,0a.967.967,0,0,0-.166.688,1.469,1.469,0,0,0,.237.833.86.86,0,0,0,.588.346c.259.033.629-.038.717-.323l.012-.045a.338.338,0,0,0,.164-.161,1.039,1.039,0,0,0,0-.546" transform="translate(84.334 78.318)" fill="#644e40"/>
    <path id="Trazado_910424" data-name="Trazado 910424" d="M59.454,57.468a.889.889,0,0,0-.835-.543H58.56l-.019,0a.779.779,0,0,0-.339.021c-.064.021-.183.062-.2.135a2.8,2.8,0,0,0-.059.28,1.523,1.523,0,0,0-.04.223,1.46,1.46,0,0,0,.116.864v0a1.66,1.66,0,0,0,.14.325.9.9,0,0,0,1.073.356.511.511,0,0,0,.37-.389,1.68,1.68,0,0,0,.043-.422,2.105,2.105,0,0,0-.185-.849" transform="translate(79.464 78.138)" fill="#644e40"/>
    <path id="Trazado_910425" data-name="Trazado 910425" d="M55.225,57.638a.758.758,0,0,0-.612-.425,1.189,1.189,0,0,0-.873.187.887.887,0,0,0-.382.4,1.5,1.5,0,0,0-.109.579.8.8,0,0,0,.017.373.724.724,0,0,0,.51.444.955.955,0,0,0,.93-.206,1.892,1.892,0,0,0,.133-.168,1.37,1.37,0,0,0,.147-.14,1.023,1.023,0,0,0,.24-1.042m-.956.524a1.648,1.648,0,0,1-.088.211l-.012-.007-.007-.021a.2.2,0,0,1,0-.052,1.47,1.47,0,0,1,.128-.285.7.7,0,0,1-.017.154" transform="translate(73.084 78.526)" fill="#644e40"/>
    <path id="Trazado_910431" data-name="Trazado 910431" d="M36.516,61.641c5.861.515,11.921.059,17.771.024,6.941-.04,13.884-.043,20.825-.043,1.156,0-2.185-29.426-2.66-32.642-1.315-8.865-4.236-17.842-4.274-26.818A.972.972,0,0,0,68,1.481a.965.965,0,0,0-.607-.214A133.793,133.793,0,0,0,52.128.657c-2.66.019-5.32.076-7.98.123-2.442.047-5.3-.306-7.66.149.306,5.638-.812,10.97-1.566,16.56-.434,3.208-.648,6.442-.859,9.672C33.337,38.206,32.61,49.271,33,60.331a.822.822,0,0,0,.852,1q1.328.192,2.667.308" transform="translate(45.154 0.897)" fill="#857600"/>
    <path id="Trazado_910676" data-name="Trazado 910676" d="M35.827,50.049c4.747.417,9.656.048,14.393.019,5.621-.033,11.245-.035,16.866-.035.936,0-1.77-23.833-2.154-26.438C63.867,16.416,61.5,9.145,61.471,1.875a.787.787,0,0,0-.144-.552.781.781,0,0,0-.492-.173A108.362,108.362,0,0,0,48.471.656c-2.154.015-4.309.062-6.463.1C40.03.795,37.714.508,35.8.877c.248,4.566-.657,8.885-1.268,13.413-.352,2.6-.525,5.218-.7,7.834a267.343,267.343,0,0,0-.863,26.864.666.666,0,0,0,.69.811q1.075.156,2.16.25" transform="translate(90.677 89.521)" fill="#857600"/>
    <path id="Trazado_910680" data-name="Trazado 910680" d="M35.827,50.049c4.747.417,9.656.048,14.393.019,5.621-.033,11.245-.035,16.866-.035.936,0-1.77-23.833-2.154-26.438C63.867,16.416,61.5,9.145,61.471,1.875a.787.787,0,0,0-.144-.552.781.781,0,0,0-.492-.173A108.362,108.362,0,0,0,48.471.656c-2.154.015-4.309.062-6.463.1C40.03.795,37.714.508,35.8.877c.248,4.566-.657,8.885-1.268,13.413-.352,2.6-.525,5.218-.7,7.834a267.343,267.343,0,0,0-.863,26.864.666.666,0,0,0,.69.811q1.075.156,2.16.25" transform="translate(51.029 89.521)" fill="#857600"/>
    <path id="Trazado_910684" data-name="Trazado 910684" d="M35.827,50.049c4.747.417,9.656.048,14.393.019,5.621-.033,11.245-.035,16.866-.035.936,0-1.77-23.833-2.154-26.438C63.867,16.416,61.5,9.145,61.471,1.875a.787.787,0,0,0-.144-.552.781.781,0,0,0-.492-.173A108.362,108.362,0,0,0,48.471.656c-2.154.015-4.309.062-6.463.1C40.03.795,37.714.508,35.8.877c.248,4.566-.657,8.885-1.268,13.413-.352,2.6-.525,5.218-.7,7.834a267.343,267.343,0,0,0-.863,26.864.666.666,0,0,0,.69.811q1.075.156,2.16.25" transform="translate(10.667 89.521)" fill="#857600"/>
    <path id="Trazado_910432" data-name="Trazado 910432" d="M35.9,1.1l2.577,46.243q.367,6.588.733,13.172c.019.323-.781.344-.8,0q-1.288-23.157-2.579-46.312Q35.46,7.655,35.1,1.1c-.019-.323.781-.344.8,0" transform="translate(48.183 1.176)" fill="#ada119"/>
    <path id="Trazado_910677" data-name="Trazado 910677" d="M35.744,1.057l2.087,37.454q.3,5.336.594,10.668c.015.261-.632.279-.648,0q-1.044-18.756-2.089-37.51-.3-5.307-.592-10.613c-.015-.261.632-.279.648,0" transform="translate(92.711 89.708)" fill="#ada119"/>
    <path id="Trazado_910681" data-name="Trazado 910681" d="M35.744,1.057l2.087,37.454q.3,5.336.594,10.668c.015.261-.632.279-.648,0q-1.044-18.756-2.089-37.51-.3-5.307-.592-10.613c-.015-.261.632-.279.648,0" transform="translate(53.063 89.708)" fill="#ada119"/>
    <path id="Trazado_910685" data-name="Trazado 910685" d="M35.744,1.057l2.087,37.454q.3,5.336.594,10.668c.015.261-.632.279-.648,0q-1.044-18.756-2.089-37.51-.3-5.307-.592-10.613c-.015-.261.632-.279.648,0" transform="translate(12.701 89.708)" fill="#ada119"/>
    <path id="Trazado_910433" data-name="Trazado 910433" d="M42.8,8.348H59.591a203.264,203.264,0,0,1,3.583,24.2c.128,1.49.235,2.983.33,4.473H41.016c-.8-7.375-1.716-14.738-2.648-22.094q-.42-3.289-.838-6.575Z" transform="translate(51.525 11.463)" fill="#ada119"/>
    <path id="Trazado_910679" data-name="Trazado 910679" d="M41.8,8.348H55.4a164.631,164.631,0,0,1,2.9,19.6c.1,1.207.19,2.416.267,3.623H40.353c-.65-5.973-1.39-11.937-2.145-17.895q-.34-2.664-.678-5.326Z" transform="translate(94.955 96.616)" fill="#ada119"/>
    <path id="Trazado_910683" data-name="Trazado 910683" d="M41.8,8.348H55.4a164.631,164.631,0,0,1,2.9,19.6c.1,1.207.19,2.416.267,3.623H40.353c-.65-5.973-1.39-11.937-2.145-17.895q-.34-2.664-.678-5.326Z" transform="translate(55.307 96.616)" fill="#ada119"/>
    <path id="Trazado_910687" data-name="Trazado 910687" d="M41.8,8.348H55.4a164.631,164.631,0,0,1,2.9,19.6c.1,1.207.19,2.416.267,3.623H40.353c-.65-5.973-1.39-11.937-2.145-17.895q-.34-2.664-.678-5.326Z" transform="translate(14.945 96.616)" fill="#ada119"/>
    <path id="Trazado_910434" data-name="Trazado 910434" d="M37.357,2.814H60.685c.539,0,.543.482,0,.482H37.357c-.539,0-.543-.482,0-.482" transform="translate(50.73 3.866)" fill="#ada119"/>
    <path id="Trazado_910678" data-name="Trazado 910678" d="M37.28,2.814H56.174c.436,0,.44.39,0,.39H37.28c-.436,0-.44-.39,0-.39" transform="translate(94.421 91.514)" fill="#ada119"/>
    <path id="Trazado_910682" data-name="Trazado 910682" d="M37.28,2.814H56.174c.436,0,.44.39,0,.39H37.28c-.436,0-.44-.39,0-.39" transform="translate(54.773 91.514)" fill="#ada119"/>
    <path id="Trazado_910686" data-name="Trazado 910686" d="M37.28,2.814H56.174c.436,0,.44.39,0,.39H37.28c-.436,0-.44-.39,0-.39" transform="translate(14.411 91.514)" fill="#ada119"/>
    <path id="Trazado_910435" data-name="Trazado 910435" d="M57.512,54.283c4.634.408,9.427.047,14.055.019q8.233-.046,16.468-.033c.916,0-1.727-23.271-2.1-25.815-1.042-7.012-3.348-14.112-3.379-21.211a.758.758,0,0,0-.142-.536.748.748,0,0,0-.479-.171,105.69,105.69,0,0,0-12.073-.482c-2.1.014-4.207.059-6.312.1a37.846,37.846,0,0,0-6.058.119c.244,4.459-.641,8.675-1.236,13.1-.344,2.539-.513,5.095-.681,7.65a260.988,260.988,0,0,0-.842,26.232.859.859,0,0,0,.185.612.882.882,0,0,0,.489.178q1.05.153,2.11.244" transform="translate(75.019 8.307)" fill="#644e40"/>
    <path id="Trazado_910436" data-name="Trazado 910436" d="M57.021,6.405q1.018,18.288,2.038,36.576.288,5.207.581,10.417c.012.252-.619.271-.634,0Q57.985,35.085,56.966,16.77q-.288-5.182-.579-10.365c-.014-.252.617-.271.634,0" transform="translate(77.413 8.527)" fill="#2f2c1b"/>
    <path id="Trazado_910437" data-name="Trazado 910437" d="M62.48,12.135H75.759a160.578,160.578,0,0,1,2.833,19.137c.1,1.177.187,2.356.263,3.536H61.068c-.634-5.833-1.355-11.656-2.1-17.474q-.327-2.6-.66-5.2Z" transform="translate(80.057 16.662)" fill="#2f2c1b"/>
    <path id="Trazado_910438" data-name="Trazado 910438" d="M58.176,7.759H76.625c.427,0,.429.38,0,.38H58.176c-.427,0-.429-.38,0-.38" transform="translate(79.428 10.655)" fill="#2f2c1b"/>
    <path id="Trazado_910439" data-name="Trazado 910439" d="M75.234,54.283c4.634.408,9.427.047,14.055.019q8.233-.046,16.468-.033c.916,0-1.727-23.271-2.1-25.815-1.042-7.012-3.348-14.112-3.381-21.211a.746.746,0,0,0-.14-.536.748.748,0,0,0-.479-.171A105.691,105.691,0,0,0,87.58,6.054c-2.1.014-4.207.059-6.312.1a37.846,37.846,0,0,0-6.058.119c.244,4.459-.641,8.675-1.239,13.1-.342,2.539-.51,5.095-.679,7.65a260.992,260.992,0,0,0-.842,26.232.859.859,0,0,0,.185.612.882.882,0,0,0,.489.178q1.05.153,2.109.244" transform="translate(99.349 8.307)" fill="#ada119"/>
    <path id="Trazado_910440" data-name="Trazado 910440" d="M74.744,6.405q1.018,18.288,2.038,36.576.292,5.207.581,10.417c.012.252-.617.271-.634,0Q75.708,35.085,74.689,16.77,74.4,11.588,74.11,6.405c-.012-.252.619-.271.634,0" transform="translate(101.745 8.527)" fill="#857600"/>
    <path id="Trazado_910441" data-name="Trazado 910441" d="M80.2,12.135H93.481a160.571,160.571,0,0,1,2.833,19.137c.1,1.177.185,2.356.263,3.536H78.791c-.634-5.833-1.355-11.656-2.1-17.474q-.327-2.6-.66-5.2Z" transform="translate(104.389 16.662)" fill="#857600"/>
    <path id="Trazado_910442" data-name="Trazado 910442" d="M75.9,7.759H94.348c.427,0,.429.38,0,.38H75.9c-.427,0-.429-.38,0-.38" transform="translate(103.76 10.655)" fill="#857600"/>
    <path id="Trazado_910443" data-name="Trazado 910443" d="M16.336,61.641c5.861.515,11.921.059,17.771.024,6.941-.04,13.884-.043,20.825-.043,1.156,0-2.185-29.426-2.66-32.642C50.957,20.115,48.036,11.138,48,2.162a.972.972,0,0,0-.178-.681.965.965,0,0,0-.607-.214A133.793,133.793,0,0,0,31.948.657c-2.66.019-5.32.076-7.98.123-2.442.047-5.3-.306-7.662.149.308,5.638-.809,10.97-1.564,16.56-.434,3.208-.648,6.442-.859,9.672-.726,11.043-1.452,22.108-1.065,33.168a1.088,1.088,0,0,0,.235.776,1.1,1.1,0,0,0,.617.225q1.328.192,2.667.308" transform="translate(17.449 0.897)" fill="#2f2c1b"/>
    <path id="Trazado_910444" data-name="Trazado 910444" d="M15.716,1.1l2.577,46.243q.367,6.588.733,13.172c.019.323-.781.344-.8,0q-1.288-23.157-2.579-46.312-.367-6.553-.731-13.1c-.019-.323.781-.344.8,0" transform="translate(20.478 1.176)" fill="#644e40"/>
    <path id="Trazado_910445" data-name="Trazado 910445" d="M22.62,8.348H39.411a203.267,203.267,0,0,1,3.583,24.2c.128,1.49.235,2.983.33,4.473H20.836c-.8-7.375-1.716-14.738-2.648-22.094q-.42-3.289-.838-6.575Z" transform="translate(23.82 11.463)" fill="#644e40"/>
    <path id="Trazado_910446" data-name="Trazado 910446" d="M17.177,2.814H40.5c.539,0,.543.482,0,.482H17.177c-.539,0-.543-.482,0-.482" transform="translate(23.025 3.866)" fill="#644e40"/>
    <path id="Trazado_910447" data-name="Trazado 910447" d="M126.114,18.394h-16.99V15.9a2.857,2.857,0,0,1,2.855-2.855h11.281a2.859,2.859,0,0,1,2.855,2.855Z" transform="translate(149.815 17.919)" fill="#ada119"/>
    <path id="Trazado_910448" data-name="Trazado 910448" d="M128.4,40.882H109.954a2.1,2.1,0,0,1-2.1-2.093V18.045a2.1,2.1,0,0,1,2.1-2.1H128.4a2.1,2.1,0,0,1,2.093,2.1V38.789a2.1,2.1,0,0,1-2.093,2.093" transform="translate(148.079 21.9)" fill="#ada119"/>
    <rect id="Rectángulo_404399" data-name="Rectángulo 404399" width="19.46" height="4.285" transform="translate(257.528 33.793)" fill="#857600"/>
    <path id="Trazado_910449" data-name="Trazado 910449" d="M115.375,16.424h-2.681c-.529,0-.959-.323-.959-.719V12.874c0-.4.429-.719.959-.719h2.681c.529,0,.959.323.959.719V15.7c0,.4-.429.719-.959.719" transform="translate(153.4 16.69)" fill="#ada119"/>
    <rect id="Rectángulo_404400" data-name="Rectángulo 404400" width="14.667" height="12.192" transform="translate(259.924 45.808)" fill="#857600"/>
    <path id="Trazado_910450" data-name="Trazado 910450" d="M110.576,12.821H93.586V10.332a2.859,2.859,0,0,1,2.855-2.855h11.281a2.857,2.857,0,0,1,2.855,2.855Z" transform="translate(128.483 10.267)" fill="#fdd363"/>
    <path id="Trazado_910451" data-name="Trazado 910451" d="M112.866,10.379H94.414a2.1,2.1,0,0,0-2.093,2.093V46.438a2.081,2.081,0,0,0,.612,1.474l0,0a2.061,2.061,0,0,0,1.476.615h18.452a2.065,2.065,0,0,0,1.476-.615l0,0a2.081,2.081,0,0,0,.612-1.474V12.472a2.1,2.1,0,0,0-2.093-2.093" transform="translate(126.747 14.252)" fill="#fdd363"/>
    <rect id="Rectángulo_404401" data-name="Rectángulo 404401" width="19.46" height="4.283" transform="translate(220.657 20.571)" fill="#e08d34"/>
    <path id="Trazado_910452" data-name="Trazado 910452" d="M99.837,10.942H97.156a.867.867,0,0,1-.959-.724V7.369a.867.867,0,0,1,.959-.724h2.681a.867.867,0,0,1,.959.724v2.85a.867.867,0,0,1-.959.724" transform="translate(132.068 9.125)" fill="#fdd363"/>
    <rect id="Rectángulo_404402" data-name="Rectángulo 404402" width="14.664" height="6.537" transform="translate(223.056 51.464)" fill="#e08d34"/>
    <rect id="Rectángulo_404403" data-name="Rectángulo 404403" width="287.511" height="4.594" transform="translate(11.133 62.553)" fill="#644e40"/>
    <rect id="Rectángulo_404404" data-name="Rectángulo 404404" width="473.546" height="20.144" transform="translate(0 249.321)" fill="#644e40"/>
    <rect id="Rectángulo_404405" data-name="Rectángulo 404405" width="42.584" height="36.4" transform="translate(183.41 212.919)" fill="#fdca4a"/>
    <path id="Trazado_910453" data-name="Trazado 910453" d="M108.393,86.379H88.779L77.294,94.33h42.584Z" transform="translate(106.117 118.591)" fill="#e08d34"/>
    <path id="Trazado_910454" data-name="Trazado 910454" d="M111.929,91.636H79.416V90.9a4.894,4.894,0,0,1,4.9-4.893h22.725a4.892,4.892,0,0,1,4.893,4.893Z" transform="translate(109.03 118.081)" fill="#e08d34"/>
    <path id="Trazado_910455" data-name="Trazado 910455" d="M110.6,88.193H80.211c-.157,0-.534.038-.534.214s.387.214.534.214H110.6c.159,0,.534-.038.534-.214s-.384-.214-.534-.214" transform="translate(109.388 121.082)" fill="#fdca4a"/>
    <rect id="Rectángulo_404406" data-name="Rectángulo 404406" width="25.974" height="18.907" transform="translate(191.718 221.402)" fill="#e08d34"/>
    <rect id="Rectángulo_404407" data-name="Rectángulo 404407" width="2.501" height="14.342" transform="translate(114.663 227.671)" fill="#644e40"/>
    <path id="Trazado_910456" data-name="Trazado 910456" d="M51.431,106.607A1.745,1.745,0,0,1,49.91,105.6a3.112,3.112,0,0,1-.2-1.277c0-.093,0-.185-.007-.275a4.814,4.814,0,0,0-1.388-3.12c-.093-.095-.187-.187-.282-.28a4.844,4.844,0,0,1-.795-.914,2.812,2.812,0,0,1,.147-3.175,10.789,10.789,0,0,1,.887-1.137c.178-.209.349-.408.51-.615.135-.173.266-.358.384-.546a10.54,10.54,0,0,0,1.184-2.971c.109-.406.19-.812.273-1.239a12.162,12.162,0,0,1,.56-2.138l.515-1.312.427,1.345a15.707,15.707,0,0,1,.427,1.834c.1.539.2,1.049.349,1.557a11.421,11.421,0,0,0,1.234,2.923,6.123,6.123,0,0,0,.384.546c.159.206.33.406.51.615a11.11,11.11,0,0,1,.887,1.137,2.815,2.815,0,0,1,.145,3.175,4.833,4.833,0,0,1-.793.914c-.095.093-.192.185-.282.28a4.829,4.829,0,0,0-1.391,3.12c0,.09,0,.183,0,.275a3.116,3.116,0,0,1-.206,1.277,1.71,1.71,0,0,1-1.735.992,1.343,1.343,0,0,1-.216.017m.119-.861h.192l.033-.149a.691.691,0,0,0,.693-.406,2.277,2.277,0,0,0,.119-.88c0-.1,0-.2.007-.306a5.827,5.827,0,0,1,1.668-3.771c.1-.1.2-.2.306-.3a3.993,3.993,0,0,0,.638-.721,1.83,1.83,0,0,0-.133-2.107,9.972,9.972,0,0,0-.807-1.027c-.18-.211-.365-.427-.541-.653a7.575,7.575,0,0,1-.439-.624,12.407,12.407,0,0,1-1.35-3.18c-.14-.475-.237-.952-.327-1.417l-.007.043c-.083.427-.171.866-.287,1.305A11.452,11.452,0,0,1,50.008,94.8c-.138.216-.285.425-.439.624-.176.225-.361.441-.541.653a9.658,9.658,0,0,0-.807,1.027,1.831,1.831,0,0,0-.135,2.107,4.012,4.012,0,0,0,.641.721c.1.1.206.2.306.3A5.812,5.812,0,0,1,50.7,104c0,.1.007.2.007.3a2.336,2.336,0,0,0,.119.883.694.694,0,0,0,.7.406Z" transform="translate(64.266 118.896)" fill="#2f2c1b"/>
    <path id="Trazado_910457" data-name="Trazado 910457" d="M49.669,101.207a1.419,1.419,0,0,1-1.417-1.417V91.953a1.417,1.417,0,1,1,2.833,0v7.838a1.419,1.419,0,0,1-1.417,1.417m0-9.672a.418.418,0,0,0-.418.418v7.838a.418.418,0,0,0,.835,0V91.953a.418.418,0,0,0-.418-.418" transform="translate(66.245 124.296)" fill="#2f2c1b"/>
    <path id="Trazado_910458" data-name="Trazado 910458" d="M112.551,110.761H31.842v-1.286a8.55,8.55,0,0,1,8.552-8.552H104a8.552,8.552,0,0,1,8.552,8.552Z" transform="translate(43.716 138.559)" fill="#fdd363"/>
    <path id="Trazado_910459" data-name="Trazado 910459" d="M50.41,98.436c.584-.078,1.163-.19,1.737-.318a32.4,32.4,0,0,0,4.829-1.478c1.353-.534,2.71-1.533,4.169-1.547A6.108,6.108,0,0,1,65.3,96.559c1.087.973,1.83,2.646.444,3.811-.738.619-1.837.316-2.774.09a12.055,12.055,0,0,0-4.506-.211c-1.348.19-2.648.607-3.97.928a28.069,28.069,0,0,1-13.73-.154,9.258,9.258,0,0,1-3.384-1.495c-.508-.4-2.048-1.514-.85-2.043a2.112,2.112,0,0,1,1.26,0,55.626,55.626,0,0,0,9.461,1.073,21.7,21.7,0,0,0,2.636-.057c.176-.019.351-.038.524-.062" transform="translate(49.538 130.554)" fill="#644e40"/>
    <rect id="Rectángulo_404408" data-name="Rectángulo 404408" width="1.5" height="13.006" transform="translate(85.36 225.173)" fill="#644e40"/>
    <path id="Trazado_910460" data-name="Trazado 910460" d="M42.211,105.321H34.706v-1.908a3.264,3.264,0,0,1,3.263-3.263h.982a3.262,3.262,0,0,1,3.26,3.263Z" transform="translate(47.648 137.498)" fill="#fdd363"/>
    <path id="Trazado_910461" data-name="Trazado 910461" d="M39.974,101.975H35.3V97.834a2.029,2.029,0,0,1,2.029-2.029h.612a2.029,2.029,0,0,1,2.029,2.029Z" transform="translate(48.469 131.533)" fill="#644e40"/>
    <path id="Trazado_910462" data-name="Trazado 910462" d="M54.047,92.923H30.033L31.4,96.245a3.788,3.788,0,0,0,3.5,2.347H54.844a3.79,3.79,0,0,0,3.5-2.347l1.367-3.322Z" transform="translate(41.232 127.576)" fill="#fdd363"/>
    <path id="Trazado_910463" data-name="Trazado 910463" d="M60.452,93.976H30.262a.578.578,0,0,1-.579-.579v-.176a.578.578,0,0,1,.579-.579h30.19a.578.578,0,0,1,.579.579V93.4a.578.578,0,0,1-.579.579" transform="translate(40.752 127.19)" fill="#644e40"/>
    <path id="Trazado_910464" data-name="Trazado 910464" d="M64.885,98.436c-.584-.078-1.16-.19-1.735-.318a32.346,32.346,0,0,1-4.831-1.478c-1.353-.534-2.71-1.533-4.169-1.547A6.108,6.108,0,0,0,50,96.559c-1.087.973-1.83,2.646-.444,3.811.738.619,1.837.316,2.774.09a12.055,12.055,0,0,1,4.506-.211c1.348.19,2.648.607,3.97.928a28.078,28.078,0,0,0,13.732-.154,9.294,9.294,0,0,0,3.384-1.495c.508-.4,2.045-1.514.847-2.043a2.112,2.112,0,0,0-1.26,0,55.6,55.6,0,0,1-9.461,1.073,21.713,21.713,0,0,1-2.636-.057c-.176-.019-.351-.038-.524-.062" transform="translate(66.994 130.554)" fill="#644e40"/>
    <rect id="Rectángulo_404409" data-name="Rectángulo 404409" width="1.502" height="13.006" transform="translate(144.967 225.173)" fill="#644e40"/>
    <path id="Trazado_910465" data-name="Trazado 910465" d="M59.828,105.321h7.5v-1.908a3.262,3.262,0,0,0-3.26-3.263h-.982a3.262,3.262,0,0,0-3.26,3.263Z" transform="translate(82.137 137.498)" fill="#fdd363"/>
    <path id="Trazado_910466" data-name="Trazado 910466" d="M60.425,101.975h4.67V97.834a2.029,2.029,0,0,0-2.029-2.029h-.612a2.029,2.029,0,0,0-2.029,2.029Z" transform="translate(82.957 131.533)" fill="#644e40"/>
    <path id="Trazado_910467" data-name="Trazado 910467" d="M60.824,92.923H84.838l-1.369,3.322a3.788,3.788,0,0,1-3.5,2.347H60.027a3.79,3.79,0,0,1-3.5-2.347l-1.367-3.322Z" transform="translate(75.722 127.576)" fill="#fdd363"/>
    <path id="Trazado_910468" data-name="Trazado 910468" d="M55.383,93.976h30.19a.578.578,0,0,0,.579-.579v-.176a.578.578,0,0,0-.579-.579H55.383a.578.578,0,0,0-.579.579V93.4a.578.578,0,0,0,.579.579" transform="translate(75.24 127.19)" fill="#644e40"/>
    <path id="Trazado_910469" data-name="Trazado 910469" d="M50.8,104.282h-.719a2.391,2.391,0,0,1-2.392-2.392V97a2.391,2.391,0,0,1,2.392-2.392H50.8A2.391,2.391,0,0,1,53.192,97v4.888a2.391,2.391,0,0,1-2.392,2.392" transform="translate(65.472 129.892)" fill="#2f2c1b"/>
    <path id="Trazado_910470" data-name="Trazado 910470" d="M110.528,102.516H32.443a.243.243,0,0,0,0,.484h78.085a.243.243,0,0,0,0-.484" transform="translate(44.232 140.746)" fill="#644e40"/>
    <path id="Trazado_910471" data-name="Trazado 910471" d="M68.35,93.668c-.344,1.367-1.018,2.966-2.532,3.339-.085.019-.164.095-.09.173s.244.069.342.045a3.248,3.248,0,0,0,1.806-1.258,6.358,6.358,0,0,0,.975-2.3c.038-.149-.453-.185-.5,0" transform="translate(90.197 128.426)" fill="#f4efb7"/>
    <path id="Trazado_910472" data-name="Trazado 910472" d="M43.069,93.727c-.532,1.16-1.179,2.553-2.52,2.931-.083.024-.164.095-.09.173a.379.379,0,0,0,.342.045c1.457-.408,2.169-1.811,2.75-3.08.081-.176-.411-.223-.482-.069" transform="translate(55.506 128.552)" fill="#f4efb7"/>
    <path id="Trazado_910473" data-name="Trazado 910473" d="M66.587,102.9a3.857,3.857,0,0,0-2.484-1.6c-.085-.017-.266,0-.308.09s.109.145.176.157a3.394,3.394,0,0,1,2.136,1.426.326.326,0,0,0,.306.088c.057-.007.24-.064.176-.157" transform="translate(87.571 139.062)" fill="#f4efb7"/>
    <rect id="Rectángulo_404410" data-name="Rectángulo 404410" width="28.413" height="30.594" transform="translate(382.123 218.814)" fill="#fdca4a"/>
    <path id="Trazado_910474" data-name="Trazado 910474" d="M181.786,89.978H168.7l-7.662,5.306h28.411Z" transform="translate(221.088 123.533)" fill="#e08d34"/>
    <path id="Trazado_910475" data-name="Trazado 910475" d="M184.146,93.486H162.453V93a3.265,3.265,0,0,1,3.265-3.265h15.163A3.265,3.265,0,0,1,184.146,93Z" transform="translate(223.03 123.192)" fill="#e08d34"/>
    <path id="Trazado_910476" data-name="Trazado 910476" d="M183.257,91.188H162.985c-.107,0-.358.026-.358.142s.259.142.358.142h20.272c.1,0,.356-.026.356-.142s-.256-.142-.356-.142" transform="translate(223.269 125.194)" fill="#fdca4a"/>
    <rect id="Rectángulo_404411" data-name="Rectángulo 404411" width="17.329" height="19.159" transform="translate(387.667 224.473)" fill="#e08d34"/>
    <path id="Trazado_910477" data-name="Trazado 910477" d="M202.871,83.1v21.883H176.3V83.706a1.9,1.9,0,0,1,.195.019c.444.083.812.171,1.151.233a3.405,3.405,0,0,0,2.548-.444c1.075-.572,2.354-1.2,3.445-.662a7.581,7.581,0,0,0,1.239.721c1.111.3,2.005-.944,3.111-1.265,1.573-.453,3.059,1.049,4.694,1.139,1.452.078,2.826-.97,4.262-.747,1.213.19,2.223,1.258,3.445,1.172a3.61,3.61,0,0,0,1.139-.335c.206-.09.413-.18.624-.254a3.656,3.656,0,0,1,.721-.183" transform="translate(242.037 112.886)" fill="#644e40"/>
    <path id="Trazado_910478" data-name="Trazado 910478" d="M198.557,79.836H180.611A4.32,4.32,0,0,0,176.3,84.15v24.109h26.574V84.15a4.32,4.32,0,0,0-4.314-4.314m2.968,27.077H177.642V84.15a2.973,2.973,0,0,1,2.969-2.968h17.946a2.973,2.973,0,0,1,2.968,2.968Z" transform="translate(242.037 109.609)" fill="#fdd363"/>
    <rect id="Rectángulo_404412" data-name="Rectángulo 404412" width="23.883" height="3.028" transform="translate(419.679 186.418)" fill="#644e40"/>
    <rect id="Rectángulo_404413" data-name="Rectángulo 404413" width="5.887" height="19.173" transform="translate(428.763 194.156)" fill="#b9e6df"/>
    <path id="Trazado_910479" data-name="Trazado 910479" d="M205.668,96.356v21.883H179.094V96.961a1.4,1.4,0,0,1,.195.019c.444.083.812.171,1.151.233a3.405,3.405,0,0,0,2.548-.444c1.075-.572,2.354-1.2,3.445-.662a7.582,7.582,0,0,0,1.239.721c1.111.3,2.005-.944,3.111-1.265,1.573-.453,3.059,1.049,4.694,1.139,1.452.078,2.826-.971,4.262-.747,1.212.19,2.223,1.26,3.445,1.172a3.673,3.673,0,0,0,1.139-.335c.206-.09.413-.18.624-.254a3.659,3.659,0,0,1,.721-.183" transform="translate(245.877 131.084)" fill="#644e40"/>
    <path id="Trazado_910480" data-name="Trazado 910480" d="M201.354,93.09H183.408a4.32,4.32,0,0,0-4.314,4.314v24.111h26.574V97.4a4.32,4.32,0,0,0-4.314-4.314m2.968,27.079H180.439V97.4a2.973,2.973,0,0,1,2.968-2.968h17.946a2.973,2.973,0,0,1,2.968,2.968Z" transform="translate(245.877 127.805)" fill="#fdd363"/>
    <rect id="Rectángulo_404414" data-name="Rectángulo 404414" width="23.883" height="3.028" transform="translate(426.316 217.868)" fill="#644e40"/>
    <rect id="Rectángulo_404415" data-name="Rectángulo 404415" width="5.887" height="19.173" transform="translate(435.397 225.606)" fill="#b9e6df"/>
    <rect id="Rectángulo_404416" data-name="Rectángulo 404416" width="32.513" height="51.596" transform="translate(22.441 197.724)" fill="#ada119"/>
    <path id="Trazado_910481" data-name="Trazado 910481" d="M11.165,87.865,9.457,92.63H41.968L40.26,87.865c-2.539-7.076-6.77-11.316-11.3-11.316H22.465c-4.527,0-8.761,4.24-11.3,11.316" transform="translate(12.983 105.096)" fill="#b9e6df"/>
    <path id="Trazado_910482" data-name="Trazado 910482" d="M30.865,82.865H12.421V77.2a2.441,2.441,0,0,1,2.442-2.442H28.424A2.44,2.44,0,0,1,30.865,77.2Z" transform="translate(17.053 102.643)" fill="#b9e6df"/>
    <path id="Trazado_910483" data-name="Trazado 910483" d="M28.465,77.578H13.219c-.119,0-.384.04-.389.225s.285.225.389.225H28.465c.119,0,.387-.04.392-.225s-.287-.225-.392-.225" transform="translate(17.614 106.509)" fill="#77b7b2"/>
    <rect id="Rectángulo_404417" data-name="Rectángulo 404417" width="25.634" height="37.814" transform="translate(26.662 204.085)" fill="#fdca4a"/>
    <path id="Trazado_910484" data-name="Trazado 910484" d="M28.7,103.636a7.054,7.054,0,0,0-1.73-1.1,4.55,4.55,0,0,0-2.605-.074,4.938,4.938,0,0,0-2.287.944,5.869,5.869,0,0,0-1.438,1.841c-.1.195-.192.4-.28.6a26.5,26.5,0,0,1,.551-4.079c.1-.482.209-.963.278-1.452s.059-.956.083-1.44a1.972,1.972,0,0,1,.413-1.177c.247-.3.541-.541.8-.828a5.385,5.385,0,0,0,1.232-2.461c.026-.116-.209-.149-.256-.149a2.206,2.206,0,0,0-1.578.674,7.978,7.978,0,0,0-.989-5.128.287.287,0,0,0-.249-.109c-.071,0-.216.017-.247.109a7.174,7.174,0,0,0-.46,2.987c.1,1.039.411,2.038.555,3.068A18.313,18.313,0,0,1,20.8,98a19.765,19.765,0,0,1-.154,2.878c.23-1.815-1.125-3.9-2.245-5.066a8.991,8.991,0,0,0-3.41-2.064q-.947-.359-1.92-.631c.337,1.215.247,2.527.465,3.775a7.176,7.176,0,0,0,2.055,3.932c.638.605,1.376,1.054,2.06,1.59a6.117,6.117,0,0,1,1.191,1.184,1.843,1.843,0,0,1,.387,1.44c-.038,1.4-.078,2.807.009,4.2a16.113,16.113,0,0,0,.249,2.029c.036.183.446.211.508.043.09-.017.183-.036.275-.055.064-.012.185-.045.19-.142a25.831,25.831,0,0,0-.14-3.661c.517-1,2.043-1.243,2.964-1.208.7.026,1.376.223,2.067.311a7.637,7.637,0,0,0,2.169-.055A4.04,4.04,0,0,0,29,106a2.287,2.287,0,0,0,1.008-1.279c-.294-.247-.591-.494-.885-.738-.14-.119-.282-.235-.425-.351" transform="translate(17.941 123.141)" fill="#ada119"/>
    <path id="Trazado_910485" data-name="Trazado 910485" d="M25.365,88.212a29.328,29.328,0,0,0-3.434-7.721,12,12,0,0,0-1.507-1.765.553.553,0,0,0-.536-.081c-.112.04-.278.176-.14.308a18.173,18.173,0,0,1,4.084,7.114c.271.75.527,1.507.778,2.264.093.275.864.209.755-.119" transform="translate(27.041 107.927)" fill="#fff"/>
    <path id="Trazado_910486" data-name="Trazado 910486" d="M19.255,75.583v2.8c0,.311.781.313.781,0v-2.8c0-.313-.781-.316-.781,0" transform="translate(26.435 103.447)" fill="#fff"/>
    <path id="Trazado_910487" data-name="Trazado 910487" d="M14.773,78.529a.549.549,0,0,0-.534.081,12.99,12.99,0,0,0-3.158,5.512c-.1.335.674.4.752.119a12.776,12.776,0,0,1,3.08-5.4c.131-.135-.021-.268-.14-.308" transform="translate(15.201 107.769)" fill="#fff"/>
    <path id="Trazado_910488" data-name="Trazado 910488" d="M181.052,106.269c.185-.567.339-1.151.569-1.711.8-1.951,1.678-4,1.379-6.158a2.557,2.557,0,0,0-.524-1.345c-.484-.553-.074-.729.214-1.284a.89.89,0,0,0-.007-.963c-.278-.327-.79-.259-1.208-.157a14.388,14.388,0,0,0,2.1-2.47,2.2,2.2,0,0,0,.387-.8.845.845,0,0,0-.256-.819,1.089,1.089,0,0,0-.707-.171,4.321,4.321,0,0,0-2,.532,5.188,5.188,0,0,0,2.233-4.4,6.376,6.376,0,0,0-.584-2.435c-.123-.256-1.4-1.77-1.737-1a5.586,5.586,0,0,0,.61-2.121,1.89,1.89,0,0,0-1.039-1.81,2.089,2.089,0,0,0-1.082-.081,4.507,4.507,0,0,0-1.744.643c-.33-2.935-3.491-3.241-5.543-4.5-.944-.579-1.761-1.663-2.949-.921a7.563,7.563,0,0,0-.859-1.35c-1.49-1.571-2.361.629-2.428,1.974a3.309,3.309,0,0,0-1.381-2.235,1.952,1.952,0,0,0-2.8,1.227,5.585,5.585,0,0,0-.057,1.566c-.363-.123-.569-.491-.823-.783a4.652,4.652,0,0,0-4.051-1.248c-1.153.1-3.623.2-3.635,1.744A8.734,8.734,0,0,0,153.2,76.4a8.853,8.853,0,0,0-1.462-.9c-1.924-.88-3.839.679-4.542,2.458a4.52,4.52,0,0,1-.4.9c-.365.541-.933.664-1.414,1.023a3.147,3.147,0,0,0-1.044,1.82,9.979,9.979,0,0,0-.185,2.195,4.2,4.2,0,0,0-3.415-1.049.585.585,0,0,0-.294.1.573.573,0,0,0-.176.316c-.375,1.324.451,2.681,1.357,3.714-.4-.451-1.495.266-1.647.664a5.152,5.152,0,0,0,.164,2.19c.316,1.652,1.156,3.237,1.018,4.914-.109,1.315-.942,2.214-1.229,3.462a5.7,5.7,0,0,0,.479,3.9,1.8,1.8,0,0,0-1.234.168c-.6.425-.46,1.355-.145,2.015a6.712,6.712,0,0,0,1.372,1.92c.534.524,1.165.781,1.54,1.457.626,1.134-.026,2.337-.076,3.529a5.372,5.372,0,0,0,2.539,4.667,10.739,10.739,0,0,1,1.765,1.039,7.125,7.125,0,0,1,1.317,2.015c2.337,4.264,8.725,6.934,13.407,7.2,3.595.209,7-1.568,9.973-3.6,1.175-.8,2.316-1.656,3.436-2.537a12.76,12.76,0,0,1,3.633-1.865,3.234,3.234,0,0,0,1.991-1.69,1.5,1.5,0,0,0-1.1-2.038,4.44,4.44,0,0,0,1.879-1.687,2.4,2.4,0,0,0,.387-1.082,1.686,1.686,0,0,0-2.128-1.6c.593-.206,1.383-2.147,1.663-2.7a7.316,7.316,0,0,0,.418-1.049" transform="translate(190.505 99.39)" fill="#ada119"/>
    <path id="Trazado_910489" data-name="Trazado 910489" d="M145.2,78.035a2.569,2.569,0,0,0-3.021,1.286,4.85,4.85,0,0,0-.5,1.83,11.033,11.033,0,0,0-.026,1.979,5.452,5.452,0,0,0,.468,1.858,1.243,1.243,0,0,0-.672.484,2.881,2.881,0,0,0-.413,1.459,5.674,5.674,0,0,0,.8,3.014,9.881,9.881,0,0,0,1.065,1.533c.142.171.814.071.6-.18a7.716,7.716,0,0,1-1.656-3.113,4.334,4.334,0,0,1-.062-1.685,2.618,2.618,0,0,1,.242-.781,1.139,1.139,0,0,1,.244-.318.914.914,0,0,1,.107-.066.609.609,0,0,0,.384.012c.078-.024.218-.1.159-.2a6.427,6.427,0,0,1-.581-3.469,3.948,3.948,0,0,1,1.127-3.009,1.429,1.429,0,0,1,1.374-.325.528.528,0,0,0,.479-.064c.114-.116-.017-.206-.126-.244" transform="translate(193.619 106.961)" fill="#857600"/>
    <path id="Trazado_910490" data-name="Trazado 910490" d="M155.092,83.681a4.976,4.976,0,0,0-.895-2.005,2.985,2.985,0,0,0-2.42-1.1c-.107,0-.346.031-.349.178s.254.18.349.178c1.571-.038,2.344,1.542,2.641,2.859a8.367,8.367,0,0,1-.164,4.266,8.232,8.232,0,0,1-1.061,2.219c-.088.131.166.209.244.221a.456.456,0,0,0,.432-.126,8.557,8.557,0,0,0,1.438-4.354,8.326,8.326,0,0,0-.216-2.337" transform="translate(207.894 110.626)" fill="#857600"/>
    <path id="Trazado_910491" data-name="Trazado 910491" d="M155.846,87.248c-.069-.216-.759-.176-.676.095a6.925,6.925,0,0,1-1.611,6.836,6.658,6.658,0,0,1-1.493,1.165c-.123.069-.123.18,0,.252a.576.576,0,0,0,.5,0,7.177,7.177,0,0,0,3.621-6.086,7.316,7.316,0,0,0-.337-2.261" transform="translate(208.643 119.595)" fill="#857600"/>
    <path id="Trazado_910492" data-name="Trazado 910492" d="M157.53,78.339a3.957,3.957,0,0,0-2.126-1.953,3.315,3.315,0,0,0-1.692-.168c-.1.017-.3.078-.244.218s.32.145.429.126a2.866,2.866,0,0,1,2.662,1.367,6.3,6.3,0,0,1,.9,3.521c0,.247.7.247.7,0a7.146,7.146,0,0,0-.634-3.111" transform="translate(210.679 104.583)" fill="#857600"/>
    <path id="Trazado_910493" data-name="Trazado 910493" d="M148.72,82.99c-.055-.135-.318-.14-.429-.123a2.619,2.619,0,0,0-2.114,2.2,5.517,5.517,0,0,0,.033,1.934,12.311,12.311,0,0,0,.444,1.818,12.013,12.013,0,0,0,.7,1.685,1.615,1.615,0,0,0-.859.323,2.126,2.126,0,0,0-.671,1.528,9.484,9.484,0,0,0,.382,3.728,9.357,9.357,0,0,0,.847,1.958c.119.209.8.131.674-.093a9.456,9.456,0,0,1-1.115-3.1,9.786,9.786,0,0,1-.133-1.644,4.674,4.674,0,0,1,.2-1.59c.121-.325.517-.933.935-.7.107.059.719.074.586-.173a11.824,11.824,0,0,1-1.217-3.339,4.5,4.5,0,0,1,.28-3.32,1.839,1.839,0,0,1,1.213-.876c.1-.017.3-.081.244-.221" transform="translate(200.135 113.761)" fill="#857600"/>
    <path id="Trazado_910494" data-name="Trazado 910494" d="M151.354,78.092a4.533,4.533,0,0,0-1.673-2.693,2.408,2.408,0,0,0-1.751-.418c-.1.017-.3.078-.244.221s.32.142.432.126c.864-.142,1.611.731,1.991,1.4a5.777,5.777,0,0,1,.726,2.9,5.689,5.689,0,0,1-.275,1.7c-.088.266.6.313.674.095a6.035,6.035,0,0,0,.121-3.334" transform="translate(202.741 102.903)" fill="#857600"/>
    <path id="Trazado_910495" data-name="Trazado 910495" d="M143.722,91.93A4.776,4.776,0,0,1,142.4,88.3c.014-.24-.683-.254-.7,0a5.021,5.021,0,0,0,1.421,3.811c.157.159.831.05.605-.18" transform="translate(194.519 120.974)" fill="#857600"/>
    <path id="Trazado_910496" data-name="Trazado 910496" d="M158,84.289a7.98,7.98,0,0,0-.318-1.917c-.062-.214-.755-.178-.674.1a8.076,8.076,0,0,1-.9,6.383,7.5,7.5,0,0,1-1.16,1.462c-.111.109.017.211.126.244a.559.559,0,0,0,.479-.064A8.316,8.316,0,0,0,158,84.289" transform="translate(212.672 112.901)" fill="#857600"/>
    <path id="Trazado_910497" data-name="Trazado 910497" d="M158.57,93.04H141.438l3.937,23.743a5.843,5.843,0,0,0,5.766,4.888H164.5a5.843,5.843,0,0,0,5.766-4.888L174.2,93.04Z" transform="translate(194.179 127.737)" fill="#fdd363"/>
  </g>
  <g id="Grupo_1110787" data-name="Grupo 1110787" transform="translate(-193.051 -2040)">
    <rect id="Rectángulo_404460" data-name="Rectángulo 404460" width="143" height="34" transform="translate(374.051 2063)" fill="#456345"/>
    <path id="Trazado_910901" data-name="Trazado 910901" d="M4.078-11.375,7-3.125l2.906-8.25h3.078V0H10.633V-3.109l.234-5.367L7.8,0H6.188L3.125-8.469l.234,5.359V0H1.016V-11.375ZM19.781,0a2.507,2.507,0,0,1-.227-.758,2.732,2.732,0,0,1-2.133.914,3,3,0,0,1-2.059-.719,2.312,2.312,0,0,1-.816-1.812,2.389,2.389,0,0,1,1-2.062,4.915,4.915,0,0,1,2.879-.727h1.039v-.484a1.393,1.393,0,0,0-.3-.937,1.183,1.183,0,0,0-.949-.352,1.345,1.345,0,0,0-.895.273.929.929,0,0,0-.324.75H14.734a2.268,2.268,0,0,1,.453-1.359,3,3,0,0,1,1.281-.98,4.669,4.669,0,0,1,1.859-.355,3.689,3.689,0,0,1,2.48.785,2.747,2.747,0,0,1,.918,2.207v3.664a4.041,4.041,0,0,0,.336,1.82V0ZM17.914-1.57a1.945,1.945,0,0,0,.922-.223,1.462,1.462,0,0,0,.625-.6V-3.844h-.844q-1.7,0-1.8,1.172l-.008.133a.9.9,0,0,0,.3.7A1.153,1.153,0,0,0,17.914-1.57Zm8.25-8.961v2.078h1.445V-6.8H26.164v4.219a1.007,1.007,0,0,0,.18.672.9.9,0,0,0,.688.2,3.6,3.6,0,0,0,.664-.055V-.047a4.648,4.648,0,0,1-1.367.2,2.156,2.156,0,0,1-2.422-2.4V-6.8H22.672V-8.453h1.234v-2.078ZM32.758.156A4.15,4.15,0,0,1,29.73-.984a4.054,4.054,0,0,1-1.168-3.039v-.219a5.106,5.106,0,0,1,.492-2.277,3.612,3.612,0,0,1,1.395-1.547,3.914,3.914,0,0,1,2.059-.543,3.508,3.508,0,0,1,2.73,1.094,4.444,4.444,0,0,1,1,3.1v.922H30.852a2.1,2.1,0,0,0,.66,1.328,2,2,0,0,0,1.395.5,2.437,2.437,0,0,0,2.039-.945l1.109,1.242A3.389,3.389,0,0,1,34.68-.246,4.511,4.511,0,0,1,32.758.156ZM32.5-6.789a1.411,1.411,0,0,0-1.09.455,2.357,2.357,0,0,0-.535,1.3h3.141v-.181a1.681,1.681,0,0,0-.406-1.165A1.456,1.456,0,0,0,32.5-6.789Zm9.766.453a6.134,6.134,0,0,0-.812-.062,1.654,1.654,0,0,0-1.68.867V0H37.516V-8.453h2.133l.063,1.008a2.092,2.092,0,0,1,1.883-1.164,2.366,2.366,0,0,1,.7.1ZM45.734,0H43.469V-8.453h2.266Zm-2.4-10.641a1.112,1.112,0,0,1,.34-.836A1.277,1.277,0,0,1,44.6-11.8a1.28,1.28,0,0,1,.922.328,1.105,1.105,0,0,1,.344.836,1.108,1.108,0,0,1-.348.844,1.283,1.283,0,0,1-.918.328,1.283,1.283,0,0,1-.918-.328A1.108,1.108,0,0,1,43.336-10.641ZM52.492,0a2.507,2.507,0,0,1-.227-.758,2.732,2.732,0,0,1-2.133.914,3,3,0,0,1-2.059-.719,2.312,2.312,0,0,1-.816-1.812,2.389,2.389,0,0,1,1-2.062,4.915,4.915,0,0,1,2.879-.727h1.039v-.484a1.393,1.393,0,0,0-.3-.937,1.183,1.183,0,0,0-.949-.352,1.345,1.345,0,0,0-.895.273.929.929,0,0,0-.324.75H47.445A2.268,2.268,0,0,1,47.9-7.273a3,3,0,0,1,1.281-.98,4.669,4.669,0,0,1,1.859-.355,3.689,3.689,0,0,1,2.48.785,2.747,2.747,0,0,1,.918,2.207v3.664a4.041,4.041,0,0,0,.336,1.82V0ZM50.625-1.57a1.945,1.945,0,0,0,.922-.223,1.462,1.462,0,0,0,.625-.6V-3.844h-.844q-1.7,0-1.8,1.172l-.008.133a.9.9,0,0,0,.3.7A1.153,1.153,0,0,0,50.625-1.57ZM60.75-2.336a.727.727,0,0,0-.41-.652,4.659,4.659,0,0,0-1.316-.426q-3.016-.633-3.016-2.562a2.323,2.323,0,0,1,.934-1.879,3.766,3.766,0,0,1,2.441-.754,4.053,4.053,0,0,1,2.574.758,2.388,2.388,0,0,1,.965,1.969H60.664a1.092,1.092,0,0,0-.312-.8A1.322,1.322,0,0,0,59.375-7a1.351,1.351,0,0,0-.883.258.814.814,0,0,0-.312.656.7.7,0,0,0,.355.605,3.657,3.657,0,0,0,1.2.4,9.8,9.8,0,0,1,1.422.379A2.336,2.336,0,0,1,62.945-2.43a2.2,2.2,0,0,1-.992,1.871,4.28,4.28,0,0,1-2.562.715A4.47,4.47,0,0,1,57.5-.223a3.166,3.166,0,0,1-1.293-1.039,2.414,2.414,0,0,1-.469-1.426h2.141a1.179,1.179,0,0,0,.445.922,1.766,1.766,0,0,0,1.109.32,1.635,1.635,0,0,0,.98-.246A.766.766,0,0,0,60.75-2.336ZM75.992-4.148a5.07,5.07,0,0,1-.887,3.129A2.843,2.843,0,0,1,72.711.156a2.633,2.633,0,0,1-2.07-.891V3.25H68.383v-11.7h2.094l.078.828A2.654,2.654,0,0,1,72.7-8.609a2.862,2.862,0,0,1,2.43,1.156,5.207,5.207,0,0,1,.867,3.188Zm-2.258-.172a3.345,3.345,0,0,0-.418-1.826A1.36,1.36,0,0,0,72.1-6.789a1.478,1.478,0,0,0-1.461.815V-2.5a1.5,1.5,0,0,0,1.477.839Q73.734-1.664,73.734-4.321Zm8.406-2.015a6.134,6.134,0,0,0-.812-.062,1.654,1.654,0,0,0-1.68.867V0H77.391V-8.453h2.133l.063,1.008a2.092,2.092,0,0,1,1.883-1.164,2.366,2.366,0,0,1,.7.1ZM85.609,0H83.344V-8.453h2.266Zm-2.4-10.641a1.112,1.112,0,0,1,.34-.836,1.277,1.277,0,0,1,.926-.328,1.28,1.28,0,0,1,.922.328,1.105,1.105,0,0,1,.344.836,1.108,1.108,0,0,1-.348.844,1.283,1.283,0,0,1-.918.328,1.283,1.283,0,0,1-.918-.328A1.108,1.108,0,0,1,83.211-10.641Zm6.375,2.188.07.945a2.971,2.971,0,0,1,2.43-1.1A2.255,2.255,0,0,1,94.328-7.32a2.9,2.9,0,0,1,2.539-1.289,2.521,2.521,0,0,1,2.047.8,3.681,3.681,0,0,1,.672,2.41V0H97.32V-5.4a1.616,1.616,0,0,0-.281-1.053,1.245,1.245,0,0,0-.992-.333,1.409,1.409,0,0,0-1.406.971L94.648,0H92.391V-5.4A1.6,1.6,0,0,0,92.1-6.46a1.257,1.257,0,0,0-.984-.329,1.463,1.463,0,0,0-1.391.8V0H87.469V-8.453ZM106.219,0a2.507,2.507,0,0,1-.227-.758,2.732,2.732,0,0,1-2.133.914A3,3,0,0,1,101.8-.562a2.312,2.312,0,0,1-.816-1.812,2.389,2.389,0,0,1,1-2.062,4.915,4.915,0,0,1,2.879-.727H105.9v-.484a1.393,1.393,0,0,0-.3-.937,1.183,1.183,0,0,0-.949-.352,1.345,1.345,0,0,0-.895.273.929.929,0,0,0-.324.75h-2.258a2.268,2.268,0,0,1,.453-1.359,3,3,0,0,1,1.281-.98,4.669,4.669,0,0,1,1.859-.355,3.689,3.689,0,0,1,2.48.785,2.747,2.747,0,0,1,.918,2.207v3.664a4.041,4.041,0,0,0,.336,1.82V0Zm-1.867-1.57a1.945,1.945,0,0,0,.922-.223,1.462,1.462,0,0,0,.625-.6V-3.844h-.844q-1.7,0-1.8,1.172l-.008.133a.9.9,0,0,0,.3.7A1.153,1.153,0,0,0,104.352-1.57Zm10.125-.766a.727.727,0,0,0-.41-.652,4.659,4.659,0,0,0-1.316-.426q-3.016-.633-3.016-2.562a2.323,2.323,0,0,1,.934-1.879,3.766,3.766,0,0,1,2.441-.754,4.053,4.053,0,0,1,2.574.758,2.388,2.388,0,0,1,.965,1.969h-2.258a1.092,1.092,0,0,0-.312-.8A1.322,1.322,0,0,0,113.1-7a1.351,1.351,0,0,0-.883.258.814.814,0,0,0-.312.656.7.7,0,0,0,.355.605,3.657,3.657,0,0,0,1.2.4,9.8,9.8,0,0,1,1.422.379,2.336,2.336,0,0,1,1.789,2.273,2.2,2.2,0,0,1-.992,1.871,4.28,4.28,0,0,1-2.562.715,4.47,4.47,0,0,1-1.887-.379,3.166,3.166,0,0,1-1.293-1.039,2.414,2.414,0,0,1-.469-1.426h2.141a1.179,1.179,0,0,0,.445.922,1.766,1.766,0,0,0,1.109.32,1.635,1.635,0,0,0,.98-.246A.766.766,0,0,0,114.477-2.336Z" transform="translate(387.051 2085)" fill="#fff"/>
  </g>
  <g id="Grupo_1110790" data-name="Grupo 1110790" transform="translate(-214.051 -1705)">
    <rect id="Rectángulo_404460-2" data-name="Rectángulo 404460" width="185" height="34" transform="translate(374.051 2063)" fill="#456345"/>
    <path id="Trazado_910902" data-name="Trazado 910902" d="M9.945-3.789A4.025,4.025,0,0,1,8.59-.9,4.76,4.76,0,0,1,5.367.156,4.28,4.28,0,0,1,1.926-1.316,6.038,6.038,0,0,1,.672-5.359v-.7A6.819,6.819,0,0,1,1.25-8.945,4.332,4.332,0,0,1,2.9-10.863a4.629,4.629,0,0,1,2.5-.668A4.637,4.637,0,0,1,8.57-10.477,4.326,4.326,0,0,1,9.961-7.516H7.617A2.376,2.376,0,0,0,7-9.113a2.271,2.271,0,0,0-1.605-.5,1.991,1.991,0,0,0-1.754.84,4.707,4.707,0,0,0-.6,2.605V-5.3a5.038,5.038,0,0,0,.559,2.7,1.954,1.954,0,0,0,1.762.852,2.314,2.314,0,0,0,1.621-.5A2.241,2.241,0,0,0,7.6-3.789ZM10.984-4.3a5.013,5.013,0,0,1,.484-2.242A3.546,3.546,0,0,1,12.863-8.07a4.069,4.069,0,0,1,2.113-.539A3.849,3.849,0,0,1,17.77-7.562a4.2,4.2,0,0,1,1.207,2.844l.016.578A4.418,4.418,0,0,1,17.906-1.02,3.775,3.775,0,0,1,14.992.156a3.793,3.793,0,0,1-2.918-1.172A4.5,4.5,0,0,1,10.984-4.2Zm2.258.16A3.16,3.16,0,0,0,13.7-2.3a1.5,1.5,0,0,0,1.3.638,1.5,1.5,0,0,0,1.281-.63,3.457,3.457,0,0,0,.461-2.015,3.128,3.128,0,0,0-.461-1.831,1.5,1.5,0,0,0-1.3-.649,1.474,1.474,0,0,0-1.281.646A3.516,3.516,0,0,0,13.242-4.144ZM22.5-8.453l.07.945A2.971,2.971,0,0,1,25-8.609,2.255,2.255,0,0,1,27.242-7.32a2.9,2.9,0,0,1,2.539-1.289,2.521,2.521,0,0,1,2.047.8A3.681,3.681,0,0,1,32.5-5.4V0H30.234V-5.4a1.616,1.616,0,0,0-.281-1.053,1.245,1.245,0,0,0-.992-.333,1.409,1.409,0,0,0-1.406.971L27.563,0H25.3V-5.4a1.6,1.6,0,0,0-.289-1.065,1.257,1.257,0,0,0-.984-.329,1.463,1.463,0,0,0-1.391.8V0H20.383V-8.453Zm19.344,4.3a5.07,5.07,0,0,1-.887,3.129A2.843,2.843,0,0,1,38.563.156a2.633,2.633,0,0,1-2.07-.891V3.25H34.234v-11.7h2.094l.078.828a2.654,2.654,0,0,1,2.141-.984,2.862,2.862,0,0,1,2.43,1.156,5.207,5.207,0,0,1,.867,3.188Zm-2.258-.172a3.345,3.345,0,0,0-.418-1.826,1.36,1.36,0,0,0-1.215-.643,1.478,1.478,0,0,0-1.461.815V-2.5a1.5,1.5,0,0,0,1.477.839Q39.586-1.664,39.586-4.321ZM48.141,0a2.507,2.507,0,0,1-.227-.758,2.732,2.732,0,0,1-2.133.914,3,3,0,0,1-2.059-.719,2.312,2.312,0,0,1-.816-1.812,2.389,2.389,0,0,1,1-2.062,4.915,4.915,0,0,1,2.879-.727H47.82v-.484a1.393,1.393,0,0,0-.3-.937,1.183,1.183,0,0,0-.949-.352,1.345,1.345,0,0,0-.895.273.929.929,0,0,0-.324.75H43.094a2.268,2.268,0,0,1,.453-1.359,3,3,0,0,1,1.281-.98,4.669,4.669,0,0,1,1.859-.355,3.689,3.689,0,0,1,2.48.785,2.747,2.747,0,0,1,.918,2.207v3.664a4.041,4.041,0,0,0,.336,1.82V0ZM46.273-1.57a1.945,1.945,0,0,0,.922-.223,1.462,1.462,0,0,0,.625-.6V-3.844h-.844q-1.7,0-1.8,1.172l-.008.133a.9.9,0,0,0,.3.7A1.153,1.153,0,0,0,46.273-1.57Zm9.063-.094a1.481,1.481,0,0,0,1.016-.344,1.2,1.2,0,0,0,.406-.914h2.117a2.9,2.9,0,0,1-.469,1.574A3.093,3.093,0,0,1,57.145-.238a3.949,3.949,0,0,1-1.77.395A3.67,3.67,0,0,1,52.516-1,4.56,4.56,0,0,1,51.469-4.18v-.148a4.508,4.508,0,0,1,1.039-3.117,3.627,3.627,0,0,1,2.852-1.164,3.555,3.555,0,0,1,2.543.9,3.2,3.2,0,0,1,.973,2.4H56.758a1.551,1.551,0,0,0-.406-1.072,1.354,1.354,0,0,0-1.031-.412,1.36,1.36,0,0,0-1.191.575,3.333,3.333,0,0,0-.4,1.866v.235a3.375,3.375,0,0,0,.4,1.878A1.377,1.377,0,0,0,55.336-1.664Zm7.531-8.867v2.078h1.445V-6.8H62.867v4.219a1.007,1.007,0,0,0,.18.672.9.9,0,0,0,.688.2,3.6,3.6,0,0,0,.664-.055V-.047a4.648,4.648,0,0,1-1.367.2,2.156,2.156,0,0,1-2.422-2.4V-6.8H59.375V-8.453h1.234v-2.078ZM70.469,0a2.507,2.507,0,0,1-.227-.758,2.732,2.732,0,0,1-2.133.914,3,3,0,0,1-2.059-.719,2.312,2.312,0,0,1-.816-1.812,2.389,2.389,0,0,1,1-2.062,4.915,4.915,0,0,1,2.879-.727h1.039v-.484a1.393,1.393,0,0,0-.3-.937,1.183,1.183,0,0,0-.949-.352A1.345,1.345,0,0,0,68-6.664a.929.929,0,0,0-.324.75H65.422a2.268,2.268,0,0,1,.453-1.359,3,3,0,0,1,1.281-.98,4.669,4.669,0,0,1,1.859-.355,3.689,3.689,0,0,1,2.48.785,2.747,2.747,0,0,1,.918,2.207v3.664a4.041,4.041,0,0,0,.336,1.82V0ZM68.6-1.57a1.945,1.945,0,0,0,.922-.223,1.462,1.462,0,0,0,.625-.6V-3.844H69.3q-1.7,0-1.8,1.172l-.008.133a.9.9,0,0,0,.3.7A1.153,1.153,0,0,0,68.6-1.57Zm9.063-.094a1.481,1.481,0,0,0,1.016-.344,1.2,1.2,0,0,0,.406-.914H81.2a2.9,2.9,0,0,1-.469,1.574A3.093,3.093,0,0,1,79.473-.238,3.949,3.949,0,0,1,77.7.156,3.67,3.67,0,0,1,74.844-1,4.56,4.56,0,0,1,73.8-4.18v-.148a4.508,4.508,0,0,1,1.039-3.117,3.627,3.627,0,0,1,2.852-1.164,3.555,3.555,0,0,1,2.543.9A3.2,3.2,0,0,1,81.2-5.3H79.086a1.551,1.551,0,0,0-.406-1.072,1.354,1.354,0,0,0-1.031-.412,1.36,1.36,0,0,0-1.191.575,3.333,3.333,0,0,0-.4,1.866v.235a3.375,3.375,0,0,0,.4,1.878A1.377,1.377,0,0,0,77.664-1.664ZM84.875,0H82.609V-8.453h2.266Zm-2.4-10.641a1.112,1.112,0,0,1,.34-.836,1.277,1.277,0,0,1,.926-.328,1.28,1.28,0,0,1,.922.328,1.105,1.105,0,0,1,.344.836,1.108,1.108,0,0,1-.348.844,1.283,1.283,0,0,1-.918.328,1.283,1.283,0,0,1-.918-.328A1.108,1.108,0,0,1,82.477-10.641ZM86.383-4.3a5.013,5.013,0,0,1,.484-2.242A3.546,3.546,0,0,1,88.262-8.07a4.069,4.069,0,0,1,2.113-.539,3.849,3.849,0,0,1,2.793,1.047,4.2,4.2,0,0,1,1.207,2.844l.016.578A4.418,4.418,0,0,1,93.3-1.02,3.775,3.775,0,0,1,90.391.156a3.793,3.793,0,0,1-2.918-1.172A4.5,4.5,0,0,1,86.383-4.2Zm2.258.16A3.16,3.16,0,0,0,89.094-2.3a1.5,1.5,0,0,0,1.3.638,1.5,1.5,0,0,0,1.281-.63,3.457,3.457,0,0,0,.461-2.015,3.128,3.128,0,0,0-.461-1.831,1.5,1.5,0,0,0-1.3-.649,1.474,1.474,0,0,0-1.281.646A3.516,3.516,0,0,0,88.641-4.144ZM90.82-12h2.461L91.117-9.578H89.281Zm7.039,3.547.07.977a2.951,2.951,0,0,1,2.43-1.133,2.453,2.453,0,0,1,2,.789,3.682,3.682,0,0,1,.672,2.359V0h-2.258V-5.419a1.47,1.47,0,0,0-.312-1.045,1.4,1.4,0,0,0-1.039-.325,1.553,1.553,0,0,0-1.43.814V0H95.734V-8.453Zm12.984,0,.07.945a2.971,2.971,0,0,1,2.43-1.1,2.255,2.255,0,0,1,2.242,1.289,2.9,2.9,0,0,1,2.539-1.289,2.521,2.521,0,0,1,2.047.8,3.681,3.681,0,0,1,.672,2.41V0h-2.266V-5.4a1.616,1.616,0,0,0-.281-1.053,1.245,1.245,0,0,0-.992-.333,1.409,1.409,0,0,0-1.406.971L115.906,0h-2.258V-5.4a1.6,1.6,0,0,0-.289-1.065,1.257,1.257,0,0,0-.984-.329,1.463,1.463,0,0,0-1.391.8V0h-2.258V-8.453ZM127.477,0a2.507,2.507,0,0,1-.227-.758,2.732,2.732,0,0,1-2.133.914,3,3,0,0,1-2.059-.719,2.312,2.312,0,0,1-.816-1.812,2.389,2.389,0,0,1,1-2.062,4.915,4.915,0,0,1,2.879-.727h1.039v-.484a1.393,1.393,0,0,0-.3-.937,1.183,1.183,0,0,0-.949-.352,1.345,1.345,0,0,0-.895.273.929.929,0,0,0-.324.75H122.43a2.268,2.268,0,0,1,.453-1.359,3,3,0,0,1,1.281-.98,4.669,4.669,0,0,1,1.859-.355,3.689,3.689,0,0,1,2.48.785,2.747,2.747,0,0,1,.918,2.207v3.664a4.041,4.041,0,0,0,.336,1.82V0Zm-1.867-1.57a1.945,1.945,0,0,0,.922-.223,1.462,1.462,0,0,0,.625-.6V-3.844h-.844q-1.7,0-1.8,1.172l-.008.133a.9.9,0,0,0,.3.7A1.153,1.153,0,0,0,125.609-1.57Zm7.625-6.883.07.977a2.951,2.951,0,0,1,2.43-1.133,2.453,2.453,0,0,1,2,.789,3.682,3.682,0,0,1,.672,2.359V0h-2.258V-5.419a1.47,1.47,0,0,0-.312-1.045,1.4,1.4,0,0,0-1.039-.325,1.553,1.553,0,0,0-1.43.814V0h-2.258V-8.453ZM145.18-.859A2.831,2.831,0,0,1,142.867.156a2.67,2.67,0,0,1-2.074-.781,3.335,3.335,0,0,1-.73-2.289V-8.453h2.258v5.467q0,1.322,1.2,1.322a1.63,1.63,0,0,0,1.578-.8V-8.453h2.266V0h-2.125ZM153.969,0a2.507,2.507,0,0,1-.227-.758,2.732,2.732,0,0,1-2.133.914,3,3,0,0,1-2.059-.719,2.312,2.312,0,0,1-.816-1.812,2.389,2.389,0,0,1,1-2.062,4.915,4.915,0,0,1,2.879-.727h1.039v-.484a1.393,1.393,0,0,0-.3-.937,1.183,1.183,0,0,0-.949-.352,1.345,1.345,0,0,0-.895.273.929.929,0,0,0-.324.75h-2.258a2.268,2.268,0,0,1,.453-1.359,3,3,0,0,1,1.281-.98,4.669,4.669,0,0,1,1.859-.355,3.689,3.689,0,0,1,2.48.785,2.747,2.747,0,0,1,.918,2.207v3.664a4.041,4.041,0,0,0,.336,1.82V0ZM152.1-1.57a1.945,1.945,0,0,0,.922-.223,1.462,1.462,0,0,0,.625-.6V-3.844H152.8q-1.7,0-1.8,1.172l-.008.133a.9.9,0,0,0,.3.7A1.153,1.153,0,0,0,152.1-1.57ZM160.031,0h-2.266V-12h2.266Z" transform="translate(386.051 2085)" fill="#fff"/>
  </g>
</svg>
