<svg xmlns="http://www.w3.org/2000/svg" width="70" height="70" viewBox="0 0 70 70">
  <g id="Grupo_1110863" data-name="Grupo 1110863" transform="translate(-1179.051 -6998)">
    <circle id="Elipse_11655" data-name="Elipse 11655" cx="35" cy="35" r="35" transform="translate(1179.051 6998)" fill="#ff7c32"/>
    <path id="Trazado_910903" data-name="Trazado 910903" d="M13.2,12.816h1.863a1.937,1.937,0,0,0,2.215-2.168,1.875,1.875,0,0,0-.527-1.377,2,2,0,0,0-1.488-.533A2.141,2.141,0,0,0,13.9,9.2a1.394,1.394,0,0,0-.58,1.137H9.371a4.043,4.043,0,0,1,.75-2.4A4.953,4.953,0,0,1,12.2,6.283a7.112,7.112,0,0,1,2.924-.592,6.988,6.988,0,0,1,4.477,1.3,4.324,4.324,0,0,1,1.629,3.574,3.6,3.6,0,0,1-.674,2.08,4.8,4.8,0,0,1-1.963,1.588,4.587,4.587,0,0,1,2.133,1.494,3.935,3.935,0,0,1,.773,2.479,4.4,4.4,0,0,1-1.758,3.656,7.3,7.3,0,0,1-4.617,1.371,7.567,7.567,0,0,1-3.111-.639,4.875,4.875,0,0,1-2.174-1.77A4.6,4.6,0,0,1,9.1,18.254h3.973a1.778,1.778,0,0,0,.633,1.359,2.234,2.234,0,0,0,1.559.574,2.34,2.34,0,0,0,1.664-.58,1.939,1.939,0,0,0,.621-1.482,2.267,2.267,0,0,0-.645-1.828,2.694,2.694,0,0,0-1.781-.539H13.2Z" transform="translate(1199.051 7019)" fill="#12263f"/>
  </g>
</svg>
