<svg xmlns="http://www.w3.org/2000/svg" width="110" height="110" viewBox="0 0 110 110">
  <g id="Grupo_1110514" data-name="Grupo 1110514" transform="translate(-578.051 -1074)">
    <path id="Trazado_896605" data-name="Trazado 896605" d="M55,0A55,55,0,1,1,0,55,55,55,0,0,1,55,0Z" transform="translate(578.051 1074)" fill="#ff7c32" opacity="0.859"/>
    <g id="Grupo_1110530" data-name="Grupo 1110530" transform="translate(600.895 1096.827)">
      <g id="Grupo_1110517" data-name="Grupo 1110517" transform="translate(5.152 4.615)">
        <path id="Trazado_909891" data-name="Trazado 909891" d="M383.34,396.389l-3.587,2.512v1.377h10.5a1.991,1.991,0,0,0,1.884-2V385.267h-8.8Z" transform="translate(-337.221 -341.488)" fill="#fde31d"/>
        <path id="Trazado_909892" data-name="Trazado 909892" d="M56.715,340.532s-3.31-3.848-6.584-3.77c-2.391.014-4.9,1.012-4.9,4.7,8.24-3.044,7.855,3.921,11.489,3.921h.068c3.634,0,3.249-6.965,11.489-3.921,0-3.686-2.514-4.684-4.9-4.7-3.274-.077-6.584,3.77-6.584,3.77Z" transform="translate(-44.713 -299.075)" fill="#8ae897"/>
        <path id="Trazado_909893" data-name="Trazado 909893" d="M137.226,55.382c3.634,0,3.249-6.965,11.489-3.921,0-3.686-2.514-4.685-4.9-4.7-3.274-.077-6.584,3.77-6.584,3.77Z" transform="translate(-125.157 -45.503)" fill="#8ae897"/>
        <path id="Trazado_909894" data-name="Trazado 909894" d="M56.857,179.077c-3.422,0-3.306-6.965-11.545-3.921,0-3.686,2.461-4.73,4.852-4.744,3.274-.077,6.693,3.816,6.693,3.816Z" transform="translate(-44.789 -153.621)" fill="#8ae897"/>
        <path id="Trazado_909895" data-name="Trazado 909895" d="M137.226,233.218c1.872,0,2.56-5.105,8.6-2.874a4.1,4.1,0,0,0-3.875-4.249c-2.4-.057-4.724,2.69-4.724,2.69v4.433Z" transform="translate(-125.157 -202.309)" fill="#8ae897"/>
        <path id="Trazado_909896" data-name="Trazado 909896" d="M48.475,240.583c-2.207-2.207-5.868-4.638-7.03-3.477-.731.731-.037,2.455,1.128,4.181l5.975-.629Z" transform="translate(-41.146 -211.675)" fill="#fde31d"/>
        <path id="Trazado_909897" data-name="Trazado 909897" d="M52.514,268.107a19.972,19.972,0,0,0,2.349,2.848c2.207,2.207,3.8,1.679,4.517.964s1.229-2.273-.891-4.441Z" transform="translate(-51.086 -238.495)" fill="#8ae897"/>
        <path id="Trazado_909898" data-name="Trazado 909898" d="M179.1,115.836c-1.161-1.161-4.822,1.269-7.03,3.477q-.2.2-.378.4l6.222.388C179.117,118.348,179.846,116.58,179.1,115.836Z" transform="translate(-155.297 -105.638)" fill="#fde31d"/>
        <path id="Trazado_909899" data-name="Trazado 909899" d="M163.3,148.806c-1.763,2-1.256,3.444-.586,4.115.715.715,2.31,1.243,4.517-.964a20.022,20.022,0,0,0,2.29-2.763Z" transform="translate(-146.905 -134.729)" fill="#8ae897"/>
        <path id="Trazado_909900" data-name="Trazado 909900" d="M189.031,280.016c-.986-1.314-4.953.576-7.45,2.449-.105.079-.2.157-.3.235l5.875,1.478C188.646,282.579,189.676,280.876,189.031,280.016Z" transform="translate(-163.68 -249.075)" fill="#fde31d"/>
        <path id="Trazado_909901" data-name="Trazado 909901" d="M169.346,304.431c-2.171,1.776-1.875,3.326-1.294,4.1.607.808,2.111,1.557,4.608-.317a20.071,20.071,0,0,0,2.56-2.305Z" transform="translate(-151.744 -270.806)" fill="#8ae897"/>
        <path id="Trazado_909902" data-name="Trazado 909902" d="M76.826,102.218c-1.872,0-2.56-5.105-8.6-2.874A4.1,4.1,0,0,1,72.1,95.095c2.4-.057,4.724,2.69,4.724,2.69v4.433Z" transform="translate(-64.824 -87.764)" fill="#8ae897"/>
        <path id="Trazado_909903" data-name="Trazado 909903" d="M312.8,81.3l-.612.335a3.159,3.159,0,0,1-4.289-1.255l-1.67-3.053,5.553-3.018,3.16,5.78Z" transform="translate(-272.935 -69.591)" fill="#ffceb7"/>
        <path id="Trazado_909904" data-name="Trazado 909904" d="M297.125,41.155l-6.664,3.622-1.63-5.612,4.436-2.427Z" transform="translate(-257.719 -36.738)" fill="#e6cc9f"/>
        <path id="Trazado_909905" data-name="Trazado 909905" d="M360.729,117.592a4.4,4.4,0,1,0-7.725,4.2l2,3.841,8.029-4.364C361.748,119.1,360.729,117.592,360.729,117.592Z" transform="translate(-313.364 -105.427)" fill="#fff"/>
        <path id="Trazado_909906" data-name="Trazado 909906" d="M380.7,162.849l-8.029,4.364,4.481,8.592,0,14.982h8.8V175.8C385.948,172.331,382.923,166.594,380.7,162.849Z" transform="translate(-331.029 -147.008)" fill="#ff6a47"/>
        <g id="Grupo_1110516" data-name="Grupo 1110516" transform="translate(0.513 2.372)">
          <path id="Trazado_909907" data-name="Trazado 909907" d="M73.752,95.448a4,4,0,0,0-1.65-.354,4.1,4.1,0,0,0-3.875,4.249,7.515,7.515,0,0,1,3.172-.548A4.15,4.15,0,0,1,73.752,95.448Z" transform="translate(-65.338 -90.135)" fill="#54e072"/>
          <path id="Trazado_909908" data-name="Trazado 909908" d="M51.627,170.619a4.881,4.881,0,0,0-1.463-.206c-2.391.014-4.852,1.058-4.852,4.744a11.625,11.625,0,0,1,3.179-.75A4,4,0,0,1,51.627,170.619Z" transform="translate(-45.301 -155.993)" fill="#54e072"/>
          <path id="Trazado_909909" data-name="Trazado 909909" d="M51.579,336.963a4.871,4.871,0,0,0-1.449-.2c-2.391.013-4.9,1.012-4.9,4.7a11.581,11.581,0,0,1,3.18-.751A3.977,3.977,0,0,1,51.579,336.963Z" transform="translate(-45.226 -301.447)" fill="#54e072"/>
          <path id="Trazado_909910" data-name="Trazado 909910" d="M140.366,55.619a15.145,15.145,0,0,0-3.14,2.659v4.848c1.4,0,2.207-1.039,3.14-2.139Z" transform="translate(-125.67 -55.619)" fill="#54e072"/>
          <path id="Trazado_909911" data-name="Trazado 909911" d="M140.366,228.691a9.6,9.6,0,0,0-3.14,2.364v4.433c1.039,0,1.714-1.572,3.14-2.59Z" transform="translate(-125.67 -206.951)" fill="#54e072"/>
        </g>
        <path id="Trazado_909912" data-name="Trazado 909912" d="M383.34,396.389l-3.587,2.512v1.377h10.5a1.991,1.991,0,0,0,1.884-2V385.267h-8.8Z" transform="translate(-337.221 -341.488)" fill="#fde31d"/>
        <path id="Trazado_909913" data-name="Trazado 909913" d="M380.292,211.91l0-14.982-5.175-9.922-2.447,1.33,4.481,8.592,0,14.982Z" transform="translate(-331.03 -168.131)" fill="#fd3501"/>
        <path id="Trazado_909914" data-name="Trazado 909914" d="M355.516,120.831a4.4,4.4,0,0,1,.744-5.2A4.4,4.4,0,0,0,353,122.087l2,3.841,2.468-1.341Z" transform="translate(-313.364 -105.723)" fill="#e3e9ee"/>
        <path id="Trazado_909915" data-name="Trazado 909915" d="M310.42,91.456l-1.826-3.337L306.233,89.4l1.67,3.053a3.159,3.159,0,0,0,4.289,1.255l.575-.315A4.1,4.1,0,0,1,310.42,91.456Z" transform="translate(-272.935 -81.665)" fill="#ffaa81"/>
        <path id="Trazado_909916" data-name="Trazado 909916" d="M291.01,46.573l-2.178,1.192,1.63,5.612,3.017-1.64Z" transform="translate(-257.719 -45.338)" fill="#dfba7f"/>
        <path id="Trazado_909917" data-name="Trazado 909917" d="M233.06,208.71c-.01,2.095,2.91,3.146,4.681,2.34.471-.214,1.155-.512,1.935-.845l-2.124-3.389Z" transform="translate(-208.953 -185.453)" fill="#ffceb7"/>
        <path id="Trazado_909918" data-name="Trazado 909918" d="M283.905,139.046a1.9,1.9,0,0,0-2.68-.092l-5.571,5.2-6.823,2.876,2.124,3.389c2.74-1.17,6.661-2.78,6.661-2.78l6.2-5.915A1.9,1.9,0,0,0,283.905,139.046Z" transform="translate(-240.232 -125.669)" fill="#fff"/>
        <path id="Trazado_909919" data-name="Trazado 909919" d="M47.984,448.582s3.17-8.071,11.21-8.071c8.722,0,10.972,8.071,10.972,8.071Z" transform="translate(-47.125 -389.793)" fill="#e6cc9f"/>
        <path id="Trazado_909920" data-name="Trazado 909920" d="M60.821,440.61a13.117,13.117,0,0,0-1.627-.1c-8.04,0-11.21,8.071-11.21,8.071h3.14S53.894,441.531,60.821,440.61Z" transform="translate(-47.125 -389.792)" fill="#dfba7f"/>
        <path id="Trazado_909921" data-name="Trazado 909921" d="M140.367,345.619a15.146,15.146,0,0,0-3.14,2.659v4.848c1.4,0,2.207-1.039,3.14-2.139Z" transform="translate(-125.158 -306.821)" fill="#54e072"/>
      </g>
      <g id="Grupo_1110518" data-name="Grupo 1110518" transform="translate(14.275 58.928)">
        <path id="Trazado_909922" data-name="Trazado 909922" d="M113.782,469.138h1.884v1.884h-1.884Z" transform="translate(-113.782 -469.138)" fill="#fff"/>
        <path id="Trazado_909923" data-name="Trazado 909923" d="M143.782,469.138h1.884v1.884h-1.884Z" transform="translate(-140.014 -469.138)" fill="#fff"/>
      </g>
      <g id="Grupo_1110519" data-name="Grupo 1110519" transform="translate(0 0)">
        <path id="Trazado_909924" data-name="Trazado 909924" d="M257.8,86.3a2.96,2.96,0,0,0,.2-1.063V57.254a18.94,18.94,0,0,0-2.085-7.234L254.2,50.8a17.535,17.535,0,0,1,1.915,6.45v14.04h-1.891V59.019h-1.884V71.293H249.2l0-14.27-4.159-7.975,6.414-3.486c.634,1.094,1.308,2.315,1.94,3.571l1.683-.847a82.529,82.529,0,0,0-4.773-8.155,5.361,5.361,0,0,0-5.871-2.611l-2.169-3.966,5.021-2.729-.9-1.656-4.633,2.518-3.86-4.419-5.763,3.154,1.629,5.61-4.63,2.516.9,1.656,5.026-2.732c1.243,2.337,2.173,4.623,5.322,4.333a5.369,5.369,0,0,0-.066,1.278l-3.277,3.059L225.3,51.088c-.479,3.11,3.407,5.039,6.011,3.823,2.082-.947,8.5-3.584,8.564-3.611l.164-.067,2.681-2.559,4.595,8.81,0,25.382-3.588,2.512V86.3H231.433v1.884H261.3V86.3h-3.5ZM246.618,39.409a3.483,3.483,0,0,1,2.1,1.742c.014.02.76,1.126,1.773,2.79l-6.323,3.437-.029-.056L246.36,45.2a2.838,2.838,0,0,0-3.624-4.355,3.466,3.466,0,0,1,3.882-1.439Zm-9.146-9.762,2.587,2.962-.329.179-4.274,2.323-1.093-3.762Zm1.781,10.213a2.2,2.2,0,0,1-1.323-1.064l-1.217-2.224,3.9-2.118,2.086,3.815a5.306,5.306,0,0,0-1.23,1.121A2.633,2.633,0,0,1,239.253,39.859ZM230.534,53.2a2.752,2.752,0,0,1-3.212-.915L230.363,51l1.115,1.779C231.114,52.937,230.792,53.079,230.534,53.2ZM239,49.626c-.709.292-3.463,1.426-5.767,2.4l-1.109-1.77,5.957-2.511,5.694-5.316a.954.954,0,0,1,1.295,1.4ZM245.69,86.3l3.508-2.456V73.177h3.139V85.241A1.062,1.062,0,0,1,251.4,86.3Zm8.334,0a2.96,2.96,0,0,0,.2-1.063V73.177h1.891V85.241a1.062,1.062,0,0,1-.942,1.063Z" transform="translate(-196.984 -23.842)"/>
        <path id="Trazado_909925" data-name="Trazado 909925" d="M26.839,58.771A11.747,11.747,0,0,0,18.3,54.422V51.736c4.465-1.836,2.987-6.844,11.489-3.384.136-2.518-.284-4.909-2.338-6.111,1.946-1.609,5.493-5.132,3.943-7.252-2.049-2.732-8.7,2.211-8.769,2.261-2.45,1.838-2.709,3.758-2.123,5.07a13.617,13.617,0,0,0-2.2,1.531V36.23a5.4,5.4,0,0,0,1.437-1.272c1.852-2.2,3.33-2.527,7.162-.956V32.649c-.2-5.157-5.356-6.534-8.6-3.708V26.974l2.911-2.939c1.779.828,3.473.046,5.074-1.526,1.845-1.9,5.448-6.273,3.477-8.362-2.414-2.414-8.3,3.418-8.362,3.477-1.574,1.58-2.357,3.346-1.523,5.081L18.3,24.3V15.31c4.465-1.835,2.987-6.844,11.489-3.384V10.573C29.849,3.93,22.113,3.615,18.3,7.427c-.007-.608-.181-4.032,4.868-4.117V1.426A7.121,7.121,0,0,0,18.3,2.966V0H16.411V7.488a7.121,7.121,0,0,0-4.868-1.54V7.832C16.738,8,16.4,11.2,16.411,12.538c-3.277-2.877-8.436-1.567-8.667,3.656,0,0,0,1.352,0,1.352,3.837-1.574,5.313-1.237,7.162.956a5.158,5.158,0,0,0,1.5,1.308v3.211c-1.421-1.19-3.581-2.606-5.765-2.557-4.314-.007-6.138,2.947-5.781,7.038,8.461-3.446,7.227,1.473,11.545,3.375v8.665L14.8,37.934c.831-1.737.049-3.5-1.524-5.078-.059-.059-5.947-5.891-8.362-3.477C2.947,31.469,6.55,35.844,8.4,37.741c1.6,1.573,3.3,2.357,5.077,1.525l2.939,2.943v1.7C12.568,40.061,4.833,40.277,4.855,47v1.352c8.572-3.491,7.021,1.645,11.556,3.4v2.672c-4.778.234-8.992,4-10.876,8.035H.133v1.884H32.7V62.461H29a13.818,13.818,0,0,0-2.156-3.69Zm1.421-43.32c.59-.19-.238,1.813-.9,2.751l-3.408-.359C24.99,16.927,27.288,15.412,28.26,15.451Zm-6.836,5.724a3.031,3.031,0,0,1,.767-1.622l3.866.407c-.936,1.148-2.3,2.495-3.327,2.521a1.178,1.178,0,0,1-1.305-1.306ZM6.249,30.713c.979-.208,3.179,1.3,4.242,2.169l-3.3.348c-.077-.124-.151-.246-.22-.367-.823-1.435-.775-2.063-.72-2.15Zm5.7,7c-1.1-.027-2.558-1.552-3.493-2.722l3.864-.407c.934,1.1,1.251,2.068.594,2.789a1.2,1.2,0,0,1-.965.34Zm17.587-1.655a.656.656,0,0,1,.347.061c.045.1,0,.726-1.013,2.03-.133.17-.276.343-.427.517l-3.323-.836A11.045,11.045,0,0,1,29.534,36.058Zm-6.4,3.216,3.768.948c-1.258,1.175-3.55,2.884-4.558,1.553C21.849,41.111,22.148,40.2,23.136,39.274ZM21.83,43.755a3.978,3.978,0,0,0,3.825-.266,2.922,2.922,0,0,1,2.091,2.172c-5.967-1.478-6.848,1.791-9.451,4.023V46.438A12.98,12.98,0,0,1,21.83,43.755Zm.225-14.413a3.068,3.068,0,0,1,2.72,1.981c-3.664-.77-5.363,1.172-6.479,2.415V31.453C19.029,30.683,20.64,29.311,22.055,29.342ZM23.841,6.816c2.648-.039,3.673,1.289,3.924,2.424C21.782,7.75,20.9,11.022,18.3,13.258V10.008c1.018-1.086,3.431-3.192,5.546-3.192Zm-7.53,10.431c-1.085-1.213-2.818-3.15-6.446-2.378,1.668-3.47,4.875-1.663,6.547.2v2.289ZM15.2,27.545c-1.477-1.72-3.453-4.023-8.293-2.733.407-1.652,1.764-2.484,3.853-2.464,2.123,0,4.605,2.141,5.655,3.242v3.2A8.252,8.252,0,0,1,15.2,27.545ZM15,48.337c-1.428-1.691-3.34-3.955-8.129-2.671.25-1.134,1.276-2.463,3.924-2.424,2.163,0,4.639,2.2,5.613,3.264v3.222A6.554,6.554,0,0,1,15,48.337ZM9.477,59.95a10.393,10.393,0,0,1,17.469,2.512H7.668A14.815,14.815,0,0,1,9.477,59.95Z" transform="translate(-0.133 0)"/>
      </g>
    </g>
  </g>
</svg>
