<svg xmlns="http://www.w3.org/2000/svg" width="85" height="85" viewBox="0 0 85 85">
  <g id="Grupo_1110782" data-name="Grupo 1110782" transform="translate(-1335.051 -3954)">
    <rect id="Rectángulo_403801" data-name="Rectángulo 403801" width="85" height="85" transform="translate(1335.051 3954)" fill="#f5c87f"/>
    <g id="_013---Ricotta" data-name="013---Ricotta" transform="translate(1350.766 3969.718)">
      <g id="Icons" transform="translate(0.893 1.446)">
        <path id="Shape" d="M51.779,42.032a5.7,5.7,0,0,1-1.794,3.919c-3.767,3.982-13.132,6.794-24.1,6.794C11.588,52.745,0,47.951,0,42.032,6.778,6.193,5.552,12.669,6.249,9c0,2.268,3.107,4.642,8.329,6.089a41.35,41.35,0,0,0,9.776,1.375A44.96,44.96,0,0,0,37.844,14.9c4.83-1.464,7.687-3.732,7.687-5.9Z" transform="translate(0 -1.519)" fill="#cc6328"/>
        <path id="Shape-2" data-name="Shape" d="M48.461,9A4.381,4.381,0,0,1,46.4,12.239l5.637,29.793a5.7,5.7,0,0,1-1.794,3.919c-3.63,3.839-12.463,6.58-22.909,6.775.494.012.991.019,1.492.019,10.963,0,20.328-2.812,24.1-6.794a5.7,5.7,0,0,0,1.794-3.919Z" transform="translate(-2.931 -1.519)" fill="#994b1e"/>
        <path id="Shape-3" data-name="Shape" d="M46.281,8.092c0,2.962-4.832,5.045-7.687,5.91a46.374,46.374,0,0,1-22.8.312c-.1,0-.13-.125-.464-.125C12.3,13.352,7,11.22,7,8.092,7.009,4.628,14.3.915,25.3.638,25.739.629,26.185.62,26.64.62,38.38.62,46.272,4.486,46.281,8.092Z" transform="translate(-0.751 -0.62)" fill="#cc6328"/>
        <path id="Shape-4" data-name="Shape" d="M28.822.62c-.351,0-.738,0-1.486.024C38.408.9,45.775,4.611,45.784,8.092c0,2.962-4.832,5.045-7.687,5.91a41.329,41.329,0,0,1-10.636,1.561A43.578,43.578,0,0,0,40.775,14c2.857-.865,7.687-2.946,7.687-5.91C48.453,4.486,40.561.62,28.822.62Z" transform="translate(-2.932 -0.62)" fill="#994b1e"/>
      </g>
      <g id="Layer_10" transform="translate(0)">
        <path id="Shape-5" data-name="Shape" d="M47.309,8.809C47.167,3.86,38.21,0,26.782,0S6.4,3.86,6.255,8.809L.016,41.793A.865.865,0,0,0,0,41.959c0,6.508,11.765,11.606,26.782,11.606s26.782-5.1,26.782-11.606c0-.132.387,1.964-6.255-33.15ZM5.061,24.729q.782.464,1.671.893l-1.356,6.33a.893.893,0,1,0,1.746.373L8.4,26.359a36.749,36.749,0,0,0,4.732,1.518l-1.616,10.19c-3.65-1.136-6.509-2.678-8.148-4.384Zm9.909-8.457-1.557,9.834A34.371,34.371,0,0,1,8.78,24.588L9.8,19.825a.893.893,0,1,0-1.746-.373l-.936,4.37a18.252,18.252,0,0,1-1.7-.975L7.47,12.015c1.435,1.749,4.075,3.226,7.5,4.258ZM25.89,17.845v9.82a56.1,56.1,0,0,1-10.733-1.151l1.551-9.774A42.957,42.957,0,0,0,25.89,17.845Zm11.74-1.3,1.553,9.8a55.293,55.293,0,0,1-11.507,1.321v-9.82A42.123,42.123,0,0,0,37.629,16.546ZM46.1,12.015l2.053,10.833a26.289,26.289,0,0,1-7.226,3.059l-1.57-9.875A14.765,14.765,0,0,0,46.1,12.015ZM14.877,28.282A58.182,58.182,0,0,0,25.89,29.448V40.161a53.708,53.708,0,0,1-12.645-1.6Zm12.8,1.166a57.381,57.381,0,0,0,11.784-1.339l1.624,10.236a52.761,52.761,0,0,1-13.408,1.814Zm-1.785,12.5V51.77a52.251,52.251,0,0,1-14.406-2.112l1.48-9.324A55.811,55.811,0,0,0,25.89,41.945Zm1.785,0a54.821,54.821,0,0,0,13.693-1.824l1.474,9.291A51.314,51.314,0,0,1,27.675,51.77ZM41.2,27.675a29.719,29.719,0,0,0,7.3-2.946l1.7,8.952a18.708,18.708,0,0,1-7.387,4.133ZM26.782,1.785C38,1.785,45.53,5.479,45.53,8.927S38,16.069,26.782,16.069a38.007,38.007,0,0,1-10.726-1.317c-5.023-1.382-8.021-3.65-8.021-5.825C8.035,5.479,15.568,1.785,26.782,1.785Zm-25,40.253,1.189-6.285a23.426,23.426,0,0,0,8.191,4.078c.1.029.192-.777-1.4,9.245C4.934,47.289,1.844,44.777,1.785,42.039Zm42.763,6.748L43.094,39.6a22.659,22.659,0,0,0,7.5-3.849l1.186,6.285c-.056,2.593-2.83,4.984-7.231,6.748Z" transform="translate(0)"/>
        <path id="Shape-6" data-name="Shape" d="M11.9,10.249h13l-3.774,2.329a.893.893,0,0,0,.47,1.652c.366,0,.089.1,5.472-3.221v2.81a.893.893,0,0,0,1.785,0V11.008c5.348,3.3,5.118,3.232,5.481,3.232a.893.893,0,0,0,.47-1.652l-3.783-2.339h13a.893.893,0,1,0,0-1.785H31.2L34.94,6.152A.893.893,0,1,0,34,4.635L28.856,7.809V4.893a.893.893,0,0,0-1.785,0V7.806L21.925,4.625a.893.893,0,1,0-.91,1.537l3.725,2.3H11.9a.893.893,0,1,0,0,1.785Z" transform="translate(-1.181 -0.429)"/>
      </g>
    </g>
  </g>
</svg>
