<svg id="XMLID_1031_" xmlns="http://www.w3.org/2000/svg" width="60.949" height="60.949" viewBox="0 0 60.949 60.949">
  <g id="XMLID_971_">
    <g id="XMLID_977_">
      <path id="XMLID_1030_" d="M54.446,11.659h1.883a1.19,1.19,0,1,0,0-2.379H51.809a1.19,1.19,0,0,0-1.19,1.19V14.99a1.19,1.19,0,1,0,2.379,0V13.681a28.1,28.1,0,1,1-22.524-11.3,28.519,28.519,0,0,1,3.428.207A1.19,1.19,0,1,0,34.189.224,30.907,30.907,0,0,0,30.475,0,30.475,30.475,0,0,0,8.926,52.023a30.474,30.474,0,0,0,45.52-40.365Z" fill="#456345"/>
      <path id="XMLID_1029_" d="M70.329,75.391a1.19,1.19,0,0,0-1.642.369,22.716,22.716,0,1,0,7.11-7.1,1.19,1.19,0,0,0,1.269,2.013,20.345,20.345,0,1,1-3.551,31.608A20.474,20.474,0,0,1,70.7,77.032,1.19,1.19,0,0,0,70.329,75.391Z" transform="translate(-57.425 -57.426)" fill="#456345"/>
      <path id="XMLID_1028_" d="M377.359,248.709h1.467a1.19,1.19,0,1,0,0-2.379h-1.467a1.19,1.19,0,1,0,0,2.379Z" transform="translate(-331.419 -217.026)" fill="#456345"/>
      <path id="XMLID_1004_" d="M103.835,247.2a1.19,1.19,0,0,0,1.19,1.19h1.467a1.19,1.19,0,0,0,0-2.379h-1.467A1.19,1.19,0,0,0,103.835,247.2Z" transform="translate(-91.482 -216.74)" fill="#456345"/>
      <path id="XMLID_1001_" d="M248.709,106.492v-1.467a1.19,1.19,0,1,0-2.379,0v1.467a1.19,1.19,0,0,0,2.379,0Z" transform="translate(-217.026 -91.482)" fill="#456345"/>
      <path id="XMLID_1415_" d="M246.006,377.359v1.467a1.19,1.19,0,1,0,2.379,0v-1.467a1.19,1.19,0,1,0-2.379,0Z" transform="translate(-216.74 -331.419)" fill="#456345"/>
      <path id="XMLID_996_" d="M191,158.933a1.19,1.19,0,0,0-1.682,1.682l4.032,4.032a4.1,4.1,0,1,0,7.227,0l8.135-8.135a1.19,1.19,0,0,0-1.682-1.682l-8.135,8.135a4.09,4.09,0,0,0-3.862,0Zm7.682,7.645a1.719,1.719,0,1,1-1.719-1.719A1.721,1.721,0,0,1,198.685,166.578Z" transform="translate(-166.491 -136.103)" fill="#456345"/>
      <path id="XMLID_980_" d="M120.209,120.209a1.189,1.189,0,1,0-.841.349A1.195,1.195,0,0,0,120.209,120.209Z" transform="translate(-104.119 -104.119)" fill="#456345"/>
      <path id="XMLID_979_" d="M316.628,12.257a1.19,1.19,0,1,0-.841-.349A1.194,1.194,0,0,0,316.628,12.257Z" transform="translate(-277.912 -8.703)" fill="#456345"/>
    </g>
  </g>
</svg>
