<svg xmlns="http://www.w3.org/2000/svg" width="40" height="39.999" viewBox="0 0 40 39.999">
  <g id="Grupo_1110557" data-name="Grupo 1110557" transform="translate(0 -0.002)">
    <g id="Grupo_1110553" data-name="Grupo 1110553" transform="translate(0.586 0.587)">
      <path id="Trazado_909973" data-name="Trazado 909973" d="M56.261,15.606a8.354,8.354,0,0,0-5.907-2.969.211.211,0,0,1-.194-.211.215.215,0,0,1,.113-.187,3.44,3.44,0,0,0,1.408-1.431.645.645,0,0,0-.471-.93c-4.544-.741-7.049.543-7.934,1.146a.312.312,0,0,1-.478-.182,5.024,5.024,0,0,0-2.153-3.254.648.648,0,0,0-.657,0,5.024,5.024,0,0,0-2.153,3.254.312.312,0,0,1-.478.182c-.884-.6-3.39-1.887-7.934-1.146a.645.645,0,0,0-.471.93,3.44,3.44,0,0,0,1.408,1.431.215.215,0,0,1,.112.187.211.211,0,0,1-.194.211,8.354,8.354,0,0,0-5.907,2.969,1.3,1.3,0,0,0,.334,1.953c.641.375,1.53.891,2.651,1.533a5.178,5.178,0,0,1,2.605,4.493V41.149a2.588,2.588,0,0,0,2.589,2.589v.391H48.658l5.13-3.944V18.8c.883-.507,1.6-.923,2.139-1.24a1.3,1.3,0,0,0,.334-1.953Z" transform="translate(-22.772 -7.498)" fill="#ffba59"/>
      <path id="Trazado_909974" data-name="Trazado 909974" d="M176.412,117.027a3.093,3.093,0,0,0-3.056,2.614q-.413-.025-.829-.025h-.035a13.294,13.294,0,0,0-5.227,1.077,13.557,13.557,0,0,0-7.139,7.186,13.446,13.446,0,0,0-.268,9.7,3.092,3.092,0,0,0,1.669,5.695,3.1,3.1,0,0,0,1.382-.327l.329-.164a13.451,13.451,0,0,0,3.305,2.32h5.984l5.13-3.944V119.77q.908-.522,1.576-.911a3.1,3.1,0,0,0-2.821-1.833Z" transform="translate(-146.642 -108.47)" fill="#f0a046"/>
      <g id="Grupo_1110550" data-name="Grupo 1110550" transform="translate(24.921 2.156)">
        <path id="Trazado_909975" data-name="Trazado 909975" d="M335.058,41.044a8.354,8.354,0,0,0-5.907-2.969.211.211,0,0,1-.194-.211.215.215,0,0,1,.112-.187,3.441,3.441,0,0,0,1.408-1.431.645.645,0,0,0-.471-.93,15.482,15.482,0,0,0-3.516-.194,17.245,17.245,0,0,1,1.719.194.645.645,0,0,1,.471.93,3.441,3.441,0,0,1-1.408,1.431.215.215,0,0,0-.112.187.211.211,0,0,0,.194.211,8.354,8.354,0,0,1,5.907,2.969A1.3,1.3,0,0,1,332.926,43c-.54.316-1.257.733-2.139,1.24V66.613l1.8-1.381v-21c.883-.507,1.6-.923,2.139-1.24A1.3,1.3,0,0,0,335.058,41.044Z" transform="translate(-326.49 -35.092)" fill="#f0a046"/>
      </g>
      <path id="Trazado_909976" data-name="Trazado 909976" d="M92.063,259.881,90.552,256H84.26a1.294,1.294,0,0,0-1.294,1.294v5.177a1.294,1.294,0,0,0,1.294,1.294h5.5Z" transform="translate(-77.07 -236.584)" fill="#dc8758"/>
      <g id="Grupo_1110551" data-name="Grupo 1110551" transform="translate(12.44 19.414)">
        <path id="Trazado_909977" data-name="Trazado 909977" d="M167.779,256a13.3,13.3,0,0,0-1.042,5.229,13.524,13.524,0,0,0,.247,2.537h1.838l.932-7.766Z" transform="translate(-166.737 -255.998)" fill="#d17658"/>
      </g>
      <g id="Grupo_1110552" data-name="Grupo 1110552" transform="translate(13.59 10.354)">
        <path id="Trazado_909978" data-name="Trazado 909978" d="M203.034,161.493a.323.323,0,0,1,.055-.272,11.648,11.648,0,0,0-1.659-15.709.161.161,0,0,1,.075-.279l.224-.045a1.318,1.318,0,0,0,1.062-1.468,1.294,1.294,0,0,0-1.534-1.077l-1.649.33a.324.324,0,0,1-.381-.254l-.33-1.649a1.294,1.294,0,1,0-2.538.508l.231,1.154a.161.161,0,0,1-.194.189,11.653,11.653,0,0,0-13.075,16.547.162.162,0,0,1-.072.217l-1.084.542a1.294,1.294,0,1,0,1.158,2.315l1.41-.705a.161.161,0,0,1,.194.039,11.647,11.647,0,0,0,15.81,1.706.1.1,0,0,1,.165.058,1.293,1.293,0,0,0,1.564.943,1.328,1.328,0,0,0,.938-1.607Z" transform="translate(-181.449 -140.029)" fill="#ffd15b"/>
        <path id="Trazado_909979" data-name="Trazado 909979" d="M416.953,192.038a.323.323,0,0,1,.055-.272,11.648,11.648,0,0,0-1.659-15.709.161.161,0,0,1,.075-.279l.224-.045a1.318,1.318,0,0,0,1.062-1.468,1.294,1.294,0,0,0-1.534-1.077l-.86.172a1.289,1.289,0,0,1,.6.905,1.318,1.318,0,0,1-1.062,1.468l-.224.045a.161.161,0,0,0-.075.279,11.648,11.648,0,0,1,1.659,15.709.323.323,0,0,0-.055.272l.371,1.483a1.354,1.354,0,0,1-.355,1.274,1.289,1.289,0,0,0,1.213.333,1.328,1.328,0,0,0,.938-1.607Z" transform="translate(-395.368 -170.573)" fill="#ffba59"/>
      </g>
      <path id="Trazado_909980" data-name="Trazado 909980" d="M45.681,471.365H8.147a.647.647,0,0,0-.647.647v1.294a.647.647,0,0,0,.647.647H45.681a.647.647,0,0,0,.647-.647v-1.294A.647.647,0,0,0,45.681,471.365Z" transform="translate(-7.5 -435.125)" fill="#b3e59f"/>
      <path id="Trazado_909981" data-name="Trazado 909981" d="M475.014,471.365h-1.8a.647.647,0,0,1,.647.647v1.294a.647.647,0,0,1-.647.647h1.8a.647.647,0,0,0,.647-.647v-1.294A.647.647,0,0,0,475.014,471.365Z" transform="translate(-436.833 -435.125)" fill="#8cd19d"/>
    </g>
    <g id="Grupo_1110554" data-name="Grupo 1110554" transform="translate(0 0.002)">
      <path id="Trazado_909982" data-name="Trazado 909982" d="M38.767,36.241H31.7a12.228,12.228,0,0,0,1.631-.935,1.88,1.88,0,0,0,2,.758,1.845,1.845,0,0,0,1.144-.851,1.947,1.947,0,0,0,.224-1.467l-.341-1.363a12.233,12.233,0,0,0-1.271-15.89,1.877,1.877,0,0,0-1.22-3.513l-1.392.278-.215-1.075c.624-.359,1.22-.705,1.775-1.03a1.882,1.882,0,0,0,.487-2.836,8.846,8.846,0,0,0-5.346-3.055,3.992,3.992,0,0,0,.837-1.1,1.231,1.231,0,0,0-.9-1.779c-4.284-.7-6.861.336-8.04,1.037A5.418,5.418,0,0,0,18.756.172a1.237,1.237,0,0,0-1.252,0,5.418,5.418,0,0,0-2.323,3.253c-1.179-.7-3.756-1.735-8.04-1.037a1.231,1.231,0,0,0-.9,1.779,3.991,3.991,0,0,0,.837,1.1A9.481,9.481,0,0,0,5.447,5.7a.586.586,0,1,0,.4,1.1,9.844,9.844,0,0,1,5.635-.191.586.586,0,0,0,.346-1.12,10.536,10.536,0,0,0-2.67-.38A3,3,0,0,1,7.286,3.627a.05.05,0,0,1,0-.05.056.056,0,0,1,.043-.033c5.424-.885,7.784,1.257,7.8,1.276a.586.586,0,0,0,.981-.307A4.7,4.7,0,0,1,18.1,1.182a.063.063,0,0,1,.065,0,4.7,4.7,0,0,1,1.982,3.332.584.584,0,0,0,.978.31c.023-.022,2.384-2.164,7.807-1.279a.056.056,0,0,1,.043.033.05.05,0,0,1,0,.05A3,3,0,0,1,27.093,5.11a10.551,10.551,0,0,0-2.665.379.586.586,0,0,0,.346,1.12A9.972,9.972,0,0,1,27.948,6.3a7.737,7.737,0,0,1,5.679,2.775.713.713,0,0,1,.157.581.7.7,0,0,1-.339.489c-.506.3-1.046.609-1.61.935A1.88,1.88,0,0,0,28.511,12.6l.105.527a12.327,12.327,0,0,0-2.177-.188,12.145,12.145,0,0,0-8.636,3.62,12.356,12.356,0,0,0-2.119,2.851h-.78v-4a5.776,5.776,0,0,0-2.9-5,.586.586,0,1,0-.582,1.017,4.6,4.6,0,0,1,2.31,3.985v4H8.362V16.674a5.776,5.776,0,0,0-2.9-5c-.947-.542-1.838-1.057-2.646-1.53a.7.7,0,0,1-.339-.489.713.713,0,0,1,.158-.581A7.972,7.972,0,0,1,3.65,8.061a.586.586,0,1,0-.747-.9,9.148,9.148,0,0,0-1.165,1.16,1.882,1.882,0,0,0,.487,2.836c.811.475,1.7.991,2.656,1.536a4.6,4.6,0,0,1,2.31,3.985V19.51A1.883,1.883,0,0,0,5.9,21.3v5.177A1.883,1.883,0,0,0,7.19,28.259v5.979a3.159,3.159,0,0,0,.714,2H1.233A1.234,1.234,0,0,0,0,37.474v1.294A1.234,1.234,0,0,0,1.233,40H4.97a.586.586,0,0,0,0-1.172H1.233a.061.061,0,0,1-.061-.061V37.474a.061.061,0,0,1,.061-.061H38.767a.061.061,0,0,1,.061.061v1.294a.061.061,0,0,1-.061.061H7.7A.586.586,0,1,0,7.7,40H38.767A1.234,1.234,0,0,0,40,38.768V37.474a1.234,1.234,0,0,0-1.233-1.233ZM18.634,17.391a10.981,10.981,0,0,1,7.808-3.274h.029a11.119,11.119,0,0,1,2.518.288.747.747,0,0,0,.9-.875l-.231-1.154a.708.708,0,1,1,1.389-.278l.33,1.649a.91.91,0,0,0,1.07.714l1.649-.33a.709.709,0,0,1,.839.59.735.735,0,0,1-.6.806l-.224.045a.747.747,0,0,0-.347,1.294,11.062,11.062,0,0,1,1.576,14.918.906.906,0,0,0-.154.764l.371,1.483a.767.767,0,0,1-.09.578.681.681,0,0,1-.419.318.714.714,0,0,1-.17.021.707.707,0,0,1-.686-.537.69.69,0,0,0-1.085-.384A11.061,11.061,0,0,1,18.1,32.406a.746.746,0,0,0-.9-.18l-1.41.705a.708.708,0,1,1-.634-1.267l1.084-.542a.749.749,0,0,0,.333-1,11.04,11.04,0,0,1,2.064-12.728ZM7.068,23.176h5.885a.586.586,0,1,0,0-1.172H7.068V21.3a.709.709,0,0,1,.708-.708h7.356a12.119,12.119,0,0,0-.881,4.005H12.989a.586.586,0,1,0,0,1.172h1.262a12.258,12.258,0,0,0,.147,1.417H7.776a.709.709,0,0,1-.708-.708ZM8.362,34.238V28.353h6.29a12.122,12.122,0,0,0,.687,1.907l-.71.355a1.88,1.88,0,0,0,.842,3.562,1.888,1.888,0,0,0,.84-.2l1.119-.559a12.242,12.242,0,0,0,3.817,2.822H10.365a2,2,0,0,1-2-2Z" transform="translate(0 -0.002)"/>
      <path id="Trazado_909983" data-name="Trazado 909983" d="M301.378,287.979a3.178,3.178,0,0,0,3.174-3.175.586.586,0,0,0-1.172,0,2,2,0,1,1-2-2,.586.586,0,0,0,0-1.172,3.175,3.175,0,0,0,0,6.349Z" transform="translate(-274.907 -259.628)"/>
      <path id="Trazado_909984" data-name="Trazado 909984" d="M247.924,239.058a7.7,7.7,0,1,0,0-15.409.586.586,0,0,0,0,1.172,6.533,6.533,0,1,1-6.533,6.533.586.586,0,0,0-1.172,0A7.713,7.713,0,0,0,247.924,239.058Z" transform="translate(-221.453 -206.177)"/>
    </g>
  </g>
</svg>
