<svg xmlns="http://www.w3.org/2000/svg" width="190" height="85" viewBox="0 0 190 85">
  <g id="Grupo_1110556" data-name="Grupo 1110556" transform="translate(-75.051 -8748)">
    <rect id="Rectángulo_404271" data-name="Rectángulo 404271" width="190" height="85" rx="14" transform="translate(75.051 8748)" fill="#b4c0b4"/>
    <path id="Trazado_896169" data-name="Trazado 896169" d="M126.41,9.948l-20.4,11.663L85.041,9.625,64.066,21.611,43.1,9.626,22.113,21.612,1.692,9.948A1.125,1.125,0,1,0,.567,11.9L22.113,24.2,43.1,12.217,64.066,24.2,85.041,12.218,106.01,24.2,127.536,11.9a1.12,1.12,0,0,0,.416-1.534A1.133,1.133,0,0,0,126.41,9.948Zm-104.3,4.63L43.1,2.592,64.066,14.579,85.041,2.593,106.01,14.579,127.536,2.271a1.12,1.12,0,0,0,.416-1.534A1.134,1.134,0,0,0,126.41.323l-20.4,11.663L85.041,0,64.066,11.986,43.1,0,22.113,11.987,1.692.323A1.125,1.125,0,1,0,.567,2.271Z" transform="translate(88.925 8769.88)" fill="#51452f" fill-rule="evenodd"/>
    <g id="Grupo_1110660" data-name="Grupo 1110660" transform="translate(138.371 8756.336)">
      <path id="Trazado_910181" data-name="Trazado 910181" d="M42.941,74.012H21.286a5.9,5.9,0,0,1-5.057,5.84,7.257,7.257,0,0,0-6.22,7.183v34.027a5.9,5.9,0,0,0,5.9,5.9H48.318a5.9,5.9,0,0,0,5.9-5.9V87.034A7.257,7.257,0,0,0,48,79.852a5.9,5.9,0,0,1-5.057-5.84Z" transform="translate(-8.763 -64.855)" fill="#fff"/>
      <path id="Trazado_910182" data-name="Trazado 910182" d="M10.01,202.606H54.218v28.433H10.01Z" transform="translate(-8.763 -177.54)" fill="#dbea82"/>
      <path id="Trazado_910183" data-name="Trazado 910183" d="M104.905,17.919H80.248a1.239,1.239,0,0,1-1.239-1.239V11.239A1.239,1.239,0,0,1,80.248,10h24.658a1.239,1.239,0,0,1,1.239,1.239v5.442A1.239,1.239,0,0,1,104.905,17.919Z" transform="translate(-69.226 -8.763)" fill="#dbea82"/>
      <g id="Grupo_1110660-2" data-name="Grupo 1110660" transform="translate(37.41 31.113)">
        <path id="Trazado_910184" data-name="Trazado 910184" d="M413.619,422.42a3.836,3.836,0,0,1,0-5.425l3.4-3.4a3.836,3.836,0,0,1,5.425,5.425l-3.4,3.4A3.836,3.836,0,0,1,413.619,422.42Z" transform="translate(-398.864 -392.553)" fill="#f5d996"/>
        <path id="Trazado_910185" data-name="Trazado 910185" d="M413.619,261.439a3.836,3.836,0,0,1,0-5.425l3.4-3.4a3.836,3.836,0,0,1,5.425,5.425l-3.4,3.4A3.836,3.836,0,0,1,413.619,261.439Z" transform="translate(-398.864 -251.488)" fill="#f5d996"/>
        <path id="Trazado_910186" data-name="Trazado 910186" d="M303.435,342.62a3.836,3.836,0,0,1,5.425,0l3.4,3.4a3.836,3.836,0,0,1-5.425,5.425l-3.4-3.4A3.836,3.836,0,0,1,303.435,342.62Z" transform="translate(-302.312 -330.361)" fill="#f5d996"/>
      </g>
      <path id="XMLID_493_" d="M196.939,282.711a7.812,7.812,0,0,1-7.906,2.035,8.027,8.027,0,0,1,9.941-9.941,7.812,7.812,0,0,1-2.035,7.906Z" transform="translate(-165.324 -240.493)" fill="#b8e5a8"/>
      <g id="Grupo_1110662" data-name="Grupo 1110662" transform="translate(0.01 0)">
        <path id="XMLID_412_" d="M102.889,274.805a8.027,8.027,0,0,1,9.941,9.941,8.027,8.027,0,0,1-9.941-9.941Z" transform="translate(-89.847 -240.493)" fill="#b8e5a8"/>
        <g id="Grupo_1110661" data-name="Grupo 1110661">
          <circle id="Elipse_11674" data-name="Elipse 11674" cx="1.237" cy="1.237" r="1.237" transform="translate(22.104 23.829)"/>
          <path id="Trazado_910187" data-name="Trazado 910187" d="M414.559,403.955a5.073,5.073,0,0,0-7.174,0l-3.4,3.4a5.073,5.073,0,0,0,7.174,7.174l3.4-3.4A5.079,5.079,0,0,0,414.559,403.955Zm-1.75,5.425-3.4,3.4a2.6,2.6,0,0,1-3.675-3.675l3.4-3.4a2.6,2.6,0,1,1,3.675,3.675Z" transform="translate(-352.702 -352.677)"/>
          <path id="Trazado_910188" data-name="Trazado 910188" d="M407.569,255.034a5.058,5.058,0,0,0,3.587-1.483l3.4-3.4a5.073,5.073,0,0,0-7.174-7.174l-3.4,3.4a5.071,5.071,0,0,0,3.587,8.658Zm-1.837-6.908,3.4-3.4a2.6,2.6,0,1,1,3.675,3.675l-3.4,3.4a2.6,2.6,0,0,1-3.675-3.675Z" transform="translate(-352.702 -211.612)"/>
          <path id="Trazado_910189" data-name="Trazado 910189" d="M46.692,44.357V22.179a8.494,8.494,0,0,0-7.28-8.407,4.693,4.693,0,0,1-3.827-3.378h.095a2.479,2.479,0,0,0,2.476-2.476V2.476A2.479,2.479,0,0,0,35.68,0H11.022A2.479,2.479,0,0,0,8.546,2.476V7.918a2.479,2.479,0,0,0,2.476,2.476h.095A4.693,4.693,0,0,1,7.29,13.772,8.495,8.495,0,0,0,.01,22.179V56.206a7.145,7.145,0,0,0,7.137,7.137H39.555a7.145,7.145,0,0,0,7.137-7.137V54.132A5.074,5.074,0,0,0,48.235,45.9ZM24.827,7.919H21.875V2.475h2.953ZM27.3,2.475h2.953V7.919H27.3ZM19.4,7.918H16.448V2.475H19.4ZM35.681,2.476V7.919H32.729V2.476ZM11.021,7.918V2.474h2.951V7.918Zm-3.377,8.3a7.184,7.184,0,0,0,6.008-5.827h19.4a7.183,7.183,0,0,0,6.008,5.827,6.051,6.051,0,0,1,5.159,5.958v1.65h-15.3a1.237,1.237,0,0,0,0,2.474h15.3v15.67a5.073,5.073,0,0,0-6.559,7.7l2.59,2.59H2.484V26.3h15.3a1.237,1.237,0,1,0,0-2.474H2.484v-1.65a6.051,6.051,0,0,1,5.159-5.958ZM39.555,60.869H7.147a4.668,4.668,0,0,1-4.663-4.663V54.736H44.218v1.469a4.668,4.668,0,0,1-4.663,4.663Zm6.931-9.544a2.6,2.6,0,0,1-3.675,0l-3.4-3.4a2.6,2.6,0,0,1,3.675-3.675l3.4,3.4a2.6,2.6,0,0,1,0,3.675Z" transform="translate(-0.01 0)"/>
          <path id="Trazado_910190" data-name="Trazado 910190" d="M93.763,264.892a1.237,1.237,0,0,0-.787.786,9.094,9.094,0,0,0,2.335,9.169,9.327,9.327,0,0,0,6.543,2.753,8.365,8.365,0,0,0,2.582-.4l.013,0,.013,0a8.365,8.365,0,0,0,2.582.4,9.328,9.328,0,0,0,6.543-2.753,9.1,9.1,0,0,0,2.335-9.169,1.237,1.237,0,0,0-.787-.786,9.1,9.1,0,0,0-9.169,2.335,9.481,9.481,0,0,0-1.519,1.986,9.485,9.485,0,0,0-1.519-1.986,9.1,9.1,0,0,0-9.168-2.335Zm13.956,4.085a6.687,6.687,0,0,1,6.023-1.9,6.686,6.686,0,0,1-1.9,6.023,6.869,6.869,0,0,1-4.388,2.017l2.445-2.445a1.237,1.237,0,0,0-1.75-1.75l-2.444,2.444A6.87,6.87,0,0,1,107.718,268.977Zm-4.52,4.387-2.444-2.444A1.237,1.237,0,1,0,99,272.67l2.444,2.444a6.869,6.869,0,0,1-4.388-2.017,6.687,6.687,0,0,1-1.9-6.023,6.688,6.688,0,0,1,6.023,1.9,6.87,6.87,0,0,1,2.017,4.387Z" transform="translate(-81.109 -231.755)"/>
        </g>
      </g>
    </g>
  </g>
</svg>
