<svg xmlns="http://www.w3.org/2000/svg" xmlns:xlink="http://www.w3.org/1999/xlink" width="98" height="98" viewBox="0 0 98 98">
  <defs>
    <filter id="Elipse_11666" x="0" y="0" width="98" height="98" filterUnits="userSpaceOnUse">
      <feOffset input="SourceAlpha"/>
      <feGaussianBlur stdDeviation="3" result="blur"/>
      <feFlood flood-opacity="0.161"/>
      <feComposite operator="in" in2="blur"/>
      <feComposite in="SourceGraphic"/>
    </filter>
  </defs>
  <g id="Grupo_1110581" data-name="Grupo 1110581" transform="translate(-646.051 -10459)">
    <g transform="matrix(1, 0, 0, 1, 646.05, 10459)" filter="url(#Elipse_11666)">
      <circle id="Elipse_11666-2" data-name="Elipse 11666" cx="40" cy="40" r="40" transform="translate(9 9)" fill="#fff"/>
    </g>
    <g id="Grupo_1110583" data-name="Grupo 1110583" transform="translate(672.142 10485.791)">
      <path id="Trazado_910021" data-name="Trazado 910021" d="M29.289,15.6a3.57,3.57,0,0,0-5.516,0l-1.616,1.966a2.143,2.143,0,0,1-1.623.781l-2.545.038A3.571,3.571,0,0,0,14.551,22.7l.529,2.489a2.142,2.142,0,0,1-.4,1.756l-1.557,2.013a3.571,3.571,0,0,0,1.227,5.377l2.276,1.139a2.142,2.142,0,0,1,1.123,1.408l.6,2.472a3.57,3.57,0,0,0,4.969,2.393l2.309-1.07a2.142,2.142,0,0,1,1.8,0l2.309,1.07a3.57,3.57,0,0,0,4.969-2.393l.6-2.472a2.142,2.142,0,0,1,1.123-1.408l2.276-1.139a3.571,3.571,0,0,0,1.227-5.377l-1.557-2.013a2.142,2.142,0,0,1-.4-1.756l.529-2.489a3.571,3.571,0,0,0-3.439-4.312l-2.545-.038a2.142,2.142,0,0,1-1.622-.781Z" transform="translate(-2.767 -3.516)" fill="#81c785"/>
      <path id="Trazado_910022" data-name="Trazado 910022" d="M40.841,33a2.142,2.142,0,1,0,2.142,2.142A2.142,2.142,0,0,0,40.841,33Z" transform="translate(-10.292 -8.863)" fill="#3d82c4"/>
      <path id="Trazado_910023" data-name="Trazado 910023" d="M56.841,27a2.142,2.142,0,1,0,2.142,2.142A2.142,2.142,0,0,0,56.841,27Z" transform="translate(-14.867 -7.147)" fill="#81c785"/>
      <path id="Trazado_910024" data-name="Trazado 910024" d="M7.841,24a2.142,2.142,0,1,0,2.142,2.142A2.142,2.142,0,0,0,7.841,24Z" transform="translate(-0.858 -6.29)" fill="#81c785"/>
      <path id="Trazado_910025" data-name="Trazado 910025" d="M31.841,56a2.142,2.142,0,1,0,2.142,2.142A2.142,2.142,0,0,0,31.841,56Z" transform="translate(-7.719 -15.438)" fill="#81c785"/>
      <path id="Trazado_910026" data-name="Trazado 910026" d="M21.841,10a2.142,2.142,0,1,0,2.142,2.142A2.142,2.142,0,0,0,21.841,10Z" transform="translate(-4.86 -2.287)" fill="#81c785"/>
      <path id="Trazado_910027" data-name="Trazado 910027" d="M7.841,6A2.142,2.142,0,1,0,9.983,8.142,2.142,2.142,0,0,0,7.841,6Z" transform="translate(-0.858 -1.144)" fill="#81c785"/>
      <path id="Trazado_910028" data-name="Trazado 910028" d="M27.269,25a3.571,3.571,0,1,0,3.571,3.571A3.571,3.571,0,0,0,27.269,25Z" transform="translate(-6.004 -6.576)" fill="#3d82c4"/>
      <path id="Trazado_910029" data-name="Trazado 910029" d="M56.269,2A3.571,3.571,0,1,0,59.84,5.571,3.571,3.571,0,0,0,56.269,2Z" transform="translate(-14.295)" fill="#81c785"/>
      <path id="Trazado_910030" data-name="Trazado 910030" d="M28.555,39a2.856,2.856,0,1,0,2.856,2.856A2.856,2.856,0,0,0,28.555,39Z" transform="translate(-6.576 -10.578)" fill="#3d82c4"/>
      <path id="Trazado_910031" data-name="Trazado 910031" d="M5.555,54a2.856,2.856,0,1,0,2.856,2.856A2.856,2.856,0,0,0,5.555,54Z" transform="translate(0 -14.867)" fill="#81c785"/>
      <path id="Trazado_910032" data-name="Trazado 910032" d="M42.555,7a2.856,2.856,0,1,0,2.856,2.856A2.856,2.856,0,0,0,42.555,7Z" transform="translate(-10.578 -1.429)" fill="#81c785"/>
      <path id="Trazado_910033" data-name="Trazado 910033" d="M51.555,52a2.856,2.856,0,1,0,2.856,2.856A2.856,2.856,0,0,0,51.555,52Z" transform="translate(-13.151 -14.295)" fill="#81c785"/>
      <g id="Grupo_1110582" data-name="Grupo 1110582" transform="translate(2.699 2)">
        <path id="Trazado_910034" data-name="Trazado 910034" d="M56.269,2A3.571,3.571,0,1,0,59.84,5.571,3.571,3.571,0,0,0,56.269,2ZM54.127,5.571a2.142,2.142,0,1,1,2.142,2.142A2.142,2.142,0,0,1,54.127,5.571Z" transform="translate(-16.994 -2)" fill-rule="evenodd"/>
        <path id="Trazado_910035" data-name="Trazado 910035" d="M7.841,6A2.142,2.142,0,1,0,9.983,8.142,2.142,2.142,0,0,0,7.841,6ZM7.127,8.142a.714.714,0,1,1,.714.714A.714.714,0,0,1,7.127,8.142Z" transform="translate(-3.556 -3.144)" fill-rule="evenodd"/>
        <path id="Trazado_910036" data-name="Trazado 910036" d="M19.7,12.142a2.142,2.142,0,1,1,2.142,2.142A2.142,2.142,0,0,1,19.7,12.142Zm2.142-.714a.714.714,0,1,0,.714.714A.714.714,0,0,0,21.841,11.428Z" transform="translate(-7.559 -4.287)" fill-rule="evenodd"/>
        <path id="Trazado_910037" data-name="Trazado 910037" d="M38.7,35.142a2.142,2.142,0,1,1,2.142,2.142A2.142,2.142,0,0,1,38.7,35.142Zm2.142-.714a.714.714,0,1,0,.714.714A.714.714,0,0,0,40.841,34.428Z" transform="translate(-12.991 -10.863)" fill-rule="evenodd"/>
        <path id="Trazado_910038" data-name="Trazado 910038" d="M23.7,28.571a3.571,3.571,0,1,1,3.571,3.571A3.571,3.571,0,0,1,23.7,28.571Zm3.571-2.142a2.142,2.142,0,1,0,2.142,2.142A2.142,2.142,0,0,0,27.269,26.428Z" transform="translate(-8.703 -8.576)" fill-rule="evenodd"/>
        <path id="Trazado_910039" data-name="Trazado 910039" d="M25.7,41.856a2.856,2.856,0,1,1,2.856,2.856A2.856,2.856,0,0,1,25.7,41.856Zm2.856-1.428a1.428,1.428,0,1,0,1.428,1.428A1.428,1.428,0,0,0,28.555,40.428Z" transform="translate(-9.274 -12.578)" fill-rule="evenodd"/>
        <path id="Trazado_910040" data-name="Trazado 910040" d="M23.774,15.6a3.57,3.57,0,0,1,5.516,0l1.616,1.966a2.143,2.143,0,0,0,1.622.781l2.545.038A3.571,3.571,0,0,1,38.512,22.7l-.529,2.489a2.142,2.142,0,0,0,.4,1.756l1.557,2.013a3.571,3.571,0,0,1-1.227,5.377l-2.276,1.139a2.142,2.142,0,0,0-1.123,1.408l-.6,2.472a3.57,3.57,0,0,1-4.969,2.393l-2.309-1.07a2.142,2.142,0,0,0-1.8,0l-2.309,1.07a3.571,3.571,0,0,1-4.969-2.393l-.6-2.472a2.142,2.142,0,0,0-1.123-1.408L14.35,34.333a3.571,3.571,0,0,1-1.227-5.377l1.557-2.013a2.142,2.142,0,0,0,.4-1.756L14.551,22.7a3.571,3.571,0,0,1,3.439-4.312l2.545-.038a2.142,2.142,0,0,0,1.622-.781Zm4.412.907a2.142,2.142,0,0,0-3.309,0L23.26,18.473a3.57,3.57,0,0,1-2.7,1.3l-2.545.038A2.142,2.142,0,0,0,15.948,22.4l.529,2.489a3.571,3.571,0,0,1-.668,2.926L14.253,29.83a2.142,2.142,0,0,0,.736,3.226l2.276,1.139a3.571,3.571,0,0,1,1.871,2.346l.6,2.472a2.142,2.142,0,0,0,2.982,1.436l2.309-1.07a3.571,3.571,0,0,1,3,0l2.309,1.07a2.142,2.142,0,0,0,2.982-1.436l.6-2.472A3.571,3.571,0,0,1,35.8,34.194l2.276-1.139a2.142,2.142,0,0,0,.736-3.226l-1.557-2.013a3.571,3.571,0,0,1-.668-2.926l.529-2.489a2.142,2.142,0,0,0-2.063-2.587l-2.545-.038a3.57,3.57,0,0,1-2.7-1.3Z" transform="translate(-5.466 -5.516)" fill-rule="evenodd"/>
        <path id="Trazado_910041" data-name="Trazado 910041" d="M56.841,27a2.142,2.142,0,1,0,2.142,2.142A2.142,2.142,0,0,0,56.841,27Zm-.714,2.142a.714.714,0,1,1,.714.714A.714.714,0,0,1,56.127,29.142Z" transform="translate(-17.565 -9.147)" fill-rule="evenodd"/>
        <path id="Trazado_910042" data-name="Trazado 910042" d="M5.7,26.142a2.142,2.142,0,1,1,2.142,2.142A2.142,2.142,0,0,1,5.7,26.142Zm2.142-.714a.714.714,0,1,0,.714.714A.714.714,0,0,0,7.841,25.428Z" transform="translate(-3.556 -8.29)" fill-rule="evenodd"/>
        <path id="Trazado_910043" data-name="Trazado 910043" d="M31.841,56a2.142,2.142,0,1,0,2.142,2.142A2.142,2.142,0,0,0,31.841,56Zm-.714,2.142a.714.714,0,1,1,.714.714A.714.714,0,0,1,31.127,58.142Z" transform="translate(-10.418 -17.438)" fill-rule="evenodd"/>
        <path id="Trazado_910044" data-name="Trazado 910044" d="M5.555,54a2.856,2.856,0,1,0,2.856,2.856A2.856,2.856,0,0,0,5.555,54ZM4.127,56.856a1.428,1.428,0,1,1,1.428,1.428A1.428,1.428,0,0,1,4.127,56.856Z" transform="translate(-2.699 -16.867)" fill-rule="evenodd"/>
        <path id="Trazado_910045" data-name="Trazado 910045" d="M39.7,9.856a2.856,2.856,0,1,1,2.856,2.856A2.856,2.856,0,0,1,39.7,9.856Zm2.856-1.428a1.428,1.428,0,1,0,1.428,1.428A1.428,1.428,0,0,0,42.555,8.428Z" transform="translate(-13.277 -3.429)" fill-rule="evenodd"/>
        <path id="Trazado_910046" data-name="Trazado 910046" d="M51.555,52a2.856,2.856,0,1,0,2.856,2.856A2.856,2.856,0,0,0,51.555,52Zm-1.428,2.856a1.428,1.428,0,1,1,1.428,1.428A1.428,1.428,0,0,1,50.127,54.856Z" transform="translate(-15.85 -16.295)" fill-rule="evenodd"/>
      </g>
    </g>
    <g id="Grupo_1110587" data-name="Grupo 1110587" transform="translate(669.415 10485.364)">
      <g id="Grupo_1110584" data-name="Grupo 1110584" transform="translate(0.369 0.369)">
        <path id="Trazado_910047" data-name="Trazado 910047" d="M19.743,7.5A12.245,12.245,0,1,0,31.987,19.743,12.245,12.245,0,0,0,19.743,7.5ZM11.972,24.567q-.184-.3-.347-.609A9.082,9.082,0,0,1,10.6,20.029a9.15,9.15,0,0,1,13.359-8.405q.312.162.609.348a.164.164,0,0,1,.03.255L12.228,24.6A.165.165,0,0,1,11.972,24.567Zm7.771,4.322a9.1,9.1,0,0,1-4.215-1.028c-.208-.108-.412-.224-.61-.347a.164.164,0,0,1-.031-.256L27.259,14.887a.164.164,0,0,1,.256.031c.123.2.239.4.347.61a9.149,9.149,0,0,1-8.119,13.362Z" transform="translate(-7.498 -7.498)" fill="#e94444"/>
      </g>
      <g id="Grupo_1110585" data-name="Grupo 1110585" transform="translate(4.771 2.569)">
        <path id="Trazado_910048" data-name="Trazado 910048" d="M111.7,52.156A12.245,12.245,0,0,1,96.854,71.6,12.245,12.245,0,1,0,111.7,52.156Z" transform="translate(-96.854 -52.156)" fill="#d83131"/>
      </g>
      <g id="Grupo_1110586" data-name="Grupo 1110586" transform="translate(0)">
        <path id="Trazado_910049" data-name="Trazado 910049" d="M21.533,3.695A12.614,12.614,0,0,0,3.695,21.533a12.633,12.633,0,0,0,12.682,3.124.369.369,0,0,0-.22-.705,11.878,11.878,0,1,1,1.558-.611.369.369,0,0,0,.318.667,12.617,12.617,0,0,0,3.5-20.314Z" transform="translate(0)"/>
        <path id="Trazado_910050" data-name="Trazado 910050" d="M77.679,65.028a.532.532,0,0,0-.249-.393c-.205-.128-.418-.249-.634-.362a9.579,9.579,0,0,0-11.179,1.8,9.49,9.49,0,0,0-1.654,11.033c.111.214.233.428.361.634a.532.532,0,0,0,.393.249.541.541,0,0,0,.062,0,.53.53,0,0,0,.376-.156l12.37-12.37a.53.53,0,0,0,.153-.438Zm-12.86,12.1c-.07-.12-.136-.241-.2-.363a8.751,8.751,0,0,1,1.526-10.176,8.841,8.841,0,0,1,2.947-2,8.644,8.644,0,0,1,1.729-.507,8.822,8.822,0,0,1,5.634.843c.122.064.243.131.363.2Z" transform="translate(-59.795 -60.106)"/>
        <path id="Trazado_910051" data-name="Trazado 910051" d="M149.289,162.392c.2.127.418.249.635.361a9.518,9.518,0,0,0,13.9-8.447,9.415,9.415,0,0,0-1.069-4.386c-.113-.217-.234-.43-.361-.635a.534.534,0,0,0-.831-.1l-4.366,4.367a.369.369,0,1,0,.522.522L161.9,149.9c.069.119.136.241.2.364a8.683,8.683,0,0,1,.986,4.045,8.779,8.779,0,0,1-12.822,7.791c-.123-.064-.245-.131-.364-.2l6.589-6.589a.369.369,0,0,0-.522-.522l-6.775,6.775a.534.534,0,0,0,.1.831Z" transform="translate(-141.696 -141.693)"/>
      </g>
    </g>
  </g>
</svg>
