<svg xmlns="http://www.w3.org/2000/svg" width="85" height="85" viewBox="0 0 85 85">
  <g id="Grupo_1110556" data-name="Grupo 1110556" transform="translate(-180.051 -8748)">
    <rect id="Rectángulo_404271" data-name="Rectángulo 404271" width="85" height="85" rx="14" transform="translate(180.051 8748)" fill="#fbe9cc"/>
    <g id="Grupo_1110555" data-name="Grupo 1110555" transform="translate(193.361 8761.309)">
      <g id="Grupo_1110553" data-name="Grupo 1110553" transform="translate(0.855 0.857)">
        <path id="Trazado_909973" data-name="Trazado 909973" d="M71.054,19.331A12.192,12.192,0,0,0,62.433,15a.309.309,0,0,1-.283-.309.314.314,0,0,1,.164-.273,5.021,5.021,0,0,0,2.055-2.088.942.942,0,0,0-.688-1.357c-6.632-1.081-10.288.793-11.579,1.673a.455.455,0,0,1-.7-.265,7.332,7.332,0,0,0-3.142-4.749.946.946,0,0,0-.959,0,7.332,7.332,0,0,0-3.142,4.749.455.455,0,0,1-.7.265c-1.291-.88-4.947-2.754-11.579-1.673a.942.942,0,0,0-.688,1.357,5.021,5.021,0,0,0,2.055,2.089.314.314,0,0,1,.164.273.309.309,0,0,1-.283.309,12.192,12.192,0,0,0-8.621,4.333A1.891,1.891,0,0,0,25,22.182c.936.548,2.233,1.3,3.869,2.237a7.557,7.557,0,0,1,3.8,6.558V56.611a3.778,3.778,0,0,0,3.778,3.778v.57H59.957L67.443,55.2V23.991c1.288-.74,2.334-1.348,3.122-1.809a1.891,1.891,0,0,0,.488-2.851Z" transform="translate(-22.178 -7.498)" fill="#ffba59"/>
        <path id="Trazado_909974" data-name="Trazado 909974" d="M184.672,117.027a4.514,4.514,0,0,0-4.46,3.815q-.6-.037-1.209-.037h-.051a19.4,19.4,0,0,0-7.628,1.572,19.786,19.786,0,0,0-10.42,10.487,19.625,19.625,0,0,0-.391,14.154,4.512,4.512,0,0,0,2.435,8.311,4.531,4.531,0,0,0,2.016-.477l.48-.24A19.631,19.631,0,0,0,170.269,158H179l7.487-5.756V121.031q1.325-.761,2.3-1.329a4.525,4.525,0,0,0-4.117-2.675Z" transform="translate(-141.224 -104.538)" fill="#f0a046"/>
        <g id="Grupo_1110550" data-name="Grupo 1110550" transform="translate(36.372 3.146)">
          <path id="Trazado_909975" data-name="Trazado 909975" d="M338.994,43.779a12.192,12.192,0,0,0-8.621-4.333.309.309,0,0,1-.283-.309.314.314,0,0,1,.164-.273,5.021,5.021,0,0,0,2.055-2.088.942.942,0,0,0-.688-1.357,22.6,22.6,0,0,0-5.132-.284,25.167,25.167,0,0,1,2.509.284.942.942,0,0,1,.688,1.357,5.021,5.021,0,0,1-2.055,2.088.313.313,0,0,0-.164.273.309.309,0,0,0,.283.309,12.192,12.192,0,0,1,8.621,4.333,1.891,1.891,0,0,1-.488,2.851c-.789.462-1.834,1.069-3.122,1.809V81.1l2.622-2.016V48.439c1.288-.74,2.334-1.348,3.122-1.809a1.891,1.891,0,0,0,.488-2.851Z" transform="translate(-326.49 -35.092)" fill="#f0a046"/>
        </g>
        <path id="Trazado_909976" data-name="Trazado 909976" d="M96.242,261.665,94.038,256H84.855a1.889,1.889,0,0,0-1.889,1.889v7.556a1.889,1.889,0,0,0,1.889,1.889h8.024Z" transform="translate(-74.361 -227.664)" fill="#dc8758"/>
        <g id="Grupo_1110551" data-name="Grupo 1110551" transform="translate(18.156 28.334)">
          <path id="Trazado_909977" data-name="Trazado 909977" d="M168.257,256a19.4,19.4,0,0,0-1.52,7.631,19.736,19.736,0,0,0,.361,3.7h2.683L171.142,256Z" transform="translate(-166.737 -255.998)" fill="#d17658"/>
        </g>
        <g id="Grupo_1110552" data-name="Grupo 1110552" transform="translate(19.834 15.111)">
          <path id="Trazado_909978" data-name="Trazado 909978" d="M212.951,171.355a.472.472,0,0,1,.081-.4,17,17,0,0,0-2.422-22.926.235.235,0,0,1,.11-.408l.327-.065a1.924,1.924,0,0,0,1.55-2.143,1.889,1.889,0,0,0-2.239-1.572l-2.407.481a.472.472,0,0,1-.556-.37l-.481-2.407a1.889,1.889,0,1,0-3.7.741l.337,1.685a.235.235,0,0,1-.283.276A17.008,17.008,0,0,0,184.18,168.4a.236.236,0,0,1-.1.317l-1.582.791a1.889,1.889,0,1,0,1.69,3.379l2.058-1.029a.235.235,0,0,1,.284.057A17,17,0,0,0,209.6,174.4a.152.152,0,0,1,.24.084,1.887,1.887,0,0,0,2.283,1.376,1.939,1.939,0,0,0,1.369-2.345Z" transform="translate(-181.449 -140.029)" fill="#ffd15b"/>
          <path id="Trazado_909979" data-name="Trazado 909979" d="M418.541,200.71a.472.472,0,0,1,.081-.4,17,17,0,0,0-2.422-22.926.235.235,0,0,1,.11-.408l.327-.065a1.924,1.924,0,0,0,1.55-2.143,1.889,1.889,0,0,0-2.239-1.572l-1.255.251a1.882,1.882,0,0,1,.871,1.321,1.924,1.924,0,0,1-1.55,2.143l-.327.065a.235.235,0,0,0-.11.408A17,17,0,0,1,416,200.314a.472.472,0,0,0-.081.4l.541,2.165a1.977,1.977,0,0,1-.518,1.859,1.881,1.881,0,0,0,1.771.486,1.939,1.939,0,0,0,1.369-2.345Z" transform="translate(-387.039 -169.384)" fill="#ffba59"/>
        </g>
        <path id="Trazado_909980" data-name="Trazado 909980" d="M63.224,471.365H8.444a.944.944,0,0,0-.944.944V474.2a.944.944,0,0,0,.944.944h54.78a.944.944,0,0,0,.944-.944v-1.889A.944.944,0,0,0,63.224,471.365Z" transform="translate(-7.5 -418.474)" fill="#b3e59f"/>
        <path id="Trazado_909981" data-name="Trazado 909981" d="M475.84,471.365h-2.622a.944.944,0,0,1,.944.944V474.2a.944.944,0,0,1-.944.944h2.622a.944.944,0,0,0,.944-.944v-1.889A.944.944,0,0,0,475.84,471.365Z" transform="translate(-420.115 -418.474)" fill="#8cd19d"/>
      </g>
      <g id="Grupo_1110554" data-name="Grupo 1110554" transform="translate(0 0.002)">
        <path id="Trazado_909982" data-name="Trazado 909982" d="M56.579,52.892H46.273a17.846,17.846,0,0,0,2.381-1.364,2.744,2.744,0,0,0,2.914,1.106,2.693,2.693,0,0,0,1.669-1.242,2.841,2.841,0,0,0,.326-2.141l-.5-1.989A17.854,17.854,0,0,0,51.21,24.072a2.739,2.739,0,0,0-1.78-5.127L47.4,19.35l-.314-1.569c.91-.524,1.78-1.029,2.59-1.5a2.746,2.746,0,0,0,.71-4.139,12.91,12.91,0,0,0-7.8-4.459,5.827,5.827,0,0,0,1.222-1.6,1.8,1.8,0,0,0-1.307-2.6C36.245,2.465,32.484,3.975,30.764,5A7.908,7.908,0,0,0,27.374.25a1.8,1.8,0,0,0-1.827,0A7.907,7.907,0,0,0,22.157,5c-1.72-1.023-5.482-2.533-11.734-1.513a1.8,1.8,0,0,0-1.307,2.6,5.825,5.825,0,0,0,1.221,1.6,13.838,13.838,0,0,0-2.388.636.855.855,0,1,0,.59,1.606,14.368,14.368,0,0,1,8.225-.278.855.855,0,0,0,.506-1.634,15.376,15.376,0,0,0-3.9-.555,4.375,4.375,0,0,1-2.737-2.161.073.073,0,0,1,0-.073.082.082,0,0,1,.063-.048C18.615,3.882,22.06,7.008,22.089,7.035a.855.855,0,0,0,1.432-.448c.647-3.236,2.238-4.478,2.892-4.863a.092.092,0,0,1,.094,0c.654.384,2.245,1.627,2.892,4.863a.853.853,0,0,0,1.428.452c.034-.032,3.479-3.158,11.395-1.867a.082.082,0,0,1,.063.048.073.073,0,0,1,0,.073,4.378,4.378,0,0,1-2.745,2.164,15.4,15.4,0,0,0-3.89.553.855.855,0,0,0,.506,1.634,14.553,14.553,0,0,1,4.632-.453,11.292,11.292,0,0,1,8.288,4.049,1.04,1.04,0,0,1,.23.848,1.016,1.016,0,0,1-.495.714c-.739.432-1.526.889-2.35,1.364A2.743,2.743,0,0,0,41.611,18.4l.154.77a17.991,17.991,0,0,0-3.178-.274,17.725,17.725,0,0,0-12.6,5.284,18.033,18.033,0,0,0-3.092,4.161H21.754V22.5a8.43,8.43,0,0,0-4.233-7.3.855.855,0,1,0-.85,1.484A6.716,6.716,0,0,1,20.043,22.5v5.838H12.2v-4a8.43,8.43,0,0,0-4.233-7.3C6.589,16.244,5.29,15.492,4.11,14.8a1.015,1.015,0,0,1-.5-.714,1.04,1.04,0,0,1,.23-.848,11.635,11.635,0,0,1,1.482-1.475.855.855,0,1,0-1.091-1.318,13.351,13.351,0,0,0-1.7,1.692,2.746,2.746,0,0,0,.711,4.139c1.184.693,2.488,1.447,3.876,2.241a6.716,6.716,0,0,1,3.372,5.815v4.138A2.749,2.749,0,0,0,8.605,31.08v7.556a2.749,2.749,0,0,0,1.889,2.607V49.97a4.611,4.611,0,0,0,1.042,2.923H1.8a1.8,1.8,0,0,0-1.8,1.8v1.889a1.8,1.8,0,0,0,1.8,1.8H7.254a.855.855,0,0,0,0-1.71H1.8a.089.089,0,0,1-.089-.089V54.692A.089.089,0,0,1,1.8,54.6h54.78a.089.089,0,0,1,.089.089v1.889a.089.089,0,0,1-.089.089H11.244a.855.855,0,1,0,0,1.71H56.579a1.8,1.8,0,0,0,1.8-1.8V54.692a1.8,1.8,0,0,0-1.8-1.8ZM27.2,25.38A16.027,16.027,0,0,1,38.591,20.6h.042a16.229,16.229,0,0,1,3.676.42,1.091,1.091,0,0,0,1.316-1.277l-.337-1.684a1.034,1.034,0,1,1,2.027-.405l.481,2.407A1.327,1.327,0,0,0,47.358,21.1l2.407-.481a1.034,1.034,0,0,1,1.225.862,1.073,1.073,0,0,1-.872,1.176l-.326.065a1.09,1.09,0,0,0-.507,1.889,16.144,16.144,0,0,1,2.3,21.773,1.323,1.323,0,0,0-.225,1.115l.541,2.165a1.12,1.12,0,0,1-.132.843.994.994,0,0,1-.611.464,1.042,1.042,0,0,1-.248.03,1.032,1.032,0,0,1-1-.783,1.008,1.008,0,0,0-1.584-.56,16.143,16.143,0,0,1-21.914-2.365,1.089,1.089,0,0,0-1.313-.263l-2.058,1.029a1.034,1.034,0,1,1-.925-1.849L23.7,45.42a1.093,1.093,0,0,0,.487-1.464A16.112,16.112,0,0,1,27.2,25.38ZM10.315,33.824H18.9a.855.855,0,1,0,0-1.71h-8.59V31.08a1.035,1.035,0,0,1,1.034-1.034H22.085A17.688,17.688,0,0,0,20.8,35.892H18.958a.855.855,0,1,0,0,1.71H20.8a17.89,17.89,0,0,0,.215,2.068H11.349a1.035,1.035,0,0,1-1.034-1.034ZM12.2,49.969V41.38h9.181a17.691,17.691,0,0,0,1,2.783l-1.037.518a2.744,2.744,0,0,0,1.229,5.2,2.756,2.756,0,0,0,1.226-.29l1.633-.816a17.867,17.867,0,0,0,5.571,4.118H15.127A2.926,2.926,0,0,1,12.2,49.969Z" transform="translate(0 -0.002)"/>
        <path id="Trazado_909983" data-name="Trazado 909983" d="M302.837,290.9a4.638,4.638,0,0,0,4.633-4.633.855.855,0,0,0-1.71,0,2.923,2.923,0,1,1-2.923-2.923.855.855,0,0,0,0-1.71,4.633,4.633,0,0,0,0,9.266Z" transform="translate(-264.202 -249.518)"/>
        <path id="Trazado_909984" data-name="Trazado 909984" d="M251.464,246.138a11.244,11.244,0,1,0,0-22.489.855.855,0,1,0,0,1.71,9.534,9.534,0,1,1-9.534,9.534.855.855,0,0,0-1.71,0A11.257,11.257,0,0,0,251.464,246.138Z" transform="translate(-212.83 -198.148)"/>
      </g>
    </g>
  </g>
</svg>
