<svg xmlns="http://www.w3.org/2000/svg" width="70" height="70" viewBox="0 0 70 70">
  <g id="Grupo_1110866" data-name="Grupo 1110866" transform="translate(6322 4468)">
    <circle id="Elipse_11658" data-name="Elipse 11658" cx="35" cy="35" r="35" transform="translate(-6322 -4468)" fill="#ff7c32"/>
    <path id="Trazado_910906" data-name="Trazado 910906" d="M19.133,5.691V8.8h-.176a5.929,5.929,0,0,0-3.639,1.061A4.478,4.478,0,0,0,13.566,12.8a4.618,4.618,0,0,1,3.375-1.312,4.308,4.308,0,0,1,3.527,1.617,6.523,6.523,0,0,1,1.313,4.242,5.973,5.973,0,0,1-.768,2.988,5.477,5.477,0,0,1-2.145,2.127,6.162,6.162,0,0,1-3.053.768,6.369,6.369,0,0,1-3.246-.826,5.68,5.68,0,0,1-2.227-2.361,7.776,7.776,0,0,1-.82-3.539V14.926a9.85,9.85,0,0,1,1.131-4.74,8.2,8.2,0,0,1,3.229-3.3,9.231,9.231,0,0,1,4.652-1.2ZM15.57,14.539a2.266,2.266,0,0,0-1.312.362,2.3,2.3,0,0,0-.785.887v1.179q0,3.221,2.238,3.221a1.818,1.818,0,0,0,1.506-.805,3.272,3.272,0,0,0,.6-2.019,3.212,3.212,0,0,0-.615-2.036A1.971,1.971,0,0,0,15.57,14.539Z" transform="translate(-6302 -4447)" fill="#12263f"/>
  </g>
</svg>
