<svg xmlns="http://www.w3.org/2000/svg" xmlns:xlink="http://www.w3.org/1999/xlink" width="98" height="98" viewBox="0 0 98 98">
  <defs>
    <filter id="Elipse_11666" x="0" y="0" width="98" height="98" filterUnits="userSpaceOnUse">
      <feOffset input="SourceAlpha"/>
      <feGaussianBlur stdDeviation="3" result="blur"/>
      <feFlood flood-opacity="0.161"/>
      <feComposite operator="in" in2="blur"/>
      <feComposite in="SourceGraphic"/>
    </filter>
  </defs>
  <g id="Grupo_1110588" data-name="Grupo 1110588" transform="translate(-646.051 -10459)">
    <g transform="matrix(1, 0, 0, 1, 646.05, 10459)" filter="url(#Elipse_11666)">
      <circle id="Elipse_11666-2" data-name="Elipse 11666" cx="40" cy="40" r="40" transform="translate(9 9)" fill="#fff"/>
    </g>
    <g id="Grupo_1110594" data-name="Grupo 1110594" transform="translate(639.12 10486)">
      <g id="Grupo_1110589" data-name="Grupo 1110589" transform="translate(37.576 0.663)">
        <path id="Trazado_910052" data-name="Trazado 910052" d="M255.647,11.9,252.7,7.777a.477.477,0,0,0-.776,0L248.976,11.9a4.1,4.1,0,1,0,6.671,0Z" transform="translate(-230.373 -7.577)" fill="#e1f1ff"/>
        <path id="Trazado_910053" data-name="Trazado 910053" d="M51.86,147.461a2.639,2.639,0,0,0,3.859-.419.436.436,0,0,1,.7,0,2.639,2.639,0,0,0,4.245,0,.436.436,0,0,1,.7,0,2.639,2.639,0,0,0,4.245,0,.436.436,0,0,1,.7,0,2.641,2.641,0,0,0,3.121.875l4.272.2L69.823,138.9l-5.1-7.13a1.441,1.441,0,0,0-2.344,0l-8.907,12.456a12.6,12.6,0,0,0-1.677,3.237Z" transform="translate(-51.143 -120.356)" fill="#e1f1ff"/>
        <path id="Trazado_910054" data-name="Trazado 910054" d="M61.6,309.951a2.635,2.635,0,0,1-2.122-1.07.436.436,0,0,0-.7,0,2.639,2.639,0,0,1-4.245,0,.436.436,0,0,0-.7,0,2.639,2.639,0,0,1-4.245,0,.436.436,0,0,0-.7,0,2.639,2.639,0,0,1-3.859.419A12.4,12.4,0,1,0,69,315.186l-2.2-5.237-4.2-.194a2.632,2.632,0,0,1-1,.2Z" transform="translate(-44.314 -282.37)" fill="#cbe2ff"/>
        <path id="Trazado_910055" data-name="Trazado 910055" d="M252.405,11.9l1.621-2.267L252.7,7.778a.477.477,0,0,0-.776,0L248.976,11.9a4.11,4.11,0,0,0,5.051,6.119,4.109,4.109,0,0,1-1.621-6.119Z" transform="translate(-230.373 -7.578)" fill="#bbdafc"/>
        <path id="Trazado_910056" data-name="Trazado 910056" d="M51.86,147.462a2.639,2.639,0,0,0,3.859-.419.436.436,0,0,1,.7,0,2.636,2.636,0,0,0,2.641,1.018,12.508,12.508,0,0,1,1.867-3.837l6.352-8.884-2.554-3.573a1.441,1.441,0,0,0-2.344,0l-8.907,12.456a12.6,12.6,0,0,0-1.677,3.237Z" transform="translate(-51.142 -120.357)" fill="#bbdafc"/>
        <path id="Trazado_910057" data-name="Trazado 910057" d="M56.723,325.833a12.576,12.576,0,0,0,3.728-.555,12.458,12.458,0,0,1-8.164-15.392,2.636,2.636,0,0,1-2.7-1.006.436.436,0,0,0-.7,0,2.639,2.639,0,0,1-3.859.419A12.407,12.407,0,0,0,56.723,325.833Z" transform="translate(-44.313 -282.37)" fill="#9dc6fb"/>
        <circle id="Elipse_11667" data-name="Elipse 11667" cx="9.797" cy="9.797" r="9.797" transform="translate(17.42 13.553)" fill="#9dc6fb"/>
        <path id="Trazado_910058" data-name="Trazado 910058" d="M248.028,172.348a9.8,9.8,0,0,1,7.538-9.534,9.8,9.8,0,1,0,0,19.069A9.8,9.8,0,0,1,248.028,172.348Z" transform="translate(-226.09 -148.998)" fill="#80b4fb"/>
      </g>
      <g id="Grupo_1110593" data-name="Grupo 1110593" transform="translate(36.931 0)">
        <path id="Trazado_910059" data-name="Trazado 910059" d="M249.744,9.538a4.738,4.738,0,0,0-.361-4.942L246.435.474a1.134,1.134,0,0,0-1.843,0L241.645,4.6a4.757,4.757,0,1,0,8.1,4.942Zm-7.032-4.179,2.8-3.919,2.8,3.919a3.388,3.388,0,0,1,.261,3.579,3.442,3.442,0,0,1-6.127,0A3.388,3.388,0,0,1,242.712,5.359Z" transform="translate(-222.93 0)"/>
        <path id="Trazado_910060" data-name="Trazado 910060" d="M49.348,125.231a.784.784,0,0,1,1.277,0l1.557,2.177a.656.656,0,1,0,1.067-.763l-1.557-2.177a2.1,2.1,0,0,0-3.411,0l-8.907,12.456a13.049,13.049,0,1,0,23.418,10.124,10.453,10.453,0,1,0,3.665-20.58.656.656,0,0,0-.207,1.3,9.141,9.141,0,1,1-10.591,9.375,9.192,9.192,0,0,1,7.733-9.385.656.656,0,1,0-.2-1.3,10.45,10.45,0,0,0-6.971,4.347l-1.193-1.669a.656.656,0,1,0-1.067.763l1.523,2.13a10.463,10.463,0,0,0-.517,8.331,1.96,1.96,0,0,1-1.7-.8,1.092,1.092,0,0,0-1.755,0,1.982,1.982,0,0,1-3.19,0,1.091,1.091,0,0,0-1.755,0,1.982,1.982,0,0,1-3.19,0,1.092,1.092,0,0,0-1.755,0,1.976,1.976,0,0,1-2.537.565,12.144,12.144,0,0,1,1.353-2.437ZM42.5,140.558a3.3,3.3,0,0,0,4.945,0,3.3,3.3,0,0,0,4.945,0,3.306,3.306,0,0,0,3.125,1.053,10.411,10.411,0,0,0,6,5.107,11.748,11.748,0,1,1-22.862-5.341,3.3,3.3,0,0,0,3.844-.819Z" transform="translate(-36.931 -112.783)"/>
        <g id="Grupo_1110590" data-name="Grupo 1110590" transform="translate(28.604 24.041)">
          <path id="Trazado_910061" data-name="Trazado 910061" d="M366.3,279.48a2.285,2.285,0,1,1,2.285-2.285A2.287,2.287,0,0,1,366.3,279.48Zm0-3.258a.973.973,0,1,0,.973.973A.974.974,0,0,0,366.3,276.223Z" transform="translate(-364.017 -274.911)"/>
        </g>
        <g id="Grupo_1110591" data-name="Grupo 1110591" transform="translate(22.602 19.329)">
          <path id="Trazado_910062" data-name="Trazado 910062" d="M297.67,225.594a2.285,2.285,0,1,1,2.285-2.285A2.287,2.287,0,0,1,297.67,225.594Zm0-3.258a.973.973,0,1,0,.973.973A.974.974,0,0,0,297.67,222.337Z" transform="translate(-295.385 -221.025)"/>
        </g>
        <g id="Grupo_1110592" data-name="Grupo 1110592" transform="translate(24.95 18.513)">
          <path id="Trazado_910063" data-name="Trazado 910063" d="M322.886,222.606a.656.656,0,0,1-.589-.944l4.693-9.6a.656.656,0,0,1,1.179.576l-4.693,9.6A.656.656,0,0,1,322.886,222.606Z" transform="translate(-322.23 -211.692)"/>
        </g>
      </g>
    </g>
  </g>
</svg>
