<svg xmlns="http://www.w3.org/2000/svg" xmlns:xlink="http://www.w3.org/1999/xlink" width="98" height="98" viewBox="0 0 98 98">
  <defs>
    <filter id="Elipse_11666" x="0" y="0" width="98" height="98" filterUnits="userSpaceOnUse">
      <feOffset input="SourceAlpha"/>
      <feGaussianBlur stdDeviation="3" result="blur"/>
      <feFlood flood-opacity="0.161"/>
      <feComposite operator="in" in2="blur"/>
      <feComposite in="SourceGraphic"/>
    </filter>
  </defs>
  <g id="Grupo_1110570" data-name="Grupo 1110570" transform="translate(-646.051 -10459)">
    <g transform="matrix(1, 0, 0, 1, 646.05, 10459)" filter="url(#Elipse_11666)">
      <circle id="Elipse_11666-2" data-name="Elipse 11666" cx="40" cy="40" r="40" transform="translate(9 9)" fill="#fff"/>
    </g>
    <g id="Grupo_1110569" data-name="Grupo 1110569" transform="translate(662.551 10475.65)">
      <path id="Trazado_910004" data-name="Trazado 910004" d="M23.98,29.97A58.115,58.115,0,0,1,26,44c-1.97-7.88-11.69-21.56-11.99-21.99.24.15,7.97,5,9.97,7.96Z" fill="#b4dd7f"/>
      <path id="Trazado_910005" data-name="Trazado 910005" d="M40.02,29.97c2-2.96,9.73-7.81,9.97-7.96C49.69,22.44,39.97,36.12,38,44a58.115,58.115,0,0,1,2.02-14.03Z" fill="#a0d468"/>
      <path id="Trazado_910006" data-name="Trazado 910006" d="M32,26c0-7,2-15,7-21,0,0-1.97,14.74-2,20.84A31.883,31.883,0,0,0,34,39v5H30V39a31.883,31.883,0,0,0-3-13.16C26.97,19.74,25,5,25,5,30,11,32,22.84,32,26Z" fill="#b4dd7f"/>
      <path id="Trazado_910007" data-name="Trazado 910007" d="M27,25.84A31.883,31.883,0,0,1,30,39v5H26a58.115,58.115,0,0,0-2.02-14.03,107.186,107.186,0,0,0-5.97-16.96A43.581,43.581,0,0,1,27,25.84Z" fill="#a0d468"/>
      <path id="Trazado_910008" data-name="Trazado 910008" d="M40.02,29.97A58.115,58.115,0,0,0,38,44H34V39a31.883,31.883,0,0,1,3-13.16,43.581,43.581,0,0,1,8.99-12.83,107.186,107.186,0,0,0-5.97,16.96Z" fill="#b4dd7f"/>
      <g id="Grupo_1110568" data-name="Grupo 1110568">
        <path id="Trazado_910009" data-name="Trazado 910009" d="M34,50.22V62H30V50l.02-.22Z" fill="#8cc152"/>
        <path id="Trazado_910010" data-name="Trazado 910010" d="M30.02,49.78,30,50V62H29a3,3,0,0,1-3-3V49.33Z" fill="#8cc152"/>
        <path id="Trazado_910011" data-name="Trazado 910011" d="M38.04,50.67,38,51v8a3,3,0,0,1-3,3H34V50.22Z" fill="#8cc152"/>
      </g>
      <path id="Trazado_910012" data-name="Trazado 910012" d="M40.82,49.72l-.26-1.8-.44-3.06a1,1,0,0,0-.99-.86H24.82a1,1,0,0,0-.98.8l-.23,1.12-.4,2.01a1,1,0,0,0,.87,1.19l1.92.21,4.02.45,3.98.44,4.04.45,1.68.19a1,1,0,0,0,1.1-1.14Z" fill="#cf9e76"/>
      <path id="Trazado_910013" data-name="Trazado 910013" d="M53.741,18.483,49.47,21.152A74.971,74.971,0,0,0,42.03,26.5a107.083,107.083,0,0,1,4.876-13.075l2.159-4.591-3.74,3.428a43.062,43.062,0,0,0-7.1,9.031c.519-6.787,1.748-16.044,1.763-16.161L40.45,1.7,38.231,4.36a31.825,31.825,0,0,0-6.419,13.81c-1.084-4.621-2.991-10.147-6.044-13.81L23.55,1.7l.458,3.433c.015.118,1.244,9.375,1.763,16.161a43.061,43.061,0,0,0-7.1-9.031l-3.742-3.43,2.161,4.593A107.018,107.018,0,0,1,21.971,26.5a74.881,74.881,0,0,0-7.442-5.351l-4.271-2.669,2.927,4.1c.094.132,8.932,12.563,11.484,20.432a2,2,0,0,0-1.812,1.6l-.625,3.126a2,2,0,0,0,1.741,2.381L25,50.228V59a4,4,0,0,0,4,4h6a4,4,0,0,0,4-4V51.784l.606.067a1.891,1.891,0,0,0,.226.013,2,2,0,0,0,1.976-2.283l-.694-4.864a2,2,0,0,0-1.786-1.7c2.55-7.868,11.392-20.305,11.486-20.437ZM39.133,45l.274,1.918L24.8,45.092,24.819,45Zm-2.111-2H35V39c0-8.783,4.319-16.228,7.7-20.713C40.4,24.293,37.247,34.074,37.022,43ZM26.539,9.206A45.948,45.948,0,0,1,31,26v4h2V26A33.658,33.658,0,0,1,37.506,8.836c-.576,4.732-1.444,12.5-1.5,16.736A32.912,32.912,0,0,0,33,39v4H31V39A32.928,32.928,0,0,0,28,25.572c-.055-4.127-.881-11.608-1.456-16.366ZM29,39v4H26.978c-.225-8.933-3.384-18.723-5.688-24.728C24.676,22.751,29,30.2,29,39Zm-5.946-8.6c.57,2.25,1.064,4.587,1.412,6.926a112.361,112.361,0,0,0-6.712-11.578A27.21,27.21,0,0,1,23.054,30.4ZM27,59V50.451l2,.222V61A2,2,0,0,1,27,59Zm6-7.883V61H31V50.9ZM37,59a2,2,0,0,1-2,2V51.339l2,.222ZM24.194,48.126l.213-1.068L39.7,48.97l.128.894Zm15.341-10.8c.348-2.339.842-4.676,1.412-6.926a27.227,27.227,0,0,1,5.3-4.65A112.321,112.321,0,0,0,39.535,37.329Z"/>
    </g>
  </g>
</svg>
