<svg xmlns="http://www.w3.org/2000/svg" xmlns:xlink="http://www.w3.org/1999/xlink" width="98" height="98" viewBox="0 0 98 98">
  <defs>
    <filter id="Elipse_11666" x="0" y="0" width="98" height="98" filterUnits="userSpaceOnUse">
      <feOffset input="SourceAlpha"/>
      <feGaussianBlur stdDeviation="3" result="blur"/>
      <feFlood flood-opacity="0.161"/>
      <feComposite operator="in" in2="blur"/>
      <feComposite in="SourceGraphic"/>
    </filter>
  </defs>
  <g id="Grupo_1110571" data-name="Grupo 1110571" transform="translate(-646.051 -10459)">
    <g transform="matrix(1, 0, 0, 1, 646.05, 10459)" filter="url(#Elipse_11666)">
      <circle id="Elipse_11666-2" data-name="Elipse 11666" cx="40" cy="40" r="40" transform="translate(9 9)" fill="#fff"/>
    </g>
    <g id="Grupo_1110580" data-name="Grupo 1110580" transform="translate(599.667 10481.965)">
      <g id="Grupo_1110573" data-name="Grupo 1110573" transform="translate(78.216 1.012)">
        <g id="Grupo_1110572" data-name="Grupo 1110572" transform="translate(0)">
          <path id="Trazado_910014" data-name="Trazado 910014" d="M108.116,40.855a6.682,6.682,0,0,1-4.981,4.956l-6.167,1.414a4.172,4.172,0,0,0-3.1,4.883H87.184V9.955h4L90.808,12.4a14.14,14.14,0,0,0,4.7,12.809l10.608,9.215A6.7,6.7,0,0,1,108.116,40.855Z" transform="translate(-87.184 -9.955)" fill="#ffdad5"/>
        </g>
      </g>
      <g id="Grupo_1110574" data-name="Grupo 1110574" transform="translate(80.662 4.614)">
        <path id="Trazado_910015" data-name="Trazado 910015" d="M128.4,65.484l-.017-.015-10.608-9.216a13.116,13.116,0,0,1-4.515-9.873,1.017,1.017,0,0,0-1.017-1.015h0a1.017,1.017,0,0,0-1.015,1.02,15.15,15.15,0,0,0,5.215,11.4L127.04,67a5.678,5.678,0,0,1-2.536,9.632l-6.167,1.414a5.148,5.148,0,0,0-3.867,6.09,1.017,1.017,0,0,0,1.988-.432,3.107,3.107,0,0,1,2.333-3.675l6.167-1.414A7.657,7.657,0,0,0,128.4,65.484Z" transform="translate(-111.227 -45.365)"/>
      </g>
      <g id="Grupo_1110575" data-name="Grupo 1110575" transform="translate(77.201 25.708)">
        <path id="Trazado_910016" data-name="Trazado 910016" d="M81.694,254.478a1.017,1.017,0,1,0-1.439-1.439l-1.838,1.838a4.161,4.161,0,0,0,5.884,5.884l.846-.846a5.145,5.145,0,0,1,6.271-.553,1.017,1.017,0,0,0,1.081-1.724,7.178,7.178,0,0,0-8.761.809l-.019.019-.856.856a2.126,2.126,0,0,1-3.007-3.007Z" transform="translate(-77.201 -252.741)"/>
      </g>
      <g id="Grupo_1110576" data-name="Grupo 1110576" transform="translate(97.086 40.944)">
        <path id="Trazado_910017" data-name="Trazado 910017" d="M273.149,413.49a1.027,1.027,0,0,0,1.409-.29,9.922,9.922,0,0,0,0-10.216,1.017,1.017,0,0,0-1.7,1.12,7.977,7.977,0,0,1,0,7.977A1.017,1.017,0,0,0,273.149,413.49Z" transform="translate(-272.692 -402.527)"/>
      </g>
      <g id="Grupo_1110577" data-name="Grupo 1110577" transform="translate(102.437 22.751)">
        <path id="Trazado_910018" data-name="Trazado 910018" d="M326.719,243.446a7.977,7.977,0,0,1,0,7.977,1.017,1.017,0,0,0,1.7,1.12,9.921,9.921,0,0,0,0-10.216,7.977,7.977,0,0,1,0-7.977,9.921,9.921,0,0,0,0-10.216,1.017,1.017,0,0,0-1.7,1.12,7.977,7.977,0,0,1,0,7.977A9.922,9.922,0,0,0,326.719,243.446Z" transform="translate(-325.303 -223.676)"/>
      </g>
      <g id="Grupo_1110578" data-name="Grupo 1110578" transform="translate(109.037 31.847)">
        <path id="Trazado_910019" data-name="Trazado 910019" d="M393.007,313.27a1.017,1.017,0,0,0-1.409.29,9.922,9.922,0,0,0,0,10.216,7.977,7.977,0,0,1,0,7.977,1.017,1.017,0,0,0,1.7,1.12,9.921,9.921,0,0,0,0-10.216,7.977,7.977,0,0,1,0-7.977A1.017,1.017,0,0,0,393.007,313.27Z" transform="translate(-390.182 -313.102)"/>
      </g>
      <g id="Grupo_1110579" data-name="Grupo 1110579" transform="translate(81.202 -0.001)">
        <path id="Trazado_910020" data-name="Trazado 910020" d="M116.7,1.577a1.028,1.028,0,0,0,1.411.281,1.026,1.026,0,0,0,.281-1.41,1.028,1.028,0,0,0-1.411-.281A1.027,1.027,0,0,0,116.7,1.577Z" transform="translate(-116.534 0.001)"/>
      </g>
    </g>
  </g>
</svg>
