<svg xmlns="http://www.w3.org/2000/svg" xmlns:xlink="http://www.w3.org/1999/xlink" width="98" height="98" viewBox="0 0 98 98">
  <defs>
    <filter id="Elipse_11666" x="0" y="0" width="98" height="98" filterUnits="userSpaceOnUse">
      <feOffset input="SourceAlpha"/>
      <feGaussianBlur stdDeviation="3" result="blur"/>
      <feFlood flood-opacity="0.161"/>
      <feComposite operator="in" in2="blur"/>
      <feComposite in="SourceGraphic"/>
    </filter>
  </defs>
  <g id="Grupo_1110597" data-name="Grupo 1110597" transform="translate(-646.051 -10459)">
    <g transform="matrix(1, 0, 0, 1, 646.05, 10459)" filter="url(#Elipse_11666)">
      <circle id="Elipse_11666-2" data-name="Elipse 11666" cx="40" cy="40" r="40" transform="translate(9 9)" fill="#fff"/>
    </g>
    <g id="Grupo_1110611" data-name="Grupo 1110611" transform="translate(673.123 10486.072)">
      <g id="Grupo_1110609" data-name="Grupo 1110609" transform="translate(0.642 0.642)">
        <path id="Trazado_910095" data-name="Trazado 910095" d="M290.127,279.239A22.073,22.073,0,0,1,288,286.162a16.086,16.086,0,0,0,7-3.03,13.645,13.645,0,0,0,.629-3.074C296.134,275.355,290.92,274.892,290.127,279.239Z" transform="translate(-263.973 -253.218)" fill="#fd6a42" fill-rule="evenodd"/>
        <path id="Trazado_910096" data-name="Trazado 910096" d="M35.382,39.273a16.051,16.051,0,0,1-3.855,1.171,22.075,22.075,0,0,0,2.127-6.924c.794-4.347,6.007-3.884,5.5.82a13.652,13.652,0,0,1-.629,3.074,16.165,16.165,0,0,1-3.144,1.859ZM28.786,7.5A21.286,21.286,0,1,0,50.071,28.786,21.286,21.286,0,0,0,28.786,7.5Z" transform="translate(-7.5 -7.5)" fill="#fe8" fill-rule="evenodd"/>
        <path id="Trazado_910097" data-name="Trazado 910097" d="M7.5,28.8A21.285,21.285,0,0,0,29.749,50.06a21.285,21.285,0,0,1,0-42.526A21.285,21.285,0,0,0,7.5,28.8Z" transform="translate(-7.5 -7.511)" fill="#ffdf00" fill-rule="evenodd"/>
        <path id="Trazado_910098" data-name="Trazado 910098" d="M288.966,332.026a14.4,14.4,0,0,1-.965,2.159,16.087,16.087,0,0,0,7-3.03,12.364,12.364,0,0,0,.547-2.4A19.417,19.417,0,0,1,288.966,332.026Z" transform="translate(-263.974 -301.241)" fill="#fd3300" fill-rule="evenodd"/>
      </g>
      <g id="Grupo_1110610" data-name="Grupo 1110610" transform="translate(0)">
        <path id="Trazado_910099" data-name="Trazado 910099" d="M37.433,6.422A21.928,21.928,0,0,0,6.422,37.433a21.927,21.927,0,0,0,29.543,1.34l-.823-.987a20.645,20.645,0,1,1,2.644-2.644l.987.823a21.927,21.927,0,0,0-1.34-29.543Z" transform="translate(0)"/>
        <path id="Trazado_910100" data-name="Trazado 910100" d="M0,0H1.285V1.285H0Z" transform="matrix(0.712, -0.702, 0.702, 0.712, 36.063, 36.961)"/>
        <path id="Trazado_910101" data-name="Trazado 910101" d="M73.951,269.928l-2.9,1.8.678,1.092.9-.556a16.809,16.809,0,0,0,28.537,0l.9.556.678-1.092-2.9-1.8-.678,1.092.912.566a15.5,15.5,0,0,1-2.33,2.888c.069-.415.118-.814.16-1.2a4.7,4.7,0,0,0-.618-3.117,3.062,3.062,0,0,0-2.133-1.383c-1.637-.238-3.544.888-4.02,3.5a22.112,22.112,0,0,1-1.909,6.45,15.5,15.5,0,0,1-15.5-7.134l.912-.566Zm17.669,6.123c.334-1.2.565-2.41.773-3.55.346-1.894,1.576-2.6,2.572-2.456,1.354.2,1.808,1.694,1.658,3.091a13.463,13.463,0,0,1-.532,2.736,15.635,15.635,0,0,1-1.622,1.043,35.973,35.973,0,0,0,.751-3.725l-1.277-.145a41.346,41.346,0,0,1-.991,4.615,15.556,15.556,0,0,1-2.153.734A18.026,18.026,0,0,0,91.62,276.051Z" transform="translate(-64.965 -245.723)"/>
        <path id="Trazado_910102" data-name="Trazado 910102" d="M116.713,163.452a1.929,1.929,0,0,1,1.927,1.927h1.285a3.212,3.212,0,1,0-6.19,1.2l1.191-.482a1.928,1.928,0,0,1,1.787-2.65Z" transform="translate(-103.779 -148.276)"/>
        <path id="Trazado_910103" data-name="Trazado 910103" d="M323.5,165.38h1.285a1.927,1.927,0,1,1,3.715.723l1.191.482a3.212,3.212,0,1,0-6.19-1.2Z" transform="translate(-295.788 -148.277)"/>
        <path id="Trazado_910104" data-name="Trazado 910104" d="M368.5,67.5h1.285v1.285H368.5Z" transform="translate(-336.934 -61.718)"/>
        <path id="Trazado_910105" data-name="Trazado 910105" d="M338.5,52.5h1.285v1.285H338.5Z" transform="translate(-309.504 -48.003)"/>
      </g>
    </g>
  </g>
</svg>
