<svg xmlns="http://www.w3.org/2000/svg" xmlns:xlink="http://www.w3.org/1999/xlink" width="93.895" height="96.853" viewBox="0 0 93.895 96.853">
  <defs>
    <filter id="Trazado_896608" x="2.521" y="5.479" width="91.374" height="91.374" filterUnits="userSpaceOnUse">
      <feOffset dy="3" input="SourceAlpha"/>
      <feGaussianBlur stdDeviation="3" result="blur"/>
      <feFlood flood-opacity="0.161"/>
      <feComposite operator="in" in2="blur"/>
      <feComposite in="SourceGraphic"/>
    </filter>
  </defs>
  <g id="Grupo_1110664" data-name="Grupo 1110664" transform="translate(-180 -2463.243)">
    <g transform="matrix(1, 0, 0, 1, 180, 2463.24)" filter="url(#Trazado_896608)">
      <g id="Trazado_896608-2" data-name="Trazado 896608" transform="translate(11.52 11.48)" fill="none">
        <path d="M0,0H73.374V73.374H0Z" stroke="none"/>
        <path d="M 9.999996185302734 9.999996185302734 L 9.999996185302734 63.37383651733398 L 63.37383651733398 63.37383651733398 L 63.37383651733398 9.999996185302734 L 9.999996185302734 9.999996185302734 M 0 0 L 73.37383270263672 0 L 73.37383270263672 73.37383270263672 L 0 73.37383270263672 L 0 0 Z" stroke="none" fill="#f0c869"/>
      </g>
    </g>
    <path id="Trazado_896609" data-name="Trazado 896609" d="M0,0H70.872V70.872H0Z" transform="translate(180 2463.243)" fill="#456345"/>
    <g id="Grupo_1110670" data-name="Grupo 1110670" transform="translate(189.262 2436.008)">
      <g id="Grupo_1110669" data-name="Grupo 1110669" transform="translate(0 40.654)">
        <g id="Grupo_1110668" data-name="Grupo 1110668" transform="translate(0 0)">
          <path id="Trazado_910191" data-name="Trazado 910191" d="M51.329,82.644h-7.7a11.666,11.666,0,0,1,.6-3.138c.808-2.512,2.821-6.573,7.82-11.653a1.022,1.022,0,0,0-.887-1.727,21.272,21.272,0,0,0-7.223,2.851,17.671,17.671,0,0,0-6.956,7.912c.108-.385.229-.785.366-1.2,1.513-4.593,5.218-12,14.282-21.211a1.022,1.022,0,0,0-.887-1.727A33.383,33.383,0,0,0,31.316,63.2c-.528-6.516-1.1-11.664-1.705-15.324a33.543,33.543,0,0,0-1.1-4.89c-.235-.7-.784-2.331-2.08-2.331-1.2,0-1.776,1.336-2.18,2.642a41.8,41.8,0,0,0-1.171,5.693c-.648,4.276-1.254,10.256-1.805,17.8a29.826,29.826,0,0,0-7.886-7.041A34.715,34.715,0,0,0,1.6,55.09a1.022,1.022,0,0,0-.887,1.727A60.847,60.847,0,0,1,11.978,71.845a18.809,18.809,0,0,0-3.569-2.869,21.269,21.269,0,0,0-7.223-2.851A1.022,1.022,0,0,0,.3,67.852c4.9,4.983,6.925,8.981,7.756,11.457a11.882,11.882,0,0,1,.665,3.335H4.049a1.022,1.022,0,1,0,0,2.045H51.329a1.022,1.022,0,0,0,0-2.045ZM24.943,50.415a35.138,35.138,0,0,1,1.492-7.188,30.472,30.472,0,0,1,1.323,6.021c.6,3.931,1.164,9.381,1.684,16.2A31.162,31.162,0,0,0,25.059,73.4a27.707,27.707,0,0,0-1.922-3.887C23.685,61.48,24.293,55.055,24.943,50.415ZM10.765,82.644c-.059-2.133-.928-6.924-6.49-13.477a19.77,19.77,0,0,1,3.052,1.544,15.381,15.381,0,0,1,7.447,11.932Zm6.24,0a20.822,20.822,0,0,0-1.138-6.751c-1.838-5.714-5.618-11.735-11.254-17.933a34.3,34.3,0,0,1,7.762,3.564,26.987,26.987,0,0,1,8.768,8.612,1.024,1.024,0,0,0,.181.3,26.079,26.079,0,0,1,2.762,6.43,1.02,1.02,0,0,0,.056.2,30.934,30.934,0,0,1,.908,4.839q.04.373.076.741Zm17.113,0h-1.9a26.7,26.7,0,0,1,2.87-11.819,1.022,1.022,0,0,0-1.854-.862,28.757,28.757,0,0,0-3.061,12.681H27.181c-.03-.317-.062-.639-.1-.961a32.666,32.666,0,0,0-.931-5A30.75,30.75,0,0,1,47.9,55.438,72.321,72.321,0,0,0,40,65.6a42.9,42.9,0,0,0-4.655,9.656A22.326,22.326,0,0,0,34.118,82.644Zm3.463,0A15.379,15.379,0,0,1,44.967,70.75a19.689,19.689,0,0,1,3.111-1.58c-5.559,6.551-6.428,11.34-6.487,13.474Z" transform="translate(-0.004 -40.654)" fill="#fff"/>
          <path id="Trazado_910192" data-name="Trazado 910192" d="M341.489,291.45a1.022,1.022,0,0,0-1.724-1.1,1.849,1.849,0,0,0-.112.2,1.022,1.022,0,0,0,1.837.9Z" transform="translate(-304.833 -264.41)" fill="#fff"/>
          <path id="Trazado_910193" data-name="Trazado 910193" d="M1.071,451.345H1.022a1.022,1.022,0,0,0,0,2.045h.049a1.022,1.022,0,0,0,0-2.045Z" transform="translate(0 -409.355)" fill="#fff"/>
        </g>
      </g>
    </g>
  </g>
</svg>
