<svg xmlns="http://www.w3.org/2000/svg" xmlns:xlink="http://www.w3.org/1999/xlink" width="98" height="98" viewBox="0 0 98 98">
  <defs>
    <filter id="Elipse_11666" x="0" y="0" width="98" height="98" filterUnits="userSpaceOnUse">
      <feOffset input="SourceAlpha"/>
      <feGaussianBlur stdDeviation="3" result="blur"/>
      <feFlood flood-opacity="0.161"/>
      <feComposite operator="in" in2="blur"/>
      <feComposite in="SourceGraphic"/>
    </filter>
  </defs>
  <g id="Grupo_1110596" data-name="Grupo 1110596" transform="translate(-646.051 -10459)">
    <g transform="matrix(1, 0, 0, 1, 646.05, 10459)" filter="url(#Elipse_11666)">
      <circle id="Elipse_11666-2" data-name="Elipse 11666" cx="40" cy="40" r="40" transform="translate(9 9)" fill="#fff"/>
    </g>
    <g id="Grupo_1110608" data-name="Grupo 1110608" transform="translate(666.157 10485.752)">
      <g id="Grupo_1110605" data-name="Grupo 1110605" transform="translate(9.099 2.437)">
        <g id="Grupo_1110602" data-name="Grupo 1110602" transform="translate(5.885)">
          <path id="Trazado_910086" data-name="Trazado 910086" d="M106.961,39.056a3.767,3.767,0,0,0-1.122,2.49,4.953,4.953,0,1,1-5.052-5.028,3.85,3.85,0,0,0,3.636-3.636,4.953,4.953,0,1,1,5.028,5.052A3.766,3.766,0,0,0,106.961,39.056Z" transform="translate(-95.942 -28.037)" fill="#ffda8f"/>
        </g>
        <g id="Grupo_1110603" data-name="Grupo 1110603" transform="translate(22.823 11.378)">
          <path id="Trazado_910087" data-name="Trazado 910087" d="M296.564,170.4a3.767,3.767,0,0,0-2.115-1.728,4.953,4.953,0,1,1,6.164-3.578,3.851,3.851,0,0,0,2.571,4.453A4.953,4.953,0,1,1,297,173.1,3.767,3.767,0,0,0,296.564,170.4Z" transform="translate(-290.851 -158.963)" fill="#ffda8f"/>
        </g>
        <g id="Grupo_1110604" data-name="Grupo 1110604" transform="translate(0 23.321)">
          <path id="Trazado_910088" data-name="Trazado 910088" d="M39.173,298.765a3.766,3.766,0,0,0,2.553-.967,4.951,4.951,0,1,1,.017,7.125,3.849,3.849,0,0,0-5.14,0,4.951,4.951,0,1,1,.017-7.125,3.766,3.766,0,0,0,2.553.967Z" transform="translate(-28.223 -296.401)" fill="#ffda8f"/>
        </g>
      </g>
      <g id="Grupo_1110606" data-name="Grupo 1110606" transform="translate(8.148 0.869)">
        <circle id="Elipse_11669" data-name="Elipse 11669" cx="3.418" cy="3.418" r="3.418" transform="translate(34.655 4.693)" fill="#ff9eb1"/>
        <circle id="Elipse_11670" data-name="Elipse 11670" cx="3.418" cy="3.418" r="3.418" transform="translate(0)" fill="#ff9eb1"/>
        <circle id="Elipse_11671" data-name="Elipse 11671" cx="3.418" cy="3.418" r="3.418" transform="translate(23.774 35.92)" fill="#ff9eb1"/>
      </g>
      <g id="Grupo_1110607" data-name="Grupo 1110607" transform="translate(7.279)">
        <path id="Trazado_910089" data-name="Trazado 910089" d="M87.463,36.4a5.777,5.777,0,0,0,4.162,1.867h.114a5.821,5.821,0,0,0,5.817-5.731,2.99,2.99,0,0,1,2.757-2.757,5.821,5.821,0,0,0,5.731-5.893.869.869,0,0,0-1.738.022,4.083,4.083,0,0,1-4.019,4.134,4.72,4.72,0,0,0-4.468,4.468,4.084,4.084,0,1,1-4.165-4.146,4.718,4.718,0,0,0,4.487-4.487,4.068,4.068,0,0,1,3.816-3.985.869.869,0,0,0-.112-1.734A5.806,5.806,0,0,0,94.4,23.84a2.984,2.984,0,0,1-2.784,2.784A5.821,5.821,0,0,0,87.463,36.4Z" transform="translate(-79.086 -16.576)"/>
        <path id="Trazado_910090" data-name="Trazado 910090" d="M294.267,159.566a2.984,2.984,0,0,1-1.969-3.41,5.822,5.822,0,1,0-7.246,4.206A2.99,2.99,0,0,1,287,163.738a5.821,5.821,0,0,0,4.246,7.07,5.868,5.868,0,0,0,1.412.174,5.823,5.823,0,0,0,1.607-11.416Zm.559,9.045a4.083,4.083,0,0,1-6.139-4.449,4.72,4.72,0,0,0-3.159-5.472,4.084,4.084,0,1,1,5.083-2.95,4.718,4.718,0,0,0,3.173,5.5,4.083,4.083,0,0,1,1.042,7.375Z" transform="translate(-257.05 -136.001)"/>
        <path id="Trazado_910091" data-name="Trazado 910091" d="M40.233,288.184a5.819,5.819,0,0,0-8.244-.142,2.989,2.989,0,0,1-3.9,0,5.82,5.82,0,1,0-.019,8.376,2.983,2.983,0,0,1,3.936,0,5.773,5.773,0,0,0,4.029,1.623c.065,0,.131,0,.2,0a5.835,5.835,0,0,0,5.621-5.591A5.776,5.776,0,0,0,40.233,288.184Zm-.114,4.2a4.082,4.082,0,0,1-6.906,2.784,4.717,4.717,0,0,0-6.344,0,4.082,4.082,0,1,1,.014-5.875,4.719,4.719,0,0,0,6.317,0,4.081,4.081,0,0,1,6.919,3.091Z" transform="translate(-17.271 -261.511)"/>
        <path id="Trazado_910092" data-name="Trazado 910092" d="M410.344,54a4.287,4.287,0,1,0,4.287,4.287A4.292,4.292,0,0,0,410.344,54Zm0,6.836a2.549,2.549,0,1,1,2.549-2.549A2.552,2.552,0,0,1,410.344,60.836Z" transform="translate(-371.402 -49.307)"/>
        <path id="Trazado_910093" data-name="Trazado 910093" d="M11.566,8.574A4.287,4.287,0,1,0,7.279,4.287,4.292,4.292,0,0,0,11.566,8.574Zm0-6.836A2.549,2.549,0,1,1,9.017,4.287,2.552,2.552,0,0,1,11.566,1.738Z" transform="translate(-7.279)"/>
        <path id="Trazado_910094" data-name="Trazado 910094" d="M285.139,413.336a4.287,4.287,0,1,0,4.287,4.287A4.292,4.292,0,0,0,285.139,413.336Zm0,6.836a2.549,2.549,0,1,1,2.549-2.549A2.552,2.552,0,0,1,285.139,420.172Z" transform="translate(-257.078 -377.416)"/>
        <circle id="Elipse_11672" data-name="Elipse 11672" cx="0.869" cy="0.869" r="0.869" transform="translate(23.631 2.877)"/>
      </g>
    </g>
  </g>
</svg>
