<svg xmlns="http://www.w3.org/2000/svg" width="40" height="38.657" viewBox="0 0 40 38.657">
  <g id="Grupo_1110649" data-name="Grupo 1110649" transform="translate(0 -8.594)">
    <g id="Grupo_1110647" data-name="Grupo 1110647" transform="translate(0.586 9.18)">
      <g id="Grupo_1110646" data-name="Grupo 1110646" transform="translate(0 0)">
        <path id="Trazado_910148" data-name="Trazado 910148" d="M280.367,81.789s-.44-4.28,2.477-10.6c.115-.25.427-.767.18-.645a9.867,9.867,0,0,0-1.65.786,11.809,11.809,0,0,0-4.867,9.682Z" transform="translate(-255.486 -66.27)" fill="#ffe177"/>
        <path id="Trazado_910149" data-name="Trazado 910149" d="M314.1,65.911a13.361,13.361,0,0,0-1.895,1.136c-2.554,5.895-2.249,9.681-2.249,9.681l1.569.781.384-.781s-.331-4.111,2.586-10.435A.291.291,0,0,0,314.1,65.911Z" transform="translate(-286.32 -61.99)" fill="#ffc344"/>
        <path id="Trazado_910150" data-name="Trazado 910150" d="M334.29,80.253s-.695-4.223,2.222-10.547c.115-.25.571-.959.325-.836a12.364,12.364,0,0,0-2.442,1.365,11.827,11.827,0,0,0-4.287,9.237Z" transform="translate(-304.899 -64.734)" fill="#ffe177"/>
        <path id="Trazado_910151" data-name="Trazado 910151" d="M363.1,65.911a13.046,13.046,0,0,0-2.474,1.581c-2.35,5.64-2.06,9.237-2.06,9.237l1.271,1.525,1.073-1.525s-.331-4.111,2.586-10.435A.291.291,0,0,0,363.1,65.911Z" transform="translate(-331.124 -61.99)" fill="#ffc344"/>
        <path id="Trazado_910152" data-name="Trazado 910152" d="M387.734,80.976s-.581-4.066,2.336-10.39c.115-.25.52-1.056.273-.934A11.408,11.408,0,0,0,388,70.957a11.827,11.827,0,0,0-4.287,9.237Z" transform="translate(-354.314 -65.457)" fill="#ffe177"/>
        <path id="Trazado_910153" data-name="Trazado 910153" d="M416.7,65.911a13.047,13.047,0,0,0-2.474,1.581c-2.35,5.64-2.06,9.237-2.06,9.237l1.88.781.464-.781s-.331-4.111,2.586-10.435A.291.291,0,0,0,416.7,65.911Z" transform="translate(-380.538 -61.99)" fill="#ffc344"/>
        <path id="Trazado_910154" data-name="Trazado 910154" d="M177.8,39.453s.331-4.111-2.586-10.435a.291.291,0,0,1,.4-.382,11.821,11.821,0,0,1,6.762,10.817H177.8Z" transform="translate(-162.086 -27.627)" fill="#f6ab31"/>
        <path id="Trazado_910155" data-name="Trazado 910155" d="M41.052,80.5s.3-3.714-2.176-9.513c-.129-.3-.074-.473-.218-.786-.115-.25.084-.283.331-.161,7.219,3.57,5.854,11.242,5.854,11.242Z" transform="translate(-36.193 -65.76)" fill="#ffe177"/>
        <path id="Trazado_910156" data-name="Trazado 910156" d="M36.67,65.911a.291.291,0,0,0-.4.382q.217.469.409.922a11.816,11.816,0,0,1,4.639,9.513l1.231.781.878-.781A11.821,11.821,0,0,0,36.67,65.911Z" transform="translate(-34.001 -61.99)" fill="#ffc344"/>
        <path id="Trazado_910157" data-name="Trazado 910157" d="M94.317,81.9s.3-3.714-2.176-9.513c-.129-.3-.119-.524-.263-.836-.115-.25.384.339.631.461a10.385,10.385,0,0,1,6.15,10.507Z" transform="translate(-85.269 -67.159)" fill="#ffe177"/>
        <path id="Trazado_910158" data-name="Trazado 910158" d="M90.271,65.911a.291.291,0,0,0-.4.382q.217.469.409.922a11.816,11.816,0,0,1,4.639,9.513l.96.781,1.149-.781A11.821,11.821,0,0,0,90.271,65.911Z" transform="translate(-83.414 -61.99)" fill="#ffc344"/>
        <path id="Trazado_910159" data-name="Trazado 910159" d="M149.989,83.129s.3-3.714-2.176-9.513c-.129-.3.077-.346-.067-.658-.115-.25.052-.1.3.024a9.681,9.681,0,0,1,5.406,10.841Z" transform="translate(-136.754 -68.391)" fill="#ffe177"/>
        <path id="Trazado_910160" data-name="Trazado 910160" d="M143.873,65.911a.291.291,0,0,0-.4.382q.217.469.409.922a11.816,11.816,0,0,1,4.639,9.513l1,.781,1.11-.781A11.821,11.821,0,0,0,143.873,65.911Z" transform="translate(-132.829 -61.99)" fill="#ffc344"/>
        <path id="Trazado_910161" data-name="Trazado 910161" d="M219.9,34.224a66.707,66.707,0,0,1,5-14.215c.157-.34.373-1.048.037-.882a15.713,15.713,0,0,0-1.981,1.015A16.033,16.033,0,0,0,215.9,33.606Z" transform="translate(-199.611 -18.868)" fill="#ffe177"/>
        <path id="Trazado_910162" data-name="Trazado 910162" d="M270.629,16.141a18.419,18.419,0,0,0-2.128,1.231c-3.616,8.186-3.191,13.464-3.191,13.464l1.426.781.918-.781s-.45-5.585,3.513-14.176A.4.4,0,0,0,270.629,16.141Z" transform="translate(-245.154 -16.098)" fill="#ffc344"/>
        <path id="Trazado_910163" data-name="Trazado 910163" d="M87.722,235.807h26.293V253.7H87.722Z" transform="translate(-81.455 -218.642)" fill="#ffc344"/>
        <path id="Trazado_910164" data-name="Trazado 910164" d="M58.463,248.307h3.429v16.052H58.463Z" transform="translate(-54.482 -230.166)" fill="#d6694b"/>
        <path id="Trazado_910165" data-name="Trazado 910165" d="M87.722,248.307h2.286v16.052H87.722Z" transform="translate(-81.455 -230.166)" fill="#a74b30"/>
        <path id="Trazado_910166" data-name="Trazado 910166" d="M395.018,253.307h2.872v14.88h-2.872Z" transform="translate(-364.743 -234.775)" fill="#d6694b"/>
        <path id="Trazado_910167" data-name="Trazado 910167" d="M424.278,253.307h2.286v14.88h-2.286Z" transform="translate(-391.717 -234.775)" fill="#a74b30"/>
        <path id="Trazado_910168" data-name="Trazado 910168" d="M45.156,324.115H7.891a.391.391,0,0,1-.391-.391v-4.072a.391.391,0,0,1,.391-.391H45.156a.391.391,0,0,1,.391.391v4.072A.391.391,0,0,1,45.156,324.115Z" transform="translate(-7.5 -295.577)" fill="#e49280"/>
        <path id="Trazado_910169" data-name="Trazado 910169" d="M45.156,438.631H7.891a.391.391,0,0,1-.391-.391v-4.072a.391.391,0,0,1,.391-.391H45.156a.391.391,0,0,1,.391.391v4.072A.391.391,0,0,1,45.156,438.631Z" transform="translate(-7.5 -401.146)" fill="#e49280"/>
        <path id="Trazado_910170" data-name="Trazado 910170" d="M45.156,209.6H7.891a.391.391,0,0,1-.391-.391v-4.072a.391.391,0,0,1,.391-.391H45.156a.391.391,0,0,1,.391.391v4.072A.391.391,0,0,1,45.156,209.6Z" transform="translate(-7.5 -190.007)" fill="#e49280"/>
        <g id="Grupo_1110645" data-name="Grupo 1110645" transform="translate(36.094 14.738)">
          <path id="Trazado_910171" data-name="Trazado 910171" d="M471.844,204.745H469.5a.391.391,0,0,1,.391.391v4.072a.391.391,0,0,1-.391.391h2.344a.391.391,0,0,0,.391-.391v-4.072A.391.391,0,0,0,471.844,204.745Z" transform="translate(-469.5 -204.745)" fill="#d6694b"/>
          <path id="Trazado_910172" data-name="Trazado 910172" d="M471.844,319.261H469.5a.391.391,0,0,1,.391.391v4.072a.391.391,0,0,1-.391.391h2.344a.391.391,0,0,0,.391-.391v-4.072A.391.391,0,0,0,471.844,319.261Z" transform="translate(-469.5 -310.314)" fill="#d6694b"/>
          <path id="Trazado_910173" data-name="Trazado 910173" d="M471.844,433.777H469.5a.391.391,0,0,1,.391.391v4.072a.391.391,0,0,1-.391.391h2.344a.391.391,0,0,0,.391-.391v-4.072A.391.391,0,0,0,471.844,433.777Z" transform="translate(-469.5 -415.884)" fill="#d6694b"/>
        </g>
      </g>
    </g>
    <g id="Grupo_1110648" data-name="Grupo 1110648" transform="translate(0 8.594)">
      <path id="Trazado_910174" data-name="Trazado 910174" d="M80.808,228.311a.586.586,0,1,0,.586.586A.586.586,0,0,0,80.808,228.311Z" transform="translate(-73.955 -211.146)"/>
      <path id="Trazado_910175" data-name="Trazado 910175" d="M80.808,344a.586.586,0,1,0-.586-.586A.586.586,0,0,0,80.808,344Z" transform="translate(-73.955 -316.715)"/>
      <path id="Trazado_910176" data-name="Trazado 910176" d="M80.808,457.343a.586.586,0,1,0,.586.586A.586.586,0,0,0,80.808,457.343Z" transform="translate(-73.955 -422.285)"/>
      <path id="Trazado_910177" data-name="Trazado 910177" d="M417.364,229.483a.586.586,0,1,0-.586-.586A.586.586,0,0,0,417.364,229.483Z" transform="translate(-384.217 -211.146)"/>
      <path id="Trazado_910178" data-name="Trazado 910178" d="M417.364,344a.586.586,0,1,0-.586-.586A.586.586,0,0,0,417.364,344Z" transform="translate(-384.217 -316.715)"/>
      <path id="Trazado_910179" data-name="Trazado 910179" d="M417.364,458.515a.586.586,0,1,0-.586-.586A.586.586,0,0,0,417.364,458.515Z" transform="translate(-384.217 -422.285)"/>
      <path id="Trazado_910180" data-name="Trazado 910180" d="M39.023,29.358A.978.978,0,0,0,40,28.381V24.309a.978.978,0,0,0-.977-.977H35.531a17.353,17.353,0,0,1,3.392-4.395.586.586,0,0,0-.766-.887,16.368,16.368,0,0,0-2.874,3.438,27.75,27.75,0,0,1,2.389-7.759.877.877,0,0,0-1.187-1.153,13.169,13.169,0,0,0-3.628,2.6q.285-.7.628-1.447A.877.877,0,0,0,32.3,12.576a13.167,13.167,0,0,0-3.628,2.6q.285-.7.627-1.447a.877.877,0,0,0-1.187-1.153,13.61,13.61,0,0,0-2.7,1.743c.722-2.12,1.45-3.755,1.716-4.331A.982.982,0,0,0,25.8,8.7a18.37,18.37,0,0,0-3.543,2.275.586.586,0,1,0,.745.9A16.98,16.98,0,0,1,25.839,10c-3.024,6.75-3.355,11.569-3.356,13.337H17.456a15.739,15.739,0,0,1,3.776-9.738.586.586,0,1,0-.882-.772c-.344.393-.658.792-.946,1.193a12.591,12.591,0,0,0-5.034-4.352.877.877,0,0,0-1.187,1.153,32.324,32.324,0,0,1,1.371,3.47,13.7,13.7,0,0,0-2.663-1.71A.877.877,0,0,0,10.7,13.729q.344.746.628,1.447a13.17,13.17,0,0,0-3.628-2.6.877.877,0,0,0-1.187,1.153q.344.746.628,1.447a13.17,13.17,0,0,0-3.628-2.6.877.877,0,0,0-1.187,1.153,28.888,28.888,0,0,1,2.246,6.878,15.71,15.71,0,0,0-2.915-4.091.586.586,0,1,0-.786.869,16.811,16.811,0,0,1,3.167,4.749A16.749,16.749,0,0,0,1.483,20.87a.586.586,0,1,0-.435,1.088,14.853,14.853,0,0,1,2.7,1.374H.977A.978.978,0,0,0,0,24.309v4.072a.978.978,0,0,0,.977.977h3v2.921h-3A.978.978,0,0,0,0,33.256v4.072a.978.978,0,0,0,.977.977h3v2.921h-3A.978.978,0,0,0,0,42.2v4.072a.978.978,0,0,0,.977.977H39.023A.978.978,0,0,0,40,46.274V42.2a.978.978,0,0,0-.977-.977h-3V38.3h3A.978.978,0,0,0,40,37.328V33.256a.978.978,0,0,0-.977-.977h-3V29.358ZM31.547,19.186a11,11,0,0,1,4.708-5.16A29.392,29.392,0,0,0,34.272,20.4a18.17,18.17,0,0,0-.314,2.932H30.943a19,19,0,0,1,.594-4.124Zm-4.173-.033a11.007,11.007,0,0,1,4.694-5.127,25.214,25.214,0,0,0-2.3,9.307H26.756a19.252,19.252,0,0,1,.6-4.144C27.363,19.177,27.369,19.165,27.374,19.153Zm-2.7-2.421a11.459,11.459,0,0,1,3.211-2.706,24.954,24.954,0,0,0-2.3,9.306H23.655A25.135,25.135,0,0,1,24.669,16.733ZM18.7,15.092a16.527,16.527,0,0,0-1.282,2.638,11.868,11.868,0,0,0-1.146-1.709A30.968,30.968,0,0,0,14.6,11.114a11.148,11.148,0,0,1,4.1,3.977ZM16.89,19.334a16.914,16.914,0,0,0-.606,4H14.416a25.124,25.124,0,0,0-2.3-9.307A10.983,10.983,0,0,1,16.89,19.334Zm-4.237-.119,0,.008a18.828,18.828,0,0,1,.588,4.109H10.229a25.13,25.13,0,0,0-2.3-9.306A11,11,0,0,1,12.653,19.216Zm-4.189,0,.005.01a18.838,18.838,0,0,1,.589,4.11H6.042a25.019,25.019,0,0,0-2.3-9.306A11,11,0,0,1,8.464,19.212ZM1.172,24.5H38.828v3.682H27.751a.586.586,0,1,0,0,1.172h2.524v2.921H9.725V29.358H25.2a.586.586,0,1,0,0-1.172H1.172Zm3.981,4.853h3.4v2.921h-3.4Zm0,8.947h3.4v2.921h-3.4Zm33.675,7.775H1.172V42.4H12.8a.586.586,0,0,0,0-1.172H9.725V38.3h20.55v2.921H15.35a.586.586,0,0,0,0,1.172H38.828Zm-3.981-4.853h-3.4V38.3h3.4Zm3.981-4.093H1.172V33.451H38.828Zm-3.981-4.853h-3.4V29.358h3.4Z" transform="translate(0 -8.594)"/>
    </g>
  </g>
</svg>
