<svg id="Grupo_1110634" data-name="Grupo 1110634" xmlns="http://www.w3.org/2000/svg" width="66.702" height="66.701" viewBox="0 0 66.702 66.701">
  <g id="Grupo_1110632" data-name="Grupo 1110632" transform="translate(0.977 0.977)">
    <g id="Grupo_1110631" data-name="Grupo 1110631">
      <g id="Grupo_1110624" data-name="Grupo 1110624" transform="translate(9.968)">
        <g id="Grupo_1110623" data-name="Grupo 1110623">
          <path id="Trazado_910115" data-name="Trazado 910115" d="M186.257,39.874c5.628,0,10.191-7.247,10.191-16.187S191.885,7.5,186.257,7.5H162.239V39.874Z" transform="translate(-152.048 -7.5)" fill="#ffe177"/>
          <g id="Grupo_1110622" data-name="Grupo 1110622">
            <path id="Trazado_910116" data-name="Trazado 910116" d="M94.2,7.5c-5.628,0-10.191,7.247-10.191,16.187S88.576,39.874,94.2,39.874,104.4,32.627,104.4,23.687,99.832,7.5,94.2,7.5Z" transform="translate(-84.013 -7.5)" fill="#ffc344"/>
            <path id="Trazado_910117" data-name="Trazado 910117" d="M149.193,7.5a6.609,6.609,0,0,0-1.954.3c4.693,1.448,8.237,8.01,8.237,15.888s-3.544,14.44-8.237,15.888a6.6,6.6,0,0,0,1.954.3c5.628,0,10.191-7.247,10.191-16.187S154.821,7.5,149.193,7.5Z" transform="translate(-139.002 -7.5)" fill="#feb237"/>
          </g>
        </g>
      </g>
      <g id="Grupo_1110627" data-name="Grupo 1110627" transform="translate(0 32.374)">
        <g id="Grupo_1110626" data-name="Grupo 1110626">
          <path id="Trazado_910118" data-name="Trazado 910118" d="M109.744,288.374c5.628,0,10.191-7.247,10.191-16.187S115.372,256,109.744,256H85.726v32.374Z" transform="translate(-75.535 -256)" fill="#ffe177"/>
          <g id="Grupo_1110625" data-name="Grupo 1110625">
            <path id="Trazado_910119" data-name="Trazado 910119" d="M17.691,256C12.063,256,7.5,263.247,7.5,272.187s4.563,16.187,10.191,16.187,10.191-7.247,10.191-16.187S23.319,256,17.691,256Z" transform="translate(-7.5 -256)" fill="#ffc344"/>
            <path id="Trazado_910120" data-name="Trazado 910120" d="M72.68,256a6.609,6.609,0,0,0-1.954.3c4.693,1.448,8.237,8.01,8.237,15.888s-3.544,14.44-8.237,15.888a6.6,6.6,0,0,0,1.954.3c5.628,0,10.191-7.247,10.191-16.187S78.308,256,72.68,256Z" transform="translate(-62.489 -256)" fill="#feb237"/>
          </g>
        </g>
      </g>
      <g id="Grupo_1110630" data-name="Grupo 1110630" transform="translate(20.348 32.374)">
        <g id="Grupo_1110629" data-name="Grupo 1110629">
          <path id="Trazado_910121" data-name="Trazado 910121" d="M265.931,288.374c5.628,0,10.191-7.247,10.191-16.187S271.559,256,265.931,256H241.913v32.374Z" transform="translate(-231.722 -256)" fill="#ffe177"/>
          <g id="Grupo_1110628" data-name="Grupo 1110628">
            <path id="Trazado_910122" data-name="Trazado 910122" d="M173.878,256c-5.628,0-10.191,7.247-10.191,16.187s4.563,16.187,10.191,16.187,10.191-7.247,10.191-16.187S179.506,256,173.878,256Z" transform="translate(-163.687 -256)" fill="#ffc344"/>
            <path id="Trazado_910123" data-name="Trazado 910123" d="M228.867,256a6.609,6.609,0,0,0-1.954.3c4.693,1.448,8.237,8.01,8.237,15.888s-3.544,14.44-8.237,15.888a6.6,6.6,0,0,0,1.954.3c5.628,0,10.191-7.247,10.191-16.187S234.5,256,228.867,256Z" transform="translate(-218.676 -256)" fill="#feb237"/>
          </g>
        </g>
      </g>
    </g>
  </g>
  <g id="Grupo_1110633" data-name="Grupo 1110633" transform="translate(0 0)">
    <path id="Trazado_910124" data-name="Trazado 910124" d="M110.583,58.242a.977.977,0,0,0-.287,1.352c1.281,1.973,2.961,3.059,4.728,3.059,3.966,0,7.072-5.347,7.072-12.174s-3.106-12.174-7.072-12.174-7.072,5.347-7.072,12.174a19.892,19.892,0,0,0,.717,5.4.977.977,0,1,0,1.881-.53,18.192,18.192,0,0,1-.644-4.866,15.891,15.891,0,0,1,1.668-7.446c.959-1.762,2.217-2.773,3.45-2.773s2.49,1.011,3.45,2.773a15.891,15.891,0,0,1,1.668,7.446,15.891,15.891,0,0,1-1.668,7.446c-.959,1.762-2.217,2.773-3.45,2.773-1.084,0-2.181-.77-3.09-2.169a.977.977,0,0,0-1.352-.287Z" transform="translate(-93.888 -33.315)"/>
    <path id="Trazado_910125" data-name="Trazado 910125" d="M142.714,91.233a1.766,1.766,0,0,1,.48.73.977.977,0,0,0,1.8-.768c-.717-1.679-1.733-1.93-2.275-1.93-1.92,0-2.925,2.784-2.925,5.535s1,5.535,2.925,5.535,2.925-2.784,2.925-5.535a.977.977,0,0,0-1.954,0c0,2.164-.666,3.383-.97,3.568-.3-.186-.97-1.4-.97-3.568S142.408,91.422,142.714,91.233Z" transform="translate(-121.58 -77.636)"/>
    <path id="Trazado_910126" data-name="Trazado 910126" d="M45.584,298.979c0-6.826-3.107-12.174-7.072-12.174s-7.072,5.347-7.072,12.174a19.892,19.892,0,0,0,.717,5.4.977.977,0,0,0,1.881-.53,18.192,18.192,0,0,1-.644-4.866,15.891,15.891,0,0,1,1.668-7.446c.959-1.762,2.217-2.773,3.45-2.773s2.49,1.011,3.45,2.773a17.452,17.452,0,0,1,0,14.893c-.959,1.762-2.217,2.773-3.45,2.773-1.084,0-2.181-.77-3.09-2.169a.977.977,0,0,0-1.639,1.065c1.281,1.973,2.961,3.059,4.728,3.059,3.966,0,7.072-5.347,7.072-12.174Z" transform="translate(-27.343 -249.441)"/>
    <path id="Trazado_910127" data-name="Trazado 910127" d="M66.2,339.733a1.766,1.766,0,0,1,.48.73.977.977,0,1,0,1.8-.768c-.717-1.679-1.733-1.93-2.275-1.93-1.92,0-2.925,2.784-2.925,5.535s1,5.535,2.925,5.535,2.925-2.784,2.925-5.535a.977.977,0,0,0-1.954,0c0,2.164-.666,3.383-.97,3.568-.3-.186-.97-1.4-.97-3.568S65.894,339.922,66.2,339.733Z" transform="translate(-55.033 -293.762)"/>
    <path id="Trazado_910128" data-name="Trazado 910128" d="M63.567,37.571c-2.11-3.352-4.963-5.2-8.033-5.2H50.372a13.1,13.1,0,0,0,2.814-3.243,22.72,22.72,0,0,0,3.135-11.966A22.721,22.721,0,0,0,53.187,5.2C51.077,1.846,48.224,0,45.154,0H21.136a8.694,8.694,0,0,0-6.259,2.915.977.977,0,0,0,1.405,1.358,6.8,6.8,0,0,1,4.853-2.318c2.374,0,4.64,1.522,6.379,4.285A20.755,20.755,0,0,1,30.35,17.164a20.755,20.755,0,0,1-2.835,10.925c-1.739,2.763-4,4.285-6.379,4.285s-4.64-1.522-6.379-4.285a20.755,20.755,0,0,1-2.835-10.925A21.65,21.65,0,0,1,14.2,7.21.977.977,0,0,0,12.47,6.3a23.632,23.632,0,0,0-2.5,10.869A22.72,22.72,0,0,0,13.1,29.13a13.093,13.093,0,0,0,2.814,3.243H11.168c-3.07,0-5.923,1.846-8.033,5.2A22.72,22.72,0,0,0,0,49.538,22.72,22.72,0,0,0,3.135,61.5c2.11,3.352,4.963,5.2,8.033,5.2H55.534c3,0,5.8-1.771,7.9-4.987a.977.977,0,1,0-1.637-1.067c-1.723,2.644-3.947,4.1-6.261,4.1h-2.29A13.1,13.1,0,0,0,56.058,61.5a22.72,22.72,0,0,0,3.135-11.966,22.721,22.721,0,0,0-3.135-11.966,13.1,13.1,0,0,0-2.814-3.243h2.29c2.374,0,4.64,1.522,6.379,4.285a20.755,20.755,0,0,1,2.835,10.925,22.831,22.831,0,0,1-1.363,7.918c-.2.546-.248,1.282.442,1.554.706.278,1.167-.278,1.388-.868a24.8,24.8,0,0,0,1.488-8.6A22.721,22.721,0,0,0,63.567,37.571ZM45.154,1.954c2.374,0,4.64,1.522,6.379,4.285a20.755,20.755,0,0,1,2.835,10.925,20.755,20.755,0,0,1-2.835,10.925c-1.74,2.763-4.005,4.285-6.379,4.285h-2.29a13.1,13.1,0,0,0,2.814-3.243,22.719,22.719,0,0,0,3.135-11.966,25.735,25.735,0,0,0-.727-6.13L49.8,7.785a.977.977,0,1,0-1.729-.911l-.8,1.524a18.4,18.4,0,0,0-1.587-3.2,13.1,13.1,0,0,0-2.814-3.243Zm.909,36.658A20.755,20.755,0,0,1,48.9,49.538a23.819,23.819,0,0,1-.653,5.6c0,.007,0,.014-.007.022s0,.014,0,.021a17.936,17.936,0,0,1-2.172,5.284c-1.739,2.763-4,4.285-6.379,4.285h-2.95A13.1,13.1,0,0,0,39.549,61.5a22.72,22.72,0,0,0,3.135-11.966,22.721,22.721,0,0,0-3.135-11.966,13.093,13.093,0,0,0-2.814-3.243h2.95c2.374,0,4.64,1.522,6.379,4.285ZM25.136,60.463A20.354,20.354,0,0,1,22.32,50.45q.033-.912,0-1.825a20.354,20.354,0,0,1,2.817-10.013c1.74-2.763,4.005-4.285,6.379-4.285s4.64,1.522,6.379,4.285a20.755,20.755,0,0,1,2.835,10.925,20.755,20.755,0,0,1-2.835,10.925c-1.739,2.763-4,4.285-6.379,4.285S26.876,63.226,25.136,60.463ZM37.645,1.954c2.374,0,4.64,1.522,6.379,4.285a20.755,20.755,0,0,1,2.835,10.925,20.755,20.755,0,0,1-2.835,10.925c-1.739,2.763-4,4.285-6.379,4.285H34.523a13.1,13.1,0,0,0,2.814-3.243c.291-.462.56-.947.813-1.45a.961.961,0,0,0,.054-.11,23.7,23.7,0,0,0,2.268-10.406A22.721,22.721,0,0,0,37.338,5.2a13.1,13.1,0,0,0-2.814-3.243ZM29.169,29.13A22.72,22.72,0,0,0,32.3,17.164,22.72,22.72,0,0,0,29.169,5.2a13.1,13.1,0,0,0-2.814-3.243H29.3c2.374,0,4.64,1.522,6.379,4.285a20.755,20.755,0,0,1,2.835,10.925,22.6,22.6,0,0,1-1.43,8.1l-1.131-1.515a.977.977,0,1,0-1.566,1.169l1.764,2.364c-1.383,2.533-3.743,5.1-6.851,5.1h-2.95a13.1,13.1,0,0,0,2.814-3.243Zm-2.872,5.2a13.1,13.1,0,0,0-2.814,3.243,19.339,19.339,0,0,0-2.141,4.838A19.341,19.341,0,0,0,19.2,37.571a13.093,13.093,0,0,0-2.814-3.243ZM4.789,60.463A20.755,20.755,0,0,1,1.954,49.538,20.755,20.755,0,0,1,4.789,38.612c1.739-2.763,4-4.285,6.379-4.285s4.64,1.522,6.379,4.285a20.354,20.354,0,0,1,2.817,10.013q-.033.912,0,1.825a20.354,20.354,0,0,1-2.817,10.013c-1.739,2.763-4.005,4.285-6.379,4.285s-4.64-1.522-6.379-4.285Zm11.6,4.285A13.1,13.1,0,0,0,19.2,61.5a19.339,19.339,0,0,0,2.141-4.838A19.341,19.341,0,0,0,23.483,61.5,13.1,13.1,0,0,0,26.3,64.747ZM54.4,38.612a17.521,17.521,0,0,1,1.984,4.572l-1.418-.333a.977.977,0,1,0-.447,1.9l2.348.551a24.354,24.354,0,0,1,.367,4.232A20.755,20.755,0,0,1,54.4,60.463c-1.739,2.763-4,4.284-6.379,4.284H44.9A13.1,13.1,0,0,0,47.717,61.5a18.828,18.828,0,0,0,1.852-3.929l.578.8a.977.977,0,1,0,1.582-1.147l-1.08-1.491,2.917-1.5a.977.977,0,1,0-.892-1.739l-2.133,1.093a26.437,26.437,0,0,0,.31-4.056,22.721,22.721,0,0,0-3.135-11.966A13.1,13.1,0,0,0,44.9,34.328h3.122C50.4,34.328,52.665,35.85,54.4,38.612Z" transform="translate(0 0)"/>
    <path id="Trazado_910129" data-name="Trazado 910129" d="M194.7,286.8c-3.966,0-7.072,5.347-7.072,12.174a19.894,19.894,0,0,0,.717,5.4.977.977,0,1,0,1.881-.53,18.191,18.191,0,0,1-.644-4.866,15.89,15.89,0,0,1,1.668-7.446c.959-1.762,2.217-2.773,3.45-2.773s2.49,1.011,3.45,2.773a17.452,17.452,0,0,1,0,14.893c-.959,1.762-2.217,2.773-3.45,2.773-1.084,0-2.181-.77-3.09-2.169a.977.977,0,0,0-1.639,1.065c1.281,1.973,2.961,3.059,4.728,3.059,3.966,0,7.072-5.347,7.072-12.174S198.665,286.8,194.7,286.8Z" transform="translate(-163.184 -249.441)"/>
    <path id="Trazado_910130" data-name="Trazado 910130" d="M222.387,339.733a1.767,1.767,0,0,1,.48.73.977.977,0,0,0,1.8-.768c-.717-1.679-1.733-1.93-2.275-1.93-1.92,0-2.925,2.784-2.925,5.535s1,5.535,2.925,5.535,2.925-2.784,2.925-5.535a.977.977,0,0,0-1.954,0c0,2.164-.666,3.383-.97,3.568-.3-.186-.971-1.4-.971-3.568S222.081,339.922,222.387,339.733Z" transform="translate(-190.873 -293.762)"/>
  </g>
</svg>
