<svg xmlns="http://www.w3.org/2000/svg" width="110" height="110" viewBox="0 0 110 110">
  <g id="Grupo_1108431" data-name="Grupo 1108431" transform="translate(-263.051 -1074)">
    <path id="Trazado_895728" data-name="Trazado 895728" d="M55,0A55,55,0,1,1,0,55,55,55,0,0,1,55,0Z" transform="translate(263.051 1074)" fill="#ff7c32" opacity="0.859"/>
    <g id="Grupo_1108418" data-name="Grupo 1108418" transform="translate(281.666 1092.615)">
      <g id="Grupo_1108417" data-name="Grupo 1108417" transform="translate(2.046 2.655)">
        <path id="Trazado_896543" data-name="Trazado 896543" d="M158.1,282.223v9.5h-8.313v14.251h14.251V282.223Zm0,0" transform="translate(-129.596 -243.032)" fill="#a0d468"/>
        <path id="Trazado_896544" data-name="Trazado 896544" d="M45.785,250.223H69.537v14.251H45.785Zm0,0" transform="translate(-41.035 -215.782)" fill="#a0d468"/>
        <path id="Trazado_896545" data-name="Trazado 896545" d="M309.785,272.788V254.973H310.9a36.08,36.08,0,0,0,17.885-4.75,10.677,10.677,0,0,1-2.138,6.414l-1.425,1.9,8.313-1.188-1.972,2.625a11.153,11.153,0,0,1-3.966,3.313l7.126,3.563-7.126,3.563a11.164,11.164,0,0,1,3.966,3.313l1.972,2.625-8.313-1.188,1.425,1.9a10.676,10.676,0,0,1,2.138,6.413,36.125,36.125,0,0,0-8.634-3.539,35.66,35.66,0,0,0-9.252-1.211h-1.116Zm0,0" transform="translate(-265.843 -215.782)" fill="#a0d468"/>
        <path id="Trazado_896546" data-name="Trazado 896546" d="M24.474,43.163H18.536V42.047a36.087,36.087,0,0,0-4.75-17.885A10.676,10.676,0,0,1,20.2,26.3l1.9,1.425-1.188-8.313,2.625,1.972a11.165,11.165,0,0,1,3.313,3.966l3.563-7.126,3.563,7.126a11.153,11.153,0,0,1,3.313-3.966l2.625-1.972-1.188,8.313,1.9-1.425a10.674,10.674,0,0,1,6.413-2.138A36.124,36.124,0,0,0,43.5,32.8a35.637,35.637,0,0,0-1.211,9.252v1.116Zm0,0" transform="translate(-13.785 -18.224)" fill="#a0d468"/>
      </g>
      <path id="Trazado_896547" data-name="Trazado 896547" d="M252.911,258.223a2.382,2.382,0,0,0-2.375,2.375,2.375,2.375,0,0,0-4.75,0v26.127a2.375,2.375,0,1,0,4.75,0,2.375,2.375,0,1,0,4.75,0V260.6A2.382,2.382,0,0,0,252.911,258.223Zm0,0" transform="translate(-209.298 -219.939)" fill="#ecc19c"/>
      <path id="Trazado_896548" data-name="Trazado 896548" d="M50.288,190.973a2.375,2.375,0,0,0,0-4.75H24.16a2.375,2.375,0,0,0,0,4.75,2.375,2.375,0,0,0,0,4.75H50.288a2.375,2.375,0,0,0,0-4.75Zm0,0" transform="translate(-18.551 -158.628)" fill="#ecc19c"/>
      <path id="Trazado_896549" data-name="Trazado 896549" d="M68.722,60.221a12.478,12.478,0,0,0-2.489-2.488l7.351-3.675-7.351-3.675a12.5,12.5,0,0,0,2.489-2.488l3.69-4.919-8.327,1.189a11.966,11.966,0,0,0,2.093-6.733V35.386L64.4,36.4a34.929,34.929,0,0,1-17.225,4.591,3.561,3.561,0,0,0-5.938-2.651A3.561,3.561,0,0,0,35.3,40.995H31.737V38.619a3.561,3.561,0,0,0,2.653-5.938,3.561,3.561,0,0,0-2.651-5.938A34.928,34.928,0,0,1,36.33,9.518l1.015-1.777H35.3a11.959,11.959,0,0,0-6.734,2.094l1.19-8.328L24.836,5.2a12.49,12.49,0,0,0-2.487,2.489L18.673.336,15,7.687A12.454,12.454,0,0,0,12.511,5.2L7.59,1.508,8.78,9.836A11.962,11.962,0,0,0,2.047,7.742H0L1.016,9.518A34.935,34.935,0,0,1,5.607,26.743a3.561,3.561,0,0,0-2.651,5.938A3.561,3.561,0,0,0,5.61,38.619V52.871H21.049V67.122H35.3a3.561,3.561,0,0,0,5.938,2.654,3.561,3.561,0,0,0,5.938-2.651A34.935,34.935,0,0,1,64.4,71.716l1.777,1.015V70.685a11.967,11.967,0,0,0-2.094-6.734l8.328,1.189ZM35.3,43.37v2.375H31.737V43.37Zm-3.563,4.75H35.3V50.5H31.737ZM29.362,50.5H26.987V38.619h2.375ZM15.11,38.619V50.5H12.735V38.619Zm2.375,0h2.375V50.5H17.486ZM22.236,50.5V38.619h2.375V50.5ZM7.747,12.017l4.195,3.146L10.754,6.85l.331.249a10.12,10.12,0,0,1,2.963,3.55l1.062,2.124,3.563-7.126,3.563,7.126L23.3,10.648A10.106,10.106,0,0,1,26.262,7.1l.332-.248-1.188,8.313L29.6,12.017a9.572,9.572,0,0,1,3.6-1.663,37.32,37.32,0,0,0-3.835,16.389H25.8v-.469a12.908,12.908,0,0,1,2.176-7.186L26,17.771a15.282,15.282,0,0,0-2.575,8.5v.469H19.861V16.055H17.486V26.743H13.923v-.469a15.282,15.282,0,0,0-2.575-8.5L9.372,19.088a12.918,12.918,0,0,1,2.176,7.186v.469H7.982A37.312,37.312,0,0,0,4.148,10.354a9.571,9.571,0,0,1,3.6,1.663ZM4.422,35.057A1.19,1.19,0,0,1,5.61,33.869H22.236V31.494H5.61a1.188,1.188,0,0,1,0-2.375H31.737a1.188,1.188,0,0,1,0,2.375H24.611v2.375h7.126a1.188,1.188,0,0,1,0,2.375H5.61A1.189,1.189,0,0,1,4.422,35.057Zm3.563,3.563H10.36V50.5H7.985ZM35.3,52.871v2.375H23.424V52.871Zm-11.876,4.75H35.3V60H23.424Zm0,7.126V62.372H35.3v2.375ZM44.8,67.122a1.188,1.188,0,0,1-2.375,0V60H40.05v7.126a1.188,1.188,0,0,1-2.375,0V40.995a1.188,1.188,0,1,1,2.375,0V57.621h2.375V40.995a1.188,1.188,0,1,1,2.375,0Zm13.956-6.331L61.9,64.983a9.559,9.559,0,0,1,1.661,3.6,37.327,37.327,0,0,0-16.388-3.835V61.184h.469a12.927,12.927,0,0,1,7.186,2.176l1.317-1.976a15.287,15.287,0,0,0-8.5-2.575h-.469V55.246H57.864V52.871H47.176V49.308h.469a15.287,15.287,0,0,0,8.5-2.575l-1.317-1.976a12.922,12.922,0,0,1-7.186,2.176h-.469V43.368a37.314,37.314,0,0,0,16.388-3.835,9.544,9.544,0,0,1-1.661,3.6l-3.146,4.193,8.313-1.188-.249.333a10.109,10.109,0,0,1-3.549,2.961L61.145,50.5l7.127,3.563-7.127,3.563,2.126,1.063a10.125,10.125,0,0,1,3.55,2.962l.248.332Zm0,0" transform="translate(0 -0.336)"/>
    </g>
  </g>
</svg>
