<svg xmlns="http://www.w3.org/2000/svg" xmlns:xlink="http://www.w3.org/1999/xlink" width="88" height="88" viewBox="0 0 88 88">
  <defs>
    <filter id="Elipse_11683" x="0" y="0" width="88" height="88" filterUnits="userSpaceOnUse">
      <feOffset input="SourceAlpha"/>
      <feGaussianBlur stdDeviation="3" result="blur"/>
      <feFlood flood-opacity="0.161"/>
      <feComposite operator="in" in2="blur"/>
      <feComposite in="SourceGraphic"/>
    </filter>
  </defs>
  <g id="Grupo_1110771" data-name="Grupo 1110771" transform="translate(-861.051 -3121)">
    <g transform="matrix(1, 0, 0, 1, 861.05, 3121)" filter="url(#Elipse_11683)">
      <circle id="Elipse_11683-2" data-name="Elipse 11683" cx="35" cy="35" r="35" transform="translate(9 9)" fill="#fff"/>
    </g>
    <path id="Trazado_910697" data-name="Trazado 910697" d="M46.08,25.765a.631.631,0,0,0-.769-.265l-3.066,1.181a20.252,20.252,0,0,0-10.308,8.937,21.313,21.313,0,0,1,8.9-16.227l.677-.483a.631.631,0,0,0-.548-1.118A22.465,22.465,0,0,0,28.712,26.8a27.6,27.6,0,0,1,5.406-12.72l2.241-2.936a.631.631,0,0,0-.856-.905A29.914,29.914,0,0,0,25.331,21.949a47.9,47.9,0,0,0-7.5-17.508A47.612,47.612,0,0,0,14.543.215.631.631,0,0,0,13.49.887L15.8,6.055a46.284,46.284,0,0,1,3.713,13.457,30.048,30.048,0,0,0-8.845-9.275.631.631,0,0,0-.856.905l2.241,2.936A27.6,27.6,0,0,1,17.458,26.8,22.465,22.465,0,0,0,5.2,17.789a.631.631,0,0,0-.548,1.118l.678.483a21.313,21.313,0,0,1,8.9,16.228A20.252,20.252,0,0,0,3.924,26.681L.858,25.5a.631.631,0,0,0-.639,1.067l3.532,3.04a18.926,18.926,0,0,1,6.589,14.36V44.9H6.282a.631.631,0,0,0,0,1.262H39.887a.631.631,0,1,0,0-1.262H35.829a22.087,22.087,0,0,1,.734-6.157,18.939,18.939,0,0,1,5.854-9.141l3.533-3.04a.631.631,0,0,0,.129-.8ZM11.6,44.9v-.938A20.187,20.187,0,0,0,4.576,28.65L3.816,28A19.081,19.081,0,0,1,15.476,43.38q.087.76.113,1.525Zm8.389,0H16.856c0-.147-.015-.294-.023-.441a20.091,20.091,0,0,0-1.305-6.154V36.717a22.585,22.585,0,0,0-6.8-16.127A21.245,21.245,0,0,1,17.8,29.976a21.268,21.268,0,0,1,2.191,9.4Zm2.462,0h-1.2V39.372c0-.433-.016-.861-.04-1.287v0a22.549,22.549,0,0,0-2.228-8.621A28.7,28.7,0,0,0,13.919,14.5a27.865,27.865,0,0,1,8.5,18.5q.036.708.036,1.418ZM21.026,22.334A47.572,47.572,0,0,0,16.953,5.54l-.2-.443a46.471,46.471,0,0,1,3.174,5.287,46.591,46.591,0,0,1,3.088,7.606,46.642,46.642,0,0,1,1.417,6,28.866,28.866,0,0,0-1.349,4.466,28.74,28.74,0,0,0-2.058-6.12ZM24.915,44.9h-1.2V34.427a27.38,27.38,0,0,1,1.8-9.727A28.283,28.283,0,0,1,32.25,14.5a28.7,28.7,0,0,0-5.067,14.956A22.544,22.544,0,0,0,24.96,38C24.819,40.295,24.915,42.611,24.915,44.9Zm4.4,0H26.178V39.372a21.8,21.8,0,0,1,.144-2.481,21.344,21.344,0,0,1,11.115-16.3,22.585,22.585,0,0,0-6.8,16.126v1.591a20.091,20.091,0,0,0-1.305,6.155C29.328,44.611,29.318,44.758,29.313,44.9ZM41.594,28.65a20.327,20.327,0,0,0-6.917,13.213,29.565,29.565,0,0,0-.108,3.042H30.58q.025-.766.113-1.527A19.081,19.081,0,0,1,42.354,28Z" transform="translate(881.966 3140.919)" fill="#ff7c32" stroke="#ff7c32" stroke-width="0.5"/>
  </g>
</svg>
