<svg xmlns="http://www.w3.org/2000/svg" xmlns:xlink="http://www.w3.org/1999/xlink" width="93.895" height="96.853" viewBox="0 0 93.895 96.853">
  <defs>
    <filter id="Trazado_896608" x="2.521" y="5.479" width="91.374" height="91.374" filterUnits="userSpaceOnUse">
      <feOffset dy="3" input="SourceAlpha"/>
      <feGaussianBlur stdDeviation="3" result="blur"/>
      <feFlood flood-opacity="0.161"/>
      <feComposite operator="in" in2="blur"/>
      <feComposite in="SourceGraphic"/>
    </filter>
  </defs>
  <g id="Grupo_1110666" data-name="Grupo 1110666" transform="translate(-180 -2463.243)">
    <g transform="matrix(1, 0, 0, 1, 180, 2463.24)" filter="url(#Trazado_896608)">
      <g id="Trazado_896608-2" data-name="Trazado 896608" transform="translate(11.52 11.48)" fill="none">
        <path d="M0,0H73.374V73.374H0Z" stroke="none"/>
        <path d="M 9.999996185302734 9.999996185302734 L 9.999996185302734 63.37383651733398 L 63.37383651733398 63.37383651733398 L 63.37383651733398 9.999996185302734 L 9.999996185302734 9.999996185302734 M 0 0 L 73.37383270263672 0 L 73.37383270263672 73.37383270263672 L 0 73.37383270263672 L 0 0 Z" stroke="none" fill="#f0c869"/>
      </g>
    </g>
    <path id="Trazado_896609" data-name="Trazado 896609" d="M0,0H70.872V70.872H0Z" transform="translate(180 2463.243)" fill="#456345"/>
    <g id="Grupo_1110688" data-name="Grupo 1110688" transform="translate(186.378 2353.298)">
      <g id="Grupo_1110673" data-name="Grupo 1110673" transform="translate(16.051 131.545)">
        <g id="Grupo_1110672" data-name="Grupo 1110672" transform="translate(0 0)">
          <path id="Trazado_910195" data-name="Trazado 910195" d="M153.3,134.853a.852.852,0,0,0-.942-.75,57.665,57.665,0,0,0-10.345,2.162.851.851,0,1,0,.5,1.628,55.95,55.95,0,0,1,10.039-2.1A.851.851,0,0,0,153.3,134.853Z" transform="translate(-141.411 -134.098)" fill="#fff"/>
        </g>
      </g>
      <g id="Grupo_1110675" data-name="Grupo 1110675" transform="translate(29.791 131.218)">
        <g id="Grupo_1110674" data-name="Grupo 1110674">
          <path id="Trazado_910196" data-name="Trazado 910196" d="M290.671,157.557a22.423,22.423,0,0,0-4.272-6.773,6.213,6.213,0,0,1,1.086.248,1.433,1.433,0,0,0,1.787-1.874,9.106,9.106,0,0,0-4.548-5.058l.915-.355a1.432,1.432,0,0,0,.414-2.423,35.661,35.661,0,0,0-6.865-4.6,21.9,21.9,0,0,0-9.5-2.593l.351-.472a1.432,1.432,0,0,0-1.014-2.279,41.758,41.758,0,0,0-5.748-.112.851.851,0,1,0,.075,1.7,41.391,41.391,0,0,1,5.032.064l-1.124,1.514a.851.851,0,0,0,.768,1.354c7.177-.716,14.131,4.4,16.573,6.423l-2.591,1.006a58.76,58.76,0,0,0-8.614-.489.851.851,0,0,0,.034,1.7h.035a59.139,59.139,0,0,1,8.523.5,7.1,7.1,0,0,1,5.48,4.214,7.582,7.582,0,0,0-3.666-.027.851.851,0,0,0-.162,1.567c2.577,1.381,4.557,5.363,5.3,7.045H274.283a.851.851,0,0,0,0,1.7h15.067a1.432,1.432,0,0,0,1.32-1.988Z" transform="translate(-262.46 -131.218)" fill="#fff"/>
        </g>
      </g>
      <g id="Grupo_1110677" data-name="Grupo 1110677" transform="translate(0 134.956)">
        <g id="Grupo_1110676" data-name="Grupo 1110676" transform="translate(0 0)">
          <path id="Trazado_910197" data-name="Trazado 910197" d="M38.067,187.037H4.235a6.992,6.992,0,0,1,3.112-2.03.851.851,0,0,0,.184-1.551,13.579,13.579,0,0,0-5.414-1.564c1.964-1.6,4.544-3.287,4.572-3.305a.851.851,0,0,0-.265-1.54L3.759,176.4A12,12,0,0,1,7.4,174.194l0,0,.006,0a35.257,35.257,0,0,1,8.835-2,.851.851,0,0,0-.115-1.7A35.959,35.959,0,0,0,7.3,172.416l-.875-.818,2.277-.349a.851.851,0,0,0,.321-1.564l-3.5-2.18a16.529,16.529,0,0,1,4.088-.2.847.847,0,0,0,.425-.073c1.122-.509,2.278-.99,3.436-1.43a.851.851,0,1,0-.6-1.591c-1.123.427-2.244.891-3.336,1.382a16.056,16.056,0,0,0-5.107.444,1.433,1.433,0,0,0-.335,2.586l2.085,1.3L5.618,170a1.432,1.432,0,0,0-.761,2.462l.723.676a10.964,10.964,0,0,0-3.431,2.5,1.432,1.432,0,0,0,.763,2.311l1.24.3C3.071,179,1.64,180.046.5,181.022a1.432,1.432,0,0,0,.844,2.516,15.3,15.3,0,0,1,3.667.66,6.509,6.509,0,0,0-2.534,2.433,1.433,1.433,0,0,0,1.264,2.107H38.067a.851.851,0,0,0,0-1.7Z" transform="translate(0 -164.151)" fill="#fff"/>
        </g>
      </g>
      <g id="Grupo_1110679" data-name="Grupo 1110679" transform="translate(12.588 152.775)">
        <g id="Grupo_1110678" data-name="Grupo 1110678">
          <path id="Trazado_910198" data-name="Trazado 910198" d="M123.166,322.439a17.633,17.633,0,0,0-11.688-.556.851.851,0,0,0,.552,1.611,16.185,16.185,0,0,1,10.469.511.851.851,0,1,0,.667-1.566Z" transform="translate(-110.903 -321.14)" fill="#fff"/>
        </g>
      </g>
      <g id="Grupo_1110681" data-name="Grupo 1110681" transform="translate(12.588 148.705)">
        <g id="Grupo_1110680" data-name="Grupo 1110680">
          <path id="Trazado_910199" data-name="Trazado 910199" d="M115.736,285.281a12.587,12.587,0,0,0-4.306.835.851.851,0,0,0,.644,1.576,11.038,11.038,0,0,1,3.64-.709h.02a.851.851,0,0,0,0-1.7Z" transform="translate(-110.902 -285.281)" fill="#fff"/>
        </g>
      </g>
      <g id="Grupo_1110683" data-name="Grupo 1110683" transform="translate(35.077 150.017)">
        <g id="Grupo_1110682" data-name="Grupo 1110682">
          <path id="Trazado_910200" data-name="Trazado 910200" d="M324.414,300.369a.851.851,0,0,0-.933-.761,24.748,24.748,0,0,1-13.173-2.656.851.851,0,0,0-.841,1.48,26.328,26.328,0,0,0,11.942,2.982,22.33,22.33,0,0,0,2.244-.112A.851.851,0,0,0,324.414,300.369Z" transform="translate(-309.036 -296.841)" fill="#fff"/>
        </g>
      </g>
      <g id="Grupo_1110685" data-name="Grupo 1110685" transform="translate(20.91 136.818)">
        <g id="Grupo_1110684" data-name="Grupo 1110684">
          <path id="Trazado_910201" data-name="Trazado 910201" d="M188.954,180.555a12.585,12.585,0,0,0-4.255,1.165.851.851,0,0,0,.743,1.532,11,11,0,0,1,3.583-1,.851.851,0,0,0-.071-1.7Z" transform="translate(-184.22 -180.554)" fill="#fff"/>
        </g>
      </g>
      <g id="Grupo_1110687" data-name="Grupo 1110687" transform="translate(22.869 143.956)">
        <g id="Grupo_1110686" data-name="Grupo 1110686">
          <path id="Trazado_910202" data-name="Trazado 910202" d="M211.856,244.63c-3.9-1.692-9.388-1.095-9.62-1.068a.851.851,0,0,0,.191,1.692c.053-.006,5.274-.571,8.751.938a.851.851,0,1,0,.678-1.562Z" transform="translate(-201.481 -243.438)" fill="#fff"/>
        </g>
      </g>
    </g>
  </g>
</svg>
