<svg xmlns="http://www.w3.org/2000/svg" width="110" height="110" viewBox="0 0 110 110">
  <g id="Grupo_1108432" data-name="Grupo 1108432" transform="translate(-892.051 -1074)">
    <path id="Trazado_896606" data-name="Trazado 896606" d="M55,0A55,55,0,1,1,0,55,55,55,0,0,1,55,0Z" transform="translate(892.051 1074)" fill="#ff7c32" opacity="0.859"/>
    <g id="Grupo_1108423" data-name="Grupo 1108423" transform="translate(911.512 1109.539)">
      <g id="Grupo_1108420" data-name="Grupo 1108420" transform="translate(28.551 6.449)">
        <path id="Trazado_896550" data-name="Trazado 896550" d="M245.373,163.977V191.33a1.39,1.39,0,0,1-1.39,1.39H206.8a1.39,1.39,0,0,1-1.39-1.39V163.977a1.39,1.39,0,0,1,1.39-1.39h37.186a1.39,1.39,0,0,1,1.39,1.39Z" transform="translate(-205.407 -162.587)" fill="#fcb44d"/>
        <g id="Grupo_1108419" data-name="Grupo 1108419">
          <path id="Trazado_896551" data-name="Trazado 896551" d="M301.807,204.387a16.775,16.775,0,0,1,6.319,5.5.7.7,0,0,1-.848,1.021,13.3,13.3,0,0,0-7.1-.668Z" transform="translate(-287.005 -198.577)" fill="#fb9927"/>
          <path id="Trazado_896552" data-name="Trazado 896552" d="M243.983,162.587h-3.631a1.39,1.39,0,0,1,1.39,1.39v14.905l-36.334,1.809v2.087l34.445-1.715a1.8,1.8,0,0,1,1.89,1.8v8.469a1.39,1.39,0,0,1-1.39,1.39h3.631a1.39,1.39,0,0,0,1.39-1.39V163.977a1.39,1.39,0,0,0-1.39-1.39Z" transform="translate(-205.407 -162.587)" fill="#fb9927"/>
          <path id="Trazado_896553" data-name="Trazado 896553" d="M468.651,192.086a13.163,13.163,0,0,1,4.334,3.5.788.788,0,0,1-.85,1.242,7.715,7.715,0,0,0-4.036-.259Z" transform="translate(-431.586 -187.986)" fill="#fb9927"/>
        </g>
      </g>
      <g id="Grupo_1108421" data-name="Grupo 1108421" transform="translate(1.041 2.28)">
        <path id="Trazado_896554" data-name="Trazado 896554" d="M79.906,133.981V165.5a1.39,1.39,0,0,1-1.39,1.39H41.33a1.39,1.39,0,0,1-1.39-1.39V133.981a1.39,1.39,0,0,1,1.39-1.39H78.516A1.39,1.39,0,0,1,79.906,133.981Z" transform="translate(-35.429 -132.591)" fill="#ffd597"/>
        <path id="Trazado_896555" data-name="Trazado 896555" d="M78.517,132.592H74.21a1.389,1.389,0,0,1,1.39,1.39v16.344H39.941v2.085H54.352a2.145,2.145,0,0,1,2.148,2.162c-.008.835.02,1.808.1,2.934a.7.7,0,0,0,1.292.3,28.549,28.549,0,0,1,3.429-4.686,2.154,2.154,0,0,1,1.6-.712H73.452a2.148,2.148,0,0,1,2.148,2.148V165.5a1.389,1.389,0,0,1-1.39,1.39h4.307a1.39,1.39,0,0,0,1.39-1.39V133.982a1.39,1.39,0,0,0-1.39-1.39Z" transform="translate(-35.43 -132.592)" fill="#fcc16d"/>
        <path id="Trazado_896556" data-name="Trazado 896556" d="M13.921,277.667a16.775,16.775,0,0,0-6.319,5.5.7.7,0,0,0,.848,1.021,13.3,13.3,0,0,1,7.1-.668" transform="translate(-7.489 -257.502)" fill="#ffd597"/>
        <path id="Trazado_896557" data-name="Trazado 896557" d="M301.807,180.728a16.775,16.775,0,0,1,6.319,5.5.7.7,0,0,1-.848,1.021,13.3,13.3,0,0,0-7.1-.668Z" transform="translate(-259.495 -174.037)" fill="#fcc16d"/>
        <path id="Trazado_896558" data-name="Trazado 896558" d="M155.035,234.518s-1.032,1.733-.6,7.512a.7.7,0,0,0,1.292.3,27.936,27.936,0,0,1,6.768-7.814Z" transform="translate(-133.919 -220.35)" fill="#ffd597"/>
      </g>
      <g id="Grupo_1108422" data-name="Grupo 1108422" transform="translate(0 0)">
        <path id="Trazado_896559" data-name="Trazado 896559" d="M70.773,129.6a12.243,12.243,0,0,0-1.215-1.341V124.03a2.435,2.435,0,0,0-2.432-2.432H60.911l.006-.151a1.043,1.043,0,0,0-2.083-.089l-.01.24H55.452a1.042,1.042,0,1,0,0,2.085h3.283l-.577,13.543-11.6.577V136.66a1.042,1.042,0,0,0,0-2.076v-2.49a9.756,9.756,0,0,1,1.865.552,1.745,1.745,0,0,0,.667.133,1.74,1.74,0,0,0,1.457-2.679,15.388,15.388,0,0,0-2.809-3.221c.439.011.954.04,1.553.1a1.043,1.043,0,1,0,.216-2.074,18.817,18.817,0,0,0-2.95-.1v-1.125h3.9a1.042,1.042,0,1,0,0-2.085H48.133a6.242,6.242,0,0,1,1.431-.743,1.043,1.043,0,0,0-.689-1.968,8.726,8.726,0,0,0-2.316,1.275v-.3a2.435,2.435,0,0,0-2.432-2.432H35.147l-.009-.234a1.042,1.042,0,1,0-2.083.079l.006.156H17.311l.006-.156a1.042,1.042,0,1,0-2.083-.079l-.009.234H6.94a2.435,2.435,0,0,0-2.432,2.432v3.627a1.042,1.042,0,0,0,2.085,0V119.86a.348.348,0,0,1,.347-.347h8.205l-.226,5.969a15.732,15.732,0,0,0-4,.6,1.042,1.042,0,1,0,.579,2,13.7,13.7,0,0,1,3.342-.512l-.006.164a16.315,16.315,0,0,0-5.564,3.49,1.043,1.043,0,0,0,1.53,1.417,12.917,12.917,0,0,1,3.947-2.6l-.172,4.542H6.593v-6.1a1.042,1.042,0,0,0-2.085,0v6.1a1.042,1.042,0,0,0,0,2.076v2.559a16.432,16.432,0,0,0-4.232,4.355A1.736,1.736,0,0,0,2.4,146.119c.052-.022.108-.043.164-.065A12.589,12.589,0,0,0,1.279,148a1.042,1.042,0,1,0,1.835.99,9.917,9.917,0,0,1,1.395-2.005v4.393a2.435,2.435,0,0,0,2.432,2.432H13.85l-.006.156a1.043,1.043,0,0,0,1,1.081h.04a1.043,1.043,0,0,0,1.041-1l.009-.234h4.857a1.042,1.042,0,0,0,0-2.085H16.015l.569-15.066h3.839a33.771,33.771,0,0,0,.094,3.563,1.737,1.737,0,0,0,3.232.75,27.453,27.453,0,0,1,3.121-4.312h6.918l.569,15.066h-8.57a1.042,1.042,0,0,0,0,2.085h8.649l.009.234a1.043,1.043,0,0,0,1.041,1h.04a1.043,1.043,0,0,0,1-1.081l-.006-.156h1.015v.2a1.042,1.042,0,1,0,2.085,0v-.2H57.451l-.006.151a1.043,1.043,0,0,0,1,1.086h.045a1.043,1.043,0,0,0,1.041-1l.01-.24h7.588a2.435,2.435,0,0,0,2.432-2.432V138.744a1.042,1.042,0,0,0,0-2.075v-4.123a1.832,1.832,0,0,0,1.215-2.945Zm-9.951-5.917h6.3a.348.348,0,0,1,.347.347v2.578a12.187,12.187,0,0,0-1.42-.814,1.042,1.042,0,1,0-.876,1.892,12.284,12.284,0,0,1,3.425,2.573,8.963,8.963,0,0,0-3.691-.069,1.042,1.042,0,1,0,.3,2.063,8.181,8.181,0,0,1,2.258-.087v4.6l-7.224.36Zm-16.7-4.169a.348.348,0,0,1,.347.347v4.709c-.392-.218-.644-.336-.684-.355a1.042,1.042,0,0,0-.877,1.891,16.316,16.316,0,0,1,5.257,4.239,15.136,15.136,0,0,0-6.6-.363,1.042,1.042,0,1,0,.3,2.063,15.51,15.51,0,0,1,2.6-.17v2.7H35.8l-.569-15.066Zm-30.2,32.217H6.941a.348.348,0,0,1-.347-.347v-6.035a15.648,15.648,0,0,1,2.357.172,1.042,1.042,0,1,0,.3-2.063,15.128,15.128,0,0,0-6.6.363,16.317,16.317,0,0,1,5.257-4.239,1.042,1.042,0,0,0-.877-1.891c-.031.014-.19.089-.442.223v-1.248h7.9Zm8.412-19a1.043,1.043,0,0,0-1.534.664c-.078.324-.154.717-.219,1.188H16.663l.569-15.066H33.14l.569,15.066H28.931c.411-.371.841-.738,1.3-1.1a1.071,1.071,0,0,0,.232-1.46,1.043,1.043,0,0,0-1.485-.207,28.722,28.722,0,0,0-6.445,7.156,18.731,18.731,0,0,1,.3-5.1,1.042,1.042,0,0,0-.492-1.148Zm14.1,19-.569-15.066h8.6v10.227a12.187,12.187,0,0,0-1.268-.265,1.042,1.042,0,0,0-.285,2.065,11.911,11.911,0,0,1,1.553.365v2.325a.348.348,0,0,1-.347.347H36.444Zm10.087,0a2.424,2.424,0,0,0,.028-.347v-1.5a9.218,9.218,0,0,1,1.208.734,1.043,1.043,0,1,0,1.223-1.689,12.109,12.109,0,0,0-2.431-1.342v-.849a10.735,10.735,0,0,1,3.045.956,1.043,1.043,0,0,0,.994-1.833,13.126,13.126,0,0,0-4.039-1.233V139.89l11.51-.573L57.54,151.73H46.531Zm20.595,0h-7.5l.533-12.517,7.313-.364v12.533a.347.347,0,0,1-.347.347Z" transform="translate(0.001 -116.191)"/>
        <path id="Trazado_896560" data-name="Trazado 896560" d="M138.924,315.587l-.212,1.284a1.043,1.043,0,0,0,.859,1.2,1.066,1.066,0,0,0,.171.014,1.043,1.043,0,0,0,1.027-.873l.212-1.284a1.043,1.043,0,0,0-2.057-.339Z" transform="translate(-119.419 -287.12)"/>
        <path id="Trazado_896561" data-name="Trazado 896561" d="M161.212,316.7a1.043,1.043,0,0,0-1.191.868l-.158,1.009a1.043,1.043,0,1,0,2.06.323l.158-1.009A1.042,1.042,0,0,0,161.212,316.7Z" transform="translate(-137.631 -288.82)"/>
        <path id="Trazado_896562" data-name="Trazado 896562" d="M203.2,159.462a1.042,1.042,0,1,0-2.057.339l.211,1.283a1.043,1.043,0,0,0,2.057-.339Z" transform="translate(-173.174 -152.696)"/>
        <path id="Trazado_896563" data-name="Trazado 896563" d="M182.436,161.445a1.042,1.042,0,0,0-2.06.323l.158,1.009a1.042,1.042,0,0,0,2.06-.323Z" transform="translate(-155.294 -154.396)"/>
        <path id="Trazado_896564" data-name="Trazado 896564" d="M277.728,275.9a1.043,1.043,0,0,0-2.057.339l.212,1.283a1.043,1.043,0,0,0,2.057-.339Z" transform="translate(-237.341 -252.945)"/>
        <path id="Trazado_896565" data-name="Trazado 896565" d="M367.724,226.711a1.042,1.042,0,0,0,.859,1.2,1.067,1.067,0,0,0,.171.014,1.043,1.043,0,0,0,1.027-.873l.212-1.283a1.043,1.043,0,0,0-2.057-.339Z" transform="translate(-316.599 -209.492)"/>
        <path id="Trazado_896566" data-name="Trazado 896566" d="M389.741,229.609a1.041,1.041,0,0,0,1.191-.868l.158-1.009a1.043,1.043,0,0,0-2.06-.323l-.158,1.009A1.043,1.043,0,0,0,389.741,229.609Z" transform="translate(-334.81 -211.191)"/>
      </g>
    </g>
  </g>
</svg>
