<svg xmlns="http://www.w3.org/2000/svg" xmlns:xlink="http://www.w3.org/1999/xlink" width="88" height="88" viewBox="0 0 88 88">
  <defs>
    <filter id="Elipse_11682" x="0" y="0" width="88" height="88" filterUnits="userSpaceOnUse">
      <feOffset input="SourceAlpha"/>
      <feGaussianBlur stdDeviation="3" result="blur"/>
      <feFlood flood-opacity="0.161"/>
      <feComposite operator="in" in2="blur"/>
      <feComposite in="SourceGraphic"/>
    </filter>
  </defs>
  <g id="Grupo_1110773" data-name="Grupo 1110773" transform="translate(-1072.051 -3121)">
    <g transform="matrix(1, 0, 0, 1, 1072.05, 3121)" filter="url(#Elipse_11682)">
      <circle id="Elipse_11682-2" data-name="Elipse 11682" cx="35" cy="35" r="35" transform="translate(9 9)" fill="#fff"/>
    </g>
    <g id="Grupo_1110772" data-name="Grupo 1110772" transform="translate(976.893 3141)">
      <path id="Trazado_910698" data-name="Trazado 910698" d="M149.245,16.1,144.55,6.8V4.654h.259a.776.776,0,0,0,.776-.776V.776A.776.776,0,0,0,144.809,0h-11.2a.776.776,0,0,0-.776.776v3.1a.776.776,0,0,0,.776.776h.259V6.8l-4.694,9.3a11.057,11.057,0,0,0-1.015,4.265V45.769A2.848,2.848,0,0,0,131,48.613h16.413a2.848,2.848,0,0,0,2.844-2.844V20.363a11.056,11.056,0,0,0-1.015-4.265ZM134.385,1.551h9.648V3.1h-9.648Zm.951,5.78a.775.775,0,0,0,.083-.349V4.654H143V6.982a.775.775,0,0,0,.083.349l2.952,5.849a4.287,4.287,0,0,0-1.292.728,2.283,2.283,0,0,1-3.07,0,3.817,3.817,0,0,0-4.928,0,2.283,2.283,0,0,1-3.069,0,4.286,4.286,0,0,0-1.291-.728l2.952-5.85Zm13.372,38.438a1.294,1.294,0,0,1-1.293,1.293H131a1.294,1.294,0,0,1-1.293-1.293V20.363a9.557,9.557,0,0,1,.849-3.566l1.11-2.2a2.441,2.441,0,0,1,1.077.554,3.816,3.816,0,0,0,4.928,0,2.283,2.283,0,0,1,3.07,0,3.817,3.817,0,0,0,4.928,0,2.44,2.44,0,0,1,1.077-.554l1.11,2.2a9.557,9.557,0,0,1,.849,3.566Z" fill="#ff7c32"/>
      <path id="Trazado_910699" data-name="Trazado 910699" d="M158.935,395a.776.776,0,0,0-.776.776v3.1a.776.776,0,0,0,1.551,0v-3.1A.776.776,0,0,0,158.935,395Z" transform="translate(-26.898 -354.144)" fill="#ff7c32"/>
      <path id="Trazado_910700" data-name="Trazado 910700" d="M159.884,165.119a.776.776,0,0,0-1.042.343,8.242,8.242,0,0,0-.682,2.867v18.165a.776.776,0,0,0,1.551,0V168.329a6.857,6.857,0,0,1,.516-2.168A.776.776,0,0,0,159.884,165.119Z" transform="translate(-26.898 -147.966)" fill="#ff7c32"/>
      <path id="Trazado_910701" data-name="Trazado 910701" d="M214.136,61.551h2.925a.776.776,0,1,0,0-1.551h-2.925a.776.776,0,0,0,0,1.551Z" transform="translate(-76.389 -53.794)" fill="#ff7c32"/>
    </g>
  </g>
</svg>
