<svg xmlns="http://www.w3.org/2000/svg" xmlns:xlink="http://www.w3.org/1999/xlink" width="88" height="88" viewBox="0 0 88 88">
  <defs>
    <filter id="Elipse_11685" x="0" y="0" width="88" height="88" filterUnits="userSpaceOnUse">
      <feOffset input="SourceAlpha"/>
      <feGaussianBlur stdDeviation="3" result="blur"/>
      <feFlood flood-opacity="0.161"/>
      <feComposite operator="in" in2="blur"/>
      <feComposite in="SourceGraphic"/>
    </filter>
  </defs>
  <g id="Grupo_1110775" data-name="Grupo 1110775" transform="translate(-1282.051 -3121)">
    <g transform="matrix(1, 0, 0, 1, 1282.05, 3121)" filter="url(#Elipse_11685)">
      <circle id="Elipse_11685-2" data-name="Elipse 11685" cx="35" cy="35" r="35" transform="translate(9 9)" fill="#fff"/>
    </g>
    <g id="Grupo_1110774" data-name="Grupo 1110774" transform="translate(1266.589 3143.447)">
      <path id="Trazado_910702" data-name="Trazado 910702" d="M152.167,53.3a.718.718,0,0,0,.8-.627,9.52,9.52,0,1,0-1.629,4.274.718.718,0,0,0-1.18-.82A8.083,8.083,0,1,1,151.54,52.5.718.718,0,0,0,152.167,53.3Z" transform="translate(-84.054 -38.228)" fill="#ff7c32"/>
      <path id="Trazado_910703" data-name="Trazado 910703" d="M109.635,33.047h-.153v-7.14a13.3,13.3,0,1,0-4.59.67.718.718,0,0,0,.042-1.436,11.843,11.843,0,1,1,3.631-.454.719.719,0,0,0-.52.691v8.388a.718.718,0,0,0,.718.718h.872a.409.409,0,0,1,.338.64l-4.348,6.369a.409.409,0,0,1-.676,0L100.6,35.124a.409.409,0,0,1,.338-.64h.872a.719.719,0,0,0,.718-.718V29.292a.718.718,0,1,0-1.437,0v3.755h-.153a1.847,1.847,0,0,0-1.525,2.887l4.348,6.369a1.847,1.847,0,0,0,3.049,0l4.348-6.369a1.847,1.847,0,0,0-1.525-2.887Z" transform="translate(-45.825)" fill="#ff7c32"/>
      <path id="Trazado_910704" data-name="Trazado 910704" d="M49.646,211.934v-4.386a.718.718,0,0,0-1.437,0v5.037a.719.719,0,0,0,.718.718h.23a.359.359,0,0,1,.3.562L46.6,218.049a.359.359,0,0,1-.593,0l-2.856-4.184a.359.359,0,0,1,.3-.562h.23a.719.719,0,0,0,.718-.718V200.718a.718.718,0,1,0-1.437,0v11.215a1.8,1.8,0,0,0-1,2.742l2.856,4.184a1.8,1.8,0,0,0,2.967,0l2.856-4.184A1.8,1.8,0,0,0,49.646,211.934Z" transform="translate(0 -182.038)" fill="#ff7c32"/>
      <path id="Trazado_910705" data-name="Trazado 910705" d="M342.7,211.934V200.718a.718.718,0,1,0-1.437,0v11.867a.718.718,0,0,0,.718.718h.23a.359.359,0,0,1,.3.562l-2.856,4.184a.359.359,0,0,1-.593,0l-2.857-4.184a.359.359,0,0,1,.3-.562h.23a.719.719,0,0,0,.719-.718v-5.037a.718.718,0,0,0-1.437,0v4.386a1.8,1.8,0,0,0-1,2.742l2.856,4.184a1.8,1.8,0,0,0,2.967,0l2.856-4.184A1.8,1.8,0,0,0,342.7,211.934Z" transform="translate(-266.738 -182.038)" fill="#ff7c32"/>
      <path id="Trazado_910706" data-name="Trazado 910706" d="M204.5,90.2a.719.719,0,0,0,.718-.718v-.962a3.068,3.068,0,0,0,2.777-2.789c0-2.155-1.94-2.549-3.356-2.836-1.681-.341-2.2-.582-2.2-1.428,0-.766.944-1.413,2.062-1.413a2.315,2.315,0,0,1,1.829.772.718.718,0,1,0,1.14-.874,3.545,3.545,0,0,0-2.247-1.274v-.961a.718.718,0,1,0-1.437,0v.961A3.07,3.07,0,0,0,201,81.469c0,2.155,1.94,2.549,3.356,2.836,1.681.341,2.2.582,2.2,1.428,0,.766-.944,1.413-2.062,1.413a2.315,2.315,0,0,1-1.829-.772.718.718,0,1,0-1.14.874,3.547,3.547,0,0,0,2.254,1.275v.96A.718.718,0,0,0,204.5,90.2Z" transform="translate(-145.037 -70.085)" fill="#ff7c32"/>
    </g>
  </g>
</svg>
