<svg xmlns="http://www.w3.org/2000/svg" xmlns:xlink="http://www.w3.org/1999/xlink" width="93.895" height="96.853" viewBox="0 0 93.895 96.853">
  <defs>
    <filter id="Trazado_896608" x="2.521" y="5.479" width="91.374" height="91.374" filterUnits="userSpaceOnUse">
      <feOffset dy="3" input="SourceAlpha"/>
      <feGaussianBlur stdDeviation="3" result="blur"/>
      <feFlood flood-opacity="0.161"/>
      <feComposite operator="in" in2="blur"/>
      <feComposite in="SourceGraphic"/>
    </filter>
  </defs>
  <g id="Grupo_1110667" data-name="Grupo 1110667" transform="translate(-180 -2463.243)">
    <g transform="matrix(1, 0, 0, 1, 180, 2463.24)" filter="url(#Trazado_896608)">
      <g id="Trazado_896608-2" data-name="Trazado 896608" transform="translate(11.52 11.48)" fill="none">
        <path d="M0,0H73.374V73.374H0Z" stroke="none"/>
        <path d="M 9.999996185302734 9.999996185302734 L 9.999996185302734 63.37383651733398 L 63.37383651733398 63.37383651733398 L 63.37383651733398 9.999996185302734 L 9.999996185302734 9.999996185302734 M 0 0 L 73.37383270263672 0 L 73.37383270263672 73.37383270263672 L 0 73.37383270263672 L 0 0 Z" stroke="none" fill="#f0c869"/>
      </g>
    </g>
    <path id="Trazado_896609" data-name="Trazado 896609" d="M0,0H70.872V70.872H0Z" transform="translate(180 2463.243)" fill="#456345"/>
    <g id="Grupo_1110689" data-name="Grupo 1110689" transform="translate(191.521 2474.764)">
      <path id="Trazado_910203" data-name="Trazado 910203" d="M109.839,52.6a.7.7,0,0,0-.206.969,4.178,4.178,0,0,0,3.391,2.193c2.844,0,5.071-3.834,5.071-8.729s-2.228-8.729-5.071-8.729-5.071,3.834-5.071,8.729a14.264,14.264,0,0,0,.514,3.869.7.7,0,0,0,1.349-.38,13.045,13.045,0,0,1-.462-3.489,11.4,11.4,0,0,1,1.2-5.339c.688-1.264,1.59-1.989,2.474-1.989s1.786.725,2.474,1.989a11.4,11.4,0,0,1,1.2,5.339,11.4,11.4,0,0,1-1.2,5.339c-.688,1.264-1.59,1.989-2.474,1.989a2.861,2.861,0,0,1-2.215-1.556A.7.7,0,0,0,109.839,52.6Z" transform="translate(-97.868 -34.727)" fill="#fff"/>
      <path id="Trazado_910204" data-name="Trazado 910204" d="M141.887,90.676a1.266,1.266,0,0,1,.344.523.7.7,0,0,0,1.288-.551c-.514-1.2-1.243-1.384-1.631-1.384-1.377,0-2.1,2-2.1,3.969s.72,3.969,2.1,3.969,2.1-2,2.1-3.969a.7.7,0,1,0-1.4,0,3.609,3.609,0,0,1-.7,2.559,5.055,5.055,0,0,1,0-5.117Z" transform="translate(-126.732 -80.926)" fill="#fff"/>
      <path id="Trazado_910205" data-name="Trazado 910205" d="M41.581,295.534c0-4.895-2.228-8.729-5.071-8.729s-5.071,3.834-5.071,8.729a14.264,14.264,0,0,0,.514,3.869.7.7,0,1,0,1.349-.38,13.045,13.045,0,0,1-.462-3.489,11.4,11.4,0,0,1,1.2-5.339c.688-1.264,1.59-1.989,2.474-1.989s1.786.725,2.474,1.989a12.514,12.514,0,0,1,0,10.679c-.688,1.264-1.59,1.989-2.474,1.989a2.861,2.861,0,0,1-2.215-1.556.7.7,0,0,0-1.175.763,4.178,4.178,0,0,0,3.39,2.193c2.844,0,5.071-3.834,5.071-8.729Z" transform="translate(-28.502 -260.013)" fill="#fff"/>
      <path id="Trazado_910206" data-name="Trazado 910206" d="M65.373,339.176a1.267,1.267,0,0,1,.344.523.7.7,0,1,0,1.288-.551c-.514-1.2-1.243-1.384-1.631-1.384-1.377,0-2.1,2-2.1,3.969s.72,3.969,2.1,3.969,2.1-2,2.1-3.969a.7.7,0,1,0-1.4,0,3.61,3.61,0,0,1-.7,2.559,5.055,5.055,0,0,1,0-5.117Z" transform="translate(-57.366 -306.212)" fill="#fff"/>
      <path id="Trazado_910207" data-name="Trazado 910207" d="M45.581,26.941c-1.513-2.4-3.559-3.727-5.76-3.727h-3.7a9.39,9.39,0,0,0,2.018-2.326,16.291,16.291,0,0,0,2.248-8.581,16.292,16.292,0,0,0-2.248-8.581C36.625,1.324,34.579,0,32.378,0H15.156a6.234,6.234,0,0,0-4.488,2.09.7.7,0,0,0,1.008.973A4.873,4.873,0,0,1,15.156,1.4c1.7,0,3.327,1.091,4.574,3.072a14.883,14.883,0,0,1,2.033,7.834,14.883,14.883,0,0,1-2.033,7.834c-1.247,1.981-2.872,3.072-4.574,3.072s-3.327-1.091-4.574-3.072a14.883,14.883,0,0,1-2.033-7.834A15.525,15.525,0,0,1,10.18,5.17a.7.7,0,0,0-1.238-.656,16.946,16.946,0,0,0-1.794,7.794A16.292,16.292,0,0,0,9.4,20.888a9.389,9.389,0,0,0,2.018,2.326H8.008c-2.2,0-4.247,1.324-5.76,3.727A16.292,16.292,0,0,0,0,35.522,16.292,16.292,0,0,0,2.248,44.1c1.513,2.4,3.559,3.727,5.76,3.727H39.821c2.149,0,4.16-1.27,5.664-3.576a.7.7,0,0,0-1.174-.765c-1.236,1.9-2.83,2.94-4.49,2.94H38.179A9.39,9.39,0,0,0,40.2,44.1a16.291,16.291,0,0,0,2.248-8.581A16.292,16.292,0,0,0,40.2,26.941a9.39,9.39,0,0,0-2.018-2.326h1.642c1.7,0,3.327,1.091,4.574,3.072a14.883,14.883,0,0,1,2.033,7.834A16.371,16.371,0,0,1,45.45,41.2c-.147.391-.178.919.317,1.114s.837-.2,1-.622a17.784,17.784,0,0,0,1.067-6.17A16.292,16.292,0,0,0,45.581,26.941ZM32.378,1.4c1.7,0,3.327,1.091,4.574,3.072a14.883,14.883,0,0,1,2.033,7.834,14.883,14.883,0,0,1-2.033,7.834c-1.247,1.981-2.872,3.072-4.574,3.072H30.736a9.39,9.39,0,0,0,2.018-2.326A16.291,16.291,0,0,0,35,12.308a18.453,18.453,0,0,0-.521-4.4l1.227-2.329a.7.7,0,0,0-1.24-.653l-.576,1.093a13.192,13.192,0,0,0-1.138-2.3A9.39,9.39,0,0,0,30.736,1.4Zm.652,26.286a14.883,14.883,0,0,1,2.033,7.834,17.08,17.08,0,0,1-.468,4.014l0,.016s0,.01,0,.015a12.861,12.861,0,0,1-1.557,3.789c-1.247,1.981-2.872,3.072-4.574,3.072H26.341A9.391,9.391,0,0,0,28.359,44.1a16.291,16.291,0,0,0,2.248-8.581,16.292,16.292,0,0,0-2.248-8.581,9.389,9.389,0,0,0-2.018-2.326h2.115c1.7,0,3.327,1.091,4.574,3.072ZM18.024,43.356A14.6,14.6,0,0,1,16,36.176q.023-.654,0-1.309a14.6,14.6,0,0,1,2.02-7.18c1.247-1.981,2.872-3.072,4.574-3.072s3.327,1.091,4.574,3.072a14.883,14.883,0,0,1,2.033,7.834,14.883,14.883,0,0,1-2.033,7.834c-1.247,1.981-2.872,3.072-4.574,3.072S19.272,45.337,18.024,43.356ZM26.994,1.4c1.7,0,3.327,1.091,4.574,3.072A14.883,14.883,0,0,1,33.6,12.308a14.883,14.883,0,0,1-2.033,7.834c-1.247,1.981-2.872,3.072-4.574,3.072H24.755a9.393,9.393,0,0,0,2.018-2.326c.209-.331.4-.679.583-1.04a.69.69,0,0,0,.039-.079,17,17,0,0,0,1.626-7.462,16.292,16.292,0,0,0-2.248-8.581A9.393,9.393,0,0,0,24.755,1.4ZM20.916,20.888a16.291,16.291,0,0,0,2.248-8.581,16.292,16.292,0,0,0-2.248-8.581A9.392,9.392,0,0,0,18.9,1.4h2.115c1.7,0,3.327,1.091,4.574,3.072a14.883,14.883,0,0,1,2.033,7.834,16.2,16.2,0,0,1-1.025,5.806l-.811-1.087a.7.7,0,1,0-1.123.838l1.265,1.7c-.992,1.816-2.684,3.654-4.913,3.654H18.9a9.4,9.4,0,0,0,2.018-2.326Zm-2.059,3.727a9.39,9.39,0,0,0-2.018,2.326A13.867,13.867,0,0,0,15.3,30.41a13.869,13.869,0,0,0-1.535-3.469,9.389,9.389,0,0,0-2.018-2.326ZM3.434,43.356A14.883,14.883,0,0,1,1.4,35.522a14.883,14.883,0,0,1,2.033-7.834c1.247-1.981,2.872-3.072,4.574-3.072s3.327,1.091,4.574,3.072a14.6,14.6,0,0,1,2.02,7.18q-.023.654,0,1.309a14.6,14.6,0,0,1-2.02,7.18c-1.247,1.981-2.872,3.072-4.574,3.072s-3.327-1.091-4.574-3.072Zm8.316,3.072A9.39,9.39,0,0,0,13.768,44.1,13.867,13.867,0,0,0,15.3,40.633,13.869,13.869,0,0,0,16.838,44.1a9.39,9.39,0,0,0,2.018,2.326Zm27.261-18.74a12.564,12.564,0,0,1,1.423,3.278l-1.016-.239a.7.7,0,1,0-.32,1.364l1.683.4a17.463,17.463,0,0,1,.263,3.035,14.883,14.883,0,0,1-2.033,7.834c-1.247,1.981-2.872,3.072-4.574,3.072H32.2A9.391,9.391,0,0,0,34.216,44.1a13.5,13.5,0,0,0,1.328-2.818l.415.572a.7.7,0,1,0,1.135-.822l-.775-1.069,2.092-1.072a.7.7,0,1,0-.639-1.247l-1.529.784a18.957,18.957,0,0,0,.222-2.909,16.292,16.292,0,0,0-2.248-8.581A9.391,9.391,0,0,0,32.2,24.615h2.239C36.139,24.615,37.764,25.706,39.011,27.687Z" transform="translate(0)" fill="#fff"/>
      <path id="Trazado_910208" data-name="Trazado 910208" d="M192.7,286.8c-2.844,0-5.071,3.834-5.071,8.729a14.264,14.264,0,0,0,.514,3.869.7.7,0,1,0,1.349-.38,13.045,13.045,0,0,1-.462-3.489,11.4,11.4,0,0,1,1.2-5.339c.688-1.264,1.59-1.989,2.474-1.989s1.786.725,2.474,1.989a12.514,12.514,0,0,1,0,10.679c-.688,1.264-1.59,1.989-2.474,1.989a2.861,2.861,0,0,1-2.215-1.556.7.7,0,0,0-1.175.763,4.178,4.178,0,0,0,3.391,2.193c2.844,0,5.071-3.834,5.071-8.729S195.542,286.8,192.7,286.8Z" transform="translate(-170.1 -260.013)" fill="#fff"/>
      <path id="Trazado_910209" data-name="Trazado 910209" d="M221.56,339.176a1.268,1.268,0,0,1,.344.523.7.7,0,0,0,1.289-.551c-.514-1.2-1.243-1.384-1.631-1.384-1.377,0-2.1,2-2.1,3.969s.72,3.969,2.1,3.969,2.1-2,2.1-3.969a.7.7,0,1,0-1.4,0,3.61,3.61,0,0,1-.7,2.559,5.055,5.055,0,0,1,0-5.117Z" transform="translate(-198.963 -306.212)" fill="#fff"/>
    </g>
  </g>
</svg>
