<svg xmlns="http://www.w3.org/2000/svg" width="190" height="85" viewBox="0 0 190 85">
  <g id="Grupo_1110697" data-name="Grupo 1110697" transform="translate(-75.051 -8748)">
    <rect id="Rectángulo_404271" data-name="Rectángulo 404271" width="190" height="85" rx="14" transform="translate(75.051 8748)" fill="#b4c0b4"/>
    <path id="Trazado_896169" data-name="Trazado 896169" d="M126.41,9.948l-20.4,11.663L85.041,9.625,64.066,21.611,43.1,9.626,22.113,21.612,1.692,9.948A1.125,1.125,0,1,0,.567,11.9L22.113,24.2,43.1,12.217,64.066,24.2,85.041,12.218,106.01,24.2,127.536,11.9a1.12,1.12,0,0,0,.416-1.534A1.133,1.133,0,0,0,126.41,9.948Zm-104.3,4.63L43.1,2.592,64.066,14.579,85.041,2.593,106.01,14.579,127.536,2.271a1.12,1.12,0,0,0,.416-1.534A1.134,1.134,0,0,0,126.41.323l-20.4,11.663L85.041,0,64.066,11.986,43.1,0,22.113,11.987,1.692.323A1.125,1.125,0,1,0,.567,2.271Z" transform="translate(131.925 8795.475)" fill="#51452f" fill-rule="evenodd"/>
    <g id="Grupo_1110725" data-name="Grupo 1110725" transform="translate(131.925 8735.143)">
      <g id="Grupo_1110723" data-name="Grupo 1110723" transform="translate(1.115 21.363)">
        <g id="Grupo_1110722" data-name="Grupo 1110722" transform="translate(0 0)">
          <g id="Grupo_1110718" data-name="Grupo 1110718" transform="translate(0 6.475)">
            <g id="Grupo_1110701" data-name="Grupo 1110701" transform="translate(32.334 15.896)">
              <g id="Grupo_1110700" data-name="Grupo 1110700">
                <g id="Grupo_1110699" data-name="Grupo 1110699">
                  <g id="Grupo_1110698" data-name="Grupo 1110698">
                    <circle id="Elipse_11675" data-name="Elipse 11675" cx="9.176" cy="9.176" r="9.176" fill="#fcc16d"/>
                  </g>
                </g>
              </g>
            </g>
            <g id="Grupo_1110705" data-name="Grupo 1110705" transform="translate(39.609 15.897)">
              <g id="Grupo_1110704" data-name="Grupo 1110704">
                <g id="Grupo_1110703" data-name="Grupo 1110703">
                  <g id="Grupo_1110702" data-name="Grupo 1110702">
                    <path id="Trazado_910219" data-name="Trazado 910219" d="M284.524,187.139a9.181,9.181,0,0,1-11.077,8.977,9.721,9.721,0,0,0,0-17.956,9.183,9.183,0,0,1,11.073,8.979Z" transform="translate(-273.447 -177.964)" fill="#fca62f"/>
                  </g>
                </g>
              </g>
            </g>
            <g id="Grupo_1110709" data-name="Grupo 1110709">
              <g id="Grupo_1110707" data-name="Grupo 1110707" transform="translate(44.314 0.121)">
                <g id="Grupo_1110706" data-name="Grupo 1110706">
                  <path id="Trazado_910220" data-name="Trazado 910220" d="M306.295,89.536l16.029,5.834a9.252,9.252,0,1,0,6.328-17.387l-16.029-5.834a1.908,1.908,0,0,0-2.446,1.14l-5.023,13.8a1.908,1.908,0,0,0,1.14,2.446Z" transform="translate(-305.038 -72.033)" fill="#fcc16d"/>
                  <path id="Trazado_910221" data-name="Trazado 910221" d="M391.945,108.912a9.25,9.25,0,0,1-11.858,5.529l-7.177-2.612a9.251,9.251,0,0,0,6.328-17.387l7.177,2.612a9.252,9.252,0,0,1,5.529,11.858Z" transform="translate(-362.803 -91.105)" fill="#fca62f"/>
                </g>
              </g>
              <g id="Grupo_1110708" data-name="Grupo 1110708">
                <path id="Trazado_910222" data-name="Trazado 910222" d="M35.935,88.725,19.906,94.559a9.252,9.252,0,1,1-6.328-17.387l16.029-5.834a1.908,1.908,0,0,1,2.446,1.14l5.023,13.8A1.908,1.908,0,0,1,35.935,88.725Z" transform="translate(-7.488 -71.222)" fill="#c5d3dd"/>
                <path id="Trazado_910223" data-name="Trazado 910223" d="M117.438,72.477l5.023,13.8a1.909,1.909,0,0,1-1.14,2.446l-7.178,2.613a1.909,1.909,0,0,0,1.14-2.446l-5.023-13.8a1.909,1.909,0,0,0-2.446-1.14l7.178-2.613A1.909,1.909,0,0,1,117.438,72.477Z" transform="translate(-92.873 -71.221)" fill="#a0acb9"/>
              </g>
            </g>
            <g id="Grupo_1110711" data-name="Grupo 1110711" transform="translate(18.955 5.964)">
              <g id="Grupo_1110710" data-name="Grupo 1110710">
                <circle id="Elipse_11676" data-name="Elipse 11676" cx="9.176" cy="9.176" r="9.176" fill="#fca62f"/>
              </g>
            </g>
            <path id="Trazado_910224" data-name="Trazado 910224" d="M183.182,129.409a9.176,9.176,0,1,0,0-17.925,9.553,9.553,0,0,1,0,17.925Z" transform="translate(-157.015 -105.306)" fill="#f98824"/>
            <g id="Grupo_1110714" data-name="Grupo 1110714" transform="translate(15.115 30.83)">
              <g id="Grupo_1110713" data-name="Grupo 1110713">
                <g id="Grupo_1110712" data-name="Grupo 1110712">
                  <circle id="Elipse_11677" data-name="Elipse 11677" cx="9.176" cy="9.176" r="9.176" fill="#31a7fb"/>
                  <path id="Trazado_910225" data-name="Trazado 910225" d="M163.582,287.412a9.178,9.178,0,0,1-12.007,8.729,9.177,9.177,0,0,0,0-17.457,9.178,9.178,0,0,1,12.007,8.729Z" transform="translate(-145.231 -278.237)" fill="#1c96f9"/>
                </g>
              </g>
            </g>
            <g id="Grupo_1110717" data-name="Grupo 1110717" transform="translate(38.679 41.084)">
              <g id="Grupo_1110716" data-name="Grupo 1110716">
                <g id="Grupo_1110715" data-name="Grupo 1110715">
                  <circle id="Elipse_11678" data-name="Elipse 11678" cx="9.176" cy="9.176" r="9.176" fill="#fb3a82"/>
                  <path id="Trazado_910226" data-name="Trazado 910226" d="M321.81,356.26a9.178,9.178,0,0,1-12.007,8.729,9.177,9.177,0,0,0,0-17.457,9.178,9.178,0,0,1,12.007,8.729Z" transform="translate(-303.459 -347.085)" fill="#fb1466"/>
                </g>
              </g>
            </g>
          </g>
          <g id="Grupo_1110719" data-name="Grupo 1110719" transform="translate(54.51 35.655)">
            <path id="Trazado_910227" data-name="Trazado 910227" d="M383.183,270.425h-1.861v-1.861a1.406,1.406,0,0,0-1.406-1.406h-1.738a1.406,1.406,0,0,0-1.406,1.406v1.861H374.91a1.406,1.406,0,0,0-1.406,1.406v1.738a1.406,1.406,0,0,0,1.406,1.406h1.861v1.861a1.406,1.406,0,0,0,1.406,1.406h1.738a1.406,1.406,0,0,0,1.406-1.406v-1.861h1.861a1.406,1.406,0,0,0,1.406-1.406v-1.738A1.406,1.406,0,0,0,383.183,270.425Z" transform="translate(-373.504 -267.158)" fill="#23f1a8"/>
          </g>
          <g id="Grupo_1110720" data-name="Grupo 1110720" transform="translate(33.816)">
            <path id="Trazado_910228" data-name="Trazado 910228" d="M244.229,31.012h-1.861V29.151a1.406,1.406,0,0,0-1.406-1.406h-1.738a1.406,1.406,0,0,0-1.406,1.406v1.861h-1.861a1.406,1.406,0,0,0-1.406,1.406v1.738a1.406,1.406,0,0,0,1.406,1.406h1.861v1.861a1.406,1.406,0,0,0,1.406,1.406h1.738a1.406,1.406,0,0,0,1.406-1.406V35.563h1.861a1.406,1.406,0,0,0,1.406-1.406V32.419A1.406,1.406,0,0,0,244.229,31.012Z" transform="translate(-234.55 -27.745)" fill="#23f1a8"/>
          </g>
          <g id="Grupo_1110721" data-name="Grupo 1110721" transform="translate(6.545 56.903)">
            <path id="Trazado_910229" data-name="Trazado 910229" d="M61.114,413.1H59.253v-1.861a1.406,1.406,0,0,0-1.406-1.406H56.109a1.406,1.406,0,0,0-1.406,1.406V413.1H52.841a1.406,1.406,0,0,0-1.406,1.406v1.738a1.406,1.406,0,0,0,1.406,1.406H54.7v1.861a1.406,1.406,0,0,0,1.406,1.406h1.738a1.406,1.406,0,0,0,1.406-1.406v-1.861h1.861a1.406,1.406,0,0,0,1.406-1.406V414.5A1.407,1.407,0,0,0,61.114,413.1Z" transform="translate(-51.435 -409.83)" fill="#23f1a8"/>
          </g>
        </g>
      </g>
      <g id="Grupo_1110724" data-name="Grupo 1110724" transform="translate(0 20.246)">
        <path id="Trazado_910230" data-name="Trazado 910230" d="M266.286,204.6h-2.445a1.117,1.117,0,0,0-1.117,1.117V213.9a1.117,1.117,0,0,0,1.117,1.117h2.445a4.048,4.048,0,0,0,4.043-4.043v-2.328A4.048,4.048,0,0,0,266.286,204.6Zm1.809,6.372a1.811,1.811,0,0,1-1.809,1.809h-1.328v-5.947h1.328a1.811,1.811,0,0,1,1.809,1.809Z" transform="translate(-223.598 -177.148)"/>
        <path id="Trazado_910231" data-name="Trazado 910231" d="M75.275,75.221a10.3,10.3,0,0,0-5.851-5.361L53.395,64.026a3.025,3.025,0,0,0-3.877,1.808l-5.023,13.8c-.018.049-.03.1-.045.147a10.289,10.289,0,0,0-4.914.311c0-.038,0-.076,0-.114A10.3,10.3,0,0,0,28.194,69.74l-1.465-4.027A3.029,3.029,0,0,0,22.852,63.9l-8.145,2.965a1.117,1.117,0,1,0,.764,2.1L23.616,66a.792.792,0,0,1,1.014.473l1.361,3.739a10.281,10.281,0,0,0-5.932,14.4l-6.908,2.514A8.135,8.135,0,0,1,7.586,71.838l3.308-1.2a1.117,1.117,0,0,0-.764-2.1l-3.308,1.2a10.369,10.369,0,1,0,7.092,19.486l7.4-2.693A10.284,10.284,0,0,0,32.335,89.8c0,.038,0,.076,0,.114A10.292,10.292,0,0,0,47.639,98.9a1.117,1.117,0,1,0-1.09-1.95A8.058,8.058,0,0,1,34.566,89.91a8.159,8.159,0,0,1,.087-1.18,10.331,10.331,0,0,0,4.54-6.113,8.073,8.073,0,0,1,5.494-.5A3.009,3.009,0,0,0,46.3,83.512l2.072.754a8.052,8.052,0,0,1,1.233,9.665,1.117,1.117,0,1,0,1.935,1.117,10.308,10.308,0,0,0,.421-9.476l10.369,3.774A10.368,10.368,0,0,0,75.275,75.221ZM29.245,88.038A8.059,8.059,0,1,1,37.3,79.979,8.068,8.068,0,0,1,29.245,88.038Zm44.277-5.652A8.134,8.134,0,0,1,63.1,87.247L47.067,81.413a.792.792,0,0,1-.473-1.014l5.023-13.8a.791.791,0,0,1,1.014-.473L68.66,71.959a8.135,8.135,0,0,1,4.862,10.426Z" transform="translate(0 -57.247)"/>
        <path id="Trazado_910232" data-name="Trazado 910232" d="M169.985,142.64a1.117,1.117,0,1,0,1.58-1.58,4.955,4.955,0,1,0,0,7.01,1.117,1.117,0,0,0-1.58-1.58,2.723,2.723,0,1,1,0-3.851Z" transform="translate(-138.814 -121.834)"/>
        <path id="Trazado_910233" data-name="Trazado 910233" d="M111.771,270.734a10.292,10.292,0,1,0,10.293,10.292A10.3,10.3,0,0,0,111.771,270.734Zm0,18.351a8.059,8.059,0,1,1,8.059-8.059A8.068,8.068,0,0,1,111.771,289.085Z" transform="translate(-86.365 -233.429)"/>
        <path id="Trazado_910234" data-name="Trazado 910234" d="M153.61,309.552a3.027,3.027,0,0,0-2.545-4.673h-2.848A1.117,1.117,0,0,0,147.1,306v8.181a1.117,1.117,0,0,0,1.117,1.117h3.2a3.291,3.291,0,0,0,2.2-5.742Zm-4.276-2.439h1.731a.8.8,0,1,1,0,1.6h-1.731Zm2.078,5.947h-2.078v-2.118h2.078a1.059,1.059,0,0,1,0,2.118Z" transform="translate(-125.193 -262.489)"/>
        <path id="Trazado_910235" data-name="Trazado 910235" d="M271.614,339.584a10.353,10.353,0,0,0-9.864,7.353,1.117,1.117,0,1,0,2.141.637,8.056,8.056,0,1,1-.087,4.3,1.117,1.117,0,0,0-2.165.551,10.293,10.293,0,1,0,9.975-12.836Z" transform="translate(-222.644 -292.026)"/>
        <path id="Trazado_910236" data-name="Trazado 910236" d="M300.436,383.162a1.117,1.117,0,0,0,1.047-.728l.334-.9h3.788l.334.9a1.117,1.117,0,0,0,2.094-.779l-2.471-6.642a1.975,1.975,0,0,0-3.7,0l-2.471,6.642a1.118,1.118,0,0,0,1.047,1.507Zm4.339-3.86h-2.126l1.063-2.857Z" transform="translate(-254.741 -321.084)"/>
        <path id="Trazado_910237" data-name="Trazado 910237" d="M376.8,262.925h-.744v-.744a2.526,2.526,0,0,0-2.523-2.523H371.8a2.526,2.526,0,0,0-2.523,2.523v.744h-.744a2.526,2.526,0,0,0-2.523,2.523v1.738a2.526,2.526,0,0,0,2.523,2.523h.744v.744a2.526,2.526,0,0,0,2.523,2.523h1.738a2.526,2.526,0,0,0,2.523-2.523v-.744h.744a2.526,2.526,0,0,0,2.523-2.523v-1.738A2.526,2.526,0,0,0,376.8,262.925Zm.289,4.261a.29.29,0,0,1-.289.289h-1.861a1.117,1.117,0,0,0-1.117,1.117v1.861a.289.289,0,0,1-.289.289H371.8a.29.29,0,0,1-.289-.289v-1.861a1.117,1.117,0,0,0-1.117-1.117H368.53a.29.29,0,0,1-.289-.289v-1.738a.289.289,0,0,1,.289-.289h1.861a1.117,1.117,0,0,0,1.117-1.117v-1.861a.29.29,0,0,1,.289-.289h1.738a.29.29,0,0,1,.289.289v1.861a1.117,1.117,0,0,0,1.117,1.117H376.8a.29.29,0,0,1,.289.289Z" transform="translate(-311.498 -224.003)"/>
        <path id="Trazado_910238" data-name="Trazado 910238" d="M229.575,30.3h.744v.744a2.526,2.526,0,0,0,2.523,2.523h1.738a2.526,2.526,0,0,0,2.523-2.523V30.3h.744a2.526,2.526,0,0,0,2.523-2.523V26.036a2.526,2.526,0,0,0-2.523-2.523H237.1v-.744a2.526,2.526,0,0,0-2.523-2.523h-1.738a2.526,2.526,0,0,0-2.523,2.523v.744h-.744a2.526,2.526,0,0,0-2.523,2.523v1.738A2.526,2.526,0,0,0,229.575,30.3Zm-.289-4.261a.29.29,0,0,1,.289-.289h1.861a1.117,1.117,0,0,0,1.117-1.117V22.769a.29.29,0,0,1,.289-.289h1.738a.29.29,0,0,1,.289.289V24.63a1.117,1.117,0,0,0,1.117,1.117h1.861a.29.29,0,0,1,.289.289v1.738a.29.29,0,0,1-.289.289h-1.861a1.117,1.117,0,0,0-1.117,1.117v1.861a.29.29,0,0,1-.289.289h-1.738a.29.29,0,0,1-.289-.289V29.18a1.117,1.117,0,0,0-1.117-1.117h-1.861a.29.29,0,0,1-.289-.289Z" transform="translate(-193.238 -20.246)"/>
        <path id="Trazado_910239" data-name="Trazado 910239" d="M54.731,405.6h-.744v-.744a2.526,2.526,0,0,0-2.523-2.523H49.725a2.526,2.526,0,0,0-2.523,2.523v.744h-.744a2.526,2.526,0,0,0-2.523,2.523v1.738a2.526,2.526,0,0,0,2.523,2.523H47.2v.744a2.526,2.526,0,0,0,2.523,2.523h1.738a2.526,2.526,0,0,0,2.523-2.523v-.744h.744a2.526,2.526,0,0,0,2.523-2.523v-1.738A2.526,2.526,0,0,0,54.731,405.6Zm.289,4.261a.29.29,0,0,1-.289.289H52.87a1.117,1.117,0,0,0-1.117,1.117v1.861a.29.29,0,0,1-.289.289H49.725a.29.29,0,0,1-.289-.289v-1.861a1.117,1.117,0,0,0-1.117-1.117H46.458a.29.29,0,0,1-.289-.289v-1.738a.29.29,0,0,1,.289-.289h1.861a1.117,1.117,0,0,0,1.117-1.117v-1.861a.29.29,0,0,1,.289-.289h1.738a.29.29,0,0,1,.289.289v1.861a1.117,1.117,0,0,0,1.117,1.117H54.73a.29.29,0,0,1,.289.289v1.738Z" transform="translate(-37.392 -345.428)"/>
      </g>
    </g>
  </g>
</svg>
