<svg xmlns="http://www.w3.org/2000/svg" xmlns:xlink="http://www.w3.org/1999/xlink" width="88" height="88" viewBox="0 0 88 88">
  <defs>
    <filter id="Elipse_11679" x="0" y="0" width="88" height="88" filterUnits="userSpaceOnUse">
      <feOffset input="SourceAlpha"/>
      <feGaussianBlur stdDeviation="3" result="blur"/>
      <feFlood flood-opacity="0.161"/>
      <feComposite operator="in" in2="blur"/>
      <feComposite in="SourceGraphic"/>
    </filter>
  </defs>
  <g id="Grupo_1110778" data-name="Grupo 1110778" transform="translate(-651.051 -3353)">
    <g transform="matrix(1, 0, 0, 1, 651.05, 3353)" filter="url(#Elipse_11679)">
      <circle id="Elipse_11679-2" data-name="Elipse 11679" cx="35" cy="35" r="35" transform="translate(9 9)" fill="#fff"/>
    </g>
    <g id="Grupo_1110777" data-name="Grupo 1110777" transform="translate(671.314 3357.242)">
      <g id="Grupo_1110776" data-name="Grupo 1110776" transform="translate(0 17.933)">
        <path id="Trazado_910707" data-name="Trazado 910707" d="M331.3,68.963l-.007.024-.77,2.7-.8-2.709-.008-.025a.808.808,0,0,0-1.561.113l-.846,4.688a.7.7,0,1,0,1.377.248l.4-2.235.67,2.272.008.024a.807.807,0,0,0,.766.551h0a.807.807,0,0,0,.765-.558l.007-.025.647-2.269.429,2.246a.7.7,0,1,0,1.374-.263l-.9-4.7a.808.808,0,0,0-1.561-.088Z" transform="translate(-296.775 -63.697)" fill="#ff7c32"/>
        <path id="Trazado_910708" data-name="Trazado 910708" d="M404.706,87.079a.7.7,0,0,0-.548.265,2.324,2.324,0,1,0-.152,4.19v.043c0,.009,0,.013,0,.022a1.444,1.444,0,0,1-.1.53.541.541,0,0,1-.543.36,1.392,1.392,0,0,1-.939-.214.7.7,0,0,0-1.2.633.764.764,0,0,0,.174.314c.013.015.027.03.041.044a1.867,1.867,0,0,0,.505.345,2.976,2.976,0,0,0,1.314.279q.082,0,.166,0a2.122,2.122,0,0,0,1.987-2.323V87.778A.7.7,0,0,0,404.706,87.079Zm-.7,2.333a.925.925,0,1,1,0-.018Z" transform="translate(-363.383 -80.63)" fill="#ff7c32"/>
        <path id="Trazado_910709" data-name="Trazado 910709" d="M139.2,241.973a.7.7,0,0,0-.7.7v6.763a.7.7,0,1,0,1.4,0v-2.8h3.281v2.8a.7.7,0,1,0,1.4,0v-6.763a.7.7,0,0,0-1.4,0v2.566H139.9v-2.566A.7.7,0,0,0,139.2,241.973Z" transform="translate(-125.586 -221.079)" fill="#ff7c32"/>
        <path id="Trazado_910710" data-name="Trazado 910710" d="M277.611,242.869a4.081,4.081,0,1,0-4.081,4.081A4.086,4.086,0,0,0,277.611,242.869Zm-6.763,0a2.682,2.682,0,1,1,2.682,2.682A2.685,2.685,0,0,1,270.848,242.869Z" transform="translate(-244.32 -218.191)" fill="#ff7c32"/>
        <path id="Trazado_910711" data-name="Trazado 910711" d="M224.334,304.925a.682.682,0,0,0,.012-.069l.028-.219a.7.7,0,0,0,.006-.089,2.147,2.147,0,0,0-4.254-.415.7.7,0,0,0,1.373.27.748.748,0,0,1,1.482.109l-.016.129a3.092,3.092,0,0,1-.486.954c-.9,1.279-1.43,1.979-1.717,2.355-.356.466-.534.7-.416,1.084a.725.725,0,0,0,.471.477,4.623,4.623,0,0,0,1.281.059c.433,0,1.023,0,1.832-.014a.7.7,0,0,0-.018-1.4c-.528.007-1.086.011-1.563.013.309-.414.726-.987,1.276-1.773A4.353,4.353,0,0,0,224.334,304.925Z" transform="translate(-199.585 -275.871)" fill="#ff7c32"/>
        <path id="Trazado_910712" data-name="Trazado 910712" d="M60.932,356.273l2.03-1.866a.7.7,0,1,0-.947-1.03l-1.567,1.44v-.989a.7.7,0,0,0-1.4,0v5.093a.7.7,0,1,0,1.4,0V357.75l1.735,1.674a.7.7,0,1,0,.971-1.007Z" transform="translate(-53.542 -321.868)" fill="#ff7c32"/>
        <path id="Trazado_910713" data-name="Trazado 910713" d="M359.031,372.449a.7.7,0,0,0-.985.086,1.308,1.308,0,0,1-1.069.469,1.848,1.848,0,1,1,1.033-3.381.7.7,0,1,0,.783-1.159,3.247,3.247,0,1,0-1.816,5.939,2.705,2.705,0,0,0,2.141-.969A.7.7,0,0,0,359.031,372.449Z" transform="translate(-320.74 -335.27)" fill="#ff7c32"/>
        <path id="Trazado_910714" data-name="Trazado 910714" d="M420.3,381.248a2.419,2.419,0,1,0,0,4.349.7.7,0,0,0,1.361-.227v-3.9a.7.7,0,0,0-1.361-.227Zm-1.058,3.194a1.02,1.02,0,1,1,1.02-1.02A1.021,1.021,0,0,1,419.239,384.442Z" transform="translate(-377.947 -346.936)" fill="#ff7c32"/>
        <path id="Trazado_910715" data-name="Trazado 910715" d="M47.9,45.3a8.554,8.554,0,0,0-1.2.085A14.181,14.181,0,0,0,44.407,36.5l-.387-.6h5.827a2.017,2.017,0,0,0,1.742-1.006l4.025-6.972a2.017,2.017,0,0,0,0-2.011L51.59,18.939a2.017,2.017,0,0,0-1.742-1.006H47.226a.7.7,0,0,0,0,1.4h2.621a.614.614,0,0,1,.531.306L54.4,26.61a.615.615,0,0,1,0,.613l-4.025,6.972a.614.614,0,0,1-.531.306H43.116l-5.508-8.526,3.659-6.337a.614.614,0,0,1,.531-.306h2.165a.7.7,0,1,0,0-1.4H41.8a2.017,2.017,0,0,0-1.742,1.006l-3.3,5.716-3.228-5a1.485,1.485,0,0,0-2.494,0l-2.008,3.108a8.776,8.776,0,0,0-16.082,2.969A.7.7,0,1,0,14.317,26a7.376,7.376,0,1,1,.041,2.983.7.7,0,0,0-1.366.3,8.778,8.778,0,0,0,7.424,6.809l-.264.409A14.558,14.558,0,0,0,18.212,41a.7.7,0,1,0,1.36.327,13.165,13.165,0,0,1,1.755-4.067l.714-1.1a8.778,8.778,0,0,0,7.71-11.933l2.457-3.8a.086.086,0,0,1,.144,0l10.88,16.841a12.793,12.793,0,0,1,2.03,8.462,8.52,8.52,0,0,0-5.766,9.5,13.115,13.115,0,0,1-16.132-1.357l.291-.5a1.843,1.843,0,0,0,0-1.838l-2.424-4.2a1.843,1.843,0,0,0-1.592-.919h-.246a12.965,12.965,0,0,1-.173-1.985.7.7,0,0,0-.7-.693h-.007a.7.7,0,0,0-.693.706,14.358,14.358,0,0,0,.156,1.972H14.792a1.843,1.843,0,0,0-1.592.919l-2.423,4.2a1.843,1.843,0,0,0,0,1.838l2.424,4.2a1.843,1.843,0,0,0,1.592.919h4.847a1.843,1.843,0,0,0,1.592-.919L22.647,55.1a14.529,14.529,0,0,0,17.216,1.542A8.518,8.518,0,1,0,47.9,45.3ZM22.443,52.659l-2.424,4.2a.44.44,0,0,1-.38.22H14.792a.44.44,0,0,1-.38-.22l-2.424-4.2a.44.44,0,0,1,0-.439l2.424-4.2a.44.44,0,0,1,.38-.22h4.847a.44.44,0,0,1,.38.22l2.424,4.2A.44.44,0,0,1,22.443,52.659ZM47.9,60.939a7.119,7.119,0,1,1,7.119-7.119A7.128,7.128,0,0,1,47.9,60.939Z" transform="translate(-9.549 -17.933)" fill="#ff7c32"/>
        <path id="Trazado_910716" data-name="Trazado 910716" d="M71.857,82.3a.7.7,0,0,0-.491.668v5.3a.7.7,0,1,0,1.4,0V85.215l2.307,3.341a.768.768,0,0,0,.869.319.8.8,0,0,0,.543-.792l-.05-5.129a.7.7,0,0,0-.7-.693h-.007a.7.7,0,0,0-.693.706l.03,3.117-2.425-3.511A.7.7,0,0,0,71.857,82.3Z" transform="translate(-64.71 -76.263)" fill="#ff7c32"/>
        <path id="Trazado_910717" data-name="Trazado 910717" d="M136.532,100.615a.7.7,0,0,0,1.371-.195V96.362a.7.7,0,0,0-1.371-.195,2.49,2.49,0,1,0,0,4.447Zm-2.211-2.223a1.091,1.091,0,1,1,1.091,1.091A1.093,1.093,0,0,1,134.321,98.391Z" transform="translate(-120.526 -88.414)" fill="#ff7c32"/>
        <path id="Trazado_910718" data-name="Trazado 910718" d="M3.521,217.946A3.521,3.521,0,1,0,0,214.426,3.525,3.525,0,0,0,3.521,217.946Zm0-5.642A2.122,2.122,0,1,1,1.4,214.426,2.124,2.124,0,0,1,3.521,212.3Z" transform="translate(0 -192.908)" fill="#ff7c32"/>
        <path id="Trazado_910719" data-name="Trazado 910719" d="M434.938,226.767l-1.318-2.283a1.322,1.322,0,0,0-1.142-.659h-2.636a1.322,1.322,0,0,0-1.142.659l-1.318,2.283a1.322,1.322,0,0,0,0,1.319l1.318,2.283a1.323,1.323,0,0,0,1.142.659h2.636a1.322,1.322,0,0,0,1.142-.659l1.318-2.283A1.322,1.322,0,0,0,434.938,226.767Zm-2.506,2.862h-2.543l-1.272-2.2,1.272-2.2h2.543l1.272,2.2Z" transform="translate(-387.364 -204.623)" fill="#ff7c32"/>
      </g>
    </g>
  </g>
</svg>
