<svg xmlns="http://www.w3.org/2000/svg" xmlns:xlink="http://www.w3.org/1999/xlink" width="93.895" height="96.853" viewBox="0 0 93.895 96.853">
  <defs>
    <filter id="Trazado_896608" x="2.521" y="5.479" width="91.374" height="91.374" filterUnits="userSpaceOnUse">
      <feOffset dy="3" input="SourceAlpha"/>
      <feGaussianBlur stdDeviation="3" result="blur"/>
      <feFlood flood-opacity="0.161"/>
      <feComposite operator="in" in2="blur"/>
      <feComposite in="SourceGraphic"/>
    </filter>
  </defs>
  <g id="Grupo_1108449" data-name="Grupo 1108449" transform="translate(-180 -2463.243)">
    <g transform="matrix(1, 0, 0, 1, 180, 2463.24)" filter="url(#Trazado_896608)">
      <g id="Trazado_896608-2" data-name="Trazado 896608" transform="translate(11.52 11.48)" fill="none">
        <path d="M0,0H73.374V73.374H0Z" stroke="none"/>
        <path d="M 9.999996185302734 9.999996185302734 L 9.999996185302734 63.37383651733398 L 63.37383651733398 63.37383651733398 L 63.37383651733398 9.999996185302734 L 9.999996185302734 9.999996185302734 M 0 0 L 73.37383270263672 0 L 73.37383270263672 73.37383270263672 L 0 73.37383270263672 L 0 0 Z" stroke="none" fill="#f0c869"/>
      </g>
    </g>
    <path id="Trazado_896609" data-name="Trazado 896609" d="M0,0H70.872V70.872H0Z" transform="translate(180 2463.243)" fill="#456345"/>
    <g id="Grupo_1108441" data-name="Grupo 1108441" transform="translate(186.659 2445.344)">
      <path id="Trazado_896610" data-name="Trazado 896610" d="M321.588,335.509a.9.9,0,0,0,.9-.9v-5.588a.9.9,0,0,0-.45-.779l-4.839-2.794a.9.9,0,0,0-.9,1.558l4.39,2.535v5.069A.9.9,0,0,0,321.588,335.509Z" transform="translate(-280.345 -264.198)" fill="#fff"/>
      <path id="Trazado_896611" data-name="Trazado 896611" d="M182.194,66.962l7.088,4.092v5.378a.9.9,0,1,0,1.8,0V71.054l7.088-4.092a.9.9,0,1,0-.9-1.558L190.182,69.5,183.094,65.4a.9.9,0,1,0-.9,1.558Z" transform="translate(-161.315 -33.387)" fill="#fff"/>
      <path id="Trazado_896612" data-name="Trazado 896612" d="M253.638,218.472a.9.9,0,1,0,1.8,0v-5.588a.9.9,0,0,0-.45-.779l-4.84-2.794a.9.9,0,1,0-.9,1.558l4.39,2.535Z" transform="translate(-220.831 -161.116)" fill="#fff"/>
      <path id="Trazado_896613" data-name="Trazado 896613" d="M93.317,194.654l-7.088,4.092-6.638-3.832v-8.185a.9.9,0,0,0-.45-.779L71.6,181.6a.9.9,0,0,0-.9,0l-7.538,4.352a.9.9,0,0,0-.45.779v8.185l-6.638,3.833-7.088-4.092a.9.9,0,0,0-.9,1.558L55.18,200.3v8.184a.9.9,0,1,0,1.8,0V200.3l6.638-3.833,6.638,3.833v1.344a.9.9,0,0,0,1.8,0V200.3l6.638-3.833L85.33,200.3v7.665L78.692,211.8l-6.638-3.833V204.43a.9.9,0,0,0-1.8,0v4.058a.9.9,0,0,0,.45.779l7.537,4.353a.9.9,0,0,0,.9,0l7.537-4.352a.9.9,0,0,0,.45-.779V200.3l7.088-4.092a.9.9,0,0,0-.9-1.558Zm-28.8-7.406,6.638-3.833,6.638,3.833v7.666l-6.638,3.832-6.638-3.832Z" transform="translate(-42.288 -136.52)" fill="#fff"/>
      <path id="Trazado_896614" data-name="Trazado 896614" d="M337.688,33.033a2.683,2.683,0,1,0-2.682-2.682A2.683,2.683,0,0,0,337.688,33.033Zm0-3.566a.884.884,0,1,1-.884.884A.884.884,0,0,1,337.688,29.467Z" transform="translate(-297.348)" fill="#fff"/>
      <path id="Trazado_896615" data-name="Trazado 896615" d="M137.357,33.033a2.683,2.683,0,1,0-2.683-2.682A2.683,2.683,0,0,0,137.357,33.033Zm0-3.566a.884.884,0,1,1-.884.884A.884.884,0,0,1,137.357,29.467Z" transform="translate(-119.536)" fill="#fff"/>
      <path id="Trazado_896616" data-name="Trazado 896616" d="M2.682,263.12A2.683,2.683,0,1,0,5.364,265.8a2.683,2.683,0,0,0-2.683-2.683Zm0,3.566a.884.884,0,1,1,.884-.884.884.884,0,0,1-.884.884Z" transform="translate(0 -208.984)" fill="#fff"/>
      <path id="Trazado_896617" data-name="Trazado 896617" d="M466.957,263.12a2.683,2.683,0,1,0,2.682,2.682A2.683,2.683,0,0,0,466.957,263.12Zm0,3.566a.884.884,0,1,1,.884-.884.884.884,0,0,1-.884.884Z" transform="translate(-412.084 -208.984)" fill="#fff"/>
      <path id="Trazado_896618" data-name="Trazado 896618" d="M98.792,436.606a2.683,2.683,0,1,0,2.682,2.682A2.683,2.683,0,0,0,98.792,436.606Zm0,3.566a.884.884,0,1,1,.884-.884A.884.884,0,0,1,98.792,440.172Z" transform="translate(-85.306 -362.968)" fill="#fff"/>
    </g>
  </g>
</svg>
