<svg xmlns="http://www.w3.org/2000/svg" xmlns:xlink="http://www.w3.org/1999/xlink" width="93.895" height="96.853" viewBox="0 0 93.895 96.853">
  <defs>
    <filter id="Trazado_896608" x="2.521" y="5.479" width="91.374" height="91.374" filterUnits="userSpaceOnUse">
      <feOffset dy="3" input="SourceAlpha"/>
      <feGaussianBlur stdDeviation="3" result="blur"/>
      <feFlood flood-opacity="0.161"/>
      <feComposite operator="in" in2="blur"/>
      <feComposite in="SourceGraphic"/>
    </filter>
  </defs>
  <g id="Grupo_1108450" data-name="Grupo 1108450" transform="translate(-180 -2463.243)">
    <g transform="matrix(1, 0, 0, 1, 180, 2463.24)" filter="url(#Trazado_896608)">
      <g id="Trazado_896608-2" data-name="Trazado 896608" transform="translate(11.52 11.48)" fill="none">
        <path d="M0,0H73.374V73.374H0Z" stroke="none"/>
        <path d="M 9.999996185302734 9.999996185302734 L 9.999996185302734 63.37383651733398 L 63.37383651733398 63.37383651733398 L 63.37383651733398 9.999996185302734 L 9.999996185302734 9.999996185302734 M 0 0 L 73.37383270263672 0 L 73.37383270263672 73.37383270263672 L 0 73.37383270263672 L 0 0 Z" stroke="none" fill="#f0c869"/>
      </g>
    </g>
    <path id="Trazado_896609" data-name="Trazado 896609" d="M0,0H70.872V70.872H0Z" transform="translate(180 2463.243)" fill="#456345"/>
    <g id="Layer_28" data-name="Layer 28" transform="translate(182.887 2466.129)">
      <path id="Trazado_896619" data-name="Trazado 896619" d="M7.636,40.242c1.5,0,2.785-1.33,3.5-3.6h1.655a20.03,20.03,0,0,0,2.9,6.974l-1.174,1.174c-2.117-1.093-3.959-1.13-5-.069-.874.874-1.012,2.292-.393,3.984a12.55,12.55,0,0,0,2.941,4.371,12.625,12.625,0,0,0,4.371,2.941,5.62,5.62,0,0,0,1.923.381,2.816,2.816,0,0,0,2.054-.774c1.061-1.061,1.03-2.91-.069-5l1.13-1.218a20.043,20.043,0,0,0,6.974,2.9v1.648c-2.267.724-3.6,2-3.6,3.5,0,2.335,3.309,4.1,7.692,4.1s7.692-1.761,7.692-4.1c0-1.5-1.33-2.779-3.6-3.5V52.3a20.043,20.043,0,0,0,6.974-2.9l1.174,1.18c-1.1,2.11-1.13,3.959-.069,5a2.816,2.816,0,0,0,2.054.774,5.619,5.619,0,0,0,1.923-.381A13.805,13.805,0,0,0,56,48.7c.624-1.692.481-3.122-.393-3.984-1.068-1.061-2.91-1.024-5.026.069l-1.174-1.174a20.03,20.03,0,0,0,2.9-6.974h1.655c.718,2.273,2,3.6,3.5,3.6,2.335,0,4.1-3.309,4.1-7.7s-1.761-7.692-4.1-7.692c-1.5,0-2.785,1.33-3.5,3.6H52.3a19.93,19.93,0,0,0-2.9-6.974L50.581,20.3c2.117,1.093,3.959,1.13,5.026.062.874-.874,1.012-2.285.393-3.977a12.625,12.625,0,0,0-2.941-4.371,12.488,12.488,0,0,0-4.371-2.935C47,8.46,45.568,8.6,44.712,9.478c-1.061,1.061-1.03,2.9.069,5l-1.161,1.218a20.149,20.149,0,0,0-6.974-2.9V11.139c2.267-.724,3.6-2,3.6-3.509,0-2.335-3.322-4.09-7.692-4.09s-7.692,1.755-7.692,4.09c0,1.5,1.33,2.785,3.6,3.509v1.648a20.149,20.149,0,0,0-6.974,2.9L20.3,14.517c1.1-2.117,1.13-3.959.069-5C19.5,8.648,18.088,8.5,16.4,9.128a12.488,12.488,0,0,0-4.371,2.935,12.625,12.625,0,0,0-2.941,4.371c-.624,1.692-.481,3.122.393,3.977,1.068,1.068,2.91,1.03,5.026-.062l1.186,1.13a19.93,19.93,0,0,0-2.9,6.974H11.139c-.718-2.273-2-3.6-3.5-3.6-2.335,0-4.1,3.328-4.1,7.7s1.761,7.692,4.1,7.692ZM54.7,30.414a.993.993,0,0,0,.949-.749c.45-1.873,1.249-2.853,1.8-2.853.849,0,2.135,2.285,2.135,5.732s-1.286,5.732-2.135,5.732c-.537,0-1.355-1-1.8-2.847a.993.993,0,0,0-.955-.749H52.611a20.286,20.286,0,0,0,0-4.265ZM38.281,57.456c0,.849-2.285,2.135-5.732,2.135s-5.732-1.286-5.732-2.135c0-.537,1-1.355,2.847-1.8a.974.974,0,0,0,.749-.955V52.611c.706.069,1.417.112,2.135.112s1.43-.044,2.135-.112V54.7a.974.974,0,0,0,.749.955c1.848.45,2.847,1.249,2.847,1.8ZM26.817,7.63c0-.849,2.285-2.129,5.732-2.129s5.732,1.28,5.732,2.129c0,.543-1,1.361-2.847,1.811a.974.974,0,0,0-.749.949v2.092a20.342,20.342,0,0,0-4.271,0V10.39a.974.974,0,0,0-.749-.943C27.816,8.991,26.817,8.2,26.817,7.63ZM17.108,22.9l.93.912a.98.98,0,0,0,1.4-1.374l-4.059-4.046a.98.98,0,0,0-1.205-.144c-1.63.993-2.91,1.118-3.291.737-.624-.624.106-3.122,2.541-5.563a10.758,10.758,0,0,1,3.646-2.5c.88-.325,1.63-.35,1.917-.062.381.381.25,1.667-.737,3.291a.98.98,0,0,0,.144,1.205l4.046,4.083a.98.98,0,1,0,1.367-1.4l-.924-.924a18.107,18.107,0,0,1,19.294,0l-.887.924a.974.974,0,0,0,0,1.4.987.987,0,0,0,1.386,0l4.046-4.046a.98.98,0,0,0,.144-1.205c-.987-1.623-1.118-2.91-.737-3.291.287-.287,1.036-.262,1.917.062a10.758,10.758,0,0,1,3.646,2.5c2.435,2.441,3.122,5,2.541,5.563-.381.381-1.661.256-3.291-.737a.98.98,0,0,0-1.205.144l-4.077,4.009a.98.98,0,1,0,1.4,1.374l.93-.93a18.182,18.182,0,0,1,0,19.3l-.93-.887a.98.98,0,0,0-1.4,1.361L49.707,46.7a.993.993,0,0,0,1.205.144c1.63-.993,2.91-1.124,3.291-.737.624.624-.106,3.122-2.541,5.557S46.7,54.79,46.1,54.215c-.381-.381-.25-1.667.737-3.291a.98.98,0,0,0-.144-1.205l-4.034-4.059a.98.98,0,0,0-1.367,1.4l.924.924a18.107,18.107,0,0,1-19.294,0l.887-.924a.98.98,0,0,0-1.367-1.4L18.394,49.72a.98.98,0,0,0-.144,1.205c.987,1.623,1.118,2.91.737,3.291-.624.624-3.122-.112-5.563-2.548S10.3,46.71,10.883,46.111c.381-.387,1.661-.256,3.291.737a.993.993,0,0,0,1.205-.144l4.059-4.052a.98.98,0,0,0-1.4-1.361l-.93.93a18.182,18.182,0,0,1,0-19.3ZM7.636,26.811c.537,0,1.355,1,1.8,2.853a.993.993,0,0,0,.955.749h2.092a20.286,20.286,0,0,0,0,4.265H10.4a.993.993,0,0,0-.949.749C9,37.3,8.2,38.275,7.642,38.275c-.849,0-2.135-2.285-2.135-5.732s1.28-5.732,2.129-5.732Z" fill="#fff"/>
      <path id="Trazado_896620" data-name="Trazado 896620" d="M47.371,56.15a4.371,4.371,0,1,0,4.371,4.371,4.371,4.371,0,0,0-4.371-4.371Zm0,6.831a2.435,2.435,0,1,1,2.435-2.435,2.435,2.435,0,0,1-2.435,2.435Z" transform="translate(-14.822 -19.761)" fill="#fff"/>
      <path id="Trazado_896621" data-name="Trazado 896621" d="M33.781,51.741a4.371,4.371,0,1,0-4.371-4.371,4.371,4.371,0,0,0,4.371,4.371Zm0-6.825a2.429,2.429,0,1,0,0,.012Z" transform="translate(-9.717 -14.822)" fill="#fff"/>
      <path id="Trazado_896622" data-name="Trazado 896622" d="M60.961,51.741a4.371,4.371,0,1,0-4.371-4.371A4.371,4.371,0,0,0,60.961,51.741Zm0-6.825a2.427,2.427,0,1,0,0,.012Z" transform="translate(-19.926 -14.822)" fill="#fff"/>
      <path id="Trazado_896623" data-name="Trazado 896623" d="M47.371,38.461A4.371,4.371,0,1,0,43,34.091a4.371,4.371,0,0,0,4.371,4.371Zm0-6.831a2.435,2.435,0,1,1-2.435,2.435A2.435,2.435,0,0,1,47.371,31.631Z" transform="translate(-14.822 -9.834)" fill="#fff"/>
    </g>
  </g>
</svg>
