<svg xmlns="http://www.w3.org/2000/svg" xmlns:xlink="http://www.w3.org/1999/xlink" width="88" height="88" viewBox="0 0 88 88">
  <defs>
    <filter id="Elipse_11680" x="0" y="0" width="88" height="88" filterUnits="userSpaceOnUse">
      <feOffset input="SourceAlpha"/>
      <feGaussianBlur stdDeviation="3" result="blur"/>
      <feFlood flood-opacity="0.161"/>
      <feComposite operator="in" in2="blur"/>
      <feComposite in="SourceGraphic"/>
    </filter>
  </defs>
  <g id="Grupo_1110779" data-name="Grupo 1110779" transform="translate(-861.051 -3353)">
    <g transform="matrix(1, 0, 0, 1, 861.05, 3353)" filter="url(#Elipse_11680)">
      <circle id="Elipse_11680-2" data-name="Elipse 11680" cx="35" cy="35" r="35" transform="translate(9 9)" fill="#fff"/>
    </g>
    <g id="Page-1" transform="translate(881.656 3373.128)">
      <g id="_001---Wheel-Barrow" data-name="001---Wheel-Barrow" transform="translate(0 -0.039)">
        <path id="Shape" d="M45.4,20.108H41.418a2.39,2.39,0,0,0-2.27,1.7,2.318,2.318,0,0,0-1.386,1.442l-1.314,2.628a2.78,2.78,0,0,0-1-.191H33.453A3.983,3.983,0,0,0,29.471,21.7a3.839,3.839,0,0,0-1,.127,5.576,5.576,0,0,0-2.844-3.489l.1-.271,1.227-4.277a1.593,1.593,0,0,0-1.083-1.983l-2.254-.645,2.318-7.734,1.537.446a.717.717,0,0,0,.223,0,.8.8,0,0,0,.8-.581.8.8,0,0,0-.613-.948l-2.254-.661-2.3-.693a.827.827,0,1,0-.446,1.593l1.521.438-2.31,7.726-2.35-.669a1.593,1.593,0,0,0-1.967,1.091l-1.227,4.293a4.962,4.962,0,0,0-.143.7h-.072A5.966,5.966,0,0,0,10.355,21.7a3.983,3.983,0,0,0-3.983,3.983H5.177a2.788,2.788,0,1,0,0,5.576h.048l3.027,3.274a8.165,8.165,0,0,0-1.083-.088A7.169,7.169,0,0,0,2.676,47.19H.8a.8.8,0,0,0,0,1.593H42.215a.8.8,0,0,0,0-1.593h-9.7a2.389,2.389,0,0,0,.143-.8V37.026l2.883-5.767a2.772,2.772,0,0,0,2.19-4.365L39.2,23.947l.143-.287a2.39,2.39,0,0,0,2.079,1.227H45.4a2.39,2.39,0,1,0,0-4.779ZM18.073,15.871,19.3,11.578l2.326.669-.685,2.286a.826.826,0,0,0,1.593.422l.685-2.3,2.27.653-1.227,4.277-.072.207a5.4,5.4,0,0,0-3.274.374,5.99,5.99,0,0,0-2.875-1.832,2.581,2.581,0,0,1,.032-.462Zm-7.1,7.511a2.613,2.613,0,0,1,.454.167.794.794,0,1,0,.7-1.426l-.183-.08A4.381,4.381,0,0,1,19.5,19.081a.794.794,0,0,0,1.123,1.107,3.544,3.544,0,0,1,.438-.3,3.847,3.847,0,0,1,2.039-.573,3.983,3.983,0,0,1,3.983,3.68.832.832,0,0,0,1.227.653,2.334,2.334,0,0,1,1.163-.35,2.39,2.39,0,0,1,2.39,2.39H7.965a2.39,2.39,0,0,1,3.011-2.3ZM31.327,36.126l-8.316,1.593-8.148,1.593L7.392,31.259H33.756ZM1.593,41.614a5.576,5.576,0,0,1,10.84-1.832l-1.593.311a3.983,3.983,0,1,0,.295,1.593l1.593-.3v.263a5.576,5.576,0,0,1-11.135-.032Zm5.727.8,2.238-.438a2.39,2.39,0,1,1-.3-1.593l-2.238.438a.811.811,0,0,0,.3,1.593Zm7.017-.8v-.573l8.435-1.593,4.516,7.742H11.661a7.169,7.169,0,0,0,2.676-5.576ZM29.59,47.19a.8.8,0,0,1-.693-.4l-4.5-7.7,6.667-1.29v8.594a.8.8,0,0,1-.8.8Zm5.854-17.523H5.177a1.195,1.195,0,1,1,0-2.39H35.445a1.195,1.195,0,1,1,0,2.39ZM45.4,23.294H41.418a.8.8,0,1,1,0-1.593H45.4a.8.8,0,1,1,0,1.593Z" transform="translate(0 -0.961)" fill="#ff7c32"/>
        <path id="Shape-2" data-name="Shape" d="M58.39,59H56.8a.8.8,0,0,0,0,1.593H58.39a.8.8,0,0,0,0-1.593Z" transform="translate(-11.396 -12.772)" fill="#ff7c32"/>
      </g>
    </g>
  </g>
</svg>
